999
dxfrw 0.6.3
  0
SECTION
  2
HEADER
  9
$ACADVER
  1
AC1021
  9
$DWGCODEPAGE
  3
ANSI_1252
  9
$INSBASE
 10
0
 20
0
 30
0
  9
$EXTMIN
 10
-70034
 20
-275
 30
0
  9
$EXTMAX
 10
75034
 20
2275
 30
0
  9
$LIMMIN
 10
0
 20
0
  9
$LIMMAX
 10
420
 20
297
  9
$ORTHOMODE
 70
    0
  9
$REGENMODE
 70
    1
  9
$FILLMODE
 70
    1
  9
$QTEXTMODE
 70
    0
  9
$MIRRTEXT
 70
    0
  9
$LTSCALE
 40
1
  9
$ATTMODE
 70
    0
  9
$TEXTSIZE
 40
2.5
  9
$TRACEWID
 40
15.68
  9
$TEXTSTYLE
  7
STANDARD
  9
$CLAYER
  8
0
  9
$CELTYPE
  6
BYLAYER
  9
$CECOLOR
 62
  256
  9
$CELTSCALE
 40
1
  9
$DISPSILH
 70
    0
  9
$DIMSCALE
 40
2.5
  9
$DIMASZ
 40
2.5
  9
$DIMEXO
 40
0.625
  9
$DIMDLI
 40
3.75
  9
$DIMRND
 40
0
  9
$DIMDLE
 40
0
  9
$DIMEXE
 40
1.25
  9
$DIMTP
 40
0
  9
$DIMTM
 40
0
  9
$DIMTXT
 40
2.5
  9
$DIMCEN
 40
2.5
  9
$DIMTSZ
 40
0
  9
$DIMTOL
 70
    0
  9
$DIMLIM
 70
    0
  9
$DIMTIH
 70
    0
  9
$DIMTOH
 70
    0
  9
$DIMSE1
 70
    0
  9
$DIMSE2
 70
    0
  9
$DIMTAD
 70
    1
  9
$DIMZIN
 70
    8
  9
$DIMBLK
  1

  9
$DIMASO
 70
    1
  9
$DIMSHO
 70
    1
  9
$DIMPOST
  1

  9
$DIMAPOST
  1

  9
$DIMALT
 70
    0
  9
$DIMALTD
 70
    3
  9
$DIMALTF
 40
0.03937
  9
$DIMLFAC
 40
1
  9
$DIMTOFL
 70
    1
  9
$DIMTVP
 40
0
  9
$DIMTIX
 70
    0
  9
$DIMSOXD
 70
    0
  9
$DIMSAH
 70
    0
  9
$DIMBLK1
  1

  9
$DIMBLK2
  1

  9
$DIMSTYLE
  2
STANDARD
  9
$DIMCLRD
 70
    0
  9
$DIMCLRE
 70
    0
  9
$DIMCLRT
 70
    0
  9
$DIMTFAC
 40
1
  9
$DIMGAP
 40
0.625
  9
$DIMJUST
 70
    0
  9
$DIMSD1
 70
    0
  9
$DIMSD2
 70
    0
  9
$DIMTOLJ
 70
    0
  9
$DIMTZIN
 70
    8
  9
$DIMALTZ
 70
    0
  9
$DIMALTTZ
 70
    0
  9
$DIMUPT
 70
    0
  9
$DIMDEC
 70
    2
  9
$DIMTDEC
 70
    2
  9
$DIMALTU
 70
    2
  9
$DIMALTTD
 70
    3
  9
$DIMTXSTY
  7
STANDARD
  9
$DIMAUNIT
 70
    0
  9
$DIMADEC
 70
    0
  9
$DIMALTRND
 40
0
  9
$DIMAZIN
 70
    0
  9
$DIMDSEP
 70
   44
  9
$DIMATFIT
 70
    3
  9
$DIMFRAC
 70
    0
  9
$DIMLDRBLK
  1
STANDARD
  9
$DIMLUNIT
 70
    2
  9
$DIMLWD
 70
   -2
  9
$DIMLWE
 70
   -2
  9
$DIMTMOVE
 70
    0
  9
$DIMFXL
 40
1
  9
$DIMFXLON
 70
    0
  9
$DIMJOGANG
 40
0.7854
  9
$DIMTFILL
 70
    0
  9
$DIMTFILLCLR
 70
    0
  9
$DIMARCSYM
 70
    0
  9
$DIMLTYPE
  6

  9
$DIMLTEX1
  6

  9
$DIMLTEX2
  6

  9
$LUNITS
 70
    2
  9
$LUPREC
 70
    4
  9
$SKETCHINC
 40
1
  9
$FILLETRAD
 40
0
  9
$AUNITS
 70
    0
  9
$AUPREC
 70
    2
  9
$MENU
  1
.
  9
$ELEVATION
 40
0
  9
$PELEVATION
 40
0
  9
$THICKNESS
 40
0
  9
$LIMCHECK
 70
    0
  9
$CHAMFERA
 40
0
  9
$CHAMFERB
 40
0
  9
$CHAMFERC
 40
0
  9
$CHAMFERD
 40
0
  9
$SKPOLY
 70
    0
  9
$USRTIMER
 70
    1
  9
$ANGBASE
 50
0
  9
$ANGDIR
 70
    0
  9
$PDMODE
 70
   34
  9
$PDSIZE
 40
0
  9
$PLINEWID
 40
0
  9
$SPLFRAME
 70
    0
  9
$SPLINETYPE
 70
    2
  9
$SPLINESEGS
 70
    8
  9
$HANDSEED
  5
20000
  9
$SURFTAB1
 70
    6
  9
$SURFTAB2
 70
    6
  9
$SURFTYPE
 70
    6
  9
$SURFU
 70
    6
  9
$SURFV
 70
    6
  9
$UCSBASE
  2

  9
$UCSNAME
  2

  9
$UCSORG
 10
0
 20
0
 30
0
  9
$UCSXDIR
 10
1
 20
0
 30
0
  9
$UCSYDIR
 10
0
 20
1
 30
0
  9
$UCSORTHOREF
  2

  9
$UCSORTHOVIEW
 70
    0
  9
$UCSORGTOP
 10
0
 20
0
 30
0
  9
$UCSORGBOTTOM
 10
0
 20
0
 30
0
  9
$UCSORGLEFT
 10
0
 20
0
 30
0
  9
$UCSORGRIGHT
 10
0
 20
0
 30
0
  9
$UCSORGFRONT
 10
0
 20
0
 30
0
  9
$UCSORGBACK
 10
0
 20
0
 30
0
  9
$PUCSBASE
  2

  9
$PUCSNAME
  2

  9
$PUCSORG
 10
0
 20
0
 30
0
  9
$PUCSXDIR
 10
1
 20
0
 30
0
  9
$PUCSYDIR
 10
0
 20
1
 30
0
  9
$PUCSORTHOREF
  2

  9
$PUCSORTHOVIEW
 70
    0
  9
$PUCSORGTOP
 10
0
 20
0
 30
0
  9
$PUCSORGBOTTOM
 10
0
 20
0
 30
0
  9
$PUCSORGLEFT
 10
0
 20
0
 30
0
  9
$PUCSORGRIGHT
 10
0
 20
0
 30
0
  9
$PUCSORGFRONT
 10
0
 20
0
 30
0
  9
$PUCSORGBACK
 10
0
 20
0
 30
0
  9
$USERI1
 70
    0
  9
$USERI2
 70
    0
  9
$USERI3
 70
    0
  9
$USERI4
 70
    0
  9
$USERI5
 70
    0
  9
$USERR1
 40
0
  9
$USERR2
 40
0
  9
$USERR3
 40
0
  9
$USERR4
 40
0
  9
$USERR5
 40
0
  9
$WORLDVIEW
 70
    1
  9
$SHADEDGE
 70
    3
  9
$SHADEDIF
 70
   70
  9
$TILEMODE
 70
    1
  9
$MAXACTVP
 70
   64
  9
$PINSBASE
 10
0
 20
0
 30
0
  9
$PLIMCHECK
 70
    0
  9
$PEXTMIN
 10
0
 20
0
 30
0
  9
$PEXTMAX
 10
0
 20
0
 30
0
  9
$SNAPSTYLE
 70
    0
  9
$PLIMMIN
 10
0
 20
0
  9
$PLIMMAX
 10
210000000
 20
297000000
  9
$UNITMODE
 70
    0
  9
$VISRETAIN
 70
    1
  9
$PLINEGEN
 70
    0
  9
$PSLTSCALE
 70
    1
  9
$TREEDEPTH
 70
 3020
  9
$CMLSTYLE
  2
Standard
  9
$CMLJUST
 70
    0
  9
$CMLSCALE
 40
20
  9
$PROXYGRAPHICS
 70
    1
  9
$MEASUREMENT
 70
    1
  9
$CELWEIGHT
370
   -1
  9
$ENDCAPS
280
    0
  9
$JOINSTYLE
280
    0
  9
$LWDISPLAY
290
    0
  9
$INSUNITS
 70
    0
  9
$HYPERLINKBASE
  1

  9
$STYLESHEET
  1

  9
$XEDIT
290
    1
  9
$CEPSNTYPE
380
    0
  9
$PSTYLEMODE
290
    1
  9
$EXTNAMES
290
    1
  9
$PSVPSCALE
 40
1
  9
$OLESTARTUP
290
    0
  9
$SORTENTS
280
  127
  9
$INDEXCTL
280
    0
  9
$HIDETEXT
280
    1
  9
$XCLIPFRAME
290
    0
  9
$HALOGAP
280
    0
  9
$OBSCOLOR
 70
  257
  9
$OBSLTYPE
280
    0
  9
$INTERSECTIONDISPLAY
280
    0
  9
$INTERSECTIONCOLOR
 70
  257
  9
$DIMASSOC
280
    1
  9
$PROJECTNAME
  1

  9
$CAMERADISPLAY
290
    0
  9
$LENSLENGTH
 40
50
  9
$CAMERAHEIGHT
 40
0
  9
$STEPSPERSEC
 40
2
  9
$STEPSIZE
 40
50
  9
$3DDWFPREC
 40
2
  9
$PSOLWIDTH
 40
5
  9
$PSOLHEIGHT
 40
80
  9
$LOFTANG1
 40
1.570796326794897
  9
$LOFTANG2
 40
1.570796326794897
  9
$LOFTMAG1
 40
0
  9
$LOFTMAG2
 40
0
  9
$LOFTPARAM
 70
    7
  9
$LOFTNORMALS
280
    1
  9
$LATITUDE
 40
1
  9
$LONGITUDE
 40
1
  9
$NORTHDIRECTION
 40
0
  9
$TIMEZONE
 70
-8000
  9
$LIGHTGLYPHDISPLAY
280
    1
  9
$TILEMODELIGHTSYNCH
280
    1
  9
$SOLIDHIST
280
    1
  9
$SHOWHIST
280
    1
  9
$DWFFRAME
280
    2
  9
$DGNFRAME
280
    0
  9
$REALWORLDSCALE
290
    1
  9
$INTERFERECOLOR
 62
    1
  9
$CSHADOW
280
    0
  9
$SHADOWPLANELOCATION
 40
0
  0
ENDSEC
  0
SECTION
  2
CLASSES
  0
ENDSEC
  0
SECTION
  2
TABLES
  0
TABLE
  2
VPORT
  5
8
330
0
100
AcDbSymbolTable
 70
    1
  0
VPORT
  5
31
330
2
100
AcDbSymbolTableRecord
100
AcDbViewportTableRecord
  2
*ACTIVE
 70
    0
 10
0
 20
0
 11
1
 21
1
 12
5234.809291837999
 22
3728.094617404627
 13
0
 23
0
 14
10
 24
10
 15
10
 25
10
 16
0
 26
0
 36
1
 17
0
 27
0
 37
0
 40
10624.38685839121
 41
1.794344473007712
 42
50
 43
0
 44
0
 50
0
 51
0
 71
    0
 72
  100
 73
    1
 74
    3
 75
    0
 76
    1
 77
    0
 78
    0
281
    0
 65
    1
110
0
120
0
130
0
111
1
121
0
131
0
112
0
122
1
132
0
 79
    0
146
0
348
10020
 60
    7
 61
    5
292
1
282
    1
141
0
142
0
 63
  250
421
3358443
  0
ENDTAB
  0
TABLE
  2
LTYPE
  5
5
330
0
100
AcDbSymbolTable
 70
    4
  0
LTYPE
  5
14
330
5
100
AcDbSymbolTableRecord
100
AcDbLinetypeTableRecord
  2
ByBlock
 70
    0
  3

 72
   65
 73
    0
 40
0
  0
LTYPE
  5
15
330
5
100
AcDbSymbolTableRecord
100
AcDbLinetypeTableRecord
  2
ByLayer
 70
    0
  3

 72
   65
 73
    0
 40
0
  0
LTYPE
  5
16
330
5
100
AcDbSymbolTableRecord
100
AcDbLinetypeTableRecord
  2
Continuous
 70
    0
  3
Solid line
 72
   65
 73
    0
 40
0
  0
LTYPE
  5
32
330
5
100
AcDbSymbolTableRecord
100
AcDbLinetypeTableRecord
  2
DOT
 70
    0
  3
Dot . . . . . . . . . . . . . . . . . . . . . .
 72
   65
 73
    2
 40
6.35
 49
0
 74
    0
 49
-6.35
 74
    0
  0
LTYPE
  5
33
330
5
100
AcDbSymbolTableRecord
100
AcDbLinetypeTableRecord
  2
DOTTINY
 70
    0
  3
Dot (.15x) .....................................
 72
   65
 73
    2
 40
0.9525
 49
0
 74
    0
 49
-0.9525
 74
    0
  0
LTYPE
  5
34
330
5
100
AcDbSymbolTableRecord
100
AcDbLinetypeTableRecord
  2
DOT2
 70
    0
  3
Dot (.5x) .....................................
 72
   65
 73
    2
 40
3.175
 49
0
 74
    0
 49
-3.175
 74
    0
  0
LTYPE
  5
35
330
5
100
AcDbSymbolTableRecord
100
AcDbLinetypeTableRecord
  2
DOTX2
 70
    0
  3
Dot (2x) .  .  .  .  .  .  .  .  .  .  .  .  .
 72
   65
 73
    2
 40
12.7
 49
0
 74
    0
 49
-12.7
 74
    0
  0
LTYPE
  5
36
330
5
100
AcDbSymbolTableRecord
100
AcDbLinetypeTableRecord
  2
DASHED
 70
    0
  3
Dashed _ _ _ _ _ _ _ _ _ _ _ _ _ _ _ _ _
 72
   65
 73
    2
 40
19.05
 49
12.7
 74
    0
 49
-6.35
 74
    0
  0
LTYPE
  5
37
330
5
100
AcDbSymbolTableRecord
100
AcDbLinetypeTableRecord
  2
DASHEDTINY
 70
    0
  3
Dashed (.15x) _ _ _ _ _ _ _ _ _ _ _ _ _ _ _ _ _
 72
   65
 73
    2
 40
2.8575
 49
1.905
 74
    0
 49
-0.9525
 74
    0
  0
LTYPE
  5
38
330
5
100
AcDbSymbolTableRecord
100
AcDbLinetypeTableRecord
  2
DASHED2
 70
    0
  3
Dashed (.5x) _ _ _ _ _ _ _ _ _ _ _ _ _ _ _ _ _
 72
   65
 73
    2
 40
9.524999999999999
 49
6.35
 74
    0
 49
-3.175
 74
    0
  0
LTYPE
  5
39
330
5
100
AcDbSymbolTableRecord
100
AcDbLinetypeTableRecord
  2
DASHEDX2
 70
    0
  3
Dashed (2x) ____  ____  ____  ____  ____  ___
 72
   65
 73
    2
 40
38.09999999999999
 49
25.4
 74
    0
 49
-12.7
 74
    0
  0
LTYPE
  5
3A
330
5
100
AcDbSymbolTableRecord
100
AcDbLinetypeTableRecord
  2
DASHDOT
 70
    0
  3
Dash dot __ . __ . __ . __ . __ . __ . __ . __
 72
   65
 73
    4
 40
25.4
 49
12.7
 74
    0
 49
-6.35
 74
    0
 49
0
 74
    0
 49
-6.35
 74
    0
  0
LTYPE
  5
3B
330
5
100
AcDbSymbolTableRecord
100
AcDbLinetypeTableRecord
  2
DASHDOTTINY
 70
    0
  3
Dash dot (.15x) _._._._._._._._._._._._._._._.
 72
   65
 73
    4
 40
3.81
 49
1.905
 74
    0
 49
-0.9525
 74
    0
 49
0
 74
    0
 49
-0.9525
 74
    0
  0
LTYPE
  5
3C
330
5
100
AcDbSymbolTableRecord
100
AcDbLinetypeTableRecord
  2
DASHDOT2
 70
    0
  3
Dash dot (.5x) _._._._._._._._._._._._._._._.
 72
   65
 73
    4
 40
12.7
 49
6.35
 74
    0
 49
-3.175
 74
    0
 49
0
 74
    0
 49
-3.175
 74
    0
  0
LTYPE
  5
3D
330
5
100
AcDbSymbolTableRecord
100
AcDbLinetypeTableRecord
  2
DASHDOTX2
 70
    0
  3
Dash dot (2x) ____  .  ____  .  ____  .  ___
 72
   65
 73
    4
 40
50.8
 49
25.4
 74
    0
 49
-12.7
 74
    0
 49
0
 74
    0
 49
-12.7
 74
    0
  0
LTYPE
  5
3E
330
5
100
AcDbSymbolTableRecord
100
AcDbLinetypeTableRecord
  2
DIVIDE
 70
    0
  3
Divide ____ . . ____ . . ____ . . ____ . . ____
 72
   65
 73
    6
 40
31.75
 49
12.7
 74
    0
 49
-6.35
 74
    0
 49
0
 74
    0
 49
-6.35
 74
    0
 49
0
 74
    0
 49
-6.35
 74
    0
  0
LTYPE
  5
3F
330
5
100
AcDbSymbolTableRecord
100
AcDbLinetypeTableRecord
  2
DIVIDETINY
 70
    0
  3
Divide (.15x) __..__..__..__..__..__..__..__.._
 72
   65
 73
    6
 40
4.7625
 49
1.905
 74
    0
 49
-0.9525
 74
    0
 49
0
 74
    0
 49
-0.9525
 74
    0
 49
0
 74
    0
 49
-0.9525
 74
    0
  0
LTYPE
  5
40
330
5
100
AcDbSymbolTableRecord
100
AcDbLinetypeTableRecord
  2
DIVIDE2
 70
    0
  3
Divide (.5x) __..__..__..__..__..__..__..__.._
 72
   65
 73
    6
 40
15.875
 49
6.35
 74
    0
 49
-3.175
 74
    0
 49
0
 74
    0
 49
-3.175
 74
    0
 49
0
 74
    0
 49
-3.175
 74
    0
  0
LTYPE
  5
41
330
5
100
AcDbSymbolTableRecord
100
AcDbLinetypeTableRecord
  2
DIVIDEX2
 70
    0
  3
Divide (2x) ________  .  .  ________  .  .  _
 72
   65
 73
    6
 40
63.5
 49
25.4
 74
    0
 49
-12.7
 74
    0
 49
0
 74
    0
 49
-12.7
 74
    0
 49
0
 74
    0
 49
-12.7
 74
    0
  0
LTYPE
  5
42
330
5
100
AcDbSymbolTableRecord
100
AcDbLinetypeTableRecord
  2
BORDER
 70
    0
  3
Border __ __ . __ __ . __ __ . __ __ . __ __ .
 72
   65
 73
    6
 40
44.45
 49
12.7
 74
    0
 49
-6.35
 74
    0
 49
12.7
 74
    0
 49
-6.35
 74
    0
 49
0
 74
    0
 49
-6.35
 74
    0
  0
LTYPE
  5
43
330
5
100
AcDbSymbolTableRecord
100
AcDbLinetypeTableRecord
  2
BORDERTINY
 70
    0
  3
Border (.15x) __.__.__.__.__.__.__.__.__.__.__.
 72
   65
 73
    6
 40
6.6675
 49
1.905
 74
    0
 49
-0.9525
 74
    0
 49
1.905
 74
    0
 49
-0.9525
 74
    0
 49
0
 74
    0
 49
-0.9525
 74
    0
  0
LTYPE
  5
44
330
5
100
AcDbSymbolTableRecord
100
AcDbLinetypeTableRecord
  2
BORDER2
 70
    0
  3
Border (.5x) __.__.__.__.__.__.__.__.__.__.__.
 72
   65
 73
    6
 40
22.225
 49
6.35
 74
    0
 49
-3.175
 74
    0
 49
6.35
 74
    0
 49
-3.175
 74
    0
 49
0
 74
    0
 49
-3.175
 74
    0
  0
LTYPE
  5
45
330
5
100
AcDbSymbolTableRecord
100
AcDbLinetypeTableRecord
  2
BORDERX2
 70
    0
  3
Border (2x) ____  ____  .  ____  ____  .  ___
 72
   65
 73
    6
 40
88.89999999999999
 49
25.4
 74
    0
 49
-12.7
 74
    0
 49
25.4
 74
    0
 49
-12.7
 74
    0
 49
0
 74
    0
 49
-12.7
 74
    0
  0
LTYPE
  5
46
330
5
100
AcDbSymbolTableRecord
100
AcDbLinetypeTableRecord
  2
CENTER
 70
    0
  3
Center ____ _ ____ _ ____ _ ____ _ ____ _ ____
 72
   65
 73
    4
 40
50.8
 49
31.75
 74
    0
 49
-6.35
 74
    0
 49
6.35
 74
    0
 49
-6.35
 74
    0
  0
LTYPE
  5
47
330
5
100
AcDbSymbolTableRecord
100
AcDbLinetypeTableRecord
  2
CENTERTINY
 70
    0
  3
Center (.15x) ___ _ ___ _ ___ _ ___ _ ___ _ ___
 72
   65
 73
    4
 40
7.62
 49
4.7625
 74
    0
 49
-0.9525
 74
    0
 49
0.9525
 74
    0
 49
-0.9525
 74
    0
  0
LTYPE
  5
48
330
5
100
AcDbSymbolTableRecord
100
AcDbLinetypeTableRecord
  2
CENTER2
 70
    0
  3
Center (.5x) ___ _ ___ _ ___ _ ___ _ ___ _ ___
 72
   65
 73
    4
 40
28.575
 49
19.05
 74
    0
 49
-3.175
 74
    0
 49
3.175
 74
    0
 49
-3.175
 74
    0
  0
LTYPE
  5
49
330
5
100
AcDbSymbolTableRecord
100
AcDbLinetypeTableRecord
  2
CENTERX2
 70
    0
  3
Center (2x) ________  __  ________  __  _____
 72
   65
 73
    4
 40
101.6
 49
63.5
 74
    0
 49
-12.7
 74
    0
 49
12.7
 74
    0
 49
-12.7
 74
    0
  0
ENDTAB
  0
TABLE
  2
LAYER
  5
2
330
0
100
AcDbSymbolTable
 70
    1
  0
LAYER
  5
10
330
2
100
AcDbSymbolTableRecord
100
AcDbLayerTableRecord
  2
0
 70
    0
 62
    7
  6
CONTINUOUS
370
    0
390
F
  0
ENDTAB
  0
TABLE
  2
STYLE
  5
3
330
0
100
AcDbSymbolTable
 70
    3
  0
STYLE
  5
4A
330
2
100
AcDbSymbolTableRecord
100
AcDbTextStyleTableRecord
  2
Standard
 70
    0
 40
0
 41
1
 50
0
 71
    0
 42
1
  3
txt
  4

  0
ENDTAB
  0
TABLE
  2
VIEW
  5
6
330
0
100
AcDbSymbolTable
 70
    0
  0
ENDTAB
  0
TABLE
  2
UCS
  5
7
330
0
100
AcDbSymbolTable
 70
    0
  0
ENDTAB
  0
TABLE
  2
APPID
  5
9
330
0
100
AcDbSymbolTable
 70
    1
  0
APPID
  5
12
330
9
100
AcDbSymbolTableRecord
100
AcDbRegAppTableRecord
  2
ACAD
 70
    0
  0
APPID
  5
4B
330
9
100
AcDbSymbolTableRecord
100
AcDbRegAppTableRecord
  2
LibreCad
 70
    0
  0
ENDTAB
  0
TABLE
  2
DIMSTYLE
  5
A
330
0
100
AcDbSymbolTable
 70
    1
100
AcDbDimStyleTable
 71
    1
  0
DIMSTYLE
105
4C
330
A
100
AcDbSymbolTableRecord
100
AcDbDimStyleTableRecord
  2
Standard
 70
    0
 40
1
 41
2.5
 42
0.625
 43
0.38
 44
1.25
 45
0
 46
0
 47
0
 48
0
 49
1
140
2.5
141
0.09
142
2.5
143
25.4
144
1
145
0
146
1
147
0.625
148
0
 71
    0
 72
    0
 73
    0
 74
    1
 75
    0
 76
    0
 77
    0
 78
    1
 79
    0
170
    0
171
    2
172
    0
173
    0
174
    0
175
    0
176
    0
177
    0
178
    0
179
    0
271
    2
272
    4
273
    2
274
    2
275
    0
276
    0
277
    2
278
    0
279
    0
280
    0
281
    0
282
    0
283
    1
284
    0
285
    0
286
    0
288
    0
289
    3
340
standard
341

371
   -2
372
   -2
  0
ENDTAB
  0
TABLE
  2
BLOCK_RECORD
  5
1
330
0
100
AcDbSymbolTable
 70
    2
  0
BLOCK_RECORD
  5
1F
330
1
100
AcDbSymbolTableRecord
100
AcDbBlockTableRecord
  2
*Model_Space
 70
    0
280
    1
281
    0
  0
BLOCK_RECORD
  5
1E
330
1
100
AcDbSymbolTableRecord
100
AcDbBlockTableRecord
  2
*Paper_Space
 70
    0
280
    1
281
    0
  0
BLOCK_RECORD
  5
4D
330
1
100
AcDbSymbolTableRecord
100
AcDbBlockTableRecord
  2
WWL2_Begin_0-EEL2_End_0-1
 70
    0
280
    1
281
    0
  0
BLOCK_RECORD
  5
50
330
1
100
AcDbSymbolTableRecord
100
AcDbBlockTableRecord
  2
WWL2_Begin_1-EEL2_End_1-1
 70
    0
280
    1
281
    0
  0
BLOCK_RECORD
  5
53
330
1
100
AcDbSymbolTableRecord
100
AcDbBlockTableRecord
  2
WWL2_Begin_2-EEL2_End_2-1
 70
    0
280
    1
281
    0
  0
BLOCK_RECORD
  5
56
330
1
100
AcDbSymbolTableRecord
100
AcDbBlockTableRecord
  2
WWL2_Begin_3-EEL2_End_3-1
 70
    0
280
    1
281
    0
  0
BLOCK_RECORD
  5
59
330
1
100
AcDbSymbolTableRecord
100
AcDbBlockTableRecord
  2
WWL2_Begin_4-EEL2_End_4-1
 70
    0
280
    1
281
    0
  0
BLOCK_RECORD
  5
5C
330
1
100
AcDbSymbolTableRecord
100
AcDbBlockTableRecord
  2
WWL2_Begin_5-EEL2_End_5-1
 70
    0
280
    1
281
    0
  0
BLOCK_RECORD
  5
5F
330
1
100
AcDbSymbolTableRecord
100
AcDbBlockTableRecord
  2
WWL2_Begin_6-EEL2_End_6-1
 70
    0
280
    1
281
    0
  0
BLOCK_RECORD
  5
62
330
1
100
AcDbSymbolTableRecord
100
AcDbBlockTableRecord
  2
WWL2_Begin_7-EEL2_End_7-1
 70
    0
280
    1
281
    0
  0
BLOCK_RECORD
  5
65
330
1
100
AcDbSymbolTableRecord
100
AcDbBlockTableRecord
  2
WWL3_Begin_0-EEL3_End_0-1
 70
    0
280
    1
281
    0
  0
BLOCK_RECORD
  5
68
330
1
100
AcDbSymbolTableRecord
100
AcDbBlockTableRecord
  2
WWL3_Begin_1-EEL3_End_1-1
 70
    0
280
    1
281
    0
  0
BLOCK_RECORD
  5
6B
330
1
100
AcDbSymbolTableRecord
100
AcDbBlockTableRecord
  2
WWL3_Begin_2-EEL3_End_2-1
 70
    0
280
    1
281
    0
  0
BLOCK_RECORD
  5
6E
330
1
100
AcDbSymbolTableRecord
100
AcDbBlockTableRecord
  2
WWL3_Begin_3-EEL3_End_3-1
 70
    0
280
    1
281
    0
  0
BLOCK_RECORD
  5
71
330
1
100
AcDbSymbolTableRecord
100
AcDbBlockTableRecord
  2
WWL3_Begin_4-EEL3_End_4-1
 70
    0
280
    1
281
    0
  0
BLOCK_RECORD
  5
74
330
1
100
AcDbSymbolTableRecord
100
AcDbBlockTableRecord
  2
WWL3_Begin_5-EEL3_End_5-1
 70
    0
280
    1
281
    0
  0
BLOCK_RECORD
  5
77
330
1
100
AcDbSymbolTableRecord
100
AcDbBlockTableRecord
  2
WWL3_Begin_6-EEL3_End_6-1
 70
    0
280
    1
281
    0
  0
BLOCK_RECORD
  5
7A
330
1
100
AcDbSymbolTableRecord
100
AcDbBlockTableRecord
  2
WWL3_Begin_7-EEL3_End_7-1
 70
    0
280
    1
281
    0
  0
BLOCK_RECORD
  5
7D
330
1
100
AcDbSymbolTableRecord
100
AcDbBlockTableRecord
  2
WWL4_Begin_0-EEL4_End_0-1
 70
    0
280
    1
281
    0
  0
BLOCK_RECORD
  5
80
330
1
100
AcDbSymbolTableRecord
100
AcDbBlockTableRecord
  2
WWL4_Begin_1-EEL4_End_1-1
 70
    0
280
    1
281
    0
  0
BLOCK_RECORD
  5
83
330
1
100
AcDbSymbolTableRecord
100
AcDbBlockTableRecord
  2
WWL4_Begin_2-EEL4_End_2-1
 70
    0
280
    1
281
    0
  0
BLOCK_RECORD
  5
86
330
1
100
AcDbSymbolTableRecord
100
AcDbBlockTableRecord
  2
WWL4_Begin_3-EEL4_End_3-1
 70
    0
280
    1
281
    0
  0
BLOCK_RECORD
  5
89
330
1
100
AcDbSymbolTableRecord
100
AcDbBlockTableRecord
  2
WWL4_Begin_4-EEL4_End_4-1
 70
    0
280
    1
281
    0
  0
BLOCK_RECORD
  5
8C
330
1
100
AcDbSymbolTableRecord
100
AcDbBlockTableRecord
  2
WWL4_Begin_5-EEL4_End_5-1
 70
    0
280
    1
281
    0
  0
BLOCK_RECORD
  5
8F
330
1
100
AcDbSymbolTableRecord
100
AcDbBlockTableRecord
  2
WWL6_Begin_0-EEL6_End_0-1
 70
    0
280
    1
281
    0
  0
BLOCK_RECORD
  5
92
330
1
100
AcDbSymbolTableRecord
100
AcDbBlockTableRecord
  2
WWL6_Begin_1-EEL6_End_1-1
 70
    0
280
    1
281
    0
  0
BLOCK_RECORD
  5
95
330
1
100
AcDbSymbolTableRecord
100
AcDbBlockTableRecord
  2
WWL6_Begin_2-EEL6_End_2-1
 70
    0
280
    1
281
    0
  0
BLOCK_RECORD
  5
98
330
1
100
AcDbSymbolTableRecord
100
AcDbBlockTableRecord
  2
WWL6_Begin_3-EEL6_End_3-1
 70
    0
280
    1
281
    0
  0
BLOCK_RECORD
  5
9B
330
1
100
AcDbSymbolTableRecord
100
AcDbBlockTableRecord
  2
WWL6_Begin_4-EEL6_End_4-1
 70
    0
280
    1
281
    0
  0
BLOCK_RECORD
  5
9E
330
1
100
AcDbSymbolTableRecord
100
AcDbBlockTableRecord
  2
WWL6_Begin_5-EEL6_End_5-1
 70
    0
280
    1
281
    0
  0
BLOCK_RECORD
  5
A1
330
1
100
AcDbSymbolTableRecord
100
AcDbBlockTableRecord
  2
WWL6_Begin_6-EEL6_End_6-1
 70
    0
280
    1
281
    0
  0
BLOCK_RECORD
  5
A4
330
1
100
AcDbSymbolTableRecord
100
AcDbBlockTableRecord
  2
WWL6_Begin_7-EEL6_End_7-1
 70
    0
280
    1
281
    0
  0
BLOCK_RECORD
  5
A7
330
1
100
AcDbSymbolTableRecord
100
AcDbBlockTableRecord
  2
WWL14_Begin_0-EEL14_End_0-1
 70
    0
280
    1
281
    0
  0
BLOCK_RECORD
  5
AA
330
1
100
AcDbSymbolTableRecord
100
AcDbBlockTableRecord
  2
WWL14_Begin_1-EEL14_End_1-1
 70
    0
280
    1
281
    0
  0
BLOCK_RECORD
  5
AD
330
1
100
AcDbSymbolTableRecord
100
AcDbBlockTableRecord
  2
WWL14_Begin_2-EEL14_End_2-1
 70
    0
280
    1
281
    0
  0
BLOCK_RECORD
  5
B0
330
1
100
AcDbSymbolTableRecord
100
AcDbBlockTableRecord
  2
WWL14_Begin_3-EEL14_End_3-1
 70
    0
280
    1
281
    0
  0
BLOCK_RECORD
  5
B3
330
1
100
AcDbSymbolTableRecord
100
AcDbBlockTableRecord
  2
EEL2_Begin_0-WWL2_End_0-1
 70
    0
280
    1
281
    0
  0
BLOCK_RECORD
  5
B6
330
1
100
AcDbSymbolTableRecord
100
AcDbBlockTableRecord
  2
EEL2_Begin_1-WWL2_End_1-1
 70
    0
280
    1
281
    0
  0
BLOCK_RECORD
  5
B9
330
1
100
AcDbSymbolTableRecord
100
AcDbBlockTableRecord
  2
EEL2_Begin_2-WWL2_End_2-1
 70
    0
280
    1
281
    0
  0
BLOCK_RECORD
  5
BC
330
1
100
AcDbSymbolTableRecord
100
AcDbBlockTableRecord
  2
EEL2_Begin_3-WWL2_End_3-1
 70
    0
280
    1
281
    0
  0
BLOCK_RECORD
  5
BF
330
1
100
AcDbSymbolTableRecord
100
AcDbBlockTableRecord
  2
EEL2_Begin_4-WWL2_End_4-1
 70
    0
280
    1
281
    0
  0
BLOCK_RECORD
  5
C2
330
1
100
AcDbSymbolTableRecord
100
AcDbBlockTableRecord
  2
EEL2_Begin_5-WWL2_End_5-1
 70
    0
280
    1
281
    0
  0
BLOCK_RECORD
  5
C5
330
1
100
AcDbSymbolTableRecord
100
AcDbBlockTableRecord
  2
EEL2_Begin_6-WWL2_End_6-1
 70
    0
280
    1
281
    0
  0
BLOCK_RECORD
  5
C8
330
1
100
AcDbSymbolTableRecord
100
AcDbBlockTableRecord
  2
EEL2_Begin_7-WWL2_End_7-1
 70
    0
280
    1
281
    0
  0
BLOCK_RECORD
  5
CB
330
1
100
AcDbSymbolTableRecord
100
AcDbBlockTableRecord
  2
EEL3_Begin_0-WWL3_End_0-1
 70
    0
280
    1
281
    0
  0
BLOCK_RECORD
  5
CE
330
1
100
AcDbSymbolTableRecord
100
AcDbBlockTableRecord
  2
EEL3_Begin_1-WWL3_End_1-1
 70
    0
280
    1
281
    0
  0
BLOCK_RECORD
  5
D1
330
1
100
AcDbSymbolTableRecord
100
AcDbBlockTableRecord
  2
EEL3_Begin_2-WWL3_End_2-1
 70
    0
280
    1
281
    0
  0
BLOCK_RECORD
  5
D4
330
1
100
AcDbSymbolTableRecord
100
AcDbBlockTableRecord
  2
EEL3_Begin_3-WWL3_End_3-1
 70
    0
280
    1
281
    0
  0
BLOCK_RECORD
  5
D7
330
1
100
AcDbSymbolTableRecord
100
AcDbBlockTableRecord
  2
EEL3_Begin_4-WWL3_End_4-1
 70
    0
280
    1
281
    0
  0
BLOCK_RECORD
  5
DA
330
1
100
AcDbSymbolTableRecord
100
AcDbBlockTableRecord
  2
EEL3_Begin_5-WWL3_End_5-1
 70
    0
280
    1
281
    0
  0
BLOCK_RECORD
  5
DD
330
1
100
AcDbSymbolTableRecord
100
AcDbBlockTableRecord
  2
EEL3_Begin_6-WWL3_End_6-1
 70
    0
280
    1
281
    0
  0
BLOCK_RECORD
  5
E0
330
1
100
AcDbSymbolTableRecord
100
AcDbBlockTableRecord
  2
EEL3_Begin_7-WWL3_End_7-1
 70
    0
280
    1
281
    0
  0
BLOCK_RECORD
  5
E3
330
1
100
AcDbSymbolTableRecord
100
AcDbBlockTableRecord
  2
EEL4_Begin_0-WWL4_End_0-1
 70
    0
280
    1
281
    0
  0
BLOCK_RECORD
  5
E6
330
1
100
AcDbSymbolTableRecord
100
AcDbBlockTableRecord
  2
EEL4_Begin_1-WWL4_End_1-1
 70
    0
280
    1
281
    0
  0
BLOCK_RECORD
  5
E9
330
1
100
AcDbSymbolTableRecord
100
AcDbBlockTableRecord
  2
EEL4_Begin_2-WWL4_End_2-1
 70
    0
280
    1
281
    0
  0
BLOCK_RECORD
  5
EC
330
1
100
AcDbSymbolTableRecord
100
AcDbBlockTableRecord
  2
EEL4_Begin_3-WWL4_End_3-1
 70
    0
280
    1
281
    0
  0
BLOCK_RECORD
  5
EF
330
1
100
AcDbSymbolTableRecord
100
AcDbBlockTableRecord
  2
EEL4_Begin_4-WWL4_End_4-1
 70
    0
280
    1
281
    0
  0
BLOCK_RECORD
  5
F2
330
1
100
AcDbSymbolTableRecord
100
AcDbBlockTableRecord
  2
EEL4_Begin_5-WWL4_End_5-1
 70
    0
280
    1
281
    0
  0
BLOCK_RECORD
  5
F5
330
1
100
AcDbSymbolTableRecord
100
AcDbBlockTableRecord
  2
EEL6_Begin_0-WWL6_End_0-1
 70
    0
280
    1
281
    0
  0
BLOCK_RECORD
  5
F8
330
1
100
AcDbSymbolTableRecord
100
AcDbBlockTableRecord
  2
EEL6_Begin_1-WWL6_End_1-1
 70
    0
280
    1
281
    0
  0
BLOCK_RECORD
  5
FB
330
1
100
AcDbSymbolTableRecord
100
AcDbBlockTableRecord
  2
EEL6_Begin_2-WWL6_End_2-1
 70
    0
280
    1
281
    0
  0
BLOCK_RECORD
  5
FE
330
1
100
AcDbSymbolTableRecord
100
AcDbBlockTableRecord
  2
EEL6_Begin_3-WWL6_End_3-1
 70
    0
280
    1
281
    0
  0
BLOCK_RECORD
  5
101
330
1
100
AcDbSymbolTableRecord
100
AcDbBlockTableRecord
  2
EEL6_Begin_4-WWL6_End_4-1
 70
    0
280
    1
281
    0
  0
BLOCK_RECORD
  5
104
330
1
100
AcDbSymbolTableRecord
100
AcDbBlockTableRecord
  2
EEL6_Begin_5-WWL6_End_5-1
 70
    0
280
    1
281
    0
  0
BLOCK_RECORD
  5
107
330
1
100
AcDbSymbolTableRecord
100
AcDbBlockTableRecord
  2
EEL6_Begin_6-WWL6_End_6-1
 70
    0
280
    1
281
    0
  0
BLOCK_RECORD
  5
10A
330
1
100
AcDbSymbolTableRecord
100
AcDbBlockTableRecord
  2
EEL6_Begin_7-WWL6_End_7-1
 70
    0
280
    1
281
    0
  0
BLOCK_RECORD
  5
10D
330
1
100
AcDbSymbolTableRecord
100
AcDbBlockTableRecord
  2
EEL14_Begin_0-WWL14_End_0-1
 70
    0
280
    1
281
    0
  0
BLOCK_RECORD
  5
110
330
1
100
AcDbSymbolTableRecord
100
AcDbBlockTableRecord
  2
EEL14_Begin_1-WWL14_End_1-1
 70
    0
280
    1
281
    0
  0
BLOCK_RECORD
  5
113
330
1
100
AcDbSymbolTableRecord
100
AcDbBlockTableRecord
  2
EEL14_Begin_2-WWL14_End_2-1
 70
    0
280
    1
281
    0
  0
BLOCK_RECORD
  5
116
330
1
100
AcDbSymbolTableRecord
100
AcDbBlockTableRecord
  2
EEL14_Begin_3-WWL14_End_3-1
 70
    0
280
    1
281
    0
  0
ENDTAB
  0
ENDSEC
  0
SECTION
  2
BLOCKS
  0
BLOCK
  5
20
330
1F
100
AcDbEntity
  8
0
100
AcDbBlockBegin
  2
*Model_Space
 70
    0
 10
0
 20
0
 30
0
  3
*Model_Space
  1

  0
ENDBLK
  5
21
330
1F
100
AcDbEntity
  8
0
100
AcDbBlockEnd
  0
BLOCK
  5
1C
330
1B
100
AcDbEntity
  8
0
100
AcDbBlockBegin
  2
*Paper_Space
 70
    0
 10
0
 20
0
 30
0
  3
*Paper_Space
  1

  0
ENDBLK
  5
1D
330
1F
100
AcDbEntity
  8
0
100
AcDbBlockEnd
  0
BLOCK
  5
4E
330
4D
100
AcDbEntity
  8
0
100
AcDbBlockBegin
  2
WWL2_Begin_0-EEL2_End_0-1
 70
    0
 10
0
 20
0
  3
WWL2_Begin_0-EEL2_End_0-1
  1

  0
LWPOLYLINE
  5
119
100
AcDbEntity
  8
0
  6
ByLayer
 62
  256
370
   -1
100
AcDbPolyline
 90
    8
 70
    0
 43
0
 10
0
 20
0
 10
0
 20
108
 10
-8154
 20
108
 10
-8154
 20
116
 10
-9470
 20
116
 10
-9470
 20
-2116
 10
-8984
 20
-2116
 10
-8984
 20
-2000
  0
ENDBLK
  5
4F
330
4D
100
AcDbEntity
  8
0
100
AcDbBlockEnd
  0
BLOCK
  5
51
330
50
100
AcDbEntity
  8
0
100
AcDbBlockBegin
  2
WWL2_Begin_1-EEL2_End_1-1
 70
    0
 10
0
 20
0
  3
WWL2_Begin_1-EEL2_End_1-1
  1

  0
LWPOLYLINE
  5
11A
100
AcDbEntity
  8
0
  6
ByLayer
 62
  256
370
   -1
100
AcDbPolyline
 90
    8
 70
    0
 43
0
 10
0
 20
0
 10
0
 20
109
 10
-8154
 20
109
 10
-8154
 20
117
 10
-9475
 20
117
 10
-9475
 20
-2117
 10
-8984
 20
-2117
 10
-8984
 20
-2000
  0
ENDBLK
  5
52
330
50
100
AcDbEntity
  8
0
100
AcDbBlockEnd
  0
BLOCK
  5
54
330
53
100
AcDbEntity
  8
0
100
AcDbBlockBegin
  2
WWL2_Begin_2-EEL2_End_2-1
 70
    0
 10
0
 20
0
  3
WWL2_Begin_2-EEL2_End_2-1
  1

  0
LWPOLYLINE
  5
11B
100
AcDbEntity
  8
0
  6
ByLayer
 62
  256
370
   -1
100
AcDbPolyline
 90
    8
 70
    0
 43
0
 10
0
 20
0
 10
0
 20
110
 10
-8154
 20
110
 10
-8154
 20
118
 10
-9480
 20
118
 10
-9480
 20
-2118
 10
-8984
 20
-2118
 10
-8984
 20
-2000
  0
ENDBLK
  5
55
330
53
100
AcDbEntity
  8
0
100
AcDbBlockEnd
  0
BLOCK
  5
57
330
56
100
AcDbEntity
  8
0
100
AcDbBlockBegin
  2
WWL2_Begin_3-EEL2_End_3-1
 70
    0
 10
0
 20
0
  3
WWL2_Begin_3-EEL2_End_3-1
  1

  0
LWPOLYLINE
  5
11C
100
AcDbEntity
  8
0
  6
ByLayer
 62
  256
370
   -1
100
AcDbPolyline
 90
    8
 70
    0
 43
0
 10
0
 20
0
 10
0
 20
111
 10
-8154
 20
111
 10
-8154
 20
119
 10
-9485
 20
119
 10
-9485
 20
-2119
 10
-8984
 20
-2119
 10
-8984
 20
-2000
  0
ENDBLK
  5
58
330
56
100
AcDbEntity
  8
0
100
AcDbBlockEnd
  0
BLOCK
  5
5A
330
59
100
AcDbEntity
  8
0
100
AcDbBlockBegin
  2
WWL2_Begin_4-EEL2_End_4-1
 70
    0
 10
0
 20
0
  3
WWL2_Begin_4-EEL2_End_4-1
  1

  0
LWPOLYLINE
  5
11D
100
AcDbEntity
  8
0
  6
ByLayer
 62
  256
370
   -1
100
AcDbPolyline
 90
    8
 70
    0
 43
0
 10
0
 20
0
 10
0
 20
112
 10
-8154
 20
112
 10
-8154
 20
120
 10
-9490
 20
120
 10
-9490
 20
-2120
 10
-8984
 20
-2120
 10
-8984
 20
-2000
  0
ENDBLK
  5
5B
330
59
100
AcDbEntity
  8
0
100
AcDbBlockEnd
  0
BLOCK
  5
5D
330
5C
100
AcDbEntity
  8
0
100
AcDbBlockBegin
  2
WWL2_Begin_5-EEL2_End_5-1
 70
    0
 10
0
 20
0
  3
WWL2_Begin_5-EEL2_End_5-1
  1

  0
LWPOLYLINE
  5
11E
100
AcDbEntity
  8
0
  6
ByLayer
 62
  256
370
   -1
100
AcDbPolyline
 90
    8
 70
    0
 43
0
 10
0
 20
0
 10
0
 20
113
 10
-8154
 20
113
 10
-8154
 20
121
 10
-9495
 20
121
 10
-9495
 20
-2121
 10
-8984
 20
-2121
 10
-8984
 20
-2000
  0
ENDBLK
  5
5E
330
5C
100
AcDbEntity
  8
0
100
AcDbBlockEnd
  0
BLOCK
  5
60
330
5F
100
AcDbEntity
  8
0
100
AcDbBlockBegin
  2
WWL2_Begin_6-EEL2_End_6-1
 70
    0
 10
0
 20
0
  3
WWL2_Begin_6-EEL2_End_6-1
  1

  0
LWPOLYLINE
  5
11F
100
AcDbEntity
  8
0
  6
ByLayer
 62
  256
370
   -1
100
AcDbPolyline
 90
    8
 70
    0
 43
0
 10
0
 20
0
 10
0
 20
114
 10
-8154
 20
114
 10
-8154
 20
122
 10
-9500
 20
122
 10
-9500
 20
-2122
 10
-8984
 20
-2122
 10
-8984
 20
-2000
  0
ENDBLK
  5
61
330
5F
100
AcDbEntity
  8
0
100
AcDbBlockEnd
  0
BLOCK
  5
63
330
62
100
AcDbEntity
  8
0
100
AcDbBlockBegin
  2
WWL2_Begin_7-EEL2_End_7-1
 70
    0
 10
0
 20
0
  3
WWL2_Begin_7-EEL2_End_7-1
  1

  0
LWPOLYLINE
  5
120
100
AcDbEntity
  8
0
  6
ByLayer
 62
  256
370
   -1
100
AcDbPolyline
 90
    8
 70
    0
 43
0
 10
0
 20
0
 10
0
 20
115
 10
-8154
 20
115
 10
-8154
 20
123
 10
-9505
 20
123
 10
-9505
 20
-2123
 10
-8984
 20
-2123
 10
-8984
 20
-2000
  0
ENDBLK
  5
64
330
62
100
AcDbEntity
  8
0
100
AcDbBlockEnd
  0
BLOCK
  5
66
330
65
100
AcDbEntity
  8
0
100
AcDbBlockBegin
  2
WWL3_Begin_0-EEL3_End_0-1
 70
    0
 10
0
 20
0
  3
WWL3_Begin_0-EEL3_End_0-1
  1

  0
LWPOLYLINE
  5
121
100
AcDbEntity
  8
0
  6
ByLayer
 62
  256
370
   -1
100
AcDbPolyline
 90
   10
 70
    0
 43
0
 10
0
 20
0
 10
0
 20
124
 10
-8122
 20
124
 10
-8122
 20
132
 10
-9454
 20
132
 10
-9454
 20
-2132
 10
-8154
 20
-2132
 10
-8154
 20
-2140
 10
16
 20
-2140
 10
16
 20
-2000
  0
ENDBLK
  5
67
330
65
100
AcDbEntity
  8
0
100
AcDbBlockEnd
  0
BLOCK
  5
69
330
68
100
AcDbEntity
  8
0
100
AcDbBlockBegin
  2
WWL3_Begin_1-EEL3_End_1-1
 70
    0
 10
0
 20
0
  3
WWL3_Begin_1-EEL3_End_1-1
  1

  0
LWPOLYLINE
  5
122
100
AcDbEntity
  8
0
  6
ByLayer
 62
  256
370
   -1
100
AcDbPolyline
 90
   10
 70
    0
 43
0
 10
0
 20
0
 10
0
 20
125
 10
-8122
 20
125
 10
-8122
 20
133
 10
-9459
 20
133
 10
-9459
 20
-2133
 10
-8162
 20
-2133
 10
-8162
 20
-2141
 10
16
 20
-2141
 10
16
 20
-2000
  0
ENDBLK
  5
6A
330
68
100
AcDbEntity
  8
0
100
AcDbBlockEnd
  0
BLOCK
  5
6C
330
6B
100
AcDbEntity
  8
0
100
AcDbBlockBegin
  2
WWL3_Begin_2-EEL3_End_2-1
 70
    0
 10
0
 20
0
  3
WWL3_Begin_2-EEL3_End_2-1
  1

  0
LWPOLYLINE
  5
123
100
AcDbEntity
  8
0
  6
ByLayer
 62
  256
370
   -1
100
AcDbPolyline
 90
   10
 70
    0
 43
0
 10
0
 20
0
 10
0
 20
126
 10
-8122
 20
126
 10
-8122
 20
134
 10
-9464
 20
134
 10
-9464
 20
-2134
 10
-8170
 20
-2134
 10
-8170
 20
-2142
 10
16
 20
-2142
 10
16
 20
-2000
  0
ENDBLK
  5
6D
330
6B
100
AcDbEntity
  8
0
100
AcDbBlockEnd
  0
BLOCK
  5
6F
330
6E
100
AcDbEntity
  8
0
100
AcDbBlockBegin
  2
WWL3_Begin_3-EEL3_End_3-1
 70
    0
 10
0
 20
0
  3
WWL3_Begin_3-EEL3_End_3-1
  1

  0
LWPOLYLINE
  5
124
100
AcDbEntity
  8
0
  6
ByLayer
 62
  256
370
   -1
100
AcDbPolyline
 90
   10
 70
    0
 43
0
 10
0
 20
0
 10
0
 20
127
 10
-8122
 20
127
 10
-8122
 20
135
 10
-9469
 20
135
 10
-9469
 20
-2135
 10
-8178
 20
-2135
 10
-8178
 20
-2143
 10
16
 20
-2143
 10
16
 20
-2000
  0
ENDBLK
  5
70
330
6E
100
AcDbEntity
  8
0
100
AcDbBlockEnd
  0
BLOCK
  5
72
330
71
100
AcDbEntity
  8
0
100
AcDbBlockBegin
  2
WWL3_Begin_4-EEL3_End_4-1
 70
    0
 10
0
 20
0
  3
WWL3_Begin_4-EEL3_End_4-1
  1

  0
LWPOLYLINE
  5
125
100
AcDbEntity
  8
0
  6
ByLayer
 62
  256
370
   -1
100
AcDbPolyline
 90
   10
 70
    0
 43
0
 10
0
 20
0
 10
0
 20
128
 10
-8122
 20
128
 10
-8122
 20
136
 10
-9474
 20
136
 10
-9474
 20
-2136
 10
-8186
 20
-2136
 10
-8186
 20
-2144
 10
16
 20
-2144
 10
16
 20
-2000
  0
ENDBLK
  5
73
330
71
100
AcDbEntity
  8
0
100
AcDbBlockEnd
  0
BLOCK
  5
75
330
74
100
AcDbEntity
  8
0
100
AcDbBlockBegin
  2
WWL3_Begin_5-EEL3_End_5-1
 70
    0
 10
0
 20
0
  3
WWL3_Begin_5-EEL3_End_5-1
  1

  0
LWPOLYLINE
  5
126
100
AcDbEntity
  8
0
  6
ByLayer
 62
  256
370
   -1
100
AcDbPolyline
 90
   10
 70
    0
 43
0
 10
0
 20
0
 10
0
 20
129
 10
-8122
 20
129
 10
-8122
 20
137
 10
-9479
 20
137
 10
-9479
 20
-2137
 10
-8194
 20
-2137
 10
-8194
 20
-2145
 10
16
 20
-2145
 10
16
 20
-2000
  0
ENDBLK
  5
76
330
74
100
AcDbEntity
  8
0
100
AcDbBlockEnd
  0
BLOCK
  5
78
330
77
100
AcDbEntity
  8
0
100
AcDbBlockBegin
  2
WWL3_Begin_6-EEL3_End_6-1
 70
    0
 10
0
 20
0
  3
WWL3_Begin_6-EEL3_End_6-1
  1

  0
LWPOLYLINE
  5
127
100
AcDbEntity
  8
0
  6
ByLayer
 62
  256
370
   -1
100
AcDbPolyline
 90
   10
 70
    0
 43
0
 10
0
 20
0
 10
0
 20
130
 10
-8122
 20
130
 10
-8122
 20
138
 10
-9484
 20
138
 10
-9484
 20
-2138
 10
-8202
 20
-2138
 10
-8202
 20
-2146
 10
16
 20
-2146
 10
16
 20
-2000
  0
ENDBLK
  5
79
330
77
100
AcDbEntity
  8
0
100
AcDbBlockEnd
  0
BLOCK
  5
7B
330
7A
100
AcDbEntity
  8
0
100
AcDbBlockBegin
  2
WWL3_Begin_7-EEL3_End_7-1
 70
    0
 10
0
 20
0
  3
WWL3_Begin_7-EEL3_End_7-1
  1

  0
LWPOLYLINE
  5
128
100
AcDbEntity
  8
0
  6
ByLayer
 62
  256
370
   -1
100
AcDbPolyline
 90
   10
 70
    0
 43
0
 10
0
 20
0
 10
0
 20
131
 10
-8122
 20
131
 10
-8122
 20
139
 10
-9489
 20
139
 10
-9489
 20
-2139
 10
-8210
 20
-2139
 10
-8210
 20
-2147
 10
16
 20
-2147
 10
16
 20
-2000
  0
ENDBLK
  5
7C
330
7A
100
AcDbEntity
  8
0
100
AcDbBlockEnd
  0
BLOCK
  5
7E
330
7D
100
AcDbEntity
  8
0
100
AcDbBlockBegin
  2
WWL4_Begin_0-EEL4_End_0-1
 70
    0
 10
0
 20
0
  3
WWL4_Begin_0-EEL4_End_0-1
  1

  0
LWPOLYLINE
  5
129
100
AcDbEntity
  8
0
  6
ByLayer
 62
  256
370
   -1
100
AcDbPolyline
 90
   12
 70
    0
 43
0
 10
0
 20
0
 10
0
 20
148
 10
-8078
 20
148
 10
-8078
 20
154
 10
-9432
 20
154
 10
-9432
 20
-2154
 10
-8102
 20
-2154
 10
-8102
 20
-2160
 10
874
 20
-2160
 10
874
 20
-2166
 10
6016
 20
-2166
 10
6016
 20
-2000
  0
ENDBLK
  5
7F
330
7D
100
AcDbEntity
  8
0
100
AcDbBlockEnd
  0
BLOCK
  5
81
330
80
100
AcDbEntity
  8
0
100
AcDbBlockBegin
  2
WWL4_Begin_1-EEL4_End_1-1
 70
    0
 10
0
 20
0
  3
WWL4_Begin_1-EEL4_End_1-1
  1

  0
LWPOLYLINE
  5
12A
100
AcDbEntity
  8
0
  6
ByLayer
 62
  256
370
   -1
100
AcDbPolyline
 90
   12
 70
    0
 43
0
 10
0
 20
0
 10
0
 20
149
 10
-8078
 20
149
 10
-8078
 20
155
 10
-9437
 20
155
 10
-9437
 20
-2155
 10
-8110
 20
-2155
 10
-8110
 20
-2161
 10
866
 20
-2161
 10
866
 20
-2167
 10
6016
 20
-2167
 10
6016
 20
-2000
  0
ENDBLK
  5
82
330
80
100
AcDbEntity
  8
0
100
AcDbBlockEnd
  0
BLOCK
  5
84
330
83
100
AcDbEntity
  8
0
100
AcDbBlockBegin
  2
WWL4_Begin_2-EEL4_End_2-1
 70
    0
 10
0
 20
0
  3
WWL4_Begin_2-EEL4_End_2-1
  1

  0
LWPOLYLINE
  5
12B
100
AcDbEntity
  8
0
  6
ByLayer
 62
  256
370
   -1
100
AcDbPolyline
 90
   12
 70
    0
 43
0
 10
0
 20
0
 10
0
 20
150
 10
-8078
 20
150
 10
-8078
 20
156
 10
-9442
 20
156
 10
-9442
 20
-2156
 10
-8118
 20
-2156
 10
-8118
 20
-2162
 10
858
 20
-2162
 10
858
 20
-2168
 10
6016
 20
-2168
 10
6016
 20
-2000
  0
ENDBLK
  5
85
330
83
100
AcDbEntity
  8
0
100
AcDbBlockEnd
  0
BLOCK
  5
87
330
86
100
AcDbEntity
  8
0
100
AcDbBlockBegin
  2
WWL4_Begin_3-EEL4_End_3-1
 70
    0
 10
0
 20
0
  3
WWL4_Begin_3-EEL4_End_3-1
  1

  0
LWPOLYLINE
  5
12C
100
AcDbEntity
  8
0
  6
ByLayer
 62
  256
370
   -1
100
AcDbPolyline
 90
   12
 70
    0
 43
0
 10
0
 20
0
 10
0
 20
151
 10
-8078
 20
151
 10
-8078
 20
157
 10
-9447
 20
157
 10
-9447
 20
-2157
 10
-8126
 20
-2157
 10
-8126
 20
-2163
 10
850
 20
-2163
 10
850
 20
-2169
 10
6016
 20
-2169
 10
6016
 20
-2000
  0
ENDBLK
  5
88
330
86
100
AcDbEntity
  8
0
100
AcDbBlockEnd
  0
BLOCK
  5
8A
330
89
100
AcDbEntity
  8
0
100
AcDbBlockBegin
  2
WWL4_Begin_4-EEL4_End_4-1
 70
    0
 10
0
 20
0
  3
WWL4_Begin_4-EEL4_End_4-1
  1

  0
LWPOLYLINE
  5
12D
100
AcDbEntity
  8
0
  6
ByLayer
 62
  256
370
   -1
100
AcDbPolyline
 90
   12
 70
    0
 43
0
 10
0
 20
0
 10
0
 20
152
 10
-8078
 20
152
 10
-8078
 20
158
 10
-9452
 20
158
 10
-9452
 20
-2158
 10
-8134
 20
-2158
 10
-8134
 20
-2164
 10
842
 20
-2164
 10
842
 20
-2170
 10
6016
 20
-2170
 10
6016
 20
-2000
  0
ENDBLK
  5
8B
330
89
100
AcDbEntity
  8
0
100
AcDbBlockEnd
  0
BLOCK
  5
8D
330
8C
100
AcDbEntity
  8
0
100
AcDbBlockBegin
  2
WWL4_Begin_5-EEL4_End_5-1
 70
    0
 10
0
 20
0
  3
WWL4_Begin_5-EEL4_End_5-1
  1

  0
LWPOLYLINE
  5
12E
100
AcDbEntity
  8
0
  6
ByLayer
 62
  256
370
   -1
100
AcDbPolyline
 90
   12
 70
    0
 43
0
 10
0
 20
0
 10
0
 20
153
 10
-8078
 20
153
 10
-8078
 20
159
 10
-9457
 20
159
 10
-9457
 20
-2159
 10
-8142
 20
-2159
 10
-8142
 20
-2165
 10
834
 20
-2165
 10
834
 20
-2171
 10
6016
 20
-2171
 10
6016
 20
-2000
  0
ENDBLK
  5
8E
330
8C
100
AcDbEntity
  8
0
100
AcDbBlockEnd
  0
BLOCK
  5
90
330
8F
100
AcDbEntity
  8
0
100
AcDbBlockBegin
  2
WWL6_Begin_0-EEL6_End_0-1
 70
    0
 10
0
 20
0
  3
WWL6_Begin_0-EEL6_End_0-1
  1

  0
LWPOLYLINE
  5
12F
100
AcDbEntity
  8
0
  6
ByLayer
 62
  256
370
   -1
100
AcDbPolyline
 90
   16
 70
    0
 43
0
 10
0
 20
0
 10
0
 20
172
 10
-8038
 20
172
 10
-8038
 20
180
 10
-9418
 20
180
 10
-9418
 20
-2180
 10
-8070
 20
-2180
 10
-8070
 20
-2188
 10
898
 20
-2188
 10
898
 20
-2196
 10
6866
 20
-2196
 10
6866
 20
-2204
 10
12834
 20
-2204
 10
12834
 20
-2212
 10
18016
 20
-2212
 10
18016
 20
-2000
  0
ENDBLK
  5
91
330
8F
100
AcDbEntity
  8
0
100
AcDbBlockEnd
  0
BLOCK
  5
93
330
92
100
AcDbEntity
  8
0
100
AcDbBlockBegin
  2
WWL6_Begin_1-EEL6_End_1-1
 70
    0
 10
0
 20
0
  3
WWL6_Begin_1-EEL6_End_1-1
  1

  0
LWPOLYLINE
  5
130
100
AcDbEntity
  8
0
  6
ByLayer
 62
  256
370
   -1
100
AcDbPolyline
 90
   16
 70
    0
 43
0
 10
0
 20
0
 10
0
 20
173
 10
-8038
 20
173
 10
-8038
 20
181
 10
-9423
 20
181
 10
-9423
 20
-2181
 10
-8078
 20
-2181
 10
-8078
 20
-2189
 10
890
 20
-2189
 10
890
 20
-2197
 10
6858
 20
-2197
 10
6858
 20
-2205
 10
12826
 20
-2205
 10
12826
 20
-2213
 10
18016
 20
-2213
 10
18016
 20
-2000
  0
ENDBLK
  5
94
330
92
100
AcDbEntity
  8
0
100
AcDbBlockEnd
  0
BLOCK
  5
96
330
95
100
AcDbEntity
  8
0
100
AcDbBlockBegin
  2
WWL6_Begin_2-EEL6_End_2-1
 70
    0
 10
0
 20
0
  3
WWL6_Begin_2-EEL6_End_2-1
  1

  0
LWPOLYLINE
  5
131
100
AcDbEntity
  8
0
  6
ByLayer
 62
  256
370
   -1
100
AcDbPolyline
 90
   16
 70
    0
 43
0
 10
0
 20
0
 10
0
 20
174
 10
-8038
 20
174
 10
-8038
 20
182
 10
-9428
 20
182
 10
-9428
 20
-2182
 10
-8086
 20
-2182
 10
-8086
 20
-2190
 10
882
 20
-2190
 10
882
 20
-2198
 10
6850
 20
-2198
 10
6850
 20
-2206
 10
12818
 20
-2206
 10
12818
 20
-2214
 10
18016
 20
-2214
 10
18016
 20
-2000
  0
ENDBLK
  5
97
330
95
100
AcDbEntity
  8
0
100
AcDbBlockEnd
  0
BLOCK
  5
99
330
98
100
AcDbEntity
  8
0
100
AcDbBlockBegin
  2
WWL6_Begin_3-EEL6_End_3-1
 70
    0
 10
0
 20
0
  3
WWL6_Begin_3-EEL6_End_3-1
  1

  0
LWPOLYLINE
  5
132
100
AcDbEntity
  8
0
  6
ByLayer
 62
  256
370
   -1
100
AcDbPolyline
 90
   16
 70
    0
 43
0
 10
0
 20
0
 10
0
 20
175
 10
-8038
 20
175
 10
-8038
 20
183
 10
-9433
 20
183
 10
-9433
 20
-2183
 10
-8094
 20
-2183
 10
-8094
 20
-2191
 10
874
 20
-2191
 10
874
 20
-2199
 10
6842
 20
-2199
 10
6842
 20
-2207
 10
12810
 20
-2207
 10
12810
 20
-2215
 10
18016
 20
-2215
 10
18016
 20
-2000
  0
ENDBLK
  5
9A
330
98
100
AcDbEntity
  8
0
100
AcDbBlockEnd
  0
BLOCK
  5
9C
330
9B
100
AcDbEntity
  8
0
100
AcDbBlockBegin
  2
WWL6_Begin_4-EEL6_End_4-1
 70
    0
 10
0
 20
0
  3
WWL6_Begin_4-EEL6_End_4-1
  1

  0
LWPOLYLINE
  5
133
100
AcDbEntity
  8
0
  6
ByLayer
 62
  256
370
   -1
100
AcDbPolyline
 90
   16
 70
    0
 43
0
 10
0
 20
0
 10
0
 20
176
 10
-8038
 20
176
 10
-8038
 20
184
 10
-9438
 20
184
 10
-9438
 20
-2184
 10
-8102
 20
-2184
 10
-8102
 20
-2192
 10
866
 20
-2192
 10
866
 20
-2200
 10
6834
 20
-2200
 10
6834
 20
-2208
 10
12802
 20
-2208
 10
12802
 20
-2216
 10
18016
 20
-2216
 10
18016
 20
-2000
  0
ENDBLK
  5
9D
330
9B
100
AcDbEntity
  8
0
100
AcDbBlockEnd
  0
BLOCK
  5
9F
330
9E
100
AcDbEntity
  8
0
100
AcDbBlockBegin
  2
WWL6_Begin_5-EEL6_End_5-1
 70
    0
 10
0
 20
0
  3
WWL6_Begin_5-EEL6_End_5-1
  1

  0
LWPOLYLINE
  5
134
100
AcDbEntity
  8
0
  6
ByLayer
 62
  256
370
   -1
100
AcDbPolyline
 90
   16
 70
    0
 43
0
 10
0
 20
0
 10
0
 20
177
 10
-8038
 20
177
 10
-8038
 20
185
 10
-9443
 20
185
 10
-9443
 20
-2185
 10
-8110
 20
-2185
 10
-8110
 20
-2193
 10
858
 20
-2193
 10
858
 20
-2201
 10
6826
 20
-2201
 10
6826
 20
-2209
 10
12794
 20
-2209
 10
12794
 20
-2217
 10
18016
 20
-2217
 10
18016
 20
-2000
  0
ENDBLK
  5
A0
330
9E
100
AcDbEntity
  8
0
100
AcDbBlockEnd
  0
BLOCK
  5
A2
330
A1
100
AcDbEntity
  8
0
100
AcDbBlockBegin
  2
WWL6_Begin_6-EEL6_End_6-1
 70
    0
 10
0
 20
0
  3
WWL6_Begin_6-EEL6_End_6-1
  1

  0
LWPOLYLINE
  5
135
100
AcDbEntity
  8
0
  6
ByLayer
 62
  256
370
   -1
100
AcDbPolyline
 90
   16
 70
    0
 43
0
 10
0
 20
0
 10
0
 20
178
 10
-8038
 20
178
 10
-8038
 20
186
 10
-9448
 20
186
 10
-9448
 20
-2186
 10
-8118
 20
-2186
 10
-8118
 20
-2194
 10
850
 20
-2194
 10
850
 20
-2202
 10
6818
 20
-2202
 10
6818
 20
-2210
 10
12786
 20
-2210
 10
12786
 20
-2218
 10
18016
 20
-2218
 10
18016
 20
-2000
  0
ENDBLK
  5
A3
330
A1
100
AcDbEntity
  8
0
100
AcDbBlockEnd
  0
BLOCK
  5
A5
330
A4
100
AcDbEntity
  8
0
100
AcDbBlockBegin
  2
WWL6_Begin_7-EEL6_End_7-1
 70
    0
 10
0
 20
0
  3
WWL6_Begin_7-EEL6_End_7-1
  1

  0
LWPOLYLINE
  5
136
100
AcDbEntity
  8
0
  6
ByLayer
 62
  256
370
   -1
100
AcDbPolyline
 90
   16
 70
    0
 43
0
 10
0
 20
0
 10
0
 20
179
 10
-8038
 20
179
 10
-8038
 20
187
 10
-9453
 20
187
 10
-9453
 20
-2187
 10
-8126
 20
-2187
 10
-8126
 20
-2195
 10
842
 20
-2195
 10
842
 20
-2203
 10
6810
 20
-2203
 10
6810
 20
-2211
 10
12778
 20
-2211
 10
12778
 20
-2219
 10
18016
 20
-2219
 10
18016
 20
-2000
  0
ENDBLK
  5
A6
330
A4
100
AcDbEntity
  8
0
100
AcDbBlockEnd
  0
BLOCK
  5
A8
330
A7
100
AcDbEntity
  8
0
100
AcDbBlockBegin
  2
WWL14_Begin_0-EEL14_End_0-1
 70
    0
 10
0
 20
0
  3
WWL14_Begin_0-EEL14_End_0-1
  1

  0
LWPOLYLINE
  5
137
100
AcDbEntity
  8
0
  6
ByLayer
 62
  256
370
   -1
100
AcDbPolyline
 90
   32
 70
    0
 43
0
 10
0
 20
0
 10
0
 20
220
 10
-8022
 20
220
 10
-8022
 20
224
 10
-9446
 20
224
 10
-9446
 20
-2224
 10
-8038
 20
-2224
 10
-8038
 20
-2228
 10
946
 20
-2228
 10
946
 20
-2232
 10
6930
 20
-2232
 10
6930
 20
-2236
 10
12914
 20
-2236
 10
12914
 20
-2240
 10
18898
 20
-2240
 10
18898
 20
-2244
 10
24882
 20
-2244
 10
24882
 20
-2248
 10
30866
 20
-2248
 10
30866
 20
-2252
 10
36850
 20
-2252
 10
36850
 20
-2256
 10
42834
 20
-2256
 10
42834
 20
-2260
 10
48818
 20
-2260
 10
48818
 20
-2264
 10
54802
 20
-2264
 10
54802
 20
-2268
 10
60786
 20
-2268
 10
60786
 20
-2272
 10
66000
 20
-2272
 10
66000
 20
-2000
  0
ENDBLK
  5
A9
330
A7
100
AcDbEntity
  8
0
100
AcDbBlockEnd
  0
BLOCK
  5
AB
330
AA
100
AcDbEntity
  8
0
100
AcDbBlockBegin
  2
WWL14_Begin_1-EEL14_End_1-1
 70
    0
 10
0
 20
0
  3
WWL14_Begin_1-EEL14_End_1-1
  1

  0
LWPOLYLINE
  5
138
100
AcDbEntity
  8
0
  6
ByLayer
 62
  256
370
   -1
100
AcDbPolyline
 90
   32
 70
    0
 43
0
 10
0
 20
0
 10
0
 20
221
 10
-8022
 20
221
 10
-8022
 20
225
 10
-9451
 20
225
 10
-9451
 20
-2225
 10
-8046
 20
-2225
 10
-8046
 20
-2229
 10
938
 20
-2229
 10
938
 20
-2233
 10
6922
 20
-2233
 10
6922
 20
-2237
 10
12906
 20
-2237
 10
12906
 20
-2241
 10
18890
 20
-2241
 10
18890
 20
-2245
 10
24874
 20
-2245
 10
24874
 20
-2249
 10
30858
 20
-2249
 10
30858
 20
-2253
 10
36842
 20
-2253
 10
36842
 20
-2257
 10
42826
 20
-2257
 10
42826
 20
-2261
 10
48810
 20
-2261
 10
48810
 20
-2265
 10
54794
 20
-2265
 10
54794
 20
-2269
 10
60778
 20
-2269
 10
60778
 20
-2273
 10
66000
 20
-2273
 10
66000
 20
-2000
  0
ENDBLK
  5
AC
330
AA
100
AcDbEntity
  8
0
100
AcDbBlockEnd
  0
BLOCK
  5
AE
330
AD
100
AcDbEntity
  8
0
100
AcDbBlockBegin
  2
WWL14_Begin_2-EEL14_End_2-1
 70
    0
 10
0
 20
0
  3
WWL14_Begin_2-EEL14_End_2-1
  1

  0
LWPOLYLINE
  5
139
100
AcDbEntity
  8
0
  6
ByLayer
 62
  256
370
   -1
100
AcDbPolyline
 90
   32
 70
    0
 43
0
 10
0
 20
0
 10
0
 20
222
 10
-8022
 20
222
 10
-8022
 20
226
 10
-9456
 20
226
 10
-9456
 20
-2226
 10
-8054
 20
-2226
 10
-8054
 20
-2230
 10
930
 20
-2230
 10
930
 20
-2234
 10
6914
 20
-2234
 10
6914
 20
-2238
 10
12898
 20
-2238
 10
12898
 20
-2242
 10
18882
 20
-2242
 10
18882
 20
-2246
 10
24866
 20
-2246
 10
24866
 20
-2250
 10
30850
 20
-2250
 10
30850
 20
-2254
 10
36834
 20
-2254
 10
36834
 20
-2258
 10
42818
 20
-2258
 10
42818
 20
-2262
 10
48802
 20
-2262
 10
48802
 20
-2266
 10
54786
 20
-2266
 10
54786
 20
-2270
 10
60770
 20
-2270
 10
60770
 20
-2274
 10
66000
 20
-2274
 10
66000
 20
-2000
  0
ENDBLK
  5
AF
330
AD
100
AcDbEntity
  8
0
100
AcDbBlockEnd
  0
BLOCK
  5
B1
330
B0
100
AcDbEntity
  8
0
100
AcDbBlockBegin
  2
WWL14_Begin_3-EEL14_End_3-1
 70
    0
 10
0
 20
0
  3
WWL14_Begin_3-EEL14_End_3-1
  1

  0
LWPOLYLINE
  5
13A
100
AcDbEntity
  8
0
  6
ByLayer
 62
  256
370
   -1
100
AcDbPolyline
 90
   32
 70
    0
 43
0
 10
0
 20
0
 10
0
 20
223
 10
-8022
 20
223
 10
-8022
 20
227
 10
-9461
 20
227
 10
-9461
 20
-2227
 10
-8062
 20
-2227
 10
-8062
 20
-2231
 10
922
 20
-2231
 10
922
 20
-2235
 10
6906
 20
-2235
 10
6906
 20
-2239
 10
12890
 20
-2239
 10
12890
 20
-2243
 10
18874
 20
-2243
 10
18874
 20
-2247
 10
24858
 20
-2247
 10
24858
 20
-2251
 10
30842
 20
-2251
 10
30842
 20
-2255
 10
36826
 20
-2255
 10
36826
 20
-2259
 10
42810
 20
-2259
 10
42810
 20
-2263
 10
48794
 20
-2263
 10
48794
 20
-2267
 10
54778
 20
-2267
 10
54778
 20
-2271
 10
60762
 20
-2271
 10
60762
 20
-2275
 10
66000
 20
-2275
 10
66000
 20
-2000
  0
ENDBLK
  5
B2
330
B0
100
AcDbEntity
  8
0
100
AcDbBlockEnd
  0
BLOCK
  5
B4
330
B3
100
AcDbEntity
  8
0
100
AcDbBlockBegin
  2
EEL2_Begin_0-WWL2_End_0-1
 70
    0
 10
0
 20
0
  3
EEL2_Begin_0-WWL2_End_0-1
  1

  0
LWPOLYLINE
  5
13B
100
AcDbEntity
  8
0
  6
ByLayer
 62
  256
370
   -1
100
AcDbPolyline
 90
    8
 70
    0
 43
0
 10
0
 20
0
 10
0
 20
-108
 10
5154
 20
-108
 10
5154
 20
-116
 10
6470
 20
-116
 10
6470
 20
2116
 10
5984
 20
2116
 10
5984
 20
2000
  0
ENDBLK
  5
B5
330
B3
100
AcDbEntity
  8
0
100
AcDbBlockEnd
  0
BLOCK
  5
B7
330
B6
100
AcDbEntity
  8
0
100
AcDbBlockBegin
  2
EEL2_Begin_1-WWL2_End_1-1
 70
    0
 10
0
 20
0
  3
EEL2_Begin_1-WWL2_End_1-1
  1

  0
LWPOLYLINE
  5
13C
100
AcDbEntity
  8
0
  6
ByLayer
 62
  256
370
   -1
100
AcDbPolyline
 90
    8
 70
    0
 43
0
 10
0
 20
0
 10
0
 20
-109
 10
5154
 20
-109
 10
5154
 20
-117
 10
6475
 20
-117
 10
6475
 20
2117
 10
5984
 20
2117
 10
5984
 20
2000
  0
ENDBLK
  5
B8
330
B6
100
AcDbEntity
  8
0
100
AcDbBlockEnd
  0
BLOCK
  5
BA
330
B9
100
AcDbEntity
  8
0
100
AcDbBlockBegin
  2
EEL2_Begin_2-WWL2_End_2-1
 70
    0
 10
0
 20
0
  3
EEL2_Begin_2-WWL2_End_2-1
  1

  0
LWPOLYLINE
  5
13D
100
AcDbEntity
  8
0
  6
ByLayer
 62
  256
370
   -1
100
AcDbPolyline
 90
    8
 70
    0
 43
0
 10
0
 20
0
 10
0
 20
-110
 10
5154
 20
-110
 10
5154
 20
-118
 10
6480
 20
-118
 10
6480
 20
2118
 10
5984
 20
2118
 10
5984
 20
2000
  0
ENDBLK
  5
BB
330
B9
100
AcDbEntity
  8
0
100
AcDbBlockEnd
  0
BLOCK
  5
BD
330
BC
100
AcDbEntity
  8
0
100
AcDbBlockBegin
  2
EEL2_Begin_3-WWL2_End_3-1
 70
    0
 10
0
 20
0
  3
EEL2_Begin_3-WWL2_End_3-1
  1

  0
LWPOLYLINE
  5
13E
100
AcDbEntity
  8
0
  6
ByLayer
 62
  256
370
   -1
100
AcDbPolyline
 90
    8
 70
    0
 43
0
 10
0
 20
0
 10
0
 20
-111
 10
5154
 20
-111
 10
5154
 20
-119
 10
6485
 20
-119
 10
6485
 20
2119
 10
5984
 20
2119
 10
5984
 20
2000
  0
ENDBLK
  5
BE
330
BC
100
AcDbEntity
  8
0
100
AcDbBlockEnd
  0
BLOCK
  5
C0
330
BF
100
AcDbEntity
  8
0
100
AcDbBlockBegin
  2
EEL2_Begin_4-WWL2_End_4-1
 70
    0
 10
0
 20
0
  3
EEL2_Begin_4-WWL2_End_4-1
  1

  0
LWPOLYLINE
  5
13F
100
AcDbEntity
  8
0
  6
ByLayer
 62
  256
370
   -1
100
AcDbPolyline
 90
    8
 70
    0
 43
0
 10
0
 20
0
 10
0
 20
-112
 10
5154
 20
-112
 10
5154
 20
-120
 10
6490
 20
-120
 10
6490
 20
2120
 10
5984
 20
2120
 10
5984
 20
2000
  0
ENDBLK
  5
C1
330
BF
100
AcDbEntity
  8
0
100
AcDbBlockEnd
  0
BLOCK
  5
C3
330
C2
100
AcDbEntity
  8
0
100
AcDbBlockBegin
  2
EEL2_Begin_5-WWL2_End_5-1
 70
    0
 10
0
 20
0
  3
EEL2_Begin_5-WWL2_End_5-1
  1

  0
LWPOLYLINE
  5
140
100
AcDbEntity
  8
0
  6
ByLayer
 62
  256
370
   -1
100
AcDbPolyline
 90
    8
 70
    0
 43
0
 10
0
 20
0
 10
0
 20
-113
 10
5154
 20
-113
 10
5154
 20
-121
 10
6495
 20
-121
 10
6495
 20
2121
 10
5984
 20
2121
 10
5984
 20
2000
  0
ENDBLK
  5
C4
330
C2
100
AcDbEntity
  8
0
100
AcDbBlockEnd
  0
BLOCK
  5
C6
330
C5
100
AcDbEntity
  8
0
100
AcDbBlockBegin
  2
EEL2_Begin_6-WWL2_End_6-1
 70
    0
 10
0
 20
0
  3
EEL2_Begin_6-WWL2_End_6-1
  1

  0
LWPOLYLINE
  5
141
100
AcDbEntity
  8
0
  6
ByLayer
 62
  256
370
   -1
100
AcDbPolyline
 90
    8
 70
    0
 43
0
 10
0
 20
0
 10
0
 20
-114
 10
5154
 20
-114
 10
5154
 20
-122
 10
6500
 20
-122
 10
6500
 20
2122
 10
5984
 20
2122
 10
5984
 20
2000
  0
ENDBLK
  5
C7
330
C5
100
AcDbEntity
  8
0
100
AcDbBlockEnd
  0
BLOCK
  5
C9
330
C8
100
AcDbEntity
  8
0
100
AcDbBlockBegin
  2
EEL2_Begin_7-WWL2_End_7-1
 70
    0
 10
0
 20
0
  3
EEL2_Begin_7-WWL2_End_7-1
  1

  0
LWPOLYLINE
  5
142
100
AcDbEntity
  8
0
  6
ByLayer
 62
  256
370
   -1
100
AcDbPolyline
 90
    8
 70
    0
 43
0
 10
0
 20
0
 10
0
 20
-115
 10
5154
 20
-115
 10
5154
 20
-123
 10
6505
 20
-123
 10
6505
 20
2123
 10
5984
 20
2123
 10
5984
 20
2000
  0
ENDBLK
  5
CA
330
C8
100
AcDbEntity
  8
0
100
AcDbBlockEnd
  0
BLOCK
  5
CC
330
CB
100
AcDbEntity
  8
0
100
AcDbBlockBegin
  2
EEL3_Begin_0-WWL3_End_0-1
 70
    0
 10
0
 20
0
  3
EEL3_Begin_0-WWL3_End_0-1
  1

  0
LWPOLYLINE
  5
143
100
AcDbEntity
  8
0
  6
ByLayer
 62
  256
370
   -1
100
AcDbPolyline
 90
   10
 70
    0
 43
0
 10
0
 20
0
 10
0
 20
-124
 10
5122
 20
-124
 10
5122
 20
-132
 10
6454
 20
-132
 10
6454
 20
2132
 10
5154
 20
2132
 10
5154
 20
2140
 10
-16
 20
2140
 10
-16
 20
2000
  0
ENDBLK
  5
CD
330
CB
100
AcDbEntity
  8
0
100
AcDbBlockEnd
  0
BLOCK
  5
CF
330
CE
100
AcDbEntity
  8
0
100
AcDbBlockBegin
  2
EEL3_Begin_1-WWL3_End_1-1
 70
    0
 10
0
 20
0
  3
EEL3_Begin_1-WWL3_End_1-1
  1

  0
LWPOLYLINE
  5
144
100
AcDbEntity
  8
0
  6
ByLayer
 62
  256
370
   -1
100
AcDbPolyline
 90
   10
 70
    0
 43
0
 10
0
 20
0
 10
0
 20
-125
 10
5122
 20
-125
 10
5122
 20
-133
 10
6459
 20
-133
 10
6459
 20
2133
 10
5162
 20
2133
 10
5162
 20
2141
 10
-16
 20
2141
 10
-16
 20
2000
  0
ENDBLK
  5
D0
330
CE
100
AcDbEntity
  8
0
100
AcDbBlockEnd
  0
BLOCK
  5
D2
330
D1
100
AcDbEntity
  8
0
100
AcDbBlockBegin
  2
EEL3_Begin_2-WWL3_End_2-1
 70
    0
 10
0
 20
0
  3
EEL3_Begin_2-WWL3_End_2-1
  1

  0
LWPOLYLINE
  5
145
100
AcDbEntity
  8
0
  6
ByLayer
 62
  256
370
   -1
100
AcDbPolyline
 90
   10
 70
    0
 43
0
 10
0
 20
0
 10
0
 20
-126
 10
5122
 20
-126
 10
5122
 20
-134
 10
6464
 20
-134
 10
6464
 20
2134
 10
5170
 20
2134
 10
5170
 20
2142
 10
-16
 20
2142
 10
-16
 20
2000
  0
ENDBLK
  5
D3
330
D1
100
AcDbEntity
  8
0
100
AcDbBlockEnd
  0
BLOCK
  5
D5
330
D4
100
AcDbEntity
  8
0
100
AcDbBlockBegin
  2
EEL3_Begin_3-WWL3_End_3-1
 70
    0
 10
0
 20
0
  3
EEL3_Begin_3-WWL3_End_3-1
  1

  0
LWPOLYLINE
  5
146
100
AcDbEntity
  8
0
  6
ByLayer
 62
  256
370
   -1
100
AcDbPolyline
 90
   10
 70
    0
 43
0
 10
0
 20
0
 10
0
 20
-127
 10
5122
 20
-127
 10
5122
 20
-135
 10
6469
 20
-135
 10
6469
 20
2135
 10
5178
 20
2135
 10
5178
 20
2143
 10
-16
 20
2143
 10
-16
 20
2000
  0
ENDBLK
  5
D6
330
D4
100
AcDbEntity
  8
0
100
AcDbBlockEnd
  0
BLOCK
  5
D8
330
D7
100
AcDbEntity
  8
0
100
AcDbBlockBegin
  2
EEL3_Begin_4-WWL3_End_4-1
 70
    0
 10
0
 20
0
  3
EEL3_Begin_4-WWL3_End_4-1
  1

  0
LWPOLYLINE
  5
147
100
AcDbEntity
  8
0
  6
ByLayer
 62
  256
370
   -1
100
AcDbPolyline
 90
   10
 70
    0
 43
0
 10
0
 20
0
 10
0
 20
-128
 10
5122
 20
-128
 10
5122
 20
-136
 10
6474
 20
-136
 10
6474
 20
2136
 10
5186
 20
2136
 10
5186
 20
2144
 10
-16
 20
2144
 10
-16
 20
2000
  0
ENDBLK
  5
D9
330
D7
100
AcDbEntity
  8
0
100
AcDbBlockEnd
  0
BLOCK
  5
DB
330
DA
100
AcDbEntity
  8
0
100
AcDbBlockBegin
  2
EEL3_Begin_5-WWL3_End_5-1
 70
    0
 10
0
 20
0
  3
EEL3_Begin_5-WWL3_End_5-1
  1

  0
LWPOLYLINE
  5
148
100
AcDbEntity
  8
0
  6
ByLayer
 62
  256
370
   -1
100
AcDbPolyline
 90
   10
 70
    0
 43
0
 10
0
 20
0
 10
0
 20
-129
 10
5122
 20
-129
 10
5122
 20
-137
 10
6479
 20
-137
 10
6479
 20
2137
 10
5194
 20
2137
 10
5194
 20
2145
 10
-16
 20
2145
 10
-16
 20
2000
  0
ENDBLK
  5
DC
330
DA
100
AcDbEntity
  8
0
100
AcDbBlockEnd
  0
BLOCK
  5
DE
330
DD
100
AcDbEntity
  8
0
100
AcDbBlockBegin
  2
EEL3_Begin_6-WWL3_End_6-1
 70
    0
 10
0
 20
0
  3
EEL3_Begin_6-WWL3_End_6-1
  1

  0
LWPOLYLINE
  5
149
100
AcDbEntity
  8
0
  6
ByLayer
 62
  256
370
   -1
100
AcDbPolyline
 90
   10
 70
    0
 43
0
 10
0
 20
0
 10
0
 20
-130
 10
5122
 20
-130
 10
5122
 20
-138
 10
6484
 20
-138
 10
6484
 20
2138
 10
5202
 20
2138
 10
5202
 20
2146
 10
-16
 20
2146
 10
-16
 20
2000
  0
ENDBLK
  5
DF
330
DD
100
AcDbEntity
  8
0
100
AcDbBlockEnd
  0
BLOCK
  5
E1
330
E0
100
AcDbEntity
  8
0
100
AcDbBlockBegin
  2
EEL3_Begin_7-WWL3_End_7-1
 70
    0
 10
0
 20
0
  3
EEL3_Begin_7-WWL3_End_7-1
  1

  0
LWPOLYLINE
  5
14A
100
AcDbEntity
  8
0
  6
ByLayer
 62
  256
370
   -1
100
AcDbPolyline
 90
   10
 70
    0
 43
0
 10
0
 20
0
 10
0
 20
-131
 10
5122
 20
-131
 10
5122
 20
-139
 10
6489
 20
-139
 10
6489
 20
2139
 10
5210
 20
2139
 10
5210
 20
2147
 10
-16
 20
2147
 10
-16
 20
2000
  0
ENDBLK
  5
E2
330
E0
100
AcDbEntity
  8
0
100
AcDbBlockEnd
  0
BLOCK
  5
E4
330
E3
100
AcDbEntity
  8
0
100
AcDbBlockBegin
  2
EEL4_Begin_0-WWL4_End_0-1
 70
    0
 10
0
 20
0
  3
EEL4_Begin_0-WWL4_End_0-1
  1

  0
LWPOLYLINE
  5
14B
100
AcDbEntity
  8
0
  6
ByLayer
 62
  256
370
   -1
100
AcDbPolyline
 90
   12
 70
    0
 43
0
 10
0
 20
0
 10
0
 20
-148
 10
5078
 20
-148
 10
5078
 20
-154
 10
6432
 20
-154
 10
6432
 20
2154
 10
5102
 20
2154
 10
5102
 20
2160
 10
-874
 20
2160
 10
-874
 20
2166
 10
-6016
 20
2166
 10
-6016
 20
2000
  0
ENDBLK
  5
E5
330
E3
100
AcDbEntity
  8
0
100
AcDbBlockEnd
  0
BLOCK
  5
E7
330
E6
100
AcDbEntity
  8
0
100
AcDbBlockBegin
  2
EEL4_Begin_1-WWL4_End_1-1
 70
    0
 10
0
 20
0
  3
EEL4_Begin_1-WWL4_End_1-1
  1

  0
LWPOLYLINE
  5
14C
100
AcDbEntity
  8
0
  6
ByLayer
 62
  256
370
   -1
100
AcDbPolyline
 90
   12
 70
    0
 43
0
 10
0
 20
0
 10
0
 20
-149
 10
5078
 20
-149
 10
5078
 20
-155
 10
6437
 20
-155
 10
6437
 20
2155
 10
5110
 20
2155
 10
5110
 20
2161
 10
-866
 20
2161
 10
-866
 20
2167
 10
-6016
 20
2167
 10
-6016
 20
2000
  0
ENDBLK
  5
E8
330
E6
100
AcDbEntity
  8
0
100
AcDbBlockEnd
  0
BLOCK
  5
EA
330
E9
100
AcDbEntity
  8
0
100
AcDbBlockBegin
  2
EEL4_Begin_2-WWL4_End_2-1
 70
    0
 10
0
 20
0
  3
EEL4_Begin_2-WWL4_End_2-1
  1

  0
LWPOLYLINE
  5
14D
100
AcDbEntity
  8
0
  6
ByLayer
 62
  256
370
   -1
100
AcDbPolyline
 90
   12
 70
    0
 43
0
 10
0
 20
0
 10
0
 20
-150
 10
5078
 20
-150
 10
5078
 20
-156
 10
6442
 20
-156
 10
6442
 20
2156
 10
5118
 20
2156
 10
5118
 20
2162
 10
-858
 20
2162
 10
-858
 20
2168
 10
-6016
 20
2168
 10
-6016
 20
2000
  0
ENDBLK
  5
EB
330
E9
100
AcDbEntity
  8
0
100
AcDbBlockEnd
  0
BLOCK
  5
ED
330
EC
100
AcDbEntity
  8
0
100
AcDbBlockBegin
  2
EEL4_Begin_3-WWL4_End_3-1
 70
    0
 10
0
 20
0
  3
EEL4_Begin_3-WWL4_End_3-1
  1

  0
LWPOLYLINE
  5
14E
100
AcDbEntity
  8
0
  6
ByLayer
 62
  256
370
   -1
100
AcDbPolyline
 90
   12
 70
    0
 43
0
 10
0
 20
0
 10
0
 20
-151
 10
5078
 20
-151
 10
5078
 20
-157
 10
6447
 20
-157
 10
6447
 20
2157
 10
5126
 20
2157
 10
5126
 20
2163
 10
-850
 20
2163
 10
-850
 20
2169
 10
-6016
 20
2169
 10
-6016
 20
2000
  0
ENDBLK
  5
EE
330
EC
100
AcDbEntity
  8
0
100
AcDbBlockEnd
  0
BLOCK
  5
F0
330
EF
100
AcDbEntity
  8
0
100
AcDbBlockBegin
  2
EEL4_Begin_4-WWL4_End_4-1
 70
    0
 10
0
 20
0
  3
EEL4_Begin_4-WWL4_End_4-1
  1

  0
LWPOLYLINE
  5
14F
100
AcDbEntity
  8
0
  6
ByLayer
 62
  256
370
   -1
100
AcDbPolyline
 90
   12
 70
    0
 43
0
 10
0
 20
0
 10
0
 20
-152
 10
5078
 20
-152
 10
5078
 20
-158
 10
6452
 20
-158
 10
6452
 20
2158
 10
5134
 20
2158
 10
5134
 20
2164
 10
-842
 20
2164
 10
-842
 20
2170
 10
-6016
 20
2170
 10
-6016
 20
2000
  0
ENDBLK
  5
F1
330
EF
100
AcDbEntity
  8
0
100
AcDbBlockEnd
  0
BLOCK
  5
F3
330
F2
100
AcDbEntity
  8
0
100
AcDbBlockBegin
  2
EEL4_Begin_5-WWL4_End_5-1
 70
    0
 10
0
 20
0
  3
EEL4_Begin_5-WWL4_End_5-1
  1

  0
LWPOLYLINE
  5
150
100
AcDbEntity
  8
0
  6
ByLayer
 62
  256
370
   -1
100
AcDbPolyline
 90
   12
 70
    0
 43
0
 10
0
 20
0
 10
0
 20
-153
 10
5078
 20
-153
 10
5078
 20
-159
 10
6457
 20
-159
 10
6457
 20
2159
 10
5142
 20
2159
 10
5142
 20
2165
 10
-834
 20
2165
 10
-834
 20
2171
 10
-6016
 20
2171
 10
-6016
 20
2000
  0
ENDBLK
  5
F4
330
F2
100
AcDbEntity
  8
0
100
AcDbBlockEnd
  0
BLOCK
  5
F6
330
F5
100
AcDbEntity
  8
0
100
AcDbBlockBegin
  2
EEL6_Begin_0-WWL6_End_0-1
 70
    0
 10
0
 20
0
  3
EEL6_Begin_0-WWL6_End_0-1
  1

  0
LWPOLYLINE
  5
151
100
AcDbEntity
  8
0
  6
ByLayer
 62
  256
370
   -1
100
AcDbPolyline
 90
   16
 70
    0
 43
0
 10
0
 20
0
 10
0
 20
-172
 10
5038
 20
-172
 10
5038
 20
-180
 10
6418
 20
-180
 10
6418
 20
2180
 10
5070
 20
2180
 10
5070
 20
2188
 10
-898
 20
2188
 10
-898
 20
2196
 10
-6866
 20
2196
 10
-6866
 20
2204
 10
-12834
 20
2204
 10
-12834
 20
2212
 10
-18016
 20
2212
 10
-18016
 20
2000
  0
ENDBLK
  5
F7
330
F5
100
AcDbEntity
  8
0
100
AcDbBlockEnd
  0
BLOCK
  5
F9
330
F8
100
AcDbEntity
  8
0
100
AcDbBlockBegin
  2
EEL6_Begin_1-WWL6_End_1-1
 70
    0
 10
0
 20
0
  3
EEL6_Begin_1-WWL6_End_1-1
  1

  0
LWPOLYLINE
  5
152
100
AcDbEntity
  8
0
  6
ByLayer
 62
  256
370
   -1
100
AcDbPolyline
 90
   16
 70
    0
 43
0
 10
0
 20
0
 10
0
 20
-173
 10
5038
 20
-173
 10
5038
 20
-181
 10
6423
 20
-181
 10
6423
 20
2181
 10
5078
 20
2181
 10
5078
 20
2189
 10
-890
 20
2189
 10
-890
 20
2197
 10
-6858
 20
2197
 10
-6858
 20
2205
 10
-12826
 20
2205
 10
-12826
 20
2213
 10
-18016
 20
2213
 10
-18016
 20
2000
  0
ENDBLK
  5
FA
330
F8
100
AcDbEntity
  8
0
100
AcDbBlockEnd
  0
BLOCK
  5
FC
330
FB
100
AcDbEntity
  8
0
100
AcDbBlockBegin
  2
EEL6_Begin_2-WWL6_End_2-1
 70
    0
 10
0
 20
0
  3
EEL6_Begin_2-WWL6_End_2-1
  1

  0
LWPOLYLINE
  5
153
100
AcDbEntity
  8
0
  6
ByLayer
 62
  256
370
   -1
100
AcDbPolyline
 90
   16
 70
    0
 43
0
 10
0
 20
0
 10
0
 20
-174
 10
5038
 20
-174
 10
5038
 20
-182
 10
6428
 20
-182
 10
6428
 20
2182
 10
5086
 20
2182
 10
5086
 20
2190
 10
-882
 20
2190
 10
-882
 20
2198
 10
-6850
 20
2198
 10
-6850
 20
2206
 10
-12818
 20
2206
 10
-12818
 20
2214
 10
-18016
 20
2214
 10
-18016
 20
2000
  0
ENDBLK
  5
FD
330
FB
100
AcDbEntity
  8
0
100
AcDbBlockEnd
  0
BLOCK
  5
FF
330
FE
100
AcDbEntity
  8
0
100
AcDbBlockBegin
  2
EEL6_Begin_3-WWL6_End_3-1
 70
    0
 10
0
 20
0
  3
EEL6_Begin_3-WWL6_End_3-1
  1

  0
LWPOLYLINE
  5
154
100
AcDbEntity
  8
0
  6
ByLayer
 62
  256
370
   -1
100
AcDbPolyline
 90
   16
 70
    0
 43
0
 10
0
 20
0
 10
0
 20
-175
 10
5038
 20
-175
 10
5038
 20
-183
 10
6433
 20
-183
 10
6433
 20
2183
 10
5094
 20
2183
 10
5094
 20
2191
 10
-874
 20
2191
 10
-874
 20
2199
 10
-6842
 20
2199
 10
-6842
 20
2207
 10
-12810
 20
2207
 10
-12810
 20
2215
 10
-18016
 20
2215
 10
-18016
 20
2000
  0
ENDBLK
  5
100
330
FE
100
AcDbEntity
  8
0
100
AcDbBlockEnd
  0
BLOCK
  5
102
330
101
100
AcDbEntity
  8
0
100
AcDbBlockBegin
  2
EEL6_Begin_4-WWL6_End_4-1
 70
    0
 10
0
 20
0
  3
EEL6_Begin_4-WWL6_End_4-1
  1

  0
LWPOLYLINE
  5
155
100
AcDbEntity
  8
0
  6
ByLayer
 62
  256
370
   -1
100
AcDbPolyline
 90
   16
 70
    0
 43
0
 10
0
 20
0
 10
0
 20
-176
 10
5038
 20
-176
 10
5038
 20
-184
 10
6438
 20
-184
 10
6438
 20
2184
 10
5102
 20
2184
 10
5102
 20
2192
 10
-866
 20
2192
 10
-866
 20
2200
 10
-6834
 20
2200
 10
-6834
 20
2208
 10
-12802
 20
2208
 10
-12802
 20
2216
 10
-18016
 20
2216
 10
-18016
 20
2000
  0
ENDBLK
  5
103
330
101
100
AcDbEntity
  8
0
100
AcDbBlockEnd
  0
BLOCK
  5
105
330
104
100
AcDbEntity
  8
0
100
AcDbBlockBegin
  2
EEL6_Begin_5-WWL6_End_5-1
 70
    0
 10
0
 20
0
  3
EEL6_Begin_5-WWL6_End_5-1
  1

  0
LWPOLYLINE
  5
156
100
AcDbEntity
  8
0
  6
ByLayer
 62
  256
370
   -1
100
AcDbPolyline
 90
   16
 70
    0
 43
0
 10
0
 20
0
 10
0
 20
-177
 10
5038
 20
-177
 10
5038
 20
-185
 10
6443
 20
-185
 10
6443
 20
2185
 10
5110
 20
2185
 10
5110
 20
2193
 10
-858
 20
2193
 10
-858
 20
2201
 10
-6826
 20
2201
 10
-6826
 20
2209
 10
-12794
 20
2209
 10
-12794
 20
2217
 10
-18016
 20
2217
 10
-18016
 20
2000
  0
ENDBLK
  5
106
330
104
100
AcDbEntity
  8
0
100
AcDbBlockEnd
  0
BLOCK
  5
108
330
107
100
AcDbEntity
  8
0
100
AcDbBlockBegin
  2
EEL6_Begin_6-WWL6_End_6-1
 70
    0
 10
0
 20
0
  3
EEL6_Begin_6-WWL6_End_6-1
  1

  0
LWPOLYLINE
  5
157
100
AcDbEntity
  8
0
  6
ByLayer
 62
  256
370
   -1
100
AcDbPolyline
 90
   16
 70
    0
 43
0
 10
0
 20
0
 10
0
 20
-178
 10
5038
 20
-178
 10
5038
 20
-186
 10
6448
 20
-186
 10
6448
 20
2186
 10
5118
 20
2186
 10
5118
 20
2194
 10
-850
 20
2194
 10
-850
 20
2202
 10
-6818
 20
2202
 10
-6818
 20
2210
 10
-12786
 20
2210
 10
-12786
 20
2218
 10
-18016
 20
2218
 10
-18016
 20
2000
  0
ENDBLK
  5
109
330
107
100
AcDbEntity
  8
0
100
AcDbBlockEnd
  0
BLOCK
  5
10B
330
10A
100
AcDbEntity
  8
0
100
AcDbBlockBegin
  2
EEL6_Begin_7-WWL6_End_7-1
 70
    0
 10
0
 20
0
  3
EEL6_Begin_7-WWL6_End_7-1
  1

  0
LWPOLYLINE
  5
158
100
AcDbEntity
  8
0
  6
ByLayer
 62
  256
370
   -1
100
AcDbPolyline
 90
   16
 70
    0
 43
0
 10
0
 20
0
 10
0
 20
-179
 10
5038
 20
-179
 10
5038
 20
-187
 10
6453
 20
-187
 10
6453
 20
2187
 10
5126
 20
2187
 10
5126
 20
2195
 10
-842
 20
2195
 10
-842
 20
2203
 10
-6810
 20
2203
 10
-6810
 20
2211
 10
-12778
 20
2211
 10
-12778
 20
2219
 10
-18016
 20
2219
 10
-18016
 20
2000
  0
ENDBLK
  5
10C
330
10A
100
AcDbEntity
  8
0
100
AcDbBlockEnd
  0
BLOCK
  5
10E
330
10D
100
AcDbEntity
  8
0
100
AcDbBlockBegin
  2
EEL14_Begin_0-WWL14_End_0-1
 70
    0
 10
0
 20
0
  3
EEL14_Begin_0-WWL14_End_0-1
  1

  0
LWPOLYLINE
  5
159
100
AcDbEntity
  8
0
  6
ByLayer
 62
  256
370
   -1
100
AcDbPolyline
 90
   32
 70
    0
 43
0
 10
0
 20
0
 10
0
 20
-220
 10
5022
 20
-220
 10
5022
 20
-224
 10
6446
 20
-224
 10
6446
 20
2224
 10
5038
 20
2224
 10
5038
 20
2228
 10
-946
 20
2228
 10
-946
 20
2232
 10
-6930
 20
2232
 10
-6930
 20
2236
 10
-12914
 20
2236
 10
-12914
 20
2240
 10
-18898
 20
2240
 10
-18898
 20
2244
 10
-24882
 20
2244
 10
-24882
 20
2248
 10
-30866
 20
2248
 10
-30866
 20
2252
 10
-36850
 20
2252
 10
-36850
 20
2256
 10
-42834
 20
2256
 10
-42834
 20
2260
 10
-48818
 20
2260
 10
-48818
 20
2264
 10
-54802
 20
2264
 10
-54802
 20
2268
 10
-60786
 20
2268
 10
-60786
 20
2272
 10
-66000
 20
2272
 10
-66000
 20
2000
  0
ENDBLK
  5
10F
330
10D
100
AcDbEntity
  8
0
100
AcDbBlockEnd
  0
BLOCK
  5
111
330
110
100
AcDbEntity
  8
0
100
AcDbBlockBegin
  2
EEL14_Begin_1-WWL14_End_1-1
 70
    0
 10
0
 20
0
  3
EEL14_Begin_1-WWL14_End_1-1
  1

  0
LWPOLYLINE
  5
15A
100
AcDbEntity
  8
0
  6
ByLayer
 62
  256
370
   -1
100
AcDbPolyline
 90
   32
 70
    0
 43
0
 10
0
 20
0
 10
0
 20
-221
 10
5022
 20
-221
 10
5022
 20
-225
 10
6451
 20
-225
 10
6451
 20
2225
 10
5046
 20
2225
 10
5046
 20
2229
 10
-938
 20
2229
 10
-938
 20
2233
 10
-6922
 20
2233
 10
-6922
 20
2237
 10
-12906
 20
2237
 10
-12906
 20
2241
 10
-18890
 20
2241
 10
-18890
 20
2245
 10
-24874
 20
2245
 10
-24874
 20
2249
 10
-30858
 20
2249
 10
-30858
 20
2253
 10
-36842
 20
2253
 10
-36842
 20
2257
 10
-42826
 20
2257
 10
-42826
 20
2261
 10
-48810
 20
2261
 10
-48810
 20
2265
 10
-54794
 20
2265
 10
-54794
 20
2269
 10
-60778
 20
2269
 10
-60778
 20
2273
 10
-66000
 20
2273
 10
-66000
 20
2000
  0
ENDBLK
  5
112
330
110
100
AcDbEntity
  8
0
100
AcDbBlockEnd
  0
BLOCK
  5
114
330
113
100
AcDbEntity
  8
0
100
AcDbBlockBegin
  2
EEL14_Begin_2-WWL14_End_2-1
 70
    0
 10
0
 20
0
  3
EEL14_Begin_2-WWL14_End_2-1
  1

  0
LWPOLYLINE
  5
15B
100
AcDbEntity
  8
0
  6
ByLayer
 62
  256
370
   -1
100
AcDbPolyline
 90
   32
 70
    0
 43
0
 10
0
 20
0
 10
0
 20
-222
 10
5022
 20
-222
 10
5022
 20
-226
 10
6456
 20
-226
 10
6456
 20
2226
 10
5054
 20
2226
 10
5054
 20
2230
 10
-930
 20
2230
 10
-930
 20
2234
 10
-6914
 20
2234
 10
-6914
 20
2238
 10
-12898
 20
2238
 10
-12898
 20
2242
 10
-18882
 20
2242
 10
-18882
 20
2246
 10
-24866
 20
2246
 10
-24866
 20
2250
 10
-30850
 20
2250
 10
-30850
 20
2254
 10
-36834
 20
2254
 10
-36834
 20
2258
 10
-42818
 20
2258
 10
-42818
 20
2262
 10
-48802
 20
2262
 10
-48802
 20
2266
 10
-54786
 20
2266
 10
-54786
 20
2270
 10
-60770
 20
2270
 10
-60770
 20
2274
 10
-66000
 20
2274
 10
-66000
 20
2000
  0
ENDBLK
  5
115
330
113
100
AcDbEntity
  8
0
100
AcDbBlockEnd
  0
BLOCK
  5
117
330
116
100
AcDbEntity
  8
0
100
AcDbBlockBegin
  2
EEL14_Begin_3-WWL14_End_3-1
 70
    0
 10
0
 20
0
  3
EEL14_Begin_3-WWL14_End_3-1
  1

  0
LWPOLYLINE
  5
15C
100
AcDbEntity
  8
0
  6
ByLayer
 62
  256
370
   -1
100
AcDbPolyline
 90
   32
 70
    0
 43
0
 10
0
 20
0
 10
0
 20
-223
 10
5022
 20
-223
 10
5022
 20
-227
 10
6461
 20
-227
 10
6461
 20
2227
 10
5062
 20
2227
 10
5062
 20
2231
 10
-922
 20
2231
 10
-922
 20
2235
 10
-6906
 20
2235
 10
-6906
 20
2239
 10
-12890
 20
2239
 10
-12890
 20
2243
 10
-18874
 20
2243
 10
-18874
 20
2247
 10
-24858
 20
2247
 10
-24858
 20
2251
 10
-30842
 20
2251
 10
-30842
 20
2255
 10
-36826
 20
2255
 10
-36826
 20
2259
 10
-42810
 20
2259
 10
-42810
 20
2263
 10
-48794
 20
2263
 10
-48794
 20
2267
 10
-54778
 20
2267
 10
-54778
 20
2271
 10
-60762
 20
2271
 10
-60762
 20
2275
 10
-66000
 20
2275
 10
-66000
 20
2000
  0
ENDBLK
  5
118
330
116
100
AcDbEntity
  8
0
100
AcDbBlockEnd
  0
ENDSEC
  0
SECTION
  2
ENTITIES
  0
INSERT
  5
15D
100
AcDbEntity
  8
0
  6
ByLayer
 62
  256
370
   -1
100
AcDbBlockReference
  2
WWL2_Begin_0-EEL2_End_0-1
 10
9154
 20
2000
 30
0
 41
1
 42
1
 43
0
 50
0
 70
    1
 71
    1
 44
0
 45
0
  0
INSERT
  5
15E
100
AcDbEntity
  8
0
  6
ByLayer
 62
  256
370
   -1
100
AcDbBlockReference
  2
WWL2_Begin_1-EEL2_End_1-1
 10
9158
 20
2000
 30
0
 41
1
 42
1
 43
0
 50
0
 70
    1
 71
    1
 44
0
 45
0
  0
INSERT
  5
15F
100
AcDbEntity
  8
0
  6
ByLayer
 62
  256
370
   -1
100
AcDbBlockReference
  2
WWL2_Begin_2-EEL2_End_2-1
 10
9162
 20
2000
 30
0
 41
1
 42
1
 43
0
 50
0
 70
    1
 71
    1
 44
0
 45
0
  0
INSERT
  5
160
100
AcDbEntity
  8
0
  6
ByLayer
 62
  256
370
   -1
100
AcDbBlockReference
  2
WWL2_Begin_3-EEL2_End_3-1
 10
9166
 20
2000
 30
0
 41
1
 42
1
 43
0
 50
0
 70
    1
 71
    1
 44
0
 45
0
  0
INSERT
  5
161
100
AcDbEntity
  8
0
  6
ByLayer
 62
  256
370
   -1
100
AcDbBlockReference
  2
WWL2_Begin_4-EEL2_End_4-1
 10
9170
 20
2000
 30
0
 41
1
 42
1
 43
0
 50
0
 70
    1
 71
    1
 44
0
 45
0
  0
INSERT
  5
162
100
AcDbEntity
  8
0
  6
ByLayer
 62
  256
370
   -1
100
AcDbBlockReference
  2
WWL2_Begin_5-EEL2_End_5-1
 10
9174
 20
2000
 30
0
 41
1
 42
1
 43
0
 50
0
 70
    1
 71
    1
 44
0
 45
0
  0
INSERT
  5
163
100
AcDbEntity
  8
0
  6
ByLayer
 62
  256
370
   -1
100
AcDbBlockReference
  2
WWL2_Begin_6-EEL2_End_6-1
 10
9178
 20
2000
 30
0
 41
1
 42
1
 43
0
 50
0
 70
    1
 71
    1
 44
0
 45
0
  0
INSERT
  5
164
100
AcDbEntity
  8
0
  6
ByLayer
 62
  256
370
   -1
100
AcDbBlockReference
  2
WWL2_Begin_7-EEL2_End_7-1
 10
9182
 20
2000
 30
0
 41
1
 42
1
 43
0
 50
0
 70
    1
 71
    1
 44
0
 45
0
  0
INSERT
  5
165
100
AcDbEntity
  8
0
  6
ByLayer
 62
  256
370
   -1
100
AcDbBlockReference
  2
WWL3_Begin_0-EEL3_End_0-1
 10
9122
 20
2000
 30
0
 41
1
 42
1
 43
0
 50
0
 70
    1
 71
    1
 44
0
 45
0
  0
INSERT
  5
166
100
AcDbEntity
  8
0
  6
ByLayer
 62
  256
370
   -1
100
AcDbBlockReference
  2
WWL3_Begin_1-EEL3_End_1-1
 10
9126
 20
2000
 30
0
 41
1
 42
1
 43
0
 50
0
 70
    1
 71
    1
 44
0
 45
0
  0
INSERT
  5
167
100
AcDbEntity
  8
0
  6
ByLayer
 62
  256
370
   -1
100
AcDbBlockReference
  2
WWL3_Begin_2-EEL3_End_2-1
 10
9130
 20
2000
 30
0
 41
1
 42
1
 43
0
 50
0
 70
    1
 71
    1
 44
0
 45
0
  0
INSERT
  5
168
100
AcDbEntity
  8
0
  6
ByLayer
 62
  256
370
   -1
100
AcDbBlockReference
  2
WWL3_Begin_3-EEL3_End_3-1
 10
9134
 20
2000
 30
0
 41
1
 42
1
 43
0
 50
0
 70
    1
 71
    1
 44
0
 45
0
  0
INSERT
  5
169
100
AcDbEntity
  8
0
  6
ByLayer
 62
  256
370
   -1
100
AcDbBlockReference
  2
WWL3_Begin_4-EEL3_End_4-1
 10
9138
 20
2000
 30
0
 41
1
 42
1
 43
0
 50
0
 70
    1
 71
    1
 44
0
 45
0
  0
INSERT
  5
16A
100
AcDbEntity
  8
0
  6
ByLayer
 62
  256
370
   -1
100
AcDbBlockReference
  2
WWL3_Begin_5-EEL3_End_5-1
 10
9142
 20
2000
 30
0
 41
1
 42
1
 43
0
 50
0
 70
    1
 71
    1
 44
0
 45
0
  0
INSERT
  5
16B
100
AcDbEntity
  8
0
  6
ByLayer
 62
  256
370
   -1
100
AcDbBlockReference
  2
WWL3_Begin_6-EEL3_End_6-1
 10
9146
 20
2000
 30
0
 41
1
 42
1
 43
0
 50
0
 70
    1
 71
    1
 44
0
 45
0
  0
INSERT
  5
16C
100
AcDbEntity
  8
0
  6
ByLayer
 62
  256
370
   -1
100
AcDbBlockReference
  2
WWL3_Begin_7-EEL3_End_7-1
 10
9150
 20
2000
 30
0
 41
1
 42
1
 43
0
 50
0
 70
    1
 71
    1
 44
0
 45
0
  0
INSERT
  5
16D
100
AcDbEntity
  8
0
  6
ByLayer
 62
  256
370
   -1
100
AcDbBlockReference
  2
WWL4_Begin_0-EEL4_End_0-1
 10
9078
 20
2000
 30
0
 41
1
 42
1
 43
0
 50
0
 70
    1
 71
    1
 44
0
 45
0
  0
INSERT
  5
16E
100
AcDbEntity
  8
0
  6
ByLayer
 62
  256
370
   -1
100
AcDbBlockReference
  2
WWL4_Begin_1-EEL4_End_1-1
 10
9082
 20
2000
 30
0
 41
1
 42
1
 43
0
 50
0
 70
    1
 71
    1
 44
0
 45
0
  0
INSERT
  5
16F
100
AcDbEntity
  8
0
  6
ByLayer
 62
  256
370
   -1
100
AcDbBlockReference
  2
WWL4_Begin_2-EEL4_End_2-1
 10
9086
 20
2000
 30
0
 41
1
 42
1
 43
0
 50
0
 70
    1
 71
    1
 44
0
 45
0
  0
INSERT
  5
170
100
AcDbEntity
  8
0
  6
ByLayer
 62
  256
370
   -1
100
AcDbBlockReference
  2
WWL4_Begin_3-EEL4_End_3-1
 10
9090
 20
2000
 30
0
 41
1
 42
1
 43
0
 50
0
 70
    1
 71
    1
 44
0
 45
0
  0
INSERT
  5
171
100
AcDbEntity
  8
0
  6
ByLayer
 62
  256
370
   -1
100
AcDbBlockReference
  2
WWL4_Begin_4-EEL4_End_4-1
 10
9094
 20
2000
 30
0
 41
1
 42
1
 43
0
 50
0
 70
    1
 71
    1
 44
0
 45
0
  0
INSERT
  5
172
100
AcDbEntity
  8
0
  6
ByLayer
 62
  256
370
   -1
100
AcDbBlockReference
  2
WWL4_Begin_5-EEL4_End_5-1
 10
9098
 20
2000
 30
0
 41
1
 42
1
 43
0
 50
0
 70
    1
 71
    1
 44
0
 45
0
  0
INSERT
  5
173
100
AcDbEntity
  8
0
  6
ByLayer
 62
  256
370
   -1
100
AcDbBlockReference
  2
WWL6_Begin_0-EEL6_End_0-1
 10
9038
 20
2000
 30
0
 41
1
 42
1
 43
0
 50
0
 70
    1
 71
    1
 44
0
 45
0
  0
INSERT
  5
174
100
AcDbEntity
  8
0
  6
ByLayer
 62
  256
370
   -1
100
AcDbBlockReference
  2
WWL6_Begin_1-EEL6_End_1-1
 10
9042
 20
2000
 30
0
 41
1
 42
1
 43
0
 50
0
 70
    1
 71
    1
 44
0
 45
0
  0
INSERT
  5
175
100
AcDbEntity
  8
0
  6
ByLayer
 62
  256
370
   -1
100
AcDbBlockReference
  2
WWL6_Begin_2-EEL6_End_2-1
 10
9046
 20
2000
 30
0
 41
1
 42
1
 43
0
 50
0
 70
    1
 71
    1
 44
0
 45
0
  0
INSERT
  5
176
100
AcDbEntity
  8
0
  6
ByLayer
 62
  256
370
   -1
100
AcDbBlockReference
  2
WWL6_Begin_3-EEL6_End_3-1
 10
9050
 20
2000
 30
0
 41
1
 42
1
 43
0
 50
0
 70
    1
 71
    1
 44
0
 45
0
  0
INSERT
  5
177
100
AcDbEntity
  8
0
  6
ByLayer
 62
  256
370
   -1
100
AcDbBlockReference
  2
WWL6_Begin_4-EEL6_End_4-1
 10
9054
 20
2000
 30
0
 41
1
 42
1
 43
0
 50
0
 70
    1
 71
    1
 44
0
 45
0
  0
INSERT
  5
178
100
AcDbEntity
  8
0
  6
ByLayer
 62
  256
370
   -1
100
AcDbBlockReference
  2
WWL6_Begin_5-EEL6_End_5-1
 10
9058
 20
2000
 30
0
 41
1
 42
1
 43
0
 50
0
 70
    1
 71
    1
 44
0
 45
0
  0
INSERT
  5
179
100
AcDbEntity
  8
0
  6
ByLayer
 62
  256
370
   -1
100
AcDbBlockReference
  2
WWL6_Begin_6-EEL6_End_6-1
 10
9062
 20
2000
 30
0
 41
1
 42
1
 43
0
 50
0
 70
    1
 71
    1
 44
0
 45
0
  0
INSERT
  5
17A
100
AcDbEntity
  8
0
  6
ByLayer
 62
  256
370
   -1
100
AcDbBlockReference
  2
WWL6_Begin_7-EEL6_End_7-1
 10
9066
 20
2000
 30
0
 41
1
 42
1
 43
0
 50
0
 70
    1
 71
    1
 44
0
 45
0
  0
INSERT
  5
17B
100
AcDbEntity
  8
0
  6
ByLayer
 62
  256
370
   -1
100
AcDbBlockReference
  2
WWL14_Begin_0-EEL14_End_0-1
 10
9022
 20
2000
 30
0
 41
1
 42
1
 43
0
 50
0
 70
    1
 71
    1
 44
0
 45
0
  0
INSERT
  5
17C
100
AcDbEntity
  8
0
  6
ByLayer
 62
  256
370
   -1
100
AcDbBlockReference
  2
WWL14_Begin_1-EEL14_End_1-1
 10
9026
 20
2000
 30
0
 41
1
 42
1
 43
0
 50
0
 70
    1
 71
    1
 44
0
 45
0
  0
INSERT
  5
17D
100
AcDbEntity
  8
0
  6
ByLayer
 62
  256
370
   -1
100
AcDbBlockReference
  2
WWL14_Begin_2-EEL14_End_2-1
 10
9030
 20
2000
 30
0
 41
1
 42
1
 43
0
 50
0
 70
    1
 71
    1
 44
0
 45
0
  0
INSERT
  5
17E
100
AcDbEntity
  8
0
  6
ByLayer
 62
  256
370
   -1
100
AcDbBlockReference
  2
WWL14_Begin_3-EEL14_End_3-1
 10
9034
 20
2000
 30
0
 41
1
 42
1
 43
0
 50
0
 70
    1
 71
    1
 44
0
 45
0
  0
INSERT
  5
17F
100
AcDbEntity
  8
0
  6
ByLayer
 62
  256
370
   -1
100
AcDbBlockReference
  2
EEL2_Begin_0-WWL2_End_0-1
 10
-4154
 20
0
 30
0
 41
1
 42
1
 43
0
 50
0
 70
    1
 71
    1
 44
0
 45
0
  0
INSERT
  5
180
100
AcDbEntity
  8
0
  6
ByLayer
 62
  256
370
   -1
100
AcDbBlockReference
  2
EEL2_Begin_1-WWL2_End_1-1
 10
-4158
 20
0
 30
0
 41
1
 42
1
 43
0
 50
0
 70
    1
 71
    1
 44
0
 45
0
  0
INSERT
  5
181
100
AcDbEntity
  8
0
  6
ByLayer
 62
  256
370
   -1
100
AcDbBlockReference
  2
EEL2_Begin_2-WWL2_End_2-1
 10
-4162
 20
0
 30
0
 41
1
 42
1
 43
0
 50
0
 70
    1
 71
    1
 44
0
 45
0
  0
INSERT
  5
182
100
AcDbEntity
  8
0
  6
ByLayer
 62
  256
370
   -1
100
AcDbBlockReference
  2
EEL2_Begin_3-WWL2_End_3-1
 10
-4166
 20
0
 30
0
 41
1
 42
1
 43
0
 50
0
 70
    1
 71
    1
 44
0
 45
0
  0
INSERT
  5
183
100
AcDbEntity
  8
0
  6
ByLayer
 62
  256
370
   -1
100
AcDbBlockReference
  2
EEL2_Begin_4-WWL2_End_4-1
 10
-4170
 20
0
 30
0
 41
1
 42
1
 43
0
 50
0
 70
    1
 71
    1
 44
0
 45
0
  0
INSERT
  5
184
100
AcDbEntity
  8
0
  6
ByLayer
 62
  256
370
   -1
100
AcDbBlockReference
  2
EEL2_Begin_5-WWL2_End_5-1
 10
-4174
 20
0
 30
0
 41
1
 42
1
 43
0
 50
0
 70
    1
 71
    1
 44
0
 45
0
  0
INSERT
  5
185
100
AcDbEntity
  8
0
  6
ByLayer
 62
  256
370
   -1
100
AcDbBlockReference
  2
EEL2_Begin_6-WWL2_End_6-1
 10
-4178
 20
0
 30
0
 41
1
 42
1
 43
0
 50
0
 70
    1
 71
    1
 44
0
 45
0
  0
INSERT
  5
186
100
AcDbEntity
  8
0
  6
ByLayer
 62
  256
370
   -1
100
AcDbBlockReference
  2
EEL2_Begin_7-WWL2_End_7-1
 10
-4182
 20
0
 30
0
 41
1
 42
1
 43
0
 50
0
 70
    1
 71
    1
 44
0
 45
0
  0
INSERT
  5
187
100
AcDbEntity
  8
0
  6
ByLayer
 62
  256
370
   -1
100
AcDbBlockReference
  2
EEL3_Begin_0-WWL3_End_0-1
 10
-4122
 20
0
 30
0
 41
1
 42
1
 43
0
 50
0
 70
    1
 71
    1
 44
0
 45
0
  0
INSERT
  5
188
100
AcDbEntity
  8
0
  6
ByLayer
 62
  256
370
   -1
100
AcDbBlockReference
  2
EEL3_Begin_1-WWL3_End_1-1
 10
-4126
 20
0
 30
0
 41
1
 42
1
 43
0
 50
0
 70
    1
 71
    1
 44
0
 45
0
  0
INSERT
  5
189
100
AcDbEntity
  8
0
  6
ByLayer
 62
  256
370
   -1
100
AcDbBlockReference
  2
EEL3_Begin_2-WWL3_End_2-1
 10
-4130
 20
0
 30
0
 41
1
 42
1
 43
0
 50
0
 70
    1
 71
    1
 44
0
 45
0
  0
INSERT
  5
18A
100
AcDbEntity
  8
0
  6
ByLayer
 62
  256
370
   -1
100
AcDbBlockReference
  2
EEL3_Begin_3-WWL3_End_3-1
 10
-4134
 20
0
 30
0
 41
1
 42
1
 43
0
 50
0
 70
    1
 71
    1
 44
0
 45
0
  0
INSERT
  5
18B
100
AcDbEntity
  8
0
  6
ByLayer
 62
  256
370
   -1
100
AcDbBlockReference
  2
EEL3_Begin_4-WWL3_End_4-1
 10
-4138
 20
0
 30
0
 41
1
 42
1
 43
0
 50
0
 70
    1
 71
    1
 44
0
 45
0
  0
INSERT
  5
18C
100
AcDbEntity
  8
0
  6
ByLayer
 62
  256
370
   -1
100
AcDbBlockReference
  2
EEL3_Begin_5-WWL3_End_5-1
 10
-4142
 20
0
 30
0
 41
1
 42
1
 43
0
 50
0
 70
    1
 71
    1
 44
0
 45
0
  0
INSERT
  5
18D
100
AcDbEntity
  8
0
  6
ByLayer
 62
  256
370
   -1
100
AcDbBlockReference
  2
EEL3_Begin_6-WWL3_End_6-1
 10
-4146
 20
0
 30
0
 41
1
 42
1
 43
0
 50
0
 70
    1
 71
    1
 44
0
 45
0
  0
INSERT
  5
18E
100
AcDbEntity
  8
0
  6
ByLayer
 62
  256
370
   -1
100
AcDbBlockReference
  2
EEL3_Begin_7-WWL3_End_7-1
 10
-4150
 20
0
 30
0
 41
1
 42
1
 43
0
 50
0
 70
    1
 71
    1
 44
0
 45
0
  0
INSERT
  5
18F
100
AcDbEntity
  8
0
  6
ByLayer
 62
  256
370
   -1
100
AcDbBlockReference
  2
EEL4_Begin_0-WWL4_End_0-1
 10
-4078
 20
0
 30
0
 41
1
 42
1
 43
0
 50
0
 70
    1
 71
    1
 44
0
 45
0
  0
INSERT
  5
190
100
AcDbEntity
  8
0
  6
ByLayer
 62
  256
370
   -1
100
AcDbBlockReference
  2
EEL4_Begin_1-WWL4_End_1-1
 10
-4082
 20
0
 30
0
 41
1
 42
1
 43
0
 50
0
 70
    1
 71
    1
 44
0
 45
0
  0
INSERT
  5
191
100
AcDbEntity
  8
0
  6
ByLayer
 62
  256
370
   -1
100
AcDbBlockReference
  2
EEL4_Begin_2-WWL4_End_2-1
 10
-4086
 20
0
 30
0
 41
1
 42
1
 43
0
 50
0
 70
    1
 71
    1
 44
0
 45
0
  0
INSERT
  5
192
100
AcDbEntity
  8
0
  6
ByLayer
 62
  256
370
   -1
100
AcDbBlockReference
  2
EEL4_Begin_3-WWL4_End_3-1
 10
-4090
 20
0
 30
0
 41
1
 42
1
 43
0
 50
0
 70
    1
 71
    1
 44
0
 45
0
  0
INSERT
  5
193
100
AcDbEntity
  8
0
  6
ByLayer
 62
  256
370
   -1
100
AcDbBlockReference
  2
EEL4_Begin_4-WWL4_End_4-1
 10
-4094
 20
0
 30
0
 41
1
 42
1
 43
0
 50
0
 70
    1
 71
    1
 44
0
 45
0
  0
INSERT
  5
194
100
AcDbEntity
  8
0
  6
ByLayer
 62
  256
370
   -1
100
AcDbBlockReference
  2
EEL4_Begin_5-WWL4_End_5-1
 10
-4098
 20
0
 30
0
 41
1
 42
1
 43
0
 50
0
 70
    1
 71
    1
 44
0
 45
0
  0
INSERT
  5
195
100
AcDbEntity
  8
0
  6
ByLayer
 62
  256
370
   -1
100
AcDbBlockReference
  2
EEL6_Begin_0-WWL6_End_0-1
 10
-4038
 20
0
 30
0
 41
1
 42
1
 43
0
 50
0
 70
    1
 71
    1
 44
0
 45
0
  0
INSERT
  5
196
100
AcDbEntity
  8
0
  6
ByLayer
 62
  256
370
   -1
100
AcDbBlockReference
  2
EEL6_Begin_1-WWL6_End_1-1
 10
-4042
 20
0
 30
0
 41
1
 42
1
 43
0
 50
0
 70
    1
 71
    1
 44
0
 45
0
  0
INSERT
  5
197
100
AcDbEntity
  8
0
  6
ByLayer
 62
  256
370
   -1
100
AcDbBlockReference
  2
EEL6_Begin_2-WWL6_End_2-1
 10
-4046
 20
0
 30
0
 41
1
 42
1
 43
0
 50
0
 70
    1
 71
    1
 44
0
 45
0
  0
INSERT
  5
198
100
AcDbEntity
  8
0
  6
ByLayer
 62
  256
370
   -1
100
AcDbBlockReference
  2
EEL6_Begin_3-WWL6_End_3-1
 10
-4050
 20
0
 30
0
 41
1
 42
1
 43
0
 50
0
 70
    1
 71
    1
 44
0
 45
0
  0
INSERT
  5
199
100
AcDbEntity
  8
0
  6
ByLayer
 62
  256
370
   -1
100
AcDbBlockReference
  2
EEL6_Begin_4-WWL6_End_4-1
 10
-4054
 20
0
 30
0
 41
1
 42
1
 43
0
 50
0
 70
    1
 71
    1
 44
0
 45
0
  0
INSERT
  5
19A
100
AcDbEntity
  8
0
  6
ByLayer
 62
  256
370
   -1
100
AcDbBlockReference
  2
EEL6_Begin_5-WWL6_End_5-1
 10
-4058
 20
0
 30
0
 41
1
 42
1
 43
0
 50
0
 70
    1
 71
    1
 44
0
 45
0
  0
INSERT
  5
19B
100
AcDbEntity
  8
0
  6
ByLayer
 62
  256
370
   -1
100
AcDbBlockReference
  2
EEL6_Begin_6-WWL6_End_6-1
 10
-4062
 20
0
 30
0
 41
1
 42
1
 43
0
 50
0
 70
    1
 71
    1
 44
0
 45
0
  0
INSERT
  5
19C
100
AcDbEntity
  8
0
  6
ByLayer
 62
  256
370
   -1
100
AcDbBlockReference
  2
EEL6_Begin_7-WWL6_End_7-1
 10
-4066
 20
0
 30
0
 41
1
 42
1
 43
0
 50
0
 70
    1
 71
    1
 44
0
 45
0
  0
INSERT
  5
19D
100
AcDbEntity
  8
0
  6
ByLayer
 62
  256
370
   -1
100
AcDbBlockReference
  2
EEL14_Begin_0-WWL14_End_0-1
 10
-4022
 20
0
 30
0
 41
1
 42
1
 43
0
 50
0
 70
    1
 71
    1
 44
0
 45
0
  0
INSERT
  5
19E
100
AcDbEntity
  8
0
  6
ByLayer
 62
  256
370
   -1
100
AcDbBlockReference
  2
EEL14_Begin_1-WWL14_End_1-1
 10
-4026
 20
0
 30
0
 41
1
 42
1
 43
0
 50
0
 70
    1
 71
    1
 44
0
 45
0
  0
INSERT
  5
19F
100
AcDbEntity
  8
0
  6
ByLayer
 62
  256
370
   -1
100
AcDbBlockReference
  2
EEL14_Begin_2-WWL14_End_2-1
 10
-4030
 20
0
 30
0
 41
1
 42
1
 43
0
 50
0
 70
    1
 71
    1
 44
0
 45
0
  0
INSERT
  5
1A0
100
AcDbEntity
  8
0
  6
ByLayer
 62
  256
370
   -1
100
AcDbBlockReference
  2
EEL14_Begin_3-WWL14_End_3-1
 10
-4034
 20
0
 30
0
 41
1
 42
1
 43
0
 50
0
 70
    1
 71
    1
 44
0
 45
0
  0
ENDSEC
  0
SECTION
  2
OBJECTS
  0
DICTIONARY
  5
C
330
0
100
AcDbDictionary
281
    1
  3
ACAD_GROUP
350
D
  0
DICTIONARY
  5
D
330
C
100
AcDbDictionary
281
    1
  0
PLOTSETTINGS
  5
1A1
100
AcDbPlotSettings
  6
1x1
 40
0
 41
0
 42
0
 43
0
  0
ENDSEC
  0
EOF
