999
dxfrw 0.6.3
  0
SECTION
  2
HEADER
  9
$ACADVER
  1
AC1021
  9
$DWGCODEPAGE
  3
ANSI_1252
  9
$INSBASE
 10
0
 20
0
 30
0
  9
$EXTMIN
 10
-275
 20
-37034
 30
0
  9
$EXTMAX
 10
2275
 20
2475
 30
0
  9
$LIMMIN
 10
0
 20
0
  9
$LIMMAX
 10
420
 20
297
  9
$ORTHOMODE
 70
    0
  9
$REGENMODE
 70
    1
  9
$FILLMODE
 70
    1
  9
$QTEXTMODE
 70
    0
  9
$MIRRTEXT
 70
    0
  9
$LTSCALE
 40
1
  9
$ATTMODE
 70
    0
  9
$TEXTSIZE
 40
2.5
  9
$TRACEWID
 40
15.68
  9
$TEXTSTYLE
  7
STANDARD
  9
$CLAYER
  8
0
  9
$CELTYPE
  6
BYLAYER
  9
$CECOLOR
 62
  256
  9
$CELTSCALE
 40
1
  9
$DISPSILH
 70
    0
  9
$DIMSCALE
 40
2.5
  9
$DIMASZ
 40
2.5
  9
$DIMEXO
 40
0.625
  9
$DIMDLI
 40
3.75
  9
$DIMRND
 40
0
  9
$DIMDLE
 40
0
  9
$DIMEXE
 40
1.25
  9
$DIMTP
 40
0
  9
$DIMTM
 40
0
  9
$DIMTXT
 40
2.5
  9
$DIMCEN
 40
2.5
  9
$DIMTSZ
 40
0
  9
$DIMTOL
 70
    0
  9
$DIMLIM
 70
    0
  9
$DIMTIH
 70
    0
  9
$DIMTOH
 70
    0
  9
$DIMSE1
 70
    0
  9
$DIMSE2
 70
    0
  9
$DIMTAD
 70
    1
  9
$DIMZIN
 70
    8
  9
$DIMBLK
  1

  9
$DIMASO
 70
    1
  9
$DIMSHO
 70
    1
  9
$DIMPOST
  1

  9
$DIMAPOST
  1

  9
$DIMALT
 70
    0
  9
$DIMALTD
 70
    3
  9
$DIMALTF
 40
0.03937
  9
$DIMLFAC
 40
1
  9
$DIMTOFL
 70
    1
  9
$DIMTVP
 40
0
  9
$DIMTIX
 70
    0
  9
$DIMSOXD
 70
    0
  9
$DIMSAH
 70
    0
  9
$DIMBLK1
  1

  9
$DIMBLK2
  1

  9
$DIMSTYLE
  2
STANDARD
  9
$DIMCLRD
 70
    0
  9
$DIMCLRE
 70
    0
  9
$DIMCLRT
 70
    0
  9
$DIMTFAC
 40
1
  9
$DIMGAP
 40
0.625
  9
$DIMJUST
 70
    0
  9
$DIMSD1
 70
    0
  9
$DIMSD2
 70
    0
  9
$DIMTOLJ
 70
    0
  9
$DIMTZIN
 70
    8
  9
$DIMALTZ
 70
    0
  9
$DIMALTTZ
 70
    0
  9
$DIMUPT
 70
    0
  9
$DIMDEC
 70
    2
  9
$DIMTDEC
 70
    2
  9
$DIMALTU
 70
    2
  9
$DIMALTTD
 70
    3
  9
$DIMTXSTY
  7
STANDARD
  9
$DIMAUNIT
 70
    0
  9
$DIMADEC
 70
    0
  9
$DIMALTRND
 40
0
  9
$DIMAZIN
 70
    0
  9
$DIMDSEP
 70
   44
  9
$DIMATFIT
 70
    3
  9
$DIMFRAC
 70
    0
  9
$DIMLDRBLK
  1
STANDARD
  9
$DIMLUNIT
 70
    2
  9
$DIMLWD
 70
   -2
  9
$DIMLWE
 70
   -2
  9
$DIMTMOVE
 70
    0
  9
$DIMFXL
 40
1
  9
$DIMFXLON
 70
    0
  9
$DIMJOGANG
 40
0.7854
  9
$DIMTFILL
 70
    0
  9
$DIMTFILLCLR
 70
    0
  9
$DIMARCSYM
 70
    0
  9
$DIMLTYPE
  6

  9
$DIMLTEX1
  6

  9
$DIMLTEX2
  6

  9
$LUNITS
 70
    2
  9
$LUPREC
 70
    4
  9
$SKETCHINC
 40
1
  9
$FILLETRAD
 40
0
  9
$AUNITS
 70
    0
  9
$AUPREC
 70
    2
  9
$MENU
  1
.
  9
$ELEVATION
 40
0
  9
$PELEVATION
 40
0
  9
$THICKNESS
 40
0
  9
$LIMCHECK
 70
    0
  9
$CHAMFERA
 40
0
  9
$CHAMFERB
 40
0
  9
$CHAMFERC
 40
0
  9
$CHAMFERD
 40
0
  9
$SKPOLY
 70
    0
  9
$USRTIMER
 70
    1
  9
$ANGBASE
 50
0
  9
$ANGDIR
 70
    0
  9
$PDMODE
 70
   34
  9
$PDSIZE
 40
0
  9
$PLINEWID
 40
0
  9
$SPLFRAME
 70
    0
  9
$SPLINETYPE
 70
    2
  9
$SPLINESEGS
 70
    8
  9
$HANDSEED
  5
20000
  9
$SURFTAB1
 70
    6
  9
$SURFTAB2
 70
    6
  9
$SURFTYPE
 70
    6
  9
$SURFU
 70
    6
  9
$SURFV
 70
    6
  9
$UCSBASE
  2

  9
$UCSNAME
  2

  9
$UCSORG
 10
0
 20
0
 30
0
  9
$UCSXDIR
 10
1
 20
0
 30
0
  9
$UCSYDIR
 10
0
 20
1
 30
0
  9
$UCSORTHOREF
  2

  9
$UCSORTHOVIEW
 70
    0
  9
$UCSORGTOP
 10
0
 20
0
 30
0
  9
$UCSORGBOTTOM
 10
0
 20
0
 30
0
  9
$UCSORGLEFT
 10
0
 20
0
 30
0
  9
$UCSORGRIGHT
 10
0
 20
0
 30
0
  9
$UCSORGFRONT
 10
0
 20
0
 30
0
  9
$UCSORGBACK
 10
0
 20
0
 30
0
  9
$PUCSBASE
  2

  9
$PUCSNAME
  2

  9
$PUCSORG
 10
0
 20
0
 30
0
  9
$PUCSXDIR
 10
1
 20
0
 30
0
  9
$PUCSYDIR
 10
0
 20
1
 30
0
  9
$PUCSORTHOREF
  2

  9
$PUCSORTHOVIEW
 70
    0
  9
$PUCSORGTOP
 10
0
 20
0
 30
0
  9
$PUCSORGBOTTOM
 10
0
 20
0
 30
0
  9
$PUCSORGLEFT
 10
0
 20
0
 30
0
  9
$PUCSORGRIGHT
 10
0
 20
0
 30
0
  9
$PUCSORGFRONT
 10
0
 20
0
 30
0
  9
$PUCSORGBACK
 10
0
 20
0
 30
0
  9
$USERI1
 70
    0
  9
$USERI2
 70
    0
  9
$USERI3
 70
    0
  9
$USERI4
 70
    0
  9
$USERI5
 70
    0
  9
$USERR1
 40
0
  9
$USERR2
 40
0
  9
$USERR3
 40
0
  9
$USERR4
 40
0
  9
$USERR5
 40
0
  9
$WORLDVIEW
 70
    1
  9
$SHADEDGE
 70
    3
  9
$SHADEDIF
 70
   70
  9
$TILEMODE
 70
    1
  9
$MAXACTVP
 70
   64
  9
$PINSBASE
 10
0
 20
0
 30
0
  9
$PLIMCHECK
 70
    0
  9
$PEXTMIN
 10
0
 20
0
 30
0
  9
$PEXTMAX
 10
0
 20
0
 30
0
  9
$SNAPSTYLE
 70
    0
  9
$PLIMMIN
 10
0
 20
0
  9
$PLIMMAX
 10
210000000
 20
297000000
  9
$UNITMODE
 70
    0
  9
$VISRETAIN
 70
    1
  9
$PLINEGEN
 70
    0
  9
$PSLTSCALE
 70
    1
  9
$TREEDEPTH
 70
 3020
  9
$CMLSTYLE
  2
Standard
  9
$CMLJUST
 70
    0
  9
$CMLSCALE
 40
20
  9
$PROXYGRAPHICS
 70
    1
  9
$MEASUREMENT
 70
    1
  9
$CELWEIGHT
370
   -1
  9
$ENDCAPS
280
    0
  9
$JOINSTYLE
280
    0
  9
$LWDISPLAY
290
    0
  9
$INSUNITS
 70
    0
  9
$HYPERLINKBASE
  1

  9
$STYLESHEET
  1

  9
$XEDIT
290
    1
  9
$CEPSNTYPE
380
    0
  9
$PSTYLEMODE
290
    1
  9
$EXTNAMES
290
    1
  9
$PSVPSCALE
 40
1
  9
$OLESTARTUP
290
    0
  9
$SORTENTS
280
  127
  9
$INDEXCTL
280
    0
  9
$HIDETEXT
280
    1
  9
$XCLIPFRAME
290
    0
  9
$HALOGAP
280
    0
  9
$OBSCOLOR
 70
  257
  9
$OBSLTYPE
280
    0
  9
$INTERSECTIONDISPLAY
280
    0
  9
$INTERSECTIONCOLOR
 70
  257
  9
$DIMASSOC
280
    1
  9
$PROJECTNAME
  1

  9
$CAMERADISPLAY
290
    0
  9
$LENSLENGTH
 40
50
  9
$CAMERAHEIGHT
 40
0
  9
$STEPSPERSEC
 40
2
  9
$STEPSIZE
 40
50
  9
$3DDWFPREC
 40
2
  9
$PSOLWIDTH
 40
5
  9
$PSOLHEIGHT
 40
80
  9
$LOFTANG1
 40
1.570796326794897
  9
$LOFTANG2
 40
1.570796326794897
  9
$LOFTMAG1
 40
0
  9
$LOFTMAG2
 40
0
  9
$LOFTPARAM
 70
    7
  9
$LOFTNORMALS
280
    1
  9
$LATITUDE
 40
1
  9
$LONGITUDE
 40
1
  9
$NORTHDIRECTION
 40
0
  9
$TIMEZONE
 70
-8000
  9
$LIGHTGLYPHDISPLAY
280
    1
  9
$TILEMODELIGHTSYNCH
280
    1
  9
$SOLIDHIST
280
    1
  9
$SHOWHIST
280
    1
  9
$DWFFRAME
280
    2
  9
$DGNFRAME
280
    0
  9
$REALWORLDSCALE
290
    1
  9
$INTERFERECOLOR
 62
    1
  9
$CSHADOW
280
    0
  9
$SHADOWPLANELOCATION
 40
0
  0
ENDSEC
  0
SECTION
  2
CLASSES
  0
ENDSEC
  0
SECTION
  2
TABLES
  0
TABLE
  2
VPORT
  5
8
330
0
100
AcDbSymbolTable
 70
    1
  0
VPORT
  5
31
330
2
100
AcDbSymbolTableRecord
100
AcDbViewportTableRecord
  2
*ACTIVE
 70
    0
 10
0
 20
0
 11
1
 21
1
 12
11874.99999180014
 22
4335.519268954868
 13
0
 23
0
 14
10
 24
10
 15
10
 25
10
 16
0
 26
0
 36
1
 17
0
 27
0
 37
0
 40
29674.78584674681
 41
1.794344473007712
 42
50
 43
0
 44
0
 50
0
 51
0
 71
    0
 72
  100
 73
    1
 74
    3
 75
    0
 76
    1
 77
    0
 78
    0
281
    0
 65
    1
110
0
120
0
130
0
111
1
121
0
131
0
112
0
122
1
132
0
 79
    0
146
0
348
10020
 60
    7
 61
    5
292
1
282
    1
141
0
142
0
 63
  250
421
3358443
  0
ENDTAB
  0
TABLE
  2
LTYPE
  5
5
330
0
100
AcDbSymbolTable
 70
    4
  0
LTYPE
  5
14
330
5
100
AcDbSymbolTableRecord
100
AcDbLinetypeTableRecord
  2
ByBlock
 70
    0
  3

 72
   65
 73
    0
 40
0
  0
LTYPE
  5
15
330
5
100
AcDbSymbolTableRecord
100
AcDbLinetypeTableRecord
  2
ByLayer
 70
    0
  3

 72
   65
 73
    0
 40
0
  0
LTYPE
  5
16
330
5
100
AcDbSymbolTableRecord
100
AcDbLinetypeTableRecord
  2
Continuous
 70
    0
  3
Solid line
 72
   65
 73
    0
 40
0
  0
LTYPE
  5
32
330
5
100
AcDbSymbolTableRecord
100
AcDbLinetypeTableRecord
  2
DOT
 70
    0
  3
Dot . . . . . . . . . . . . . . . . . . . . . .
 72
   65
 73
    2
 40
6.35
 49
0
 74
    0
 49
-6.35
 74
    0
  0
LTYPE
  5
33
330
5
100
AcDbSymbolTableRecord
100
AcDbLinetypeTableRecord
  2
DOTTINY
 70
    0
  3
Dot (.15x) .....................................
 72
   65
 73
    2
 40
0.9525
 49
0
 74
    0
 49
-0.9525
 74
    0
  0
LTYPE
  5
34
330
5
100
AcDbSymbolTableRecord
100
AcDbLinetypeTableRecord
  2
DOT2
 70
    0
  3
Dot (.5x) .....................................
 72
   65
 73
    2
 40
3.175
 49
0
 74
    0
 49
-3.175
 74
    0
  0
LTYPE
  5
35
330
5
100
AcDbSymbolTableRecord
100
AcDbLinetypeTableRecord
  2
DOTX2
 70
    0
  3
Dot (2x) .  .  .  .  .  .  .  .  .  .  .  .  .
 72
   65
 73
    2
 40
12.7
 49
0
 74
    0
 49
-12.7
 74
    0
  0
LTYPE
  5
36
330
5
100
AcDbSymbolTableRecord
100
AcDbLinetypeTableRecord
  2
DASHED
 70
    0
  3
Dashed _ _ _ _ _ _ _ _ _ _ _ _ _ _ _ _ _
 72
   65
 73
    2
 40
19.05
 49
12.7
 74
    0
 49
-6.35
 74
    0
  0
LTYPE
  5
37
330
5
100
AcDbSymbolTableRecord
100
AcDbLinetypeTableRecord
  2
DASHEDTINY
 70
    0
  3
Dashed (.15x) _ _ _ _ _ _ _ _ _ _ _ _ _ _ _ _ _
 72
   65
 73
    2
 40
2.8575
 49
1.905
 74
    0
 49
-0.9525
 74
    0
  0
LTYPE
  5
38
330
5
100
AcDbSymbolTableRecord
100
AcDbLinetypeTableRecord
  2
DASHED2
 70
    0
  3
Dashed (.5x) _ _ _ _ _ _ _ _ _ _ _ _ _ _ _ _ _
 72
   65
 73
    2
 40
9.524999999999999
 49
6.35
 74
    0
 49
-3.175
 74
    0
  0
LTYPE
  5
39
330
5
100
AcDbSymbolTableRecord
100
AcDbLinetypeTableRecord
  2
DASHEDX2
 70
    0
  3
Dashed (2x) ____  ____  ____  ____  ____  ___
 72
   65
 73
    2
 40
38.09999999999999
 49
25.4
 74
    0
 49
-12.7
 74
    0
  0
LTYPE
  5
3A
330
5
100
AcDbSymbolTableRecord
100
AcDbLinetypeTableRecord
  2
DASHDOT
 70
    0
  3
Dash dot __ . __ . __ . __ . __ . __ . __ . __
 72
   65
 73
    4
 40
25.4
 49
12.7
 74
    0
 49
-6.35
 74
    0
 49
0
 74
    0
 49
-6.35
 74
    0
  0
LTYPE
  5
3B
330
5
100
AcDbSymbolTableRecord
100
AcDbLinetypeTableRecord
  2
DASHDOTTINY
 70
    0
  3
Dash dot (.15x) _._._._._._._._._._._._._._._.
 72
   65
 73
    4
 40
3.81
 49
1.905
 74
    0
 49
-0.9525
 74
    0
 49
0
 74
    0
 49
-0.9525
 74
    0
  0
LTYPE
  5
3C
330
5
100
AcDbSymbolTableRecord
100
AcDbLinetypeTableRecord
  2
DASHDOT2
 70
    0
  3
Dash dot (.5x) _._._._._._._._._._._._._._._.
 72
   65
 73
    4
 40
12.7
 49
6.35
 74
    0
 49
-3.175
 74
    0
 49
0
 74
    0
 49
-3.175
 74
    0
  0
LTYPE
  5
3D
330
5
100
AcDbSymbolTableRecord
100
AcDbLinetypeTableRecord
  2
DASHDOTX2
 70
    0
  3
Dash dot (2x) ____  .  ____  .  ____  .  ___
 72
   65
 73
    4
 40
50.8
 49
25.4
 74
    0
 49
-12.7
 74
    0
 49
0
 74
    0
 49
-12.7
 74
    0
  0
LTYPE
  5
3E
330
5
100
AcDbSymbolTableRecord
100
AcDbLinetypeTableRecord
  2
DIVIDE
 70
    0
  3
Divide ____ . . ____ . . ____ . . ____ . . ____
 72
   65
 73
    6
 40
31.75
 49
12.7
 74
    0
 49
-6.35
 74
    0
 49
0
 74
    0
 49
-6.35
 74
    0
 49
0
 74
    0
 49
-6.35
 74
    0
  0
LTYPE
  5
3F
330
5
100
AcDbSymbolTableRecord
100
AcDbLinetypeTableRecord
  2
DIVIDETINY
 70
    0
  3
Divide (.15x) __..__..__..__..__..__..__..__.._
 72
   65
 73
    6
 40
4.7625
 49
1.905
 74
    0
 49
-0.9525
 74
    0
 49
0
 74
    0
 49
-0.9525
 74
    0
 49
0
 74
    0
 49
-0.9525
 74
    0
  0
LTYPE
  5
40
330
5
100
AcDbSymbolTableRecord
100
AcDbLinetypeTableRecord
  2
DIVIDE2
 70
    0
  3
Divide (.5x) __..__..__..__..__..__..__..__.._
 72
   65
 73
    6
 40
15.875
 49
6.35
 74
    0
 49
-3.175
 74
    0
 49
0
 74
    0
 49
-3.175
 74
    0
 49
0
 74
    0
 49
-3.175
 74
    0
  0
LTYPE
  5
41
330
5
100
AcDbSymbolTableRecord
100
AcDbLinetypeTableRecord
  2
DIVIDEX2
 70
    0
  3
Divide (2x) ________  .  .  ________  .  .  _
 72
   65
 73
    6
 40
63.5
 49
25.4
 74
    0
 49
-12.7
 74
    0
 49
0
 74
    0
 49
-12.7
 74
    0
 49
0
 74
    0
 49
-12.7
 74
    0
  0
LTYPE
  5
42
330
5
100
AcDbSymbolTableRecord
100
AcDbLinetypeTableRecord
  2
BORDER
 70
    0
  3
Border __ __ . __ __ . __ __ . __ __ . __ __ .
 72
   65
 73
    6
 40
44.45
 49
12.7
 74
    0
 49
-6.35
 74
    0
 49
12.7
 74
    0
 49
-6.35
 74
    0
 49
0
 74
    0
 49
-6.35
 74
    0
  0
LTYPE
  5
43
330
5
100
AcDbSymbolTableRecord
100
AcDbLinetypeTableRecord
  2
BORDERTINY
 70
    0
  3
Border (.15x) __.__.__.__.__.__.__.__.__.__.__.
 72
   65
 73
    6
 40
6.6675
 49
1.905
 74
    0
 49
-0.9525
 74
    0
 49
1.905
 74
    0
 49
-0.9525
 74
    0
 49
0
 74
    0
 49
-0.9525
 74
    0
  0
LTYPE
  5
44
330
5
100
AcDbSymbolTableRecord
100
AcDbLinetypeTableRecord
  2
BORDER2
 70
    0
  3
Border (.5x) __.__.__.__.__.__.__.__.__.__.__.
 72
   65
 73
    6
 40
22.225
 49
6.35
 74
    0
 49
-3.175
 74
    0
 49
6.35
 74
    0
 49
-3.175
 74
    0
 49
0
 74
    0
 49
-3.175
 74
    0
  0
LTYPE
  5
45
330
5
100
AcDbSymbolTableRecord
100
AcDbLinetypeTableRecord
  2
BORDERX2
 70
    0
  3
Border (2x) ____  ____  .  ____  ____  .  ___
 72
   65
 73
    6
 40
88.89999999999999
 49
25.4
 74
    0
 49
-12.7
 74
    0
 49
25.4
 74
    0
 49
-12.7
 74
    0
 49
0
 74
    0
 49
-12.7
 74
    0
  0
LTYPE
  5
46
330
5
100
AcDbSymbolTableRecord
100
AcDbLinetypeTableRecord
  2
CENTER
 70
    0
  3
Center ____ _ ____ _ ____ _ ____ _ ____ _ ____
 72
   65
 73
    4
 40
50.8
 49
31.75
 74
    0
 49
-6.35
 74
    0
 49
6.35
 74
    0
 49
-6.35
 74
    0
  0
LTYPE
  5
47
330
5
100
AcDbSymbolTableRecord
100
AcDbLinetypeTableRecord
  2
CENTERTINY
 70
    0
  3
Center (.15x) ___ _ ___ _ ___ _ ___ _ ___ _ ___
 72
   65
 73
    4
 40
7.62
 49
4.7625
 74
    0
 49
-0.9525
 74
    0
 49
0.9525
 74
    0
 49
-0.9525
 74
    0
  0
LTYPE
  5
48
330
5
100
AcDbSymbolTableRecord
100
AcDbLinetypeTableRecord
  2
CENTER2
 70
    0
  3
Center (.5x) ___ _ ___ _ ___ _ ___ _ ___ _ ___
 72
   65
 73
    4
 40
28.575
 49
19.05
 74
    0
 49
-3.175
 74
    0
 49
3.175
 74
    0
 49
-3.175
 74
    0
  0
LTYPE
  5
49
330
5
100
AcDbSymbolTableRecord
100
AcDbLinetypeTableRecord
  2
CENTERX2
 70
    0
  3
Center (2x) ________  __  ________  __  _____
 72
   65
 73
    4
 40
101.6
 49
63.5
 74
    0
 49
-12.7
 74
    0
 49
12.7
 74
    0
 49
-12.7
 74
    0
  0
ENDTAB
  0
TABLE
  2
LAYER
  5
2
330
0
100
AcDbSymbolTable
 70
    1
  0
LAYER
  5
10
330
2
100
AcDbSymbolTableRecord
100
AcDbLayerTableRecord
  2
0
 70
    0
 62
    7
  6
CONTINUOUS
370
    0
390
F
  0
ENDTAB
  0
TABLE
  2
STYLE
  5
3
330
0
100
AcDbSymbolTable
 70
    3
  0
STYLE
  5
4A
330
2
100
AcDbSymbolTableRecord
100
AcDbTextStyleTableRecord
  2
Standard
 70
    0
 40
0
 41
1
 50
0
 71
    0
 42
1
  3
txt
  4

  0
ENDTAB
  0
TABLE
  2
VIEW
  5
6
330
0
100
AcDbSymbolTable
 70
    0
  0
ENDTAB
  0
TABLE
  2
UCS
  5
7
330
0
100
AcDbSymbolTable
 70
    0
  0
ENDTAB
  0
TABLE
  2
APPID
  5
9
330
0
100
AcDbSymbolTable
 70
    1
  0
APPID
  5
12
330
9
100
AcDbSymbolTableRecord
100
AcDbRegAppTableRecord
  2
ACAD
 70
    0
  0
APPID
  5
4B
330
9
100
AcDbSymbolTableRecord
100
AcDbRegAppTableRecord
  2
LibreCad
 70
    0
  0
ENDTAB
  0
TABLE
  2
DIMSTYLE
  5
A
330
0
100
AcDbSymbolTable
 70
    1
100
AcDbDimStyleTable
 71
    1
  0
DIMSTYLE
105
4C
330
A
100
AcDbSymbolTableRecord
100
AcDbDimStyleTableRecord
  2
Standard
 70
    0
 40
1
 41
2.5
 42
0.625
 43
0.38
 44
1.25
 45
0
 46
0
 47
0
 48
0
 49
1
140
2.5
141
0.09
142
2.5
143
25.4
144
1
145
0
146
1
147
0.625
148
0
 71
    0
 72
    0
 73
    0
 74
    1
 75
    0
 76
    0
 77
    0
 78
    1
 79
    0
170
    0
171
    2
172
    0
173
    0
174
    0
175
    0
176
    0
177
    0
178
    0
179
    0
271
    2
272
    4
273
    2
274
    2
275
    0
276
    0
277
    2
278
    0
279
    0
280
    0
281
    0
282
    0
283
    1
284
    0
285
    0
286
    0
288
    0
289
    3
340
standard
341

371
   -2
372
   -2
  0
ENDTAB
  0
TABLE
  2
BLOCK_RECORD
  5
1
330
0
100
AcDbSymbolTable
 70
    2
  0
BLOCK_RECORD
  5
1F
330
1
100
AcDbSymbolTableRecord
100
AcDbBlockTableRecord
  2
*Model_Space
 70
    0
280
    1
281
    0
  0
BLOCK_RECORD
  5
1E
330
1
100
AcDbSymbolTableRecord
100
AcDbBlockTableRecord
  2
*Paper_Space
 70
    0
280
    1
281
    0
  0
BLOCK_RECORD
  5
4D
330
1
100
AcDbSymbolTableRecord
100
AcDbBlockTableRecord
  2
NNL14_Begin_0-SSL14_End_0-6
 70
    0
280
    1
281
    0
  0
BLOCK_RECORD
  5
50
330
1
100
AcDbSymbolTableRecord
100
AcDbBlockTableRecord
  2
NNL14_Begin_1-SSL14_End_1-6
 70
    0
280
    1
281
    0
  0
BLOCK_RECORD
  5
53
330
1
100
AcDbSymbolTableRecord
100
AcDbBlockTableRecord
  2
NNL14_Begin_2-SSL14_End_2-6
 70
    0
280
    1
281
    0
  0
BLOCK_RECORD
  5
56
330
1
100
AcDbSymbolTableRecord
100
AcDbBlockTableRecord
  2
NNL14_Begin_3-SSL14_End_3-6
 70
    0
280
    1
281
    0
  0
BLOCK_RECORD
  5
59
330
1
100
AcDbSymbolTableRecord
100
AcDbBlockTableRecord
  2
NNL14_Begin_0-SSL14_End_0-7
 70
    0
280
    1
281
    0
  0
BLOCK_RECORD
  5
5C
330
1
100
AcDbSymbolTableRecord
100
AcDbBlockTableRecord
  2
NNL14_Begin_1-SSL14_End_1-7
 70
    0
280
    1
281
    0
  0
BLOCK_RECORD
  5
5F
330
1
100
AcDbSymbolTableRecord
100
AcDbBlockTableRecord
  2
NNL14_Begin_2-SSL14_End_2-7
 70
    0
280
    1
281
    0
  0
BLOCK_RECORD
  5
62
330
1
100
AcDbSymbolTableRecord
100
AcDbBlockTableRecord
  2
NNL14_Begin_3-SSL14_End_3-7
 70
    0
280
    1
281
    0
  0
BLOCK_RECORD
  5
65
330
1
100
AcDbSymbolTableRecord
100
AcDbBlockTableRecord
  2
NNL14_Begin_0-SSL14_End_0-8
 70
    0
280
    1
281
    0
  0
BLOCK_RECORD
  5
68
330
1
100
AcDbSymbolTableRecord
100
AcDbBlockTableRecord
  2
NNL14_Begin_1-SSL14_End_1-8
 70
    0
280
    1
281
    0
  0
BLOCK_RECORD
  5
6B
330
1
100
AcDbSymbolTableRecord
100
AcDbBlockTableRecord
  2
NNL14_Begin_2-SSL14_End_2-8
 70
    0
280
    1
281
    0
  0
BLOCK_RECORD
  5
6E
330
1
100
AcDbSymbolTableRecord
100
AcDbBlockTableRecord
  2
NNL14_Begin_3-SSL14_End_3-8
 70
    0
280
    1
281
    0
  0
BLOCK_RECORD
  5
71
330
1
100
AcDbSymbolTableRecord
100
AcDbBlockTableRecord
  2
NNL14_Begin_0-SSL14_End_0-9
 70
    0
280
    1
281
    0
  0
BLOCK_RECORD
  5
74
330
1
100
AcDbSymbolTableRecord
100
AcDbBlockTableRecord
  2
NNL14_Begin_1-SSL14_End_1-9
 70
    0
280
    1
281
    0
  0
BLOCK_RECORD
  5
77
330
1
100
AcDbSymbolTableRecord
100
AcDbBlockTableRecord
  2
NNL14_Begin_2-SSL14_End_2-9
 70
    0
280
    1
281
    0
  0
BLOCK_RECORD
  5
7A
330
1
100
AcDbSymbolTableRecord
100
AcDbBlockTableRecord
  2
NNL14_Begin_3-SSL14_End_3-9
 70
    0
280
    1
281
    0
  0
BLOCK_RECORD
  5
7D
330
1
100
AcDbSymbolTableRecord
100
AcDbBlockTableRecord
  2
NNL14_Begin_0-SSL14_End_0-10
 70
    0
280
    1
281
    0
  0
BLOCK_RECORD
  5
80
330
1
100
AcDbSymbolTableRecord
100
AcDbBlockTableRecord
  2
NNL14_Begin_1-SSL14_End_1-10
 70
    0
280
    1
281
    0
  0
BLOCK_RECORD
  5
83
330
1
100
AcDbSymbolTableRecord
100
AcDbBlockTableRecord
  2
NNL14_Begin_2-SSL14_End_2-10
 70
    0
280
    1
281
    0
  0
BLOCK_RECORD
  5
86
330
1
100
AcDbSymbolTableRecord
100
AcDbBlockTableRecord
  2
NNL14_Begin_3-SSL14_End_3-10
 70
    0
280
    1
281
    0
  0
BLOCK_RECORD
  5
89
330
1
100
AcDbSymbolTableRecord
100
AcDbBlockTableRecord
  2
NNL14_Begin_0-SSL14_End_0-11
 70
    0
280
    1
281
    0
  0
BLOCK_RECORD
  5
8C
330
1
100
AcDbSymbolTableRecord
100
AcDbBlockTableRecord
  2
NNL14_Begin_1-SSL14_End_1-11
 70
    0
280
    1
281
    0
  0
BLOCK_RECORD
  5
8F
330
1
100
AcDbSymbolTableRecord
100
AcDbBlockTableRecord
  2
NNL14_Begin_2-SSL14_End_2-11
 70
    0
280
    1
281
    0
  0
BLOCK_RECORD
  5
92
330
1
100
AcDbSymbolTableRecord
100
AcDbBlockTableRecord
  2
NNL14_Begin_3-SSL14_End_3-11
 70
    0
280
    1
281
    0
  0
BLOCK_RECORD
  5
95
330
1
100
AcDbSymbolTableRecord
100
AcDbBlockTableRecord
  2
NNL14_Begin_0-SSL14_End_0-12
 70
    0
280
    1
281
    0
  0
BLOCK_RECORD
  5
98
330
1
100
AcDbSymbolTableRecord
100
AcDbBlockTableRecord
  2
NNL14_Begin_1-SSL14_End_1-12
 70
    0
280
    1
281
    0
  0
BLOCK_RECORD
  5
9B
330
1
100
AcDbSymbolTableRecord
100
AcDbBlockTableRecord
  2
NNL14_Begin_2-SSL14_End_2-12
 70
    0
280
    1
281
    0
  0
BLOCK_RECORD
  5
9E
330
1
100
AcDbSymbolTableRecord
100
AcDbBlockTableRecord
  2
NNL14_Begin_3-SSL14_End_3-12
 70
    0
280
    1
281
    0
  0
BLOCK_RECORD
  5
A1
330
1
100
AcDbSymbolTableRecord
100
AcDbBlockTableRecord
  2
NNL14_Begin_0-SSL14_End_0-13
 70
    0
280
    1
281
    0
  0
BLOCK_RECORD
  5
A4
330
1
100
AcDbSymbolTableRecord
100
AcDbBlockTableRecord
  2
NNL14_Begin_1-SSL14_End_1-13
 70
    0
280
    1
281
    0
  0
BLOCK_RECORD
  5
A7
330
1
100
AcDbSymbolTableRecord
100
AcDbBlockTableRecord
  2
NNL14_Begin_2-SSL14_End_2-13
 70
    0
280
    1
281
    0
  0
BLOCK_RECORD
  5
AA
330
1
100
AcDbSymbolTableRecord
100
AcDbBlockTableRecord
  2
NNL14_Begin_3-SSL14_End_3-13
 70
    0
280
    1
281
    0
  0
ENDTAB
  0
ENDSEC
  0
SECTION
  2
BLOCKS
  0
BLOCK
  5
20
330
1F
100
AcDbEntity
  8
0
100
AcDbBlockBegin
  2
*Model_Space
 70
    0
 10
0
 20
0
 30
0
  3
*Model_Space
  1

  0
ENDBLK
  5
21
330
1F
100
AcDbEntity
  8
0
100
AcDbBlockEnd
  0
BLOCK
  5
1C
330
1B
100
AcDbEntity
  8
0
100
AcDbBlockBegin
  2
*Paper_Space
 70
    0
 10
0
 20
0
 30
0
  3
*Paper_Space
  1

  0
ENDBLK
  5
1D
330
1F
100
AcDbEntity
  8
0
100
AcDbBlockEnd
  0
BLOCK
  5
4E
330
4D
100
AcDbEntity
  8
0
100
AcDbBlockBegin
  2
NNL14_Begin_0-SSL14_End_0-6
 70
    0
 10
0
 20
0
  3
NNL14_Begin_0-SSL14_End_0-6
  1

  0
LWPOLYLINE
  5
AD
100
AcDbEntity
  8
0
  6
ByLayer
 62
  256
370
   -1
100
AcDbPolyline
 90
   32
 70
    0
 43
0
 10
0
 20
0
 10
-220
 20
0
 10
-220
 20
2022
 10
-224
 20
2022
 10
-224
 20
5006
 10
-228
 20
5006
 10
-228
 20
7990
 10
-232
 20
7990
 10
-232
 20
10974
 10
-236
 20
10974
 10
-236
 20
13958
 10
-240
 20
13958
 10
-240
 20
16942
 10
-244
 20
16942
 10
-244
 20
18466
 10
2244
 20
18466
 10
2244
 20
17118
 10
2248
 20
17118
 10
2248
 20
14134
 10
2252
 20
14134
 10
2252
 20
11150
 10
2256
 20
11150
 10
2256
 20
8166
 10
2260
 20
8166
 10
2260
 20
5182
 10
2264
 20
5182
 10
2264
 20
2198
 10
2268
 20
2198
 10
2268
 20
-786
 10
2272
 20
-786
 10
2272
 20
-3000
 10
2000
 20
-3000
  0
ENDBLK
  5
4F
330
4D
100
AcDbEntity
  8
0
100
AcDbBlockEnd
  0
BLOCK
  5
51
330
50
100
AcDbEntity
  8
0
100
AcDbBlockBegin
  2
NNL14_Begin_1-SSL14_End_1-6
 70
    0
 10
0
 20
0
  3
NNL14_Begin_1-SSL14_End_1-6
  1

  0
LWPOLYLINE
  5
AE
100
AcDbEntity
  8
0
  6
ByLayer
 62
  256
370
   -1
100
AcDbPolyline
 90
   32
 70
    0
 43
0
 10
0
 20
0
 10
-221
 20
0
 10
-221
 20
2022
 10
-225
 20
2022
 10
-225
 20
5006
 10
-229
 20
5006
 10
-229
 20
7990
 10
-233
 20
7990
 10
-233
 20
10974
 10
-237
 20
10974
 10
-237
 20
13958
 10
-241
 20
13958
 10
-241
 20
16942
 10
-245
 20
16942
 10
-245
 20
18471
 10
2245
 20
18471
 10
2245
 20
17126
 10
2249
 20
17126
 10
2249
 20
14142
 10
2253
 20
14142
 10
2253
 20
11158
 10
2257
 20
11158
 10
2257
 20
8174
 10
2261
 20
8174
 10
2261
 20
5190
 10
2265
 20
5190
 10
2265
 20
2206
 10
2269
 20
2206
 10
2269
 20
-778
 10
2273
 20
-778
 10
2273
 20
-3000
 10
2000
 20
-3000
  0
ENDBLK
  5
52
330
50
100
AcDbEntity
  8
0
100
AcDbBlockEnd
  0
BLOCK
  5
54
330
53
100
AcDbEntity
  8
0
100
AcDbBlockBegin
  2
NNL14_Begin_2-SSL14_End_2-6
 70
    0
 10
0
 20
0
  3
NNL14_Begin_2-SSL14_End_2-6
  1

  0
LWPOLYLINE
  5
AF
100
AcDbEntity
  8
0
  6
ByLayer
 62
  256
370
   -1
100
AcDbPolyline
 90
   32
 70
    0
 43
0
 10
0
 20
0
 10
-222
 20
0
 10
-222
 20
2022
 10
-226
 20
2022
 10
-226
 20
5006
 10
-230
 20
5006
 10
-230
 20
7990
 10
-234
 20
7990
 10
-234
 20
10974
 10
-238
 20
10974
 10
-238
 20
13958
 10
-242
 20
13958
 10
-242
 20
16942
 10
-246
 20
16942
 10
-246
 20
18476
 10
2246
 20
18476
 10
2246
 20
17134
 10
2250
 20
17134
 10
2250
 20
14150
 10
2254
 20
14150
 10
2254
 20
11166
 10
2258
 20
11166
 10
2258
 20
8182
 10
2262
 20
8182
 10
2262
 20
5198
 10
2266
 20
5198
 10
2266
 20
2214
 10
2270
 20
2214
 10
2270
 20
-770
 10
2274
 20
-770
 10
2274
 20
-3000
 10
2000
 20
-3000
  0
ENDBLK
  5
55
330
53
100
AcDbEntity
  8
0
100
AcDbBlockEnd
  0
BLOCK
  5
57
330
56
100
AcDbEntity
  8
0
100
AcDbBlockBegin
  2
NNL14_Begin_3-SSL14_End_3-6
 70
    0
 10
0
 20
0
  3
NNL14_Begin_3-SSL14_End_3-6
  1

  0
LWPOLYLINE
  5
B0
100
AcDbEntity
  8
0
  6
ByLayer
 62
  256
370
   -1
100
AcDbPolyline
 90
   32
 70
    0
 43
0
 10
0
 20
0
 10
-223
 20
0
 10
-223
 20
2022
 10
-227
 20
2022
 10
-227
 20
5006
 10
-231
 20
5006
 10
-231
 20
7990
 10
-235
 20
7990
 10
-235
 20
10974
 10
-239
 20
10974
 10
-239
 20
13958
 10
-243
 20
13958
 10
-243
 20
16942
 10
-247
 20
16942
 10
-247
 20
18481
 10
2247
 20
18481
 10
2247
 20
17142
 10
2251
 20
17142
 10
2251
 20
14158
 10
2255
 20
14158
 10
2255
 20
11174
 10
2259
 20
11174
 10
2259
 20
8190
 10
2263
 20
8190
 10
2263
 20
5206
 10
2267
 20
5206
 10
2267
 20
2222
 10
2271
 20
2222
 10
2271
 20
-762
 10
2275
 20
-762
 10
2275
 20
-3000
 10
2000
 20
-3000
  0
ENDBLK
  5
58
330
56
100
AcDbEntity
  8
0
100
AcDbBlockEnd
  0
BLOCK
  5
5A
330
59
100
AcDbEntity
  8
0
100
AcDbBlockBegin
  2
NNL14_Begin_0-SSL14_End_0-7
 70
    0
 10
0
 20
0
  3
NNL14_Begin_0-SSL14_End_0-7
  1

  0
LWPOLYLINE
  5
B1
100
AcDbEntity
  8
0
  6
ByLayer
 62
  256
370
   -1
100
AcDbPolyline
 90
   32
 70
    0
 43
0
 10
0
 20
0
 10
-220
 20
0
 10
-220
 20
2022
 10
-224
 20
2022
 10
-224
 20
5006
 10
-228
 20
5006
 10
-228
 20
7990
 10
-232
 20
7990
 10
-232
 20
10974
 10
-236
 20
10974
 10
-236
 20
13958
 10
-240
 20
13958
 10
-240
 20
16942
 10
-244
 20
16942
 10
-244
 20
19926
 10
-248
 20
19926
 10
-248
 20
21470
 10
2248
 20
21470
 10
2248
 20
20134
 10
2252
 20
20134
 10
2252
 20
17150
 10
2256
 20
17150
 10
2256
 20
14166
 10
2260
 20
14166
 10
2260
 20
11182
 10
2264
 20
11182
 10
2264
 20
8198
 10
2268
 20
8198
 10
2268
 20
5214
 10
2272
 20
5214
 10
2272
 20
3000
 10
2000
 20
3000
  0
ENDBLK
  5
5B
330
59
100
AcDbEntity
  8
0
100
AcDbBlockEnd
  0
BLOCK
  5
5D
330
5C
100
AcDbEntity
  8
0
100
AcDbBlockBegin
  2
NNL14_Begin_1-SSL14_End_1-7
 70
    0
 10
0
 20
0
  3
NNL14_Begin_1-SSL14_End_1-7
  1

  0
LWPOLYLINE
  5
B2
100
AcDbEntity
  8
0
  6
ByLayer
 62
  256
370
   -1
100
AcDbPolyline
 90
   32
 70
    0
 43
0
 10
0
 20
0
 10
-221
 20
0
 10
-221
 20
2022
 10
-225
 20
2022
 10
-225
 20
5006
 10
-229
 20
5006
 10
-229
 20
7990
 10
-233
 20
7990
 10
-233
 20
10974
 10
-237
 20
10974
 10
-237
 20
13958
 10
-241
 20
13958
 10
-241
 20
16942
 10
-245
 20
16942
 10
-245
 20
19926
 10
-249
 20
19926
 10
-249
 20
21475
 10
2249
 20
21475
 10
2249
 20
20142
 10
2253
 20
20142
 10
2253
 20
17158
 10
2257
 20
17158
 10
2257
 20
14174
 10
2261
 20
14174
 10
2261
 20
11190
 10
2265
 20
11190
 10
2265
 20
8206
 10
2269
 20
8206
 10
2269
 20
5222
 10
2273
 20
5222
 10
2273
 20
3000
 10
2000
 20
3000
  0
ENDBLK
  5
5E
330
5C
100
AcDbEntity
  8
0
100
AcDbBlockEnd
  0
BLOCK
  5
60
330
5F
100
AcDbEntity
  8
0
100
AcDbBlockBegin
  2
NNL14_Begin_2-SSL14_End_2-7
 70
    0
 10
0
 20
0
  3
NNL14_Begin_2-SSL14_End_2-7
  1

  0
LWPOLYLINE
  5
B3
100
AcDbEntity
  8
0
  6
ByLayer
 62
  256
370
   -1
100
AcDbPolyline
 90
   32
 70
    0
 43
0
 10
0
 20
0
 10
-222
 20
0
 10
-222
 20
2022
 10
-226
 20
2022
 10
-226
 20
5006
 10
-230
 20
5006
 10
-230
 20
7990
 10
-234
 20
7990
 10
-234
 20
10974
 10
-238
 20
10974
 10
-238
 20
13958
 10
-242
 20
13958
 10
-242
 20
16942
 10
-246
 20
16942
 10
-246
 20
19926
 10
-250
 20
19926
 10
-250
 20
21480
 10
2250
 20
21480
 10
2250
 20
20150
 10
2254
 20
20150
 10
2254
 20
17166
 10
2258
 20
17166
 10
2258
 20
14182
 10
2262
 20
14182
 10
2262
 20
11198
 10
2266
 20
11198
 10
2266
 20
8214
 10
2270
 20
8214
 10
2270
 20
5230
 10
2274
 20
5230
 10
2274
 20
3000
 10
2000
 20
3000
  0
ENDBLK
  5
61
330
5F
100
AcDbEntity
  8
0
100
AcDbBlockEnd
  0
BLOCK
  5
63
330
62
100
AcDbEntity
  8
0
100
AcDbBlockBegin
  2
NNL14_Begin_3-SSL14_End_3-7
 70
    0
 10
0
 20
0
  3
NNL14_Begin_3-SSL14_End_3-7
  1

  0
LWPOLYLINE
  5
B4
100
AcDbEntity
  8
0
  6
ByLayer
 62
  256
370
   -1
100
AcDbPolyline
 90
   32
 70
    0
 43
0
 10
0
 20
0
 10
-223
 20
0
 10
-223
 20
2022
 10
-227
 20
2022
 10
-227
 20
5006
 10
-231
 20
5006
 10
-231
 20
7990
 10
-235
 20
7990
 10
-235
 20
10974
 10
-239
 20
10974
 10
-239
 20
13958
 10
-243
 20
13958
 10
-243
 20
16942
 10
-247
 20
16942
 10
-247
 20
19926
 10
-251
 20
19926
 10
-251
 20
21485
 10
2251
 20
21485
 10
2251
 20
20158
 10
2255
 20
20158
 10
2255
 20
17174
 10
2259
 20
17174
 10
2259
 20
14190
 10
2263
 20
14190
 10
2263
 20
11206
 10
2267
 20
11206
 10
2267
 20
8222
 10
2271
 20
8222
 10
2271
 20
5238
 10
2275
 20
5238
 10
2275
 20
3000
 10
2000
 20
3000
  0
ENDBLK
  5
64
330
62
100
AcDbEntity
  8
0
100
AcDbBlockEnd
  0
BLOCK
  5
66
330
65
100
AcDbEntity
  8
0
100
AcDbBlockBegin
  2
NNL14_Begin_0-SSL14_End_0-8
 70
    0
 10
0
 20
0
  3
NNL14_Begin_0-SSL14_End_0-8
  1

  0
LWPOLYLINE
  5
B5
100
AcDbEntity
  8
0
  6
ByLayer
 62
  256
370
   -1
100
AcDbPolyline
 90
   32
 70
    0
 43
0
 10
0
 20
0
 10
-220
 20
0
 10
-220
 20
2022
 10
-224
 20
2022
 10
-224
 20
5006
 10
-228
 20
5006
 10
-228
 20
7990
 10
-232
 20
7990
 10
-232
 20
10974
 10
-236
 20
10974
 10
-236
 20
13958
 10
-240
 20
13958
 10
-240
 20
16942
 10
-244
 20
16942
 10
-244
 20
19926
 10
-248
 20
19926
 10
-248
 20
22910
 10
-252
 20
22910
 10
-252
 20
24474
 10
2252
 20
24474
 10
2252
 20
23150
 10
2256
 20
23150
 10
2256
 20
20166
 10
2260
 20
20166
 10
2260
 20
17182
 10
2264
 20
17182
 10
2264
 20
14198
 10
2268
 20
14198
 10
2268
 20
11214
 10
2272
 20
11214
 10
2272
 20
9000
 10
2000
 20
9000
  0
ENDBLK
  5
67
330
65
100
AcDbEntity
  8
0
100
AcDbBlockEnd
  0
BLOCK
  5
69
330
68
100
AcDbEntity
  8
0
100
AcDbBlockBegin
  2
NNL14_Begin_1-SSL14_End_1-8
 70
    0
 10
0
 20
0
  3
NNL14_Begin_1-SSL14_End_1-8
  1

  0
LWPOLYLINE
  5
B6
100
AcDbEntity
  8
0
  6
ByLayer
 62
  256
370
   -1
100
AcDbPolyline
 90
   32
 70
    0
 43
0
 10
0
 20
0
 10
-221
 20
0
 10
-221
 20
2022
 10
-225
 20
2022
 10
-225
 20
5006
 10
-229
 20
5006
 10
-229
 20
7990
 10
-233
 20
7990
 10
-233
 20
10974
 10
-237
 20
10974
 10
-237
 20
13958
 10
-241
 20
13958
 10
-241
 20
16942
 10
-245
 20
16942
 10
-245
 20
19926
 10
-249
 20
19926
 10
-249
 20
22910
 10
-253
 20
22910
 10
-253
 20
24479
 10
2253
 20
24479
 10
2253
 20
23158
 10
2257
 20
23158
 10
2257
 20
20174
 10
2261
 20
20174
 10
2261
 20
17190
 10
2265
 20
17190
 10
2265
 20
14206
 10
2269
 20
14206
 10
2269
 20
11222
 10
2273
 20
11222
 10
2273
 20
9000
 10
2000
 20
9000
  0
ENDBLK
  5
6A
330
68
100
AcDbEntity
  8
0
100
AcDbBlockEnd
  0
BLOCK
  5
6C
330
6B
100
AcDbEntity
  8
0
100
AcDbBlockBegin
  2
NNL14_Begin_2-SSL14_End_2-8
 70
    0
 10
0
 20
0
  3
NNL14_Begin_2-SSL14_End_2-8
  1

  0
LWPOLYLINE
  5
B7
100
AcDbEntity
  8
0
  6
ByLayer
 62
  256
370
   -1
100
AcDbPolyline
 90
   32
 70
    0
 43
0
 10
0
 20
0
 10
-222
 20
0
 10
-222
 20
2022
 10
-226
 20
2022
 10
-226
 20
5006
 10
-230
 20
5006
 10
-230
 20
7990
 10
-234
 20
7990
 10
-234
 20
10974
 10
-238
 20
10974
 10
-238
 20
13958
 10
-242
 20
13958
 10
-242
 20
16942
 10
-246
 20
16942
 10
-246
 20
19926
 10
-250
 20
19926
 10
-250
 20
22910
 10
-254
 20
22910
 10
-254
 20
24484
 10
2254
 20
24484
 10
2254
 20
23166
 10
2258
 20
23166
 10
2258
 20
20182
 10
2262
 20
20182
 10
2262
 20
17198
 10
2266
 20
17198
 10
2266
 20
14214
 10
2270
 20
14214
 10
2270
 20
11230
 10
2274
 20
11230
 10
2274
 20
9000
 10
2000
 20
9000
  0
ENDBLK
  5
6D
330
6B
100
AcDbEntity
  8
0
100
AcDbBlockEnd
  0
BLOCK
  5
6F
330
6E
100
AcDbEntity
  8
0
100
AcDbBlockBegin
  2
NNL14_Begin_3-SSL14_End_3-8
 70
    0
 10
0
 20
0
  3
NNL14_Begin_3-SSL14_End_3-8
  1

  0
LWPOLYLINE
  5
B8
100
AcDbEntity
  8
0
  6
ByLayer
 62
  256
370
   -1
100
AcDbPolyline
 90
   32
 70
    0
 43
0
 10
0
 20
0
 10
-223
 20
0
 10
-223
 20
2022
 10
-227
 20
2022
 10
-227
 20
5006
 10
-231
 20
5006
 10
-231
 20
7990
 10
-235
 20
7990
 10
-235
 20
10974
 10
-239
 20
10974
 10
-239
 20
13958
 10
-243
 20
13958
 10
-243
 20
16942
 10
-247
 20
16942
 10
-247
 20
19926
 10
-251
 20
19926
 10
-251
 20
22910
 10
-255
 20
22910
 10
-255
 20
24489
 10
2255
 20
24489
 10
2255
 20
23174
 10
2259
 20
23174
 10
2259
 20
20190
 10
2263
 20
20190
 10
2263
 20
17206
 10
2267
 20
17206
 10
2267
 20
14222
 10
2271
 20
14222
 10
2271
 20
11238
 10
2275
 20
11238
 10
2275
 20
9000
 10
2000
 20
9000
  0
ENDBLK
  5
70
330
6E
100
AcDbEntity
  8
0
100
AcDbBlockEnd
  0
BLOCK
  5
72
330
71
100
AcDbEntity
  8
0
100
AcDbBlockBegin
  2
NNL14_Begin_0-SSL14_End_0-9
 70
    0
 10
0
 20
0
  3
NNL14_Begin_0-SSL14_End_0-9
  1

  0
LWPOLYLINE
  5
B9
100
AcDbEntity
  8
0
  6
ByLayer
 62
  256
370
   -1
100
AcDbPolyline
 90
   32
 70
    0
 43
0
 10
0
 20
0
 10
-220
 20
0
 10
-220
 20
2022
 10
-224
 20
2022
 10
-224
 20
5006
 10
-228
 20
5006
 10
-228
 20
7990
 10
-232
 20
7990
 10
-232
 20
10974
 10
-236
 20
10974
 10
-236
 20
13958
 10
-240
 20
13958
 10
-240
 20
16942
 10
-244
 20
16942
 10
-244
 20
19926
 10
-248
 20
19926
 10
-248
 20
22910
 10
-252
 20
22910
 10
-252
 20
25894
 10
-256
 20
25894
 10
-256
 20
27478
 10
2256
 20
27478
 10
2256
 20
26166
 10
2260
 20
26166
 10
2260
 20
23182
 10
2264
 20
23182
 10
2264
 20
20198
 10
2268
 20
20198
 10
2268
 20
17214
 10
2272
 20
17214
 10
2272
 20
15000
 10
2000
 20
15000
  0
ENDBLK
  5
73
330
71
100
AcDbEntity
  8
0
100
AcDbBlockEnd
  0
BLOCK
  5
75
330
74
100
AcDbEntity
  8
0
100
AcDbBlockBegin
  2
NNL14_Begin_1-SSL14_End_1-9
 70
    0
 10
0
 20
0
  3
NNL14_Begin_1-SSL14_End_1-9
  1

  0
LWPOLYLINE
  5
BA
100
AcDbEntity
  8
0
  6
ByLayer
 62
  256
370
   -1
100
AcDbPolyline
 90
   32
 70
    0
 43
0
 10
0
 20
0
 10
-221
 20
0
 10
-221
 20
2022
 10
-225
 20
2022
 10
-225
 20
5006
 10
-229
 20
5006
 10
-229
 20
7990
 10
-233
 20
7990
 10
-233
 20
10974
 10
-237
 20
10974
 10
-237
 20
13958
 10
-241
 20
13958
 10
-241
 20
16942
 10
-245
 20
16942
 10
-245
 20
19926
 10
-249
 20
19926
 10
-249
 20
22910
 10
-253
 20
22910
 10
-253
 20
25894
 10
-257
 20
25894
 10
-257
 20
27483
 10
2257
 20
27483
 10
2257
 20
26174
 10
2261
 20
26174
 10
2261
 20
23190
 10
2265
 20
23190
 10
2265
 20
20206
 10
2269
 20
20206
 10
2269
 20
17222
 10
2273
 20
17222
 10
2273
 20
15000
 10
2000
 20
15000
  0
ENDBLK
  5
76
330
74
100
AcDbEntity
  8
0
100
AcDbBlockEnd
  0
BLOCK
  5
78
330
77
100
AcDbEntity
  8
0
100
AcDbBlockBegin
  2
NNL14_Begin_2-SSL14_End_2-9
 70
    0
 10
0
 20
0
  3
NNL14_Begin_2-SSL14_End_2-9
  1

  0
LWPOLYLINE
  5
BB
100
AcDbEntity
  8
0
  6
ByLayer
 62
  256
370
   -1
100
AcDbPolyline
 90
   32
 70
    0
 43
0
 10
0
 20
0
 10
-222
 20
0
 10
-222
 20
2022
 10
-226
 20
2022
 10
-226
 20
5006
 10
-230
 20
5006
 10
-230
 20
7990
 10
-234
 20
7990
 10
-234
 20
10974
 10
-238
 20
10974
 10
-238
 20
13958
 10
-242
 20
13958
 10
-242
 20
16942
 10
-246
 20
16942
 10
-246
 20
19926
 10
-250
 20
19926
 10
-250
 20
22910
 10
-254
 20
22910
 10
-254
 20
25894
 10
-258
 20
25894
 10
-258
 20
27488
 10
2258
 20
27488
 10
2258
 20
26182
 10
2262
 20
26182
 10
2262
 20
23198
 10
2266
 20
23198
 10
2266
 20
20214
 10
2270
 20
20214
 10
2270
 20
17230
 10
2274
 20
17230
 10
2274
 20
15000
 10
2000
 20
15000
  0
ENDBLK
  5
79
330
77
100
AcDbEntity
  8
0
100
AcDbBlockEnd
  0
BLOCK
  5
7B
330
7A
100
AcDbEntity
  8
0
100
AcDbBlockBegin
  2
NNL14_Begin_3-SSL14_End_3-9
 70
    0
 10
0
 20
0
  3
NNL14_Begin_3-SSL14_End_3-9
  1

  0
LWPOLYLINE
  5
BC
100
AcDbEntity
  8
0
  6
ByLayer
 62
  256
370
   -1
100
AcDbPolyline
 90
   32
 70
    0
 43
0
 10
0
 20
0
 10
-223
 20
0
 10
-223
 20
2022
 10
-227
 20
2022
 10
-227
 20
5006
 10
-231
 20
5006
 10
-231
 20
7990
 10
-235
 20
7990
 10
-235
 20
10974
 10
-239
 20
10974
 10
-239
 20
13958
 10
-243
 20
13958
 10
-243
 20
16942
 10
-247
 20
16942
 10
-247
 20
19926
 10
-251
 20
19926
 10
-251
 20
22910
 10
-255
 20
22910
 10
-255
 20
25894
 10
-259
 20
25894
 10
-259
 20
27493
 10
2259
 20
27493
 10
2259
 20
26190
 10
2263
 20
26190
 10
2263
 20
23206
 10
2267
 20
23206
 10
2267
 20
20222
 10
2271
 20
20222
 10
2271
 20
17238
 10
2275
 20
17238
 10
2275
 20
15000
 10
2000
 20
15000
  0
ENDBLK
  5
7C
330
7A
100
AcDbEntity
  8
0
100
AcDbBlockEnd
  0
BLOCK
  5
7E
330
7D
100
AcDbEntity
  8
0
100
AcDbBlockBegin
  2
NNL14_Begin_0-SSL14_End_0-10
 70
    0
 10
0
 20
0
  3
NNL14_Begin_0-SSL14_End_0-10
  1

  0
LWPOLYLINE
  5
BD
100
AcDbEntity
  8
0
  6
ByLayer
 62
  256
370
   -1
100
AcDbPolyline
 90
   32
 70
    0
 43
0
 10
0
 20
0
 10
-220
 20
0
 10
-220
 20
2022
 10
-224
 20
2022
 10
-224
 20
5006
 10
-228
 20
5006
 10
-228
 20
7990
 10
-232
 20
7990
 10
-232
 20
10974
 10
-236
 20
10974
 10
-236
 20
13958
 10
-240
 20
13958
 10
-240
 20
16942
 10
-244
 20
16942
 10
-244
 20
19926
 10
-248
 20
19926
 10
-248
 20
22910
 10
-252
 20
22910
 10
-252
 20
25894
 10
-256
 20
25894
 10
-256
 20
28878
 10
-260
 20
28878
 10
-260
 20
30482
 10
2260
 20
30482
 10
2260
 20
29182
 10
2264
 20
29182
 10
2264
 20
26198
 10
2268
 20
26198
 10
2268
 20
23214
 10
2272
 20
23214
 10
2272
 20
21000
 10
2000
 20
21000
  0
ENDBLK
  5
7F
330
7D
100
AcDbEntity
  8
0
100
AcDbBlockEnd
  0
BLOCK
  5
81
330
80
100
AcDbEntity
  8
0
100
AcDbBlockBegin
  2
NNL14_Begin_1-SSL14_End_1-10
 70
    0
 10
0
 20
0
  3
NNL14_Begin_1-SSL14_End_1-10
  1

  0
LWPOLYLINE
  5
BE
100
AcDbEntity
  8
0
  6
ByLayer
 62
  256
370
   -1
100
AcDbPolyline
 90
   32
 70
    0
 43
0
 10
0
 20
0
 10
-221
 20
0
 10
-221
 20
2022
 10
-225
 20
2022
 10
-225
 20
5006
 10
-229
 20
5006
 10
-229
 20
7990
 10
-233
 20
7990
 10
-233
 20
10974
 10
-237
 20
10974
 10
-237
 20
13958
 10
-241
 20
13958
 10
-241
 20
16942
 10
-245
 20
16942
 10
-245
 20
19926
 10
-249
 20
19926
 10
-249
 20
22910
 10
-253
 20
22910
 10
-253
 20
25894
 10
-257
 20
25894
 10
-257
 20
28878
 10
-261
 20
28878
 10
-261
 20
30487
 10
2261
 20
30487
 10
2261
 20
29190
 10
2265
 20
29190
 10
2265
 20
26206
 10
2269
 20
26206
 10
2269
 20
23222
 10
2273
 20
23222
 10
2273
 20
21000
 10
2000
 20
21000
  0
ENDBLK
  5
82
330
80
100
AcDbEntity
  8
0
100
AcDbBlockEnd
  0
BLOCK
  5
84
330
83
100
AcDbEntity
  8
0
100
AcDbBlockBegin
  2
NNL14_Begin_2-SSL14_End_2-10
 70
    0
 10
0
 20
0
  3
NNL14_Begin_2-SSL14_End_2-10
  1

  0
LWPOLYLINE
  5
BF
100
AcDbEntity
  8
0
  6
ByLayer
 62
  256
370
   -1
100
AcDbPolyline
 90
   32
 70
    0
 43
0
 10
0
 20
0
 10
-222
 20
0
 10
-222
 20
2022
 10
-226
 20
2022
 10
-226
 20
5006
 10
-230
 20
5006
 10
-230
 20
7990
 10
-234
 20
7990
 10
-234
 20
10974
 10
-238
 20
10974
 10
-238
 20
13958
 10
-242
 20
13958
 10
-242
 20
16942
 10
-246
 20
16942
 10
-246
 20
19926
 10
-250
 20
19926
 10
-250
 20
22910
 10
-254
 20
22910
 10
-254
 20
25894
 10
-258
 20
25894
 10
-258
 20
28878
 10
-262
 20
28878
 10
-262
 20
30492
 10
2262
 20
30492
 10
2262
 20
29198
 10
2266
 20
29198
 10
2266
 20
26214
 10
2270
 20
26214
 10
2270
 20
23230
 10
2274
 20
23230
 10
2274
 20
21000
 10
2000
 20
21000
  0
ENDBLK
  5
85
330
83
100
AcDbEntity
  8
0
100
AcDbBlockEnd
  0
BLOCK
  5
87
330
86
100
AcDbEntity
  8
0
100
AcDbBlockBegin
  2
NNL14_Begin_3-SSL14_End_3-10
 70
    0
 10
0
 20
0
  3
NNL14_Begin_3-SSL14_End_3-10
  1

  0
LWPOLYLINE
  5
C0
100
AcDbEntity
  8
0
  6
ByLayer
 62
  256
370
   -1
100
AcDbPolyline
 90
   32
 70
    0
 43
0
 10
0
 20
0
 10
-223
 20
0
 10
-223
 20
2022
 10
-227
 20
2022
 10
-227
 20
5006
 10
-231
 20
5006
 10
-231
 20
7990
 10
-235
 20
7990
 10
-235
 20
10974
 10
-239
 20
10974
 10
-239
 20
13958
 10
-243
 20
13958
 10
-243
 20
16942
 10
-247
 20
16942
 10
-247
 20
19926
 10
-251
 20
19926
 10
-251
 20
22910
 10
-255
 20
22910
 10
-255
 20
25894
 10
-259
 20
25894
 10
-259
 20
28878
 10
-263
 20
28878
 10
-263
 20
30497
 10
2263
 20
30497
 10
2263
 20
29206
 10
2267
 20
29206
 10
2267
 20
26222
 10
2271
 20
26222
 10
2271
 20
23238
 10
2275
 20
23238
 10
2275
 20
21000
 10
2000
 20
21000
  0
ENDBLK
  5
88
330
86
100
AcDbEntity
  8
0
100
AcDbBlockEnd
  0
BLOCK
  5
8A
330
89
100
AcDbEntity
  8
0
100
AcDbBlockBegin
  2
NNL14_Begin_0-SSL14_End_0-11
 70
    0
 10
0
 20
0
  3
NNL14_Begin_0-SSL14_End_0-11
  1

  0
LWPOLYLINE
  5
C1
100
AcDbEntity
  8
0
  6
ByLayer
 62
  256
370
   -1
100
AcDbPolyline
 90
   32
 70
    0
 43
0
 10
0
 20
0
 10
-220
 20
0
 10
-220
 20
2022
 10
-224
 20
2022
 10
-224
 20
5006
 10
-228
 20
5006
 10
-228
 20
7990
 10
-232
 20
7990
 10
-232
 20
10974
 10
-236
 20
10974
 10
-236
 20
13958
 10
-240
 20
13958
 10
-240
 20
16942
 10
-244
 20
16942
 10
-244
 20
19926
 10
-248
 20
19926
 10
-248
 20
22910
 10
-252
 20
22910
 10
-252
 20
25894
 10
-256
 20
25894
 10
-256
 20
28878
 10
-260
 20
28878
 10
-260
 20
31862
 10
-264
 20
31862
 10
-264
 20
33486
 10
2264
 20
33486
 10
2264
 20
32198
 10
2268
 20
32198
 10
2268
 20
29214
 10
2272
 20
29214
 10
2272
 20
27000
 10
2000
 20
27000
  0
ENDBLK
  5
8B
330
89
100
AcDbEntity
  8
0
100
AcDbBlockEnd
  0
BLOCK
  5
8D
330
8C
100
AcDbEntity
  8
0
100
AcDbBlockBegin
  2
NNL14_Begin_1-SSL14_End_1-11
 70
    0
 10
0
 20
0
  3
NNL14_Begin_1-SSL14_End_1-11
  1

  0
LWPOLYLINE
  5
C2
100
AcDbEntity
  8
0
  6
ByLayer
 62
  256
370
   -1
100
AcDbPolyline
 90
   32
 70
    0
 43
0
 10
0
 20
0
 10
-221
 20
0
 10
-221
 20
2022
 10
-225
 20
2022
 10
-225
 20
5006
 10
-229
 20
5006
 10
-229
 20
7990
 10
-233
 20
7990
 10
-233
 20
10974
 10
-237
 20
10974
 10
-237
 20
13958
 10
-241
 20
13958
 10
-241
 20
16942
 10
-245
 20
16942
 10
-245
 20
19926
 10
-249
 20
19926
 10
-249
 20
22910
 10
-253
 20
22910
 10
-253
 20
25894
 10
-257
 20
25894
 10
-257
 20
28878
 10
-261
 20
28878
 10
-261
 20
31862
 10
-265
 20
31862
 10
-265
 20
33491
 10
2265
 20
33491
 10
2265
 20
32206
 10
2269
 20
32206
 10
2269
 20
29222
 10
2273
 20
29222
 10
2273
 20
27000
 10
2000
 20
27000
  0
ENDBLK
  5
8E
330
8C
100
AcDbEntity
  8
0
100
AcDbBlockEnd
  0
BLOCK
  5
90
330
8F
100
AcDbEntity
  8
0
100
AcDbBlockBegin
  2
NNL14_Begin_2-SSL14_End_2-11
 70
    0
 10
0
 20
0
  3
NNL14_Begin_2-SSL14_End_2-11
  1

  0
LWPOLYLINE
  5
C3
100
AcDbEntity
  8
0
  6
ByLayer
 62
  256
370
   -1
100
AcDbPolyline
 90
   32
 70
    0
 43
0
 10
0
 20
0
 10
-222
 20
0
 10
-222
 20
2022
 10
-226
 20
2022
 10
-226
 20
5006
 10
-230
 20
5006
 10
-230
 20
7990
 10
-234
 20
7990
 10
-234
 20
10974
 10
-238
 20
10974
 10
-238
 20
13958
 10
-242
 20
13958
 10
-242
 20
16942
 10
-246
 20
16942
 10
-246
 20
19926
 10
-250
 20
19926
 10
-250
 20
22910
 10
-254
 20
22910
 10
-254
 20
25894
 10
-258
 20
25894
 10
-258
 20
28878
 10
-262
 20
28878
 10
-262
 20
31862
 10
-266
 20
31862
 10
-266
 20
33496
 10
2266
 20
33496
 10
2266
 20
32214
 10
2270
 20
32214
 10
2270
 20
29230
 10
2274
 20
29230
 10
2274
 20
27000
 10
2000
 20
27000
  0
ENDBLK
  5
91
330
8F
100
AcDbEntity
  8
0
100
AcDbBlockEnd
  0
BLOCK
  5
93
330
92
100
AcDbEntity
  8
0
100
AcDbBlockBegin
  2
NNL14_Begin_3-SSL14_End_3-11
 70
    0
 10
0
 20
0
  3
NNL14_Begin_3-SSL14_End_3-11
  1

  0
LWPOLYLINE
  5
C4
100
AcDbEntity
  8
0
  6
ByLayer
 62
  256
370
   -1
100
AcDbPolyline
 90
   32
 70
    0
 43
0
 10
0
 20
0
 10
-223
 20
0
 10
-223
 20
2022
 10
-227
 20
2022
 10
-227
 20
5006
 10
-231
 20
5006
 10
-231
 20
7990
 10
-235
 20
7990
 10
-235
 20
10974
 10
-239
 20
10974
 10
-239
 20
13958
 10
-243
 20
13958
 10
-243
 20
16942
 10
-247
 20
16942
 10
-247
 20
19926
 10
-251
 20
19926
 10
-251
 20
22910
 10
-255
 20
22910
 10
-255
 20
25894
 10
-259
 20
25894
 10
-259
 20
28878
 10
-263
 20
28878
 10
-263
 20
31862
 10
-267
 20
31862
 10
-267
 20
33501
 10
2267
 20
33501
 10
2267
 20
32222
 10
2271
 20
32222
 10
2271
 20
29238
 10
2275
 20
29238
 10
2275
 20
27000
 10
2000
 20
27000
  0
ENDBLK
  5
94
330
92
100
AcDbEntity
  8
0
100
AcDbBlockEnd
  0
BLOCK
  5
96
330
95
100
AcDbEntity
  8
0
100
AcDbBlockBegin
  2
NNL14_Begin_0-SSL14_End_0-12
 70
    0
 10
0
 20
0
  3
NNL14_Begin_0-SSL14_End_0-12
  1

  0
LWPOLYLINE
  5
C5
100
AcDbEntity
  8
0
  6
ByLayer
 62
  256
370
   -1
100
AcDbPolyline
 90
   32
 70
    0
 43
0
 10
0
 20
0
 10
-220
 20
0
 10
-220
 20
2022
 10
-224
 20
2022
 10
-224
 20
5006
 10
-228
 20
5006
 10
-228
 20
7990
 10
-232
 20
7990
 10
-232
 20
10974
 10
-236
 20
10974
 10
-236
 20
13958
 10
-240
 20
13958
 10
-240
 20
16942
 10
-244
 20
16942
 10
-244
 20
19926
 10
-248
 20
19926
 10
-248
 20
22910
 10
-252
 20
22910
 10
-252
 20
25894
 10
-256
 20
25894
 10
-256
 20
28878
 10
-260
 20
28878
 10
-260
 20
31862
 10
-264
 20
31862
 10
-264
 20
34846
 10
-268
 20
34846
 10
-268
 20
36490
 10
2268
 20
36490
 10
2268
 20
35214
 10
2272
 20
35214
 10
2272
 20
33000
 10
2000
 20
33000
  0
ENDBLK
  5
97
330
95
100
AcDbEntity
  8
0
100
AcDbBlockEnd
  0
BLOCK
  5
99
330
98
100
AcDbEntity
  8
0
100
AcDbBlockBegin
  2
NNL14_Begin_1-SSL14_End_1-12
 70
    0
 10
0
 20
0
  3
NNL14_Begin_1-SSL14_End_1-12
  1

  0
LWPOLYLINE
  5
C6
100
AcDbEntity
  8
0
  6
ByLayer
 62
  256
370
   -1
100
AcDbPolyline
 90
   32
 70
    0
 43
0
 10
0
 20
0
 10
-221
 20
0
 10
-221
 20
2022
 10
-225
 20
2022
 10
-225
 20
5006
 10
-229
 20
5006
 10
-229
 20
7990
 10
-233
 20
7990
 10
-233
 20
10974
 10
-237
 20
10974
 10
-237
 20
13958
 10
-241
 20
13958
 10
-241
 20
16942
 10
-245
 20
16942
 10
-245
 20
19926
 10
-249
 20
19926
 10
-249
 20
22910
 10
-253
 20
22910
 10
-253
 20
25894
 10
-257
 20
25894
 10
-257
 20
28878
 10
-261
 20
28878
 10
-261
 20
31862
 10
-265
 20
31862
 10
-265
 20
34846
 10
-269
 20
34846
 10
-269
 20
36495
 10
2269
 20
36495
 10
2269
 20
35222
 10
2273
 20
35222
 10
2273
 20
33000
 10
2000
 20
33000
  0
ENDBLK
  5
9A
330
98
100
AcDbEntity
  8
0
100
AcDbBlockEnd
  0
BLOCK
  5
9C
330
9B
100
AcDbEntity
  8
0
100
AcDbBlockBegin
  2
NNL14_Begin_2-SSL14_End_2-12
 70
    0
 10
0
 20
0
  3
NNL14_Begin_2-SSL14_End_2-12
  1

  0
LWPOLYLINE
  5
C7
100
AcDbEntity
  8
0
  6
ByLayer
 62
  256
370
   -1
100
AcDbPolyline
 90
   32
 70
    0
 43
0
 10
0
 20
0
 10
-222
 20
0
 10
-222
 20
2022
 10
-226
 20
2022
 10
-226
 20
5006
 10
-230
 20
5006
 10
-230
 20
7990
 10
-234
 20
7990
 10
-234
 20
10974
 10
-238
 20
10974
 10
-238
 20
13958
 10
-242
 20
13958
 10
-242
 20
16942
 10
-246
 20
16942
 10
-246
 20
19926
 10
-250
 20
19926
 10
-250
 20
22910
 10
-254
 20
22910
 10
-254
 20
25894
 10
-258
 20
25894
 10
-258
 20
28878
 10
-262
 20
28878
 10
-262
 20
31862
 10
-266
 20
31862
 10
-266
 20
34846
 10
-270
 20
34846
 10
-270
 20
36500
 10
2270
 20
36500
 10
2270
 20
35230
 10
2274
 20
35230
 10
2274
 20
33000
 10
2000
 20
33000
  0
ENDBLK
  5
9D
330
9B
100
AcDbEntity
  8
0
100
AcDbBlockEnd
  0
BLOCK
  5
9F
330
9E
100
AcDbEntity
  8
0
100
AcDbBlockBegin
  2
NNL14_Begin_3-SSL14_End_3-12
 70
    0
 10
0
 20
0
  3
NNL14_Begin_3-SSL14_End_3-12
  1

  0
LWPOLYLINE
  5
C8
100
AcDbEntity
  8
0
  6
ByLayer
 62
  256
370
   -1
100
AcDbPolyline
 90
   32
 70
    0
 43
0
 10
0
 20
0
 10
-223
 20
0
 10
-223
 20
2022
 10
-227
 20
2022
 10
-227
 20
5006
 10
-231
 20
5006
 10
-231
 20
7990
 10
-235
 20
7990
 10
-235
 20
10974
 10
-239
 20
10974
 10
-239
 20
13958
 10
-243
 20
13958
 10
-243
 20
16942
 10
-247
 20
16942
 10
-247
 20
19926
 10
-251
 20
19926
 10
-251
 20
22910
 10
-255
 20
22910
 10
-255
 20
25894
 10
-259
 20
25894
 10
-259
 20
28878
 10
-263
 20
28878
 10
-263
 20
31862
 10
-267
 20
31862
 10
-267
 20
34846
 10
-271
 20
34846
 10
-271
 20
36505
 10
2271
 20
36505
 10
2271
 20
35238
 10
2275
 20
35238
 10
2275
 20
33000
 10
2000
 20
33000
  0
ENDBLK
  5
A0
330
9E
100
AcDbEntity
  8
0
100
AcDbBlockEnd
  0
BLOCK
  5
A2
330
A1
100
AcDbEntity
  8
0
100
AcDbBlockBegin
  2
NNL14_Begin_0-SSL14_End_0-13
 70
    0
 10
0
 20
0
  3
NNL14_Begin_0-SSL14_End_0-13
  1

  0
LWPOLYLINE
  5
C9
100
AcDbEntity
  8
0
  6
ByLayer
 62
  256
370
   -1
100
AcDbPolyline
 90
   32
 70
    0
 43
0
 10
0
 20
0
 10
-220
 20
0
 10
-220
 20
2022
 10
-224
 20
2022
 10
-224
 20
5006
 10
-228
 20
5006
 10
-228
 20
7990
 10
-232
 20
7990
 10
-232
 20
10974
 10
-236
 20
10974
 10
-236
 20
13958
 10
-240
 20
13958
 10
-240
 20
16942
 10
-244
 20
16942
 10
-244
 20
19926
 10
-248
 20
19926
 10
-248
 20
22910
 10
-252
 20
22910
 10
-252
 20
25894
 10
-256
 20
25894
 10
-256
 20
28878
 10
-260
 20
28878
 10
-260
 20
31862
 10
-264
 20
31862
 10
-264
 20
34846
 10
-268
 20
34846
 10
-268
 20
37830
 10
-272
 20
37830
 10
-272
 20
39494
 10
2272
 20
39494
 10
2272
 20
39000
 10
2000
 20
39000
  0
ENDBLK
  5
A3
330
A1
100
AcDbEntity
  8
0
100
AcDbBlockEnd
  0
BLOCK
  5
A5
330
A4
100
AcDbEntity
  8
0
100
AcDbBlockBegin
  2
NNL14_Begin_1-SSL14_End_1-13
 70
    0
 10
0
 20
0
  3
NNL14_Begin_1-SSL14_End_1-13
  1

  0
LWPOLYLINE
  5
CA
100
AcDbEntity
  8
0
  6
ByLayer
 62
  256
370
   -1
100
AcDbPolyline
 90
   32
 70
    0
 43
0
 10
0
 20
0
 10
-221
 20
0
 10
-221
 20
2022
 10
-225
 20
2022
 10
-225
 20
5006
 10
-229
 20
5006
 10
-229
 20
7990
 10
-233
 20
7990
 10
-233
 20
10974
 10
-237
 20
10974
 10
-237
 20
13958
 10
-241
 20
13958
 10
-241
 20
16942
 10
-245
 20
16942
 10
-245
 20
19926
 10
-249
 20
19926
 10
-249
 20
22910
 10
-253
 20
22910
 10
-253
 20
25894
 10
-257
 20
25894
 10
-257
 20
28878
 10
-261
 20
28878
 10
-261
 20
31862
 10
-265
 20
31862
 10
-265
 20
34846
 10
-269
 20
34846
 10
-269
 20
37830
 10
-273
 20
37830
 10
-273
 20
39499
 10
2273
 20
39499
 10
2273
 20
39000
 10
2000
 20
39000
  0
ENDBLK
  5
A6
330
A4
100
AcDbEntity
  8
0
100
AcDbBlockEnd
  0
BLOCK
  5
A8
330
A7
100
AcDbEntity
  8
0
100
AcDbBlockBegin
  2
NNL14_Begin_2-SSL14_End_2-13
 70
    0
 10
0
 20
0
  3
NNL14_Begin_2-SSL14_End_2-13
  1

  0
LWPOLYLINE
  5
CB
100
AcDbEntity
  8
0
  6
ByLayer
 62
  256
370
   -1
100
AcDbPolyline
 90
   32
 70
    0
 43
0
 10
0
 20
0
 10
-222
 20
0
 10
-222
 20
2022
 10
-226
 20
2022
 10
-226
 20
5006
 10
-230
 20
5006
 10
-230
 20
7990
 10
-234
 20
7990
 10
-234
 20
10974
 10
-238
 20
10974
 10
-238
 20
13958
 10
-242
 20
13958
 10
-242
 20
16942
 10
-246
 20
16942
 10
-246
 20
19926
 10
-250
 20
19926
 10
-250
 20
22910
 10
-254
 20
22910
 10
-254
 20
25894
 10
-258
 20
25894
 10
-258
 20
28878
 10
-262
 20
28878
 10
-262
 20
31862
 10
-266
 20
31862
 10
-266
 20
34846
 10
-270
 20
34846
 10
-270
 20
37830
 10
-274
 20
37830
 10
-274
 20
39504
 10
2274
 20
39504
 10
2274
 20
39000
 10
2000
 20
39000
  0
ENDBLK
  5
A9
330
A7
100
AcDbEntity
  8
0
100
AcDbBlockEnd
  0
BLOCK
  5
AB
330
AA
100
AcDbEntity
  8
0
100
AcDbBlockBegin
  2
NNL14_Begin_3-SSL14_End_3-13
 70
    0
 10
0
 20
0
  3
NNL14_Begin_3-SSL14_End_3-13
  1

  0
LWPOLYLINE
  5
CC
100
AcDbEntity
  8
0
  6
ByLayer
 62
  256
370
   -1
100
AcDbPolyline
 90
   32
 70
    0
 43
0
 10
0
 20
0
 10
-223
 20
0
 10
-223
 20
2022
 10
-227
 20
2022
 10
-227
 20
5006
 10
-231
 20
5006
 10
-231
 20
7990
 10
-235
 20
7990
 10
-235
 20
10974
 10
-239
 20
10974
 10
-239
 20
13958
 10
-243
 20
13958
 10
-243
 20
16942
 10
-247
 20
16942
 10
-247
 20
19926
 10
-251
 20
19926
 10
-251
 20
22910
 10
-255
 20
22910
 10
-255
 20
25894
 10
-259
 20
25894
 10
-259
 20
28878
 10
-263
 20
28878
 10
-263
 20
31862
 10
-267
 20
31862
 10
-267
 20
34846
 10
-271
 20
34846
 10
-271
 20
37830
 10
-275
 20
37830
 10
-275
 20
39509
 10
2275
 20
39509
 10
2275
 20
39000
 10
2000
 20
39000
  0
ENDBLK
  5
AC
330
AA
100
AcDbEntity
  8
0
100
AcDbBlockEnd
  0
ENDSEC
  0
SECTION
  2
ENTITIES
  0
INSERT
  5
CD
100
AcDbEntity
  8
0
  6
ByLayer
 62
  256
370
   -1
100
AcDbBlockReference
  2
NNL14_Begin_0-SSL14_End_0-6
 10
0
 20
-16022
 30
0
 41
1
 42
1
 43
0
 50
0
 70
    1
 71
    1
 44
0
 45
0
  0
INSERT
  5
CE
100
AcDbEntity
  8
0
  6
ByLayer
 62
  256
370
   -1
100
AcDbBlockReference
  2
NNL14_Begin_1-SSL14_End_1-6
 10
0
 20
-16026
 30
0
 41
1
 42
1
 43
0
 50
0
 70
    1
 71
    1
 44
0
 45
0
  0
INSERT
  5
CF
100
AcDbEntity
  8
0
  6
ByLayer
 62
  256
370
   -1
100
AcDbBlockReference
  2
NNL14_Begin_2-SSL14_End_2-6
 10
0
 20
-16030
 30
0
 41
1
 42
1
 43
0
 50
0
 70
    1
 71
    1
 44
0
 45
0
  0
INSERT
  5
D0
100
AcDbEntity
  8
0
  6
ByLayer
 62
  256
370
   -1
100
AcDbBlockReference
  2
NNL14_Begin_3-SSL14_End_3-6
 10
0
 20
-16034
 30
0
 41
1
 42
1
 43
0
 50
0
 70
    1
 71
    1
 44
0
 45
0
  0
INSERT
  5
D1
100
AcDbEntity
  8
0
  6
ByLayer
 62
  256
370
   -1
100
AcDbBlockReference
  2
NNL14_Begin_0-SSL14_End_0-7
 10
0
 20
-19022
 30
0
 41
1
 42
1
 43
0
 50
0
 70
    1
 71
    1
 44
0
 45
0
  0
INSERT
  5
D2
100
AcDbEntity
  8
0
  6
ByLayer
 62
  256
370
   -1
100
AcDbBlockReference
  2
NNL14_Begin_1-SSL14_End_1-7
 10
0
 20
-19026
 30
0
 41
1
 42
1
 43
0
 50
0
 70
    1
 71
    1
 44
0
 45
0
  0
INSERT
  5
D3
100
AcDbEntity
  8
0
  6
ByLayer
 62
  256
370
   -1
100
AcDbBlockReference
  2
NNL14_Begin_2-SSL14_End_2-7
 10
0
 20
-19030
 30
0
 41
1
 42
1
 43
0
 50
0
 70
    1
 71
    1
 44
0
 45
0
  0
INSERT
  5
D4
100
AcDbEntity
  8
0
  6
ByLayer
 62
  256
370
   -1
100
AcDbBlockReference
  2
NNL14_Begin_3-SSL14_End_3-7
 10
0
 20
-19034
 30
0
 41
1
 42
1
 43
0
 50
0
 70
    1
 71
    1
 44
0
 45
0
  0
INSERT
  5
D5
100
AcDbEntity
  8
0
  6
ByLayer
 62
  256
370
   -1
100
AcDbBlockReference
  2
NNL14_Begin_0-SSL14_End_0-8
 10
0
 20
-22022
 30
0
 41
1
 42
1
 43
0
 50
0
 70
    1
 71
    1
 44
0
 45
0
  0
INSERT
  5
D6
100
AcDbEntity
  8
0
  6
ByLayer
 62
  256
370
   -1
100
AcDbBlockReference
  2
NNL14_Begin_1-SSL14_End_1-8
 10
0
 20
-22026
 30
0
 41
1
 42
1
 43
0
 50
0
 70
    1
 71
    1
 44
0
 45
0
  0
INSERT
  5
D7
100
AcDbEntity
  8
0
  6
ByLayer
 62
  256
370
   -1
100
AcDbBlockReference
  2
NNL14_Begin_2-SSL14_End_2-8
 10
0
 20
-22030
 30
0
 41
1
 42
1
 43
0
 50
0
 70
    1
 71
    1
 44
0
 45
0
  0
INSERT
  5
D8
100
AcDbEntity
  8
0
  6
ByLayer
 62
  256
370
   -1
100
AcDbBlockReference
  2
NNL14_Begin_3-SSL14_End_3-8
 10
0
 20
-22034
 30
0
 41
1
 42
1
 43
0
 50
0
 70
    1
 71
    1
 44
0
 45
0
  0
INSERT
  5
D9
100
AcDbEntity
  8
0
  6
ByLayer
 62
  256
370
   -1
100
AcDbBlockReference
  2
NNL14_Begin_0-SSL14_End_0-9
 10
0
 20
-25022
 30
0
 41
1
 42
1
 43
0
 50
0
 70
    1
 71
    1
 44
0
 45
0
  0
INSERT
  5
DA
100
AcDbEntity
  8
0
  6
ByLayer
 62
  256
370
   -1
100
AcDbBlockReference
  2
NNL14_Begin_1-SSL14_End_1-9
 10
0
 20
-25026
 30
0
 41
1
 42
1
 43
0
 50
0
 70
    1
 71
    1
 44
0
 45
0
  0
INSERT
  5
DB
100
AcDbEntity
  8
0
  6
ByLayer
 62
  256
370
   -1
100
AcDbBlockReference
  2
NNL14_Begin_2-SSL14_End_2-9
 10
0
 20
-25030
 30
0
 41
1
 42
1
 43
0
 50
0
 70
    1
 71
    1
 44
0
 45
0
  0
INSERT
  5
DC
100
AcDbEntity
  8
0
  6
ByLayer
 62
  256
370
   -1
100
AcDbBlockReference
  2
NNL14_Begin_3-SSL14_End_3-9
 10
0
 20
-25034
 30
0
 41
1
 42
1
 43
0
 50
0
 70
    1
 71
    1
 44
0
 45
0
  0
INSERT
  5
DD
100
AcDbEntity
  8
0
  6
ByLayer
 62
  256
370
   -1
100
AcDbBlockReference
  2
NNL14_Begin_0-SSL14_End_0-10
 10
0
 20
-28022
 30
0
 41
1
 42
1
 43
0
 50
0
 70
    1
 71
    1
 44
0
 45
0
  0
INSERT
  5
DE
100
AcDbEntity
  8
0
  6
ByLayer
 62
  256
370
   -1
100
AcDbBlockReference
  2
NNL14_Begin_1-SSL14_End_1-10
 10
0
 20
-28026
 30
0
 41
1
 42
1
 43
0
 50
0
 70
    1
 71
    1
 44
0
 45
0
  0
INSERT
  5
DF
100
AcDbEntity
  8
0
  6
ByLayer
 62
  256
370
   -1
100
AcDbBlockReference
  2
NNL14_Begin_2-SSL14_End_2-10
 10
0
 20
-28030
 30
0
 41
1
 42
1
 43
0
 50
0
 70
    1
 71
    1
 44
0
 45
0
  0
INSERT
  5
E0
100
AcDbEntity
  8
0
  6
ByLayer
 62
  256
370
   -1
100
AcDbBlockReference
  2
NNL14_Begin_3-SSL14_End_3-10
 10
0
 20
-28034
 30
0
 41
1
 42
1
 43
0
 50
0
 70
    1
 71
    1
 44
0
 45
0
  0
INSERT
  5
E1
100
AcDbEntity
  8
0
  6
ByLayer
 62
  256
370
   -1
100
AcDbBlockReference
  2
NNL14_Begin_0-SSL14_End_0-11
 10
0
 20
-31022
 30
0
 41
1
 42
1
 43
0
 50
0
 70
    1
 71
    1
 44
0
 45
0
  0
INSERT
  5
E2
100
AcDbEntity
  8
0
  6
ByLayer
 62
  256
370
   -1
100
AcDbBlockReference
  2
NNL14_Begin_1-SSL14_End_1-11
 10
0
 20
-31026
 30
0
 41
1
 42
1
 43
0
 50
0
 70
    1
 71
    1
 44
0
 45
0
  0
INSERT
  5
E3
100
AcDbEntity
  8
0
  6
ByLayer
 62
  256
370
   -1
100
AcDbBlockReference
  2
NNL14_Begin_2-SSL14_End_2-11
 10
0
 20
-31030
 30
0
 41
1
 42
1
 43
0
 50
0
 70
    1
 71
    1
 44
0
 45
0
  0
INSERT
  5
E4
100
AcDbEntity
  8
0
  6
ByLayer
 62
  256
370
   -1
100
AcDbBlockReference
  2
NNL14_Begin_3-SSL14_End_3-11
 10
0
 20
-31034
 30
0
 41
1
 42
1
 43
0
 50
0
 70
    1
 71
    1
 44
0
 45
0
  0
INSERT
  5
E5
100
AcDbEntity
  8
0
  6
ByLayer
 62
  256
370
   -1
100
AcDbBlockReference
  2
NNL14_Begin_0-SSL14_End_0-12
 10
0
 20
-34022
 30
0
 41
1
 42
1
 43
0
 50
0
 70
    1
 71
    1
 44
0
 45
0
  0
INSERT
  5
E6
100
AcDbEntity
  8
0
  6
ByLayer
 62
  256
370
   -1
100
AcDbBlockReference
  2
NNL14_Begin_1-SSL14_End_1-12
 10
0
 20
-34026
 30
0
 41
1
 42
1
 43
0
 50
0
 70
    1
 71
    1
 44
0
 45
0
  0
INSERT
  5
E7
100
AcDbEntity
  8
0
  6
ByLayer
 62
  256
370
   -1
100
AcDbBlockReference
  2
NNL14_Begin_2-SSL14_End_2-12
 10
0
 20
-34030
 30
0
 41
1
 42
1
 43
0
 50
0
 70
    1
 71
    1
 44
0
 45
0
  0
INSERT
  5
E8
100
AcDbEntity
  8
0
  6
ByLayer
 62
  256
370
   -1
100
AcDbBlockReference
  2
NNL14_Begin_3-SSL14_End_3-12
 10
0
 20
-34034
 30
0
 41
1
 42
1
 43
0
 50
0
 70
    1
 71
    1
 44
0
 45
0
  0
INSERT
  5
E9
100
AcDbEntity
  8
0
  6
ByLayer
 62
  256
370
   -1
100
AcDbBlockReference
  2
NNL14_Begin_0-SSL14_End_0-13
 10
0
 20
-37022
 30
0
 41
1
 42
1
 43
0
 50
0
 70
    1
 71
    1
 44
0
 45
0
  0
INSERT
  5
EA
100
AcDbEntity
  8
0
  6
ByLayer
 62
  256
370
   -1
100
AcDbBlockReference
  2
NNL14_Begin_1-SSL14_End_1-13
 10
0
 20
-37026
 30
0
 41
1
 42
1
 43
0
 50
0
 70
    1
 71
    1
 44
0
 45
0
  0
INSERT
  5
EB
100
AcDbEntity
  8
0
  6
ByLayer
 62
  256
370
   -1
100
AcDbBlockReference
  2
NNL14_Begin_2-SSL14_End_2-13
 10
0
 20
-37030
 30
0
 41
1
 42
1
 43
0
 50
0
 70
    1
 71
    1
 44
0
 45
0
  0
INSERT
  5
EC
100
AcDbEntity
  8
0
  6
ByLayer
 62
  256
370
   -1
100
AcDbBlockReference
  2
NNL14_Begin_3-SSL14_End_3-13
 10
0
 20
-37034
 30
0
 41
1
 42
1
 43
0
 50
0
 70
    1
 71
    1
 44
0
 45
0
  0
ENDSEC
  0
SECTION
  2
OBJECTS
  0
DICTIONARY
  5
C
330
0
100
AcDbDictionary
281
    1
  3
ACAD_GROUP
350
D
  0
DICTIONARY
  5
D
330
C
100
AcDbDictionary
281
    1
  0
PLOTSETTINGS
  5
ED
100
AcDbPlotSettings
  6
1x1
 40
0
 41
0
 42
0
 43
0
  0
ENDSEC
  0
EOF
