999
dxfrw 0.6.3
  0
SECTION
  2
HEADER
  9
$ACADVER
  1
AC1021
  9
$DWGCODEPAGE
  3
ANSI_1252
  9
$INSBASE
 10
0
 20
0
 30
0
  9
$EXTMIN
 10
-109
 20
-1174
 30
0
  9
$EXTMAX
 10
2117
 20
2309
 30
0
  9
$LIMMIN
 10
0
 20
0
  9
$LIMMAX
 10
420
 20
297
  9
$ORTHOMODE
 70
    0
  9
$REGENMODE
 70
    1
  9
$FILLMODE
 70
    1
  9
$QTEXTMODE
 70
    0
  9
$MIRRTEXT
 70
    0
  9
$LTSCALE
 40
1
  9
$ATTMODE
 70
    0
  9
$TEXTSIZE
 40
2.5
  9
$TRACEWID
 40
15.68
  9
$TEXTSTYLE
  7
STANDARD
  9
$CLAYER
  8
0
  9
$CELTYPE
  6
BYLAYER
  9
$CECOLOR
 62
  256
  9
$CELTSCALE
 40
1
  9
$DISPSILH
 70
    0
  9
$DIMSCALE
 40
2.5
  9
$DIMASZ
 40
2.5
  9
$DIMEXO
 40
0.625
  9
$DIMDLI
 40
3.75
  9
$DIMRND
 40
0
  9
$DIMDLE
 40
0
  9
$DIMEXE
 40
1.25
  9
$DIMTP
 40
0
  9
$DIMTM
 40
0
  9
$DIMTXT
 40
2.5
  9
$DIMCEN
 40
2.5
  9
$DIMTSZ
 40
0
  9
$DIMTOL
 70
    0
  9
$DIMLIM
 70
    0
  9
$DIMTIH
 70
    0
  9
$DIMTOH
 70
    0
  9
$DIMSE1
 70
    0
  9
$DIMSE2
 70
    0
  9
$DIMTAD
 70
    1
  9
$DIMZIN
 70
    8
  9
$DIMBLK
  1

  9
$DIMASO
 70
    1
  9
$DIMSHO
 70
    1
  9
$DIMPOST
  1

  9
$DIMAPOST
  1

  9
$DIMALT
 70
    0
  9
$DIMALTD
 70
    3
  9
$DIMALTF
 40
0.03937
  9
$DIMLFAC
 40
1
  9
$DIMTOFL
 70
    1
  9
$DIMTVP
 40
0
  9
$DIMTIX
 70
    0
  9
$DIMSOXD
 70
    0
  9
$DIMSAH
 70
    0
  9
$DIMBLK1
  1

  9
$DIMBLK2
  1

  9
$DIMSTYLE
  2
STANDARD
  9
$DIMCLRD
 70
    0
  9
$DIMCLRE
 70
    0
  9
$DIMCLRT
 70
    0
  9
$DIMTFAC
 40
1
  9
$DIMGAP
 40
0.625
  9
$DIMJUST
 70
    0
  9
$DIMSD1
 70
    0
  9
$DIMSD2
 70
    0
  9
$DIMTOLJ
 70
    0
  9
$DIMTZIN
 70
    8
  9
$DIMALTZ
 70
    0
  9
$DIMALTTZ
 70
    0
  9
$DIMUPT
 70
    0
  9
$DIMDEC
 70
    2
  9
$DIMTDEC
 70
    2
  9
$DIMALTU
 70
    2
  9
$DIMALTTD
 70
    3
  9
$DIMTXSTY
  7
STANDARD
  9
$DIMAUNIT
 70
    0
  9
$DIMADEC
 70
    0
  9
$DIMALTRND
 40
0
  9
$DIMAZIN
 70
    0
  9
$DIMDSEP
 70
   44
  9
$DIMATFIT
 70
    3
  9
$DIMFRAC
 70
    0
  9
$DIMLDRBLK
  1
STANDARD
  9
$DIMLUNIT
 70
    2
  9
$DIMLWD
 70
   -2
  9
$DIMLWE
 70
   -2
  9
$DIMTMOVE
 70
    0
  9
$DIMFXL
 40
1
  9
$DIMFXLON
 70
    0
  9
$DIMJOGANG
 40
0.7854
  9
$DIMTFILL
 70
    0
  9
$DIMTFILLCLR
 70
    0
  9
$DIMARCSYM
 70
    0
  9
$DIMLTYPE
  6

  9
$DIMLTEX1
  6

  9
$DIMLTEX2
  6

  9
$LUNITS
 70
    2
  9
$LUPREC
 70
    4
  9
$SKETCHINC
 40
1
  9
$FILLETRAD
 40
0
  9
$AUNITS
 70
    0
  9
$AUPREC
 70
    2
  9
$MENU
  1
.
  9
$ELEVATION
 40
0
  9
$PELEVATION
 40
0
  9
$THICKNESS
 40
0
  9
$LIMCHECK
 70
    0
  9
$CHAMFERA
 40
0
  9
$CHAMFERB
 40
0
  9
$CHAMFERC
 40
0
  9
$CHAMFERD
 40
0
  9
$SKPOLY
 70
    0
  9
$USRTIMER
 70
    1
  9
$ANGBASE
 50
0
  9
$ANGDIR
 70
    0
  9
$PDMODE
 70
   34
  9
$PDSIZE
 40
0
  9
$PLINEWID
 40
0
  9
$SPLFRAME
 70
    0
  9
$SPLINETYPE
 70
    2
  9
$SPLINESEGS
 70
    8
  9
$HANDSEED
  5
20000
  9
$SURFTAB1
 70
    6
  9
$SURFTAB2
 70
    6
  9
$SURFTYPE
 70
    6
  9
$SURFU
 70
    6
  9
$SURFV
 70
    6
  9
$UCSBASE
  2

  9
$UCSNAME
  2

  9
$UCSORG
 10
0
 20
0
 30
0
  9
$UCSXDIR
 10
1
 20
0
 30
0
  9
$UCSYDIR
 10
0
 20
1
 30
0
  9
$UCSORTHOREF
  2

  9
$UCSORTHOVIEW
 70
    0
  9
$UCSORGTOP
 10
0
 20
0
 30
0
  9
$UCSORGBOTTOM
 10
0
 20
0
 30
0
  9
$UCSORGLEFT
 10
0
 20
0
 30
0
  9
$UCSORGRIGHT
 10
0
 20
0
 30
0
  9
$UCSORGFRONT
 10
0
 20
0
 30
0
  9
$UCSORGBACK
 10
0
 20
0
 30
0
  9
$PUCSBASE
  2

  9
$PUCSNAME
  2

  9
$PUCSORG
 10
0
 20
0
 30
0
  9
$PUCSXDIR
 10
1
 20
0
 30
0
  9
$PUCSYDIR
 10
0
 20
1
 30
0
  9
$PUCSORTHOREF
  2

  9
$PUCSORTHOVIEW
 70
    0
  9
$PUCSORGTOP
 10
0
 20
0
 30
0
  9
$PUCSORGBOTTOM
 10
0
 20
0
 30
0
  9
$PUCSORGLEFT
 10
0
 20
0
 30
0
  9
$PUCSORGRIGHT
 10
0
 20
0
 30
0
  9
$PUCSORGFRONT
 10
0
 20
0
 30
0
  9
$PUCSORGBACK
 10
0
 20
0
 30
0
  9
$USERI1
 70
    0
  9
$USERI2
 70
    0
  9
$USERI3
 70
    0
  9
$USERI4
 70
    0
  9
$USERI5
 70
    0
  9
$USERR1
 40
0
  9
$USERR2
 40
0
  9
$USERR3
 40
0
  9
$USERR4
 40
0
  9
$USERR5
 40
0
  9
$WORLDVIEW
 70
    1
  9
$SHADEDGE
 70
    3
  9
$SHADEDIF
 70
   70
  9
$TILEMODE
 70
    1
  9
$MAXACTVP
 70
   64
  9
$PINSBASE
 10
0
 20
0
 30
0
  9
$PLIMCHECK
 70
    0
  9
$PEXTMIN
 10
0
 20
0
 30
0
  9
$PEXTMAX
 10
0
 20
0
 30
0
  9
$GRIDMODE
 70
    1
  9
$SNAPSTYLE
 70
    0
  9
$PLIMMIN
 10
0
 20
0
  9
$PLIMMAX
 10
210000000
 20
297000000
  9
$UNITMODE
 70
    0
  9
$VISRETAIN
 70
    1
  9
$PLINEGEN
 70
    0
  9
$PSLTSCALE
 70
    1
  9
$TREEDEPTH
 70
 3020
  9
$CMLSTYLE
  2
Standard
  9
$CMLJUST
 70
    0
  9
$CMLSCALE
 40
20
  9
$PROXYGRAPHICS
 70
    1
  9
$MEASUREMENT
 70
    1
  9
$CELWEIGHT
370
   -1
  9
$ENDCAPS
280
    0
  9
$JOINSTYLE
280
    0
  9
$LWDISPLAY
290
    0
  9
$INSUNITS
 70
    0
  9
$HYPERLINKBASE
  1

  9
$STYLESHEET
  1

  9
$XEDIT
290
    1
  9
$CEPSNTYPE
380
    0
  9
$PSTYLEMODE
290
    1
  9
$EXTNAMES
290
    1
  9
$PSVPSCALE
 40
1
  9
$OLESTARTUP
290
    0
  9
$SORTENTS
280
  127
  9
$INDEXCTL
280
    0
  9
$HIDETEXT
280
    1
  9
$XCLIPFRAME
290
    0
  9
$HALOGAP
280
    0
  9
$OBSCOLOR
 70
  257
  9
$OBSLTYPE
280
    0
  9
$INTERSECTIONDISPLAY
280
    0
  9
$INTERSECTIONCOLOR
 70
  257
  9
$DIMASSOC
280
    1
  9
$PROJECTNAME
  1

  9
$CAMERADISPLAY
290
    0
  9
$LENSLENGTH
 40
50
  9
$CAMERAHEIGHT
 40
0
  9
$STEPSPERSEC
 40
2
  9
$STEPSIZE
 40
50
  9
$3DDWFPREC
 40
2
  9
$PSOLWIDTH
 40
5
  9
$PSOLHEIGHT
 40
80
  9
$LOFTANG1
 40
1.570796326794897
  9
$LOFTANG2
 40
1.570796326794897
  9
$LOFTMAG1
 40
0
  9
$LOFTMAG2
 40
0
  9
$LOFTPARAM
 70
    7
  9
$LOFTNORMALS
280
    1
  9
$LATITUDE
 40
1
  9
$LONGITUDE
 40
1
  9
$NORTHDIRECTION
 40
0
  9
$TIMEZONE
 70
-8000
  9
$LIGHTGLYPHDISPLAY
280
    1
  9
$TILEMODELIGHTSYNCH
280
    1
  9
$SOLIDHIST
280
    1
  9
$SHOWHIST
280
    1
  9
$DWFFRAME
280
    2
  9
$DGNFRAME
280
    0
  9
$REALWORLDSCALE
290
    1
  9
$INTERFERECOLOR
 62
    1
  9
$CSHADOW
280
    0
  9
$SHADOWPLANELOCATION
 40
0
  0
ENDSEC
  0
SECTION
  2
CLASSES
  0
ENDSEC
  0
SECTION
  2
TABLES
  0
TABLE
  2
VPORT
  5
8
330
0
100
AcDbSymbolTable
 70
    1
  0
VPORT
  5
31
330
2
100
AcDbSymbolTableRecord
100
AcDbViewportTableRecord
  2
*ACTIVE
 70
    0
 10
0
 20
0
 11
1
 21
1
 12
2554.9456329226
 22
2356.778104607273
 13
0
 23
0
 14
10
 24
10
 15
10
 25
10
 16
0
 26
0
 36
1
 17
0
 27
0
 37
0
 40
5591.155263182421
 41
1.840506329113924
 42
50
 43
0
 44
0
 50
0
 51
0
 71
    0
 72
  100
 73
    1
 74
    3
 75
    0
 76
    1
 77
    0
 78
    0
281
    0
 65
    1
110
0
120
0
130
0
111
1
121
0
131
0
112
0
122
1
132
0
 79
    0
146
0
348
10020
 60
    7
 61
    5
292
1
282
    1
141
0
142
0
 63
  250
421
3358443
  0
ENDTAB
  0
TABLE
  2
LTYPE
  5
5
330
0
100
AcDbSymbolTable
 70
    4
  0
LTYPE
  5
14
330
5
100
AcDbSymbolTableRecord
100
AcDbLinetypeTableRecord
  2
ByBlock
 70
    0
  3

 72
   65
 73
    0
 40
0
  0
LTYPE
  5
15
330
5
100
AcDbSymbolTableRecord
100
AcDbLinetypeTableRecord
  2
ByLayer
 70
    0
  3

 72
   65
 73
    0
 40
0
  0
LTYPE
  5
16
330
5
100
AcDbSymbolTableRecord
100
AcDbLinetypeTableRecord
  2
Continuous
 70
    0
  3
Solid line
 72
   65
 73
    0
 40
0
  0
LTYPE
  5
32
330
5
100
AcDbSymbolTableRecord
100
AcDbLinetypeTableRecord
  2
DOT
 70
    0
  3
Dot . . . . . . . . . . . . . . . . . . . . . .
 72
   65
 73
    2
 40
6.35
 49
0
 74
    0
 49
-6.35
 74
    0
  0
LTYPE
  5
33
330
5
100
AcDbSymbolTableRecord
100
AcDbLinetypeTableRecord
  2
DOTTINY
 70
    0
  3
Dot (.15x) .....................................
 72
   65
 73
    2
 40
0.9525
 49
0
 74
    0
 49
-0.9525
 74
    0
  0
LTYPE
  5
34
330
5
100
AcDbSymbolTableRecord
100
AcDbLinetypeTableRecord
  2
DOT2
 70
    0
  3
Dot (.5x) .....................................
 72
   65
 73
    2
 40
3.175
 49
0
 74
    0
 49
-3.175
 74
    0
  0
LTYPE
  5
35
330
5
100
AcDbSymbolTableRecord
100
AcDbLinetypeTableRecord
  2
DOTX2
 70
    0
  3
Dot (2x) .  .  .  .  .  .  .  .  .  .  .  .  .
 72
   65
 73
    2
 40
12.7
 49
0
 74
    0
 49
-12.7
 74
    0
  0
LTYPE
  5
36
330
5
100
AcDbSymbolTableRecord
100
AcDbLinetypeTableRecord
  2
DASHED
 70
    0
  3
Dashed _ _ _ _ _ _ _ _ _ _ _ _ _ _ _ _ _
 72
   65
 73
    2
 40
19.05
 49
12.7
 74
    0
 49
-6.35
 74
    0
  0
LTYPE
  5
37
330
5
100
AcDbSymbolTableRecord
100
AcDbLinetypeTableRecord
  2
DASHEDTINY
 70
    0
  3
Dashed (.15x) _ _ _ _ _ _ _ _ _ _ _ _ _ _ _ _ _
 72
   65
 73
    2
 40
2.8575
 49
1.905
 74
    0
 49
-0.9525
 74
    0
  0
LTYPE
  5
38
330
5
100
AcDbSymbolTableRecord
100
AcDbLinetypeTableRecord
  2
DASHED2
 70
    0
  3
Dashed (.5x) _ _ _ _ _ _ _ _ _ _ _ _ _ _ _ _ _
 72
   65
 73
    2
 40
9.524999999999999
 49
6.35
 74
    0
 49
-3.175
 74
    0
  0
LTYPE
  5
39
330
5
100
AcDbSymbolTableRecord
100
AcDbLinetypeTableRecord
  2
DASHEDX2
 70
    0
  3
Dashed (2x) ____  ____  ____  ____  ____  ___
 72
   65
 73
    2
 40
38.09999999999999
 49
25.4
 74
    0
 49
-12.7
 74
    0
  0
LTYPE
  5
3A
330
5
100
AcDbSymbolTableRecord
100
AcDbLinetypeTableRecord
  2
DASHDOT
 70
    0
  3
Dash dot __ . __ . __ . __ . __ . __ . __ . __
 72
   65
 73
    4
 40
25.4
 49
12.7
 74
    0
 49
-6.35
 74
    0
 49
0
 74
    0
 49
-6.35
 74
    0
  0
LTYPE
  5
3B
330
5
100
AcDbSymbolTableRecord
100
AcDbLinetypeTableRecord
  2
DASHDOTTINY
 70
    0
  3
Dash dot (.15x) _._._._._._._._._._._._._._._.
 72
   65
 73
    4
 40
3.81
 49
1.905
 74
    0
 49
-0.9525
 74
    0
 49
0
 74
    0
 49
-0.9525
 74
    0
  0
LTYPE
  5
3C
330
5
100
AcDbSymbolTableRecord
100
AcDbLinetypeTableRecord
  2
DASHDOT2
 70
    0
  3
Dash dot (.5x) _._._._._._._._._._._._._._._.
 72
   65
 73
    4
 40
12.7
 49
6.35
 74
    0
 49
-3.175
 74
    0
 49
0
 74
    0
 49
-3.175
 74
    0
  0
LTYPE
  5
3D
330
5
100
AcDbSymbolTableRecord
100
AcDbLinetypeTableRecord
  2
DASHDOTX2
 70
    0
  3
Dash dot (2x) ____  .  ____  .  ____  .  ___
 72
   65
 73
    4
 40
50.8
 49
25.4
 74
    0
 49
-12.7
 74
    0
 49
0
 74
    0
 49
-12.7
 74
    0
  0
LTYPE
  5
3E
330
5
100
AcDbSymbolTableRecord
100
AcDbLinetypeTableRecord
  2
DIVIDE
 70
    0
  3
Divide ____ . . ____ . . ____ . . ____ . . ____
 72
   65
 73
    6
 40
31.75
 49
12.7
 74
    0
 49
-6.35
 74
    0
 49
0
 74
    0
 49
-6.35
 74
    0
 49
0
 74
    0
 49
-6.35
 74
    0
  0
LTYPE
  5
3F
330
5
100
AcDbSymbolTableRecord
100
AcDbLinetypeTableRecord
  2
DIVIDETINY
 70
    0
  3
Divide (.15x) __..__..__..__..__..__..__..__.._
 72
   65
 73
    6
 40
4.7625
 49
1.905
 74
    0
 49
-0.9525
 74
    0
 49
0
 74
    0
 49
-0.9525
 74
    0
 49
0
 74
    0
 49
-0.9525
 74
    0
  0
LTYPE
  5
40
330
5
100
AcDbSymbolTableRecord
100
AcDbLinetypeTableRecord
  2
DIVIDE2
 70
    0
  3
Divide (.5x) __..__..__..__..__..__..__..__.._
 72
   65
 73
    6
 40
15.875
 49
6.35
 74
    0
 49
-3.175
 74
    0
 49
0
 74
    0
 49
-3.175
 74
    0
 49
0
 74
    0
 49
-3.175
 74
    0
  0
LTYPE
  5
41
330
5
100
AcDbSymbolTableRecord
100
AcDbLinetypeTableRecord
  2
DIVIDEX2
 70
    0
  3
Divide (2x) ________  .  .  ________  .  .  _
 72
   65
 73
    6
 40
63.5
 49
25.4
 74
    0
 49
-12.7
 74
    0
 49
0
 74
    0
 49
-12.7
 74
    0
 49
0
 74
    0
 49
-12.7
 74
    0
  0
LTYPE
  5
42
330
5
100
AcDbSymbolTableRecord
100
AcDbLinetypeTableRecord
  2
BORDER
 70
    0
  3
Border __ __ . __ __ . __ __ . __ __ . __ __ .
 72
   65
 73
    6
 40
44.45
 49
12.7
 74
    0
 49
-6.35
 74
    0
 49
12.7
 74
    0
 49
-6.35
 74
    0
 49
0
 74
    0
 49
-6.35
 74
    0
  0
LTYPE
  5
43
330
5
100
AcDbSymbolTableRecord
100
AcDbLinetypeTableRecord
  2
BORDERTINY
 70
    0
  3
Border (.15x) __.__.__.__.__.__.__.__.__.__.__.
 72
   65
 73
    6
 40
6.6675
 49
1.905
 74
    0
 49
-0.9525
 74
    0
 49
1.905
 74
    0
 49
-0.9525
 74
    0
 49
0
 74
    0
 49
-0.9525
 74
    0
  0
LTYPE
  5
44
330
5
100
AcDbSymbolTableRecord
100
AcDbLinetypeTableRecord
  2
BORDER2
 70
    0
  3
Border (.5x) __.__.__.__.__.__.__.__.__.__.__.
 72
   65
 73
    6
 40
22.225
 49
6.35
 74
    0
 49
-3.175
 74
    0
 49
6.35
 74
    0
 49
-3.175
 74
    0
 49
0
 74
    0
 49
-3.175
 74
    0
  0
LTYPE
  5
45
330
5
100
AcDbSymbolTableRecord
100
AcDbLinetypeTableRecord
  2
BORDERX2
 70
    0
  3
Border (2x) ____  ____  .  ____  ____  .  ___
 72
   65
 73
    6
 40
88.89999999999999
 49
25.4
 74
    0
 49
-12.7
 74
    0
 49
25.4
 74
    0
 49
-12.7
 74
    0
 49
0
 74
    0
 49
-12.7
 74
    0
  0
LTYPE
  5
46
330
5
100
AcDbSymbolTableRecord
100
AcDbLinetypeTableRecord
  2
CENTER
 70
    0
  3
Center ____ _ ____ _ ____ _ ____ _ ____ _ ____
 72
   65
 73
    4
 40
50.8
 49
31.75
 74
    0
 49
-6.35
 74
    0
 49
6.35
 74
    0
 49
-6.35
 74
    0
  0
LTYPE
  5
47
330
5
100
AcDbSymbolTableRecord
100
AcDbLinetypeTableRecord
  2
CENTERTINY
 70
    0
  3
Center (.15x) ___ _ ___ _ ___ _ ___ _ ___ _ ___
 72
   65
 73
    4
 40
7.62
 49
4.7625
 74
    0
 49
-0.9525
 74
    0
 49
0.9525
 74
    0
 49
-0.9525
 74
    0
  0
LTYPE
  5
48
330
5
100
AcDbSymbolTableRecord
100
AcDbLinetypeTableRecord
  2
CENTER2
 70
    0
  3
Center (.5x) ___ _ ___ _ ___ _ ___ _ ___ _ ___
 72
   65
 73
    4
 40
28.575
 49
19.05
 74
    0
 49
-3.175
 74
    0
 49
3.175
 74
    0
 49
-3.175
 74
    0
  0
LTYPE
  5
49
330
5
100
AcDbSymbolTableRecord
100
AcDbLinetypeTableRecord
  2
CENTERX2
 70
    0
  3
Center (2x) ________  __  ________  __  _____
 72
   65
 73
    4
 40
101.6
 49
63.5
 74
    0
 49
-12.7
 74
    0
 49
12.7
 74
    0
 49
-12.7
 74
    0
  0
ENDTAB
  0
TABLE
  2
LAYER
  5
2
330
0
100
AcDbSymbolTable
 70
    1
  0
LAYER
  5
10
330
2
100
AcDbSymbolTableRecord
100
AcDbLayerTableRecord
  2
0
 70
    0
 62
    7
  6
CONTINUOUS
370
    0
390
F
  0
ENDTAB
  0
TABLE
  2
STYLE
  5
3
330
0
100
AcDbSymbolTable
 70
    3
  0
STYLE
  5
4A
330
2
100
AcDbSymbolTableRecord
100
AcDbTextStyleTableRecord
  2
Standard
 70
    0
 40
0
 41
1
 50
0
 71
    0
 42
1
  3
txt
  4

  0
ENDTAB
  0
TABLE
  2
VIEW
  5
6
330
0
100
AcDbSymbolTable
 70
    0
  0
ENDTAB
  0
TABLE
  2
UCS
  5
7
330
0
100
AcDbSymbolTable
 70
    0
  0
ENDTAB
  0
TABLE
  2
APPID
  5
9
330
0
100
AcDbSymbolTable
 70
    1
  0
APPID
  5
12
330
9
100
AcDbSymbolTableRecord
100
AcDbRegAppTableRecord
  2
ACAD
 70
    0
  0
APPID
  5
4B
330
9
100
AcDbSymbolTableRecord
100
AcDbRegAppTableRecord
  2
LibreCad
 70
    0
  0
ENDTAB
  0
TABLE
  2
DIMSTYLE
  5
A
330
0
100
AcDbSymbolTable
 70
    1
100
AcDbDimStyleTable
 71
    1
  0
DIMSTYLE
105
4C
330
A
100
AcDbSymbolTableRecord
100
AcDbDimStyleTableRecord
  2
Standard
 70
    0
 40
2.5
 41
2.5
 42
0.625
 43
0.38
 44
1.25
 45
0
 46
0
 47
0
 48
0
 49
1
140
2.5
141
0.09
142
0
143
25.4
144
1
145
0
146
1
147
0.625
148
0
 71
    0
 72
    0
 73
    0
 74
    1
 75
    0
 76
    0
 77
    0
 78
    8
 79
    0
170
    0
171
    2
172
    0
173
    0
174
    0
175
    0
176
    0
177
    0
178
    0
179
    0
271
    2
272
    4
273
    2
274
    2
275
    0
276
    0
277
    2
278
   44
279
    0
280
    0
281
    0
282
    0
283
    1
284
    0
285
    0
286
    0
288
    0
289
    3
340
STANDARD
341

371
   -2
372
   -2
  0
ENDTAB
  0
TABLE
  2
BLOCK_RECORD
  5
1
330
0
100
AcDbSymbolTable
 70
    2
  0
BLOCK_RECORD
  5
1F
330
1
100
AcDbSymbolTableRecord
100
AcDbBlockTableRecord
  2
*Model_Space
 70
    0
280
    1
281
    0
  0
BLOCK_RECORD
  5
1E
330
1
100
AcDbSymbolTableRecord
100
AcDbBlockTableRecord
  2
*Paper_Space
 70
    0
280
    1
281
    0
  0
BLOCK_RECORD
  5
4D
330
1
100
AcDbSymbolTableRecord
100
AcDbBlockTableRecord
  2
NNL1_Begin_0-SSL1_End_0-0
 70
    0
280
    1
281
    0
  0
BLOCK_RECORD
  5
50
330
1
100
AcDbSymbolTableRecord
100
AcDbBlockTableRecord
  2
NNL1_Begin_1-SSL1_End_1-0
 70
    0
280
    1
281
    0
  0
BLOCK_RECORD
  5
53
330
1
100
AcDbSymbolTableRecord
100
AcDbBlockTableRecord
  2
NNL1_Begin_2-SSL1_End_2-0
 70
    0
280
    1
281
    0
  0
BLOCK_RECORD
  5
56
330
1
100
AcDbSymbolTableRecord
100
AcDbBlockTableRecord
  2
NNL1_Begin_3-SSL1_End_3-0
 70
    0
280
    1
281
    0
  0
BLOCK_RECORD
  5
59
330
1
100
AcDbSymbolTableRecord
100
AcDbBlockTableRecord
  2
NNL1_Begin_4-SSL1_End_4-0
 70
    0
280
    1
281
    0
  0
BLOCK_RECORD
  5
5C
330
1
100
AcDbSymbolTableRecord
100
AcDbBlockTableRecord
  2
NNL1_Begin_5-SSL1_End_5-0
 70
    0
280
    1
281
    0
  0
BLOCK_RECORD
  5
5F
330
1
100
AcDbSymbolTableRecord
100
AcDbBlockTableRecord
  2
NNL1_Begin_6-SSL1_End_6-0
 70
    0
280
    1
281
    0
  0
BLOCK_RECORD
  5
62
330
1
100
AcDbSymbolTableRecord
100
AcDbBlockTableRecord
  2
NNL1_Begin_7-SSL1_End_7-0
 70
    0
280
    1
281
    0
  0
BLOCK_RECORD
  5
65
330
1
100
AcDbSymbolTableRecord
100
AcDbBlockTableRecord
  2
NNL2_Begin_0-SSL2_End_0-0
 70
    0
280
    1
281
    0
  0
BLOCK_RECORD
  5
68
330
1
100
AcDbSymbolTableRecord
100
AcDbBlockTableRecord
  2
NNL2_Begin_2-SSL2_End_2-0
 70
    0
280
    1
281
    0
  0
BLOCK_RECORD
  5
6B
330
1
100
AcDbSymbolTableRecord
100
AcDbBlockTableRecord
  2
NNL2_Begin_3-SSL2_End_3-0
 70
    0
280
    1
281
    0
  0
BLOCK_RECORD
  5
6E
330
1
100
AcDbSymbolTableRecord
100
AcDbBlockTableRecord
  2
NNL2_Begin_4-SSL2_End_4-0
 70
    0
280
    1
281
    0
  0
BLOCK_RECORD
  5
71
330
1
100
AcDbSymbolTableRecord
100
AcDbBlockTableRecord
  2
NNL2_Begin_5-SSL2_End_5-0
 70
    0
280
    1
281
    0
  0
BLOCK_RECORD
  5
74
330
1
100
AcDbSymbolTableRecord
100
AcDbBlockTableRecord
  2
NNL2_Begin_6-SSL2_End_6-0
 70
    0
280
    1
281
    0
  0
BLOCK_RECORD
  5
77
330
1
100
AcDbSymbolTableRecord
100
AcDbBlockTableRecord
  2
NNL2_Begin_7-SSL2_End_7-0
 70
    0
280
    1
281
    0
  0
BLOCK_RECORD
  5
7A
330
1
100
AcDbSymbolTableRecord
100
AcDbBlockTableRecord
  2
NNL3_Begin_0-SSL3_End_0-0
 70
    0
280
    1
281
    0
  0
BLOCK_RECORD
  5
7D
330
1
100
AcDbSymbolTableRecord
100
AcDbBlockTableRecord
  2
NNL3_Begin_1-SSL3_End_1-0
 70
    0
280
    1
281
    0
  0
BLOCK_RECORD
  5
80
330
1
100
AcDbSymbolTableRecord
100
AcDbBlockTableRecord
  2
NNL3_Begin_2-SSL3_End_2-0
 70
    0
280
    1
281
    0
  0
BLOCK_RECORD
  5
83
330
1
100
AcDbSymbolTableRecord
100
AcDbBlockTableRecord
  2
NNL3_Begin_3-SSL3_End_3-0
 70
    0
280
    1
281
    0
  0
BLOCK_RECORD
  5
86
330
1
100
AcDbSymbolTableRecord
100
AcDbBlockTableRecord
  2
NNL3_Begin_4-SSL3_End_4-0
 70
    0
280
    1
281
    0
  0
BLOCK_RECORD
  5
89
330
1
100
AcDbSymbolTableRecord
100
AcDbBlockTableRecord
  2
NNL3_Begin_5-SSL3_End_5-0
 70
    0
280
    1
281
    0
  0
BLOCK_RECORD
  5
8C
330
1
100
AcDbSymbolTableRecord
100
AcDbBlockTableRecord
  2
NNL3_Begin_6-SSL3_End_6-0
 70
    0
280
    1
281
    0
  0
BLOCK_RECORD
  5
8F
330
1
100
AcDbSymbolTableRecord
100
AcDbBlockTableRecord
  2
NNL3_Begin_7-SSL3_End_7-0
 70
    0
280
    1
281
    0
  0
BLOCK_RECORD
  5
92
330
1
100
AcDbSymbolTableRecord
100
AcDbBlockTableRecord
  2
NNL4_Begin_0-SSL4_End_0-0
 70
    0
280
    1
281
    0
  0
BLOCK_RECORD
  5
95
330
1
100
AcDbSymbolTableRecord
100
AcDbBlockTableRecord
  2
NNL4_Begin_1-SSL4_End_1-0
 70
    0
280
    1
281
    0
  0
BLOCK_RECORD
  5
98
330
1
100
AcDbSymbolTableRecord
100
AcDbBlockTableRecord
  2
NNL4_Begin_2-SSL4_End_2-0
 70
    0
280
    1
281
    0
  0
BLOCK_RECORD
  5
9B
330
1
100
AcDbSymbolTableRecord
100
AcDbBlockTableRecord
  2
NNL4_Begin_3-SSL4_End_3-0
 70
    0
280
    1
281
    0
  0
BLOCK_RECORD
  5
9E
330
1
100
AcDbSymbolTableRecord
100
AcDbBlockTableRecord
  2
NNL4_Begin_4-SSL4_End_4-0
 70
    0
280
    1
281
    0
  0
BLOCK_RECORD
  5
A1
330
1
100
AcDbSymbolTableRecord
100
AcDbBlockTableRecord
  2
NNL4_Begin_5-SSL4_End_5-0
 70
    0
280
    1
281
    0
  0
BLOCK_RECORD
  5
A4
330
1
100
AcDbSymbolTableRecord
100
AcDbBlockTableRecord
  2
NNL6_Begin_0-SSL6_End_0-0
 70
    0
280
    1
281
    0
  0
BLOCK_RECORD
  5
A7
330
1
100
AcDbSymbolTableRecord
100
AcDbBlockTableRecord
  2
NNL6_Begin_1-SSL6_End_1-0
 70
    0
280
    1
281
    0
  0
BLOCK_RECORD
  5
AA
330
1
100
AcDbSymbolTableRecord
100
AcDbBlockTableRecord
  2
NNL6_Begin_2-SSL6_End_2-0
 70
    0
280
    1
281
    0
  0
BLOCK_RECORD
  5
AD
330
1
100
AcDbSymbolTableRecord
100
AcDbBlockTableRecord
  2
NNL6_Begin_3-SSL6_End_3-0
 70
    0
280
    1
281
    0
  0
BLOCK_RECORD
  5
B0
330
1
100
AcDbSymbolTableRecord
100
AcDbBlockTableRecord
  2
NNL6_Begin_4-SSL6_End_4-0
 70
    0
280
    1
281
    0
  0
BLOCK_RECORD
  5
B3
330
1
100
AcDbSymbolTableRecord
100
AcDbBlockTableRecord
  2
NNL6_Begin_5-SSL6_End_5-0
 70
    0
280
    1
281
    0
  0
BLOCK_RECORD
  5
B6
330
1
100
AcDbSymbolTableRecord
100
AcDbBlockTableRecord
  2
NNL6_Begin_6-SSL6_End_6-0
 70
    0
280
    1
281
    0
  0
BLOCK_RECORD
  5
B9
330
1
100
AcDbSymbolTableRecord
100
AcDbBlockTableRecord
  2
NNL6_Begin_7-SSL6_End_7-0
 70
    0
280
    1
281
    0
  0
BLOCK_RECORD
  5
BC
330
1
100
AcDbSymbolTableRecord
100
AcDbBlockTableRecord
  2
NNL14_Begin_0-SSL14_End_0-0
 70
    0
280
    1
281
    0
  0
BLOCK_RECORD
  5
BF
330
1
100
AcDbSymbolTableRecord
100
AcDbBlockTableRecord
  2
NNL14_Begin_1-SSL14_End_1-0
 70
    0
280
    1
281
    0
  0
BLOCK_RECORD
  5
C2
330
1
100
AcDbSymbolTableRecord
100
AcDbBlockTableRecord
  2
NNL14_Begin_2-SSL14_End_2-0
 70
    0
280
    1
281
    0
  0
BLOCK_RECORD
  5
C5
330
1
100
AcDbSymbolTableRecord
100
AcDbBlockTableRecord
  2
NNL14_Begin_3-SSL14_End_3-0
 70
    0
280
    1
281
    0
  0
BLOCK_RECORD
  5
C8
330
1
100
AcDbSymbolTableRecord
100
AcDbBlockTableRecord
  2
SSL1_Begin_0-NNL1_End_0-0
 70
    0
280
    1
281
    0
  0
BLOCK_RECORD
  5
CB
330
1
100
AcDbSymbolTableRecord
100
AcDbBlockTableRecord
  2
SSL1_Begin_1-NNL1_End_1-0
 70
    0
280
    1
281
    0
  0
BLOCK_RECORD
  5
CE
330
1
100
AcDbSymbolTableRecord
100
AcDbBlockTableRecord
  2
SSL1_Begin_2-NNL1_End_2-0
 70
    0
280
    1
281
    0
  0
BLOCK_RECORD
  5
D1
330
1
100
AcDbSymbolTableRecord
100
AcDbBlockTableRecord
  2
SSL1_Begin_3-NNL1_End_3-0
 70
    0
280
    1
281
    0
  0
BLOCK_RECORD
  5
D4
330
1
100
AcDbSymbolTableRecord
100
AcDbBlockTableRecord
  2
SSL1_Begin_4-NNL1_End_4-0
 70
    0
280
    1
281
    0
  0
BLOCK_RECORD
  5
D7
330
1
100
AcDbSymbolTableRecord
100
AcDbBlockTableRecord
  2
SSL1_Begin_5-NNL1_End_5-0
 70
    0
280
    1
281
    0
  0
BLOCK_RECORD
  5
DA
330
1
100
AcDbSymbolTableRecord
100
AcDbBlockTableRecord
  2
SSL1_Begin_6-NNL1_End_6-0
 70
    0
280
    1
281
    0
  0
BLOCK_RECORD
  5
DD
330
1
100
AcDbSymbolTableRecord
100
AcDbBlockTableRecord
  2
SSL1_Begin_7-NNL1_End_7-0
 70
    0
280
    1
281
    0
  0
BLOCK_RECORD
  5
E0
330
1
100
AcDbSymbolTableRecord
100
AcDbBlockTableRecord
  2
SSL2_Begin_0-NNL2_End_0-0
 70
    0
280
    1
281
    0
  0
BLOCK_RECORD
  5
E3
330
1
100
AcDbSymbolTableRecord
100
AcDbBlockTableRecord
  2
SSL2_Begin_1-NNL2_End_1-0
 70
    0
280
    1
281
    0
  0
BLOCK_RECORD
  5
E6
330
1
100
AcDbSymbolTableRecord
100
AcDbBlockTableRecord
  2
SSL2_Begin_2-NNL2_End_2-0
 70
    0
280
    1
281
    0
  0
BLOCK_RECORD
  5
E9
330
1
100
AcDbSymbolTableRecord
100
AcDbBlockTableRecord
  2
SSL2_Begin_3-NNL2_End_3-0
 70
    0
280
    1
281
    0
  0
BLOCK_RECORD
  5
EC
330
1
100
AcDbSymbolTableRecord
100
AcDbBlockTableRecord
  2
SSL2_Begin_4-NNL2_End_4-0
 70
    0
280
    1
281
    0
  0
BLOCK_RECORD
  5
EF
330
1
100
AcDbSymbolTableRecord
100
AcDbBlockTableRecord
  2
SSL2_Begin_5-NNL2_End_5-0
 70
    0
280
    1
281
    0
  0
BLOCK_RECORD
  5
F2
330
1
100
AcDbSymbolTableRecord
100
AcDbBlockTableRecord
  2
SSL2_Begin_6-NNL2_End_6-0
 70
    0
280
    1
281
    0
  0
BLOCK_RECORD
  5
F5
330
1
100
AcDbSymbolTableRecord
100
AcDbBlockTableRecord
  2
SSL2_Begin_7-NNL2_End_7-0
 70
    0
280
    1
281
    0
  0
BLOCK_RECORD
  5
F8
330
1
100
AcDbSymbolTableRecord
100
AcDbBlockTableRecord
  2
SSL3_Begin_0-NNL3_End_0-0
 70
    0
280
    1
281
    0
  0
BLOCK_RECORD
  5
FB
330
1
100
AcDbSymbolTableRecord
100
AcDbBlockTableRecord
  2
SSL3_Begin_1-NNL3_End_1-0
 70
    0
280
    1
281
    0
  0
BLOCK_RECORD
  5
FE
330
1
100
AcDbSymbolTableRecord
100
AcDbBlockTableRecord
  2
SSL3_Begin_2-NNL3_End_2-0
 70
    0
280
    1
281
    0
  0
BLOCK_RECORD
  5
101
330
1
100
AcDbSymbolTableRecord
100
AcDbBlockTableRecord
  2
SSL3_Begin_3-NNL3_End_3-0
 70
    0
280
    1
281
    0
  0
BLOCK_RECORD
  5
104
330
1
100
AcDbSymbolTableRecord
100
AcDbBlockTableRecord
  2
SSL3_Begin_4-NNL3_End_4-0
 70
    0
280
    1
281
    0
  0
BLOCK_RECORD
  5
107
330
1
100
AcDbSymbolTableRecord
100
AcDbBlockTableRecord
  2
SSL3_Begin_5-NNL3_End_5-0
 70
    0
280
    1
281
    0
  0
BLOCK_RECORD
  5
10A
330
1
100
AcDbSymbolTableRecord
100
AcDbBlockTableRecord
  2
SSL3_Begin_6-NNL3_End_6-0
 70
    0
280
    1
281
    0
  0
BLOCK_RECORD
  5
10D
330
1
100
AcDbSymbolTableRecord
100
AcDbBlockTableRecord
  2
SSL3_Begin_7-NNL3_End_7-0
 70
    0
280
    1
281
    0
  0
BLOCK_RECORD
  5
110
330
1
100
AcDbSymbolTableRecord
100
AcDbBlockTableRecord
  2
SSL4_Begin_0-NNL4_End_0-0
 70
    0
280
    1
281
    0
  0
BLOCK_RECORD
  5
113
330
1
100
AcDbSymbolTableRecord
100
AcDbBlockTableRecord
  2
SSL4_Begin_1-NNL4_End_1-0
 70
    0
280
    1
281
    0
  0
BLOCK_RECORD
  5
116
330
1
100
AcDbSymbolTableRecord
100
AcDbBlockTableRecord
  2
SSL4_Begin_2-NNL4_End_2-0
 70
    0
280
    1
281
    0
  0
BLOCK_RECORD
  5
119
330
1
100
AcDbSymbolTableRecord
100
AcDbBlockTableRecord
  2
SSL4_Begin_3-NNL4_End_3-0
 70
    0
280
    1
281
    0
  0
BLOCK_RECORD
  5
11C
330
1
100
AcDbSymbolTableRecord
100
AcDbBlockTableRecord
  2
SSL4_Begin_4-NNL4_End_4-0
 70
    0
280
    1
281
    0
  0
BLOCK_RECORD
  5
11F
330
1
100
AcDbSymbolTableRecord
100
AcDbBlockTableRecord
  2
SSL4_Begin_5-NNL4_End_5-0
 70
    0
280
    1
281
    0
  0
BLOCK_RECORD
  5
122
330
1
100
AcDbSymbolTableRecord
100
AcDbBlockTableRecord
  2
SSL6_Begin_0-NNL6_End_0-0
 70
    0
280
    1
281
    0
  0
BLOCK_RECORD
  5
125
330
1
100
AcDbSymbolTableRecord
100
AcDbBlockTableRecord
  2
SSL6_Begin_1-NNL6_End_1-0
 70
    0
280
    1
281
    0
  0
BLOCK_RECORD
  5
128
330
1
100
AcDbSymbolTableRecord
100
AcDbBlockTableRecord
  2
SSL6_Begin_2-NNL6_End_2-0
 70
    0
280
    1
281
    0
  0
BLOCK_RECORD
  5
12B
330
1
100
AcDbSymbolTableRecord
100
AcDbBlockTableRecord
  2
SSL6_Begin_3-NNL6_End_3-0
 70
    0
280
    1
281
    0
  0
BLOCK_RECORD
  5
12E
330
1
100
AcDbSymbolTableRecord
100
AcDbBlockTableRecord
  2
SSL6_Begin_4-NNL6_End_4-0
 70
    0
280
    1
281
    0
  0
BLOCK_RECORD
  5
131
330
1
100
AcDbSymbolTableRecord
100
AcDbBlockTableRecord
  2
SSL6_Begin_5-NNL6_End_5-0
 70
    0
280
    1
281
    0
  0
BLOCK_RECORD
  5
134
330
1
100
AcDbSymbolTableRecord
100
AcDbBlockTableRecord
  2
SSL6_Begin_6-NNL6_End_6-0
 70
    0
280
    1
281
    0
  0
BLOCK_RECORD
  5
137
330
1
100
AcDbSymbolTableRecord
100
AcDbBlockTableRecord
  2
SSL6_Begin_7-NNL6_End_7-0
 70
    0
280
    1
281
    0
  0
BLOCK_RECORD
  5
13A
330
1
100
AcDbSymbolTableRecord
100
AcDbBlockTableRecord
  2
SSL14_Begin_0-NNL14_End_0-0
 70
    0
280
    1
281
    0
  0
BLOCK_RECORD
  5
13D
330
1
100
AcDbSymbolTableRecord
100
AcDbBlockTableRecord
  2
SSL14_Begin_1-NNL14_End_1-0
 70
    0
280
    1
281
    0
  0
BLOCK_RECORD
  5
140
330
1
100
AcDbSymbolTableRecord
100
AcDbBlockTableRecord
  2
SSL14_Begin_2-NNL14_End_2-0
 70
    0
280
    1
281
    0
  0
BLOCK_RECORD
  5
143
330
1
100
AcDbSymbolTableRecord
100
AcDbBlockTableRecord
  2
SSL14_Begin_3-NNL14_End_3-0
 70
    0
280
    1
281
    0
  0
BLOCK_RECORD
  5
146
330
1
100
AcDbSymbolTableRecord
100
AcDbBlockTableRecord
  2
NNL2_Begin_1-SSL2_End_1-0
 70
    0
280
    1
281
    0
  0
ENDTAB
  0
ENDSEC
  0
SECTION
  2
BLOCKS
  0
BLOCK
  5
20
330
1F
100
AcDbEntity
  8
0
100
AcDbBlockBegin
  2
*Model_Space
 70
    0
 10
0
 20
0
 30
0
  3
*Model_Space
  1

  0
ENDBLK
  5
21
330
1F
100
AcDbEntity
  8
0
100
AcDbBlockEnd
  0
BLOCK
  5
1C
330
1B
100
AcDbEntity
  8
0
100
AcDbBlockBegin
  2
*Paper_Space
 70
    0
 10
0
 20
0
 30
0
  3
*Paper_Space
  1

  0
ENDBLK
  5
1D
330
1F
100
AcDbEntity
  8
0
100
AcDbBlockEnd
  0
BLOCK
  5
4E
330
4D
100
AcDbEntity
  8
0
100
AcDbBlockBegin
  2
NNL1_Begin_0-SSL1_End_0-0
 70
    0
 10
0
 20
0
  3
NNL1_Begin_0-SSL1_End_0-0
  1

  0
LWPOLYLINE
  5
149
100
AcDbEntity
  8
0
  6
ByLayer
 62
  256
370
   -1
100
AcDbPolyline
 90
    6
 70
    0
 43
0
 10
0
 20
0
 10
-100
 20
0
 10
-100
 20
486
 10
2100
 20
486
 10
2100
 20
-32
 10
2000
 20
-32
  0
ENDBLK
  5
4F
330
4D
100
AcDbEntity
  8
0
100
AcDbBlockEnd
  0
BLOCK
  5
51
330
50
100
AcDbEntity
  8
0
100
AcDbBlockBegin
  2
NNL1_Begin_1-SSL1_End_1-0
 70
    0
 10
0
 20
0
  3
NNL1_Begin_1-SSL1_End_1-0
  1

  0
LWPOLYLINE
  5
14A
100
AcDbEntity
  8
0
  6
ByLayer
 62
  256
370
   -1
100
AcDbPolyline
 90
    6
 70
    0
 43
0
 10
0
 20
0
 10
-101
 20
0
 10
-101
 20
491
 10
2101
 20
491
 10
2101
 20
-32
 10
2000
 20
-32
  0
ENDBLK
  5
52
330
50
100
AcDbEntity
  8
0
100
AcDbBlockEnd
  0
BLOCK
  5
54
330
53
100
AcDbEntity
  8
0
100
AcDbBlockBegin
  2
NNL1_Begin_2-SSL1_End_2-0
 70
    0
 10
0
 20
0
  3
NNL1_Begin_2-SSL1_End_2-0
  1

  0
LWPOLYLINE
  5
14B
100
AcDbEntity
  8
0
  6
ByLayer
 62
  256
370
   -1
100
AcDbPolyline
 90
    6
 70
    0
 43
0
 10
0
 20
0
 10
-102
 20
0
 10
-102
 20
496
 10
2102
 20
496
 10
2102
 20
-32
 10
2000
 20
-32
  0
ENDBLK
  5
55
330
53
100
AcDbEntity
  8
0
100
AcDbBlockEnd
  0
BLOCK
  5
57
330
56
100
AcDbEntity
  8
0
100
AcDbBlockBegin
  2
NNL1_Begin_3-SSL1_End_3-0
 70
    0
 10
0
 20
0
  3
NNL1_Begin_3-SSL1_End_3-0
  1

  0
LWPOLYLINE
  5
14C
100
AcDbEntity
  8
0
  6
ByLayer
 62
  256
370
   -1
100
AcDbPolyline
 90
    6
 70
    0
 43
0
 10
0
 20
0
 10
-103
 20
0
 10
-103
 20
501
 10
2103
 20
501
 10
2103
 20
-32
 10
2000
 20
-32
  0
ENDBLK
  5
58
330
56
100
AcDbEntity
  8
0
100
AcDbBlockEnd
  0
BLOCK
  5
5A
330
59
100
AcDbEntity
  8
0
100
AcDbBlockBegin
  2
NNL1_Begin_4-SSL1_End_4-0
 70
    0
 10
0
 20
0
  3
NNL1_Begin_4-SSL1_End_4-0
  1

  0
LWPOLYLINE
  5
14D
100
AcDbEntity
  8
0
  6
ByLayer
 62
  256
370
   -1
100
AcDbPolyline
 90
    6
 70
    0
 43
0
 10
0
 20
0
 10
-104
 20
0
 10
-104
 20
506
 10
2104
 20
506
 10
2104
 20
-32
 10
2000
 20
-32
  0
ENDBLK
  5
5B
330
59
100
AcDbEntity
  8
0
100
AcDbBlockEnd
  0
BLOCK
  5
5D
330
5C
100
AcDbEntity
  8
0
100
AcDbBlockBegin
  2
NNL1_Begin_5-SSL1_End_5-0
 70
    0
 10
0
 20
0
  3
NNL1_Begin_5-SSL1_End_5-0
  1

  0
LWPOLYLINE
  5
14E
100
AcDbEntity
  8
0
  6
ByLayer
 62
  256
370
   -1
100
AcDbPolyline
 90
    6
 70
    0
 43
0
 10
0
 20
0
 10
-105
 20
0
 10
-105
 20
511
 10
2105
 20
511
 10
2105
 20
-32
 10
2000
 20
-32
  0
ENDBLK
  5
5E
330
5C
100
AcDbEntity
  8
0
100
AcDbBlockEnd
  0
BLOCK
  5
60
330
5F
100
AcDbEntity
  8
0
100
AcDbBlockBegin
  2
NNL1_Begin_6-SSL1_End_6-0
 70
    0
 10
0
 20
0
  3
NNL1_Begin_6-SSL1_End_6-0
  1

  0
LWPOLYLINE
  5
14F
100
AcDbEntity
  8
0
  6
ByLayer
 62
  256
370
   -1
100
AcDbPolyline
 90
    6
 70
    0
 43
0
 10
0
 20
0
 10
-106
 20
0
 10
-106
 20
516
 10
2106
 20
516
 10
2106
 20
-32
 10
2000
 20
-32
  0
ENDBLK
  5
61
330
5F
100
AcDbEntity
  8
0
100
AcDbBlockEnd
  0
BLOCK
  5
63
330
62
100
AcDbEntity
  8
0
100
AcDbBlockBegin
  2
NNL1_Begin_7-SSL1_End_7-0
 70
    0
 10
0
 20
0
  3
NNL1_Begin_7-SSL1_End_7-0
  1

  0
LWPOLYLINE
  5
150
100
AcDbEntity
  8
0
  6
ByLayer
 62
  256
370
   -1
100
AcDbPolyline
 90
    6
 70
    0
 43
0
 10
0
 20
0
 10
-107
 20
0
 10
-107
 20
521
 10
2107
 20
521
 10
2107
 20
-32
 10
2000
 20
-32
  0
ENDBLK
  5
64
330
62
100
AcDbEntity
  8
0
100
AcDbBlockEnd
  0
BLOCK
  5
66
330
65
100
AcDbEntity
  8
0
100
AcDbBlockBegin
  2
NNL2_Begin_0-SSL2_End_0-0
 70
    0
 10
0
 20
0
  3
NNL2_Begin_0-SSL2_End_0-0
  1

  0
LWPOLYLINE
  5
151
100
AcDbEntity
  8
0
  6
ByLayer
 62
  256
370
   -1
100
AcDbPolyline
 90
    8
 70
    0
 43
0
 10
0
 20
0
 10
-108
 20
0
 10
-108
 20
462
 10
2108
 20
462
 10
2108
 20
-846
 10
2116
 20
-846
 10
2116
 20
-3016
 10
2000
 20
-3016
  0
ENDBLK
  5
67
330
65
100
AcDbEntity
  8
0
100
AcDbBlockEnd
  0
BLOCK
  5
69
330
68
100
AcDbEntity
  8
0
100
AcDbBlockBegin
  2
NNL2_Begin_2-SSL2_End_2-0
 70
    0
 10
0
 20
0
  3
NNL2_Begin_2-SSL2_End_2-0
  1

  0
LWPOLYLINE
  5
152
100
AcDbEntity
  8
0
  6
ByLayer
 62
  256
370
   -1
100
AcDbPolyline
 90
    8
 70
    0
 43
0
 10
0
 20
0
 10
-110
 20
0
 10
-110
 20
472
 10
2110
 20
472
 10
2110
 20
-830
 10
2118
 20
-830
 10
2118
 20
-3016
 10
2000
 20
-3016
  0
ENDBLK
  5
6A
330
68
100
AcDbEntity
  8
0
100
AcDbBlockEnd
  0
BLOCK
  5
6C
330
6B
100
AcDbEntity
  8
0
100
AcDbBlockBegin
  2
NNL2_Begin_3-SSL2_End_3-0
 70
    0
 10
0
 20
0
  3
NNL2_Begin_3-SSL2_End_3-0
  1

  0
LWPOLYLINE
  5
153
100
AcDbEntity
  8
0
  6
ByLayer
 62
  256
370
   -1
100
AcDbPolyline
 90
    8
 70
    0
 43
0
 10
0
 20
0
 10
-111
 20
0
 10
-111
 20
477
 10
2111
 20
477
 10
2111
 20
-822
 10
2119
 20
-822
 10
2119
 20
-3016
 10
2000
 20
-3016
  0
ENDBLK
  5
6D
330
6B
100
AcDbEntity
  8
0
100
AcDbBlockEnd
  0
BLOCK
  5
6F
330
6E
100
AcDbEntity
  8
0
100
AcDbBlockBegin
  2
NNL2_Begin_4-SSL2_End_4-0
 70
    0
 10
0
 20
0
  3
NNL2_Begin_4-SSL2_End_4-0
  1

  0
LWPOLYLINE
  5
154
100
AcDbEntity
  8
0
  6
ByLayer
 62
  256
370
   -1
100
AcDbPolyline
 90
    8
 70
    0
 43
0
 10
0
 20
0
 10
-112
 20
0
 10
-112
 20
482
 10
2112
 20
482
 10
2112
 20
-814
 10
2120
 20
-814
 10
2120
 20
-3016
 10
2000
 20
-3016
  0
ENDBLK
  5
70
330
6E
100
AcDbEntity
  8
0
100
AcDbBlockEnd
  0
BLOCK
  5
72
330
71
100
AcDbEntity
  8
0
100
AcDbBlockBegin
  2
NNL2_Begin_5-SSL2_End_5-0
 70
    0
 10
0
 20
0
  3
NNL2_Begin_5-SSL2_End_5-0
  1

  0
LWPOLYLINE
  5
155
100
AcDbEntity
  8
0
  6
ByLayer
 62
  256
370
   -1
100
AcDbPolyline
 90
    8
 70
    0
 43
0
 10
0
 20
0
 10
-113
 20
0
 10
-113
 20
487
 10
2113
 20
487
 10
2113
 20
-806
 10
2121
 20
-806
 10
2121
 20
-3016
 10
2000
 20
-3016
  0
ENDBLK
  5
73
330
71
100
AcDbEntity
  8
0
100
AcDbBlockEnd
  0
BLOCK
  5
75
330
74
100
AcDbEntity
  8
0
100
AcDbBlockBegin
  2
NNL2_Begin_6-SSL2_End_6-0
 70
    0
 10
0
 20
0
  3
NNL2_Begin_6-SSL2_End_6-0
  1

  0
LWPOLYLINE
  5
156
100
AcDbEntity
  8
0
  6
ByLayer
 62
  256
370
   -1
100
AcDbPolyline
 90
    8
 70
    0
 43
0
 10
0
 20
0
 10
-114
 20
0
 10
-114
 20
492
 10
2114
 20
492
 10
2114
 20
-798
 10
2122
 20
-798
 10
2122
 20
-3016
 10
2000
 20
-3016
  0
ENDBLK
  5
76
330
74
100
AcDbEntity
  8
0
100
AcDbBlockEnd
  0
BLOCK
  5
78
330
77
100
AcDbEntity
  8
0
100
AcDbBlockBegin
  2
NNL2_Begin_7-SSL2_End_7-0
 70
    0
 10
0
 20
0
  3
NNL2_Begin_7-SSL2_End_7-0
  1

  0
LWPOLYLINE
  5
157
100
AcDbEntity
  8
0
  6
ByLayer
 62
  256
370
   -1
100
AcDbPolyline
 90
    8
 70
    0
 43
0
 10
0
 20
0
 10
-115
 20
0
 10
-115
 20
497
 10
2115
 20
497
 10
2115
 20
-790
 10
2123
 20
-790
 10
2123
 20
-3016
 10
2000
 20
-3016
  0
ENDBLK
  5
79
330
77
100
AcDbEntity
  8
0
100
AcDbBlockEnd
  0
BLOCK
  5
7B
330
7A
100
AcDbEntity
  8
0
100
AcDbBlockBegin
  2
NNL3_Begin_0-SSL3_End_0-0
 70
    0
 10
0
 20
0
  3
NNL3_Begin_0-SSL3_End_0-0
  1

  0
LWPOLYLINE
  5
158
100
AcDbEntity
  8
0
  6
ByLayer
 62
  256
370
   -1
100
AcDbPolyline
 90
   10
 70
    0
 43
0
 10
0
 20
0
 10
-124
 20
0
 10
-124
 20
446
 10
2124
 20
446
 10
2124
 20
-878
 10
2132
 20
-878
 10
2132
 20
-3846
 10
2140
 20
-3846
 10
2140
 20
-6016
 10
2000
 20
-6016
  0
ENDBLK
  5
7C
330
7A
100
AcDbEntity
  8
0
100
AcDbBlockEnd
  0
BLOCK
  5
7E
330
7D
100
AcDbEntity
  8
0
100
AcDbBlockBegin
  2
NNL3_Begin_1-SSL3_End_1-0
 70
    0
 10
0
 20
0
  3
NNL3_Begin_1-SSL3_End_1-0
  1

  0
LWPOLYLINE
  5
159
100
AcDbEntity
  8
0
  6
ByLayer
 62
  256
370
   -1
100
AcDbPolyline
 90
   10
 70
    0
 43
0
 10
0
 20
0
 10
-125
 20
0
 10
-125
 20
451
 10
2125
 20
451
 10
2125
 20
-870
 10
2133
 20
-870
 10
2133
 20
-3838
 10
2141
 20
-3838
 10
2141
 20
-6016
 10
2000
 20
-6016
  0
ENDBLK
  5
7F
330
7D
100
AcDbEntity
  8
0
100
AcDbBlockEnd
  0
BLOCK
  5
81
330
80
100
AcDbEntity
  8
0
100
AcDbBlockBegin
  2
NNL3_Begin_2-SSL3_End_2-0
 70
    0
 10
0
 20
0
  3
NNL3_Begin_2-SSL3_End_2-0
  1

  0
LWPOLYLINE
  5
15A
100
AcDbEntity
  8
0
  6
ByLayer
 62
  256
370
   -1
100
AcDbPolyline
 90
   10
 70
    0
 43
0
 10
0
 20
0
 10
-126
 20
0
 10
-126
 20
456
 10
2126
 20
456
 10
2126
 20
-862
 10
2134
 20
-862
 10
2134
 20
-3830
 10
2142
 20
-3830
 10
2142
 20
-6016
 10
2000
 20
-6016
  0
ENDBLK
  5
82
330
80
100
AcDbEntity
  8
0
100
AcDbBlockEnd
  0
BLOCK
  5
84
330
83
100
AcDbEntity
  8
0
100
AcDbBlockBegin
  2
NNL3_Begin_3-SSL3_End_3-0
 70
    0
 10
0
 20
0
  3
NNL3_Begin_3-SSL3_End_3-0
  1

  0
LWPOLYLINE
  5
15B
100
AcDbEntity
  8
0
  6
ByLayer
 62
  256
370
   -1
100
AcDbPolyline
 90
   10
 70
    0
 43
0
 10
0
 20
0
 10
-127
 20
0
 10
-127
 20
461
 10
2127
 20
461
 10
2127
 20
-854
 10
2135
 20
-854
 10
2135
 20
-3822
 10
2143
 20
-3822
 10
2143
 20
-6016
 10
2000
 20
-6016
  0
ENDBLK
  5
85
330
83
100
AcDbEntity
  8
0
100
AcDbBlockEnd
  0
BLOCK
  5
87
330
86
100
AcDbEntity
  8
0
100
AcDbBlockBegin
  2
NNL3_Begin_4-SSL3_End_4-0
 70
    0
 10
0
 20
0
  3
NNL3_Begin_4-SSL3_End_4-0
  1

  0
LWPOLYLINE
  5
15C
100
AcDbEntity
  8
0
  6
ByLayer
 62
  256
370
   -1
100
AcDbPolyline
 90
   10
 70
    0
 43
0
 10
0
 20
0
 10
-128
 20
0
 10
-128
 20
466
 10
2128
 20
466
 10
2128
 20
-846
 10
2136
 20
-846
 10
2136
 20
-3814
 10
2144
 20
-3814
 10
2144
 20
-6016
 10
2000
 20
-6016
  0
ENDBLK
  5
88
330
86
100
AcDbEntity
  8
0
100
AcDbBlockEnd
  0
BLOCK
  5
8A
330
89
100
AcDbEntity
  8
0
100
AcDbBlockBegin
  2
NNL3_Begin_5-SSL3_End_5-0
 70
    0
 10
0
 20
0
  3
NNL3_Begin_5-SSL3_End_5-0
  1

  0
LWPOLYLINE
  5
15D
100
AcDbEntity
  8
0
  6
ByLayer
 62
  256
370
   -1
100
AcDbPolyline
 90
   10
 70
    0
 43
0
 10
0
 20
0
 10
-129
 20
0
 10
-129
 20
471
 10
2129
 20
471
 10
2129
 20
-838
 10
2137
 20
-838
 10
2137
 20
-3806
 10
2145
 20
-3806
 10
2145
 20
-6016
 10
2000
 20
-6016
  0
ENDBLK
  5
8B
330
89
100
AcDbEntity
  8
0
100
AcDbBlockEnd
  0
BLOCK
  5
8D
330
8C
100
AcDbEntity
  8
0
100
AcDbBlockBegin
  2
NNL3_Begin_6-SSL3_End_6-0
 70
    0
 10
0
 20
0
  3
NNL3_Begin_6-SSL3_End_6-0
  1

  0
LWPOLYLINE
  5
15E
100
AcDbEntity
  8
0
  6
ByLayer
 62
  256
370
   -1
100
AcDbPolyline
 90
   10
 70
    0
 43
0
 10
0
 20
0
 10
-130
 20
0
 10
-130
 20
476
 10
2130
 20
476
 10
2130
 20
-830
 10
2138
 20
-830
 10
2138
 20
-3798
 10
2146
 20
-3798
 10
2146
 20
-6016
 10
2000
 20
-6016
  0
ENDBLK
  5
8E
330
8C
100
AcDbEntity
  8
0
100
AcDbBlockEnd
  0
BLOCK
  5
90
330
8F
100
AcDbEntity
  8
0
100
AcDbBlockBegin
  2
NNL3_Begin_7-SSL3_End_7-0
 70
    0
 10
0
 20
0
  3
NNL3_Begin_7-SSL3_End_7-0
  1

  0
LWPOLYLINE
  5
15F
100
AcDbEntity
  8
0
  6
ByLayer
 62
  256
370
   -1
100
AcDbPolyline
 90
   10
 70
    0
 43
0
 10
0
 20
0
 10
-131
 20
0
 10
-131
 20
481
 10
2131
 20
481
 10
2131
 20
-822
 10
2139
 20
-822
 10
2139
 20
-3790
 10
2147
 20
-3790
 10
2147
 20
-6016
 10
2000
 20
-6016
  0
ENDBLK
  5
91
330
8F
100
AcDbEntity
  8
0
100
AcDbBlockEnd
  0
BLOCK
  5
93
330
92
100
AcDbEntity
  8
0
100
AcDbBlockBegin
  2
NNL4_Begin_0-SSL4_End_0-0
 70
    0
 10
0
 20
0
  3
NNL4_Begin_0-SSL4_End_0-0
  1

  0
LWPOLYLINE
  5
160
100
AcDbEntity
  8
0
  6
ByLayer
 62
  256
370
   -1
100
AcDbPolyline
 90
   12
 70
    0
 43
0
 10
0
 20
0
 10
-148
 20
0
 10
-148
 20
426
 10
2148
 20
426
 10
2148
 20
-922
 10
2154
 20
-922
 10
2154
 20
-3898
 10
2160
 20
-3898
 10
2160
 20
-6874
 10
2166
 20
-6874
 10
2166
 20
-9016
 10
2000
 20
-9016
  0
ENDBLK
  5
94
330
92
100
AcDbEntity
  8
0
100
AcDbBlockEnd
  0
BLOCK
  5
96
330
95
100
AcDbEntity
  8
0
100
AcDbBlockBegin
  2
NNL4_Begin_1-SSL4_End_1-0
 70
    0
 10
0
 20
0
  3
NNL4_Begin_1-SSL4_End_1-0
  1

  0
LWPOLYLINE
  5
161
100
AcDbEntity
  8
0
  6
ByLayer
 62
  256
370
   -1
100
AcDbPolyline
 90
   12
 70
    0
 43
0
 10
0
 20
0
 10
-149
 20
0
 10
-149
 20
431
 10
2149
 20
431
 10
2149
 20
-914
 10
2155
 20
-914
 10
2155
 20
-3890
 10
2161
 20
-3890
 10
2161
 20
-6866
 10
2167
 20
-6866
 10
2167
 20
-9016
 10
2000
 20
-9016
  0
ENDBLK
  5
97
330
95
100
AcDbEntity
  8
0
100
AcDbBlockEnd
  0
BLOCK
  5
99
330
98
100
AcDbEntity
  8
0
100
AcDbBlockBegin
  2
NNL4_Begin_2-SSL4_End_2-0
 70
    0
 10
0
 20
0
  3
NNL4_Begin_2-SSL4_End_2-0
  1

  0
LWPOLYLINE
  5
162
100
AcDbEntity
  8
0
  6
ByLayer
 62
  256
370
   -1
100
AcDbPolyline
 90
   12
 70
    0
 43
0
 10
0
 20
0
 10
-150
 20
0
 10
-150
 20
436
 10
2150
 20
436
 10
2150
 20
-906
 10
2156
 20
-906
 10
2156
 20
-3882
 10
2162
 20
-3882
 10
2162
 20
-6858
 10
2168
 20
-6858
 10
2168
 20
-9016
 10
2000
 20
-9016
  0
ENDBLK
  5
9A
330
98
100
AcDbEntity
  8
0
100
AcDbBlockEnd
  0
BLOCK
  5
9C
330
9B
100
AcDbEntity
  8
0
100
AcDbBlockBegin
  2
NNL4_Begin_3-SSL4_End_3-0
 70
    0
 10
0
 20
0
  3
NNL4_Begin_3-SSL4_End_3-0
  1

  0
LWPOLYLINE
  5
163
100
AcDbEntity
  8
0
  6
ByLayer
 62
  256
370
   -1
100
AcDbPolyline
 90
   12
 70
    0
 43
0
 10
0
 20
0
 10
-151
 20
0
 10
-151
 20
441
 10
2151
 20
441
 10
2151
 20
-898
 10
2157
 20
-898
 10
2157
 20
-3874
 10
2163
 20
-3874
 10
2163
 20
-6850
 10
2169
 20
-6850
 10
2169
 20
-9016
 10
2000
 20
-9016
  0
ENDBLK
  5
9D
330
9B
100
AcDbEntity
  8
0
100
AcDbBlockEnd
  0
BLOCK
  5
9F
330
9E
100
AcDbEntity
  8
0
100
AcDbBlockBegin
  2
NNL4_Begin_4-SSL4_End_4-0
 70
    0
 10
0
 20
0
  3
NNL4_Begin_4-SSL4_End_4-0
  1

  0
LWPOLYLINE
  5
164
100
AcDbEntity
  8
0
  6
ByLayer
 62
  256
370
   -1
100
AcDbPolyline
 90
   12
 70
    0
 43
0
 10
0
 20
0
 10
-152
 20
0
 10
-152
 20
446
 10
2152
 20
446
 10
2152
 20
-890
 10
2158
 20
-890
 10
2158
 20
-3866
 10
2164
 20
-3866
 10
2164
 20
-6842
 10
2170
 20
-6842
 10
2170
 20
-9016
 10
2000
 20
-9016
  0
ENDBLK
  5
A0
330
9E
100
AcDbEntity
  8
0
100
AcDbBlockEnd
  0
BLOCK
  5
A2
330
A1
100
AcDbEntity
  8
0
100
AcDbBlockBegin
  2
NNL4_Begin_5-SSL4_End_5-0
 70
    0
 10
0
 20
0
  3
NNL4_Begin_5-SSL4_End_5-0
  1

  0
LWPOLYLINE
  5
165
100
AcDbEntity
  8
0
  6
ByLayer
 62
  256
370
   -1
100
AcDbPolyline
 90
   12
 70
    0
 43
0
 10
0
 20
0
 10
-153
 20
0
 10
-153
 20
451
 10
2153
 20
451
 10
2153
 20
-882
 10
2159
 20
-882
 10
2159
 20
-3858
 10
2165
 20
-3858
 10
2165
 20
-6834
 10
2171
 20
-6834
 10
2171
 20
-9016
 10
2000
 20
-9016
  0
ENDBLK
  5
A3
330
A1
100
AcDbEntity
  8
0
100
AcDbBlockEnd
  0
BLOCK
  5
A5
330
A4
100
AcDbEntity
  8
0
100
AcDbBlockBegin
  2
NNL6_Begin_0-SSL6_End_0-0
 70
    0
 10
0
 20
0
  3
NNL6_Begin_0-SSL6_End_0-0
  1

  0
LWPOLYLINE
  5
166
100
AcDbEntity
  8
0
  6
ByLayer
 62
  256
370
   -1
100
AcDbPolyline
 90
   16
 70
    0
 43
0
 10
0
 20
0
 10
-172
 20
0
 10
-172
 20
410
 10
2172
 20
410
 10
2172
 20
-962
 10
2180
 20
-962
 10
2180
 20
-3930
 10
2188
 20
-3930
 10
2188
 20
-6898
 10
2196
 20
-6898
 10
2196
 20
-9866
 10
2204
 20
-9866
 10
2204
 20
-12834
 10
2212
 20
-12834
 10
2212
 20
-15016
 10
2000
 20
-15016
  0
ENDBLK
  5
A6
330
A4
100
AcDbEntity
  8
0
100
AcDbBlockEnd
  0
BLOCK
  5
A8
330
A7
100
AcDbEntity
  8
0
100
AcDbBlockBegin
  2
NNL6_Begin_1-SSL6_End_1-0
 70
    0
 10
0
 20
0
  3
NNL6_Begin_1-SSL6_End_1-0
  1

  0
LWPOLYLINE
  5
167
100
AcDbEntity
  8
0
  6
ByLayer
 62
  256
370
   -1
100
AcDbPolyline
 90
   16
 70
    0
 43
0
 10
0
 20
0
 10
-173
 20
0
 10
-173
 20
415
 10
2173
 20
415
 10
2173
 20
-954
 10
2181
 20
-954
 10
2181
 20
-3922
 10
2189
 20
-3922
 10
2189
 20
-6890
 10
2197
 20
-6890
 10
2197
 20
-9858
 10
2205
 20
-9858
 10
2205
 20
-12826
 10
2213
 20
-12826
 10
2213
 20
-15016
 10
2000
 20
-15016
  0
ENDBLK
  5
A9
330
A7
100
AcDbEntity
  8
0
100
AcDbBlockEnd
  0
BLOCK
  5
AB
330
AA
100
AcDbEntity
  8
0
100
AcDbBlockBegin
  2
NNL6_Begin_2-SSL6_End_2-0
 70
    0
 10
0
 20
0
  3
NNL6_Begin_2-SSL6_End_2-0
  1

  0
LWPOLYLINE
  5
168
100
AcDbEntity
  8
0
  6
ByLayer
 62
  256
370
   -1
100
AcDbPolyline
 90
   16
 70
    0
 43
0
 10
0
 20
0
 10
-174
 20
0
 10
-174
 20
420
 10
2174
 20
420
 10
2174
 20
-946
 10
2182
 20
-946
 10
2182
 20
-3914
 10
2190
 20
-3914
 10
2190
 20
-6882
 10
2198
 20
-6882
 10
2198
 20
-9850
 10
2206
 20
-9850
 10
2206
 20
-12818
 10
2214
 20
-12818
 10
2214
 20
-15016
 10
2000
 20
-15016
  0
ENDBLK
  5
AC
330
AA
100
AcDbEntity
  8
0
100
AcDbBlockEnd
  0
BLOCK
  5
AE
330
AD
100
AcDbEntity
  8
0
100
AcDbBlockBegin
  2
NNL6_Begin_3-SSL6_End_3-0
 70
    0
 10
0
 20
0
  3
NNL6_Begin_3-SSL6_End_3-0
  1

  0
LWPOLYLINE
  5
169
100
AcDbEntity
  8
0
  6
ByLayer
 62
  256
370
   -1
100
AcDbPolyline
 90
   16
 70
    0
 43
0
 10
0
 20
0
 10
-175
 20
0
 10
-175
 20
425
 10
2175
 20
425
 10
2175
 20
-938
 10
2183
 20
-938
 10
2183
 20
-3906
 10
2191
 20
-3906
 10
2191
 20
-6874
 10
2199
 20
-6874
 10
2199
 20
-9842
 10
2207
 20
-9842
 10
2207
 20
-12810
 10
2215
 20
-12810
 10
2215
 20
-15016
 10
2000
 20
-15016
  0
ENDBLK
  5
AF
330
AD
100
AcDbEntity
  8
0
100
AcDbBlockEnd
  0
BLOCK
  5
B1
330
B0
100
AcDbEntity
  8
0
100
AcDbBlockBegin
  2
NNL6_Begin_4-SSL6_End_4-0
 70
    0
 10
0
 20
0
  3
NNL6_Begin_4-SSL6_End_4-0
  1

  0
LWPOLYLINE
  5
16A
100
AcDbEntity
  8
0
  6
ByLayer
 62
  256
370
   -1
100
AcDbPolyline
 90
   16
 70
    0
 43
0
 10
0
 20
0
 10
-176
 20
0
 10
-176
 20
430
 10
2176
 20
430
 10
2176
 20
-930
 10
2184
 20
-930
 10
2184
 20
-3898
 10
2192
 20
-3898
 10
2192
 20
-6866
 10
2200
 20
-6866
 10
2200
 20
-9834
 10
2208
 20
-9834
 10
2208
 20
-12802
 10
2216
 20
-12802
 10
2216
 20
-15016
 10
2000
 20
-15016
  0
ENDBLK
  5
B2
330
B0
100
AcDbEntity
  8
0
100
AcDbBlockEnd
  0
BLOCK
  5
B4
330
B3
100
AcDbEntity
  8
0
100
AcDbBlockBegin
  2
NNL6_Begin_5-SSL6_End_5-0
 70
    0
 10
0
 20
0
  3
NNL6_Begin_5-SSL6_End_5-0
  1

  0
LWPOLYLINE
  5
16B
100
AcDbEntity
  8
0
  6
ByLayer
 62
  256
370
   -1
100
AcDbPolyline
 90
   16
 70
    0
 43
0
 10
0
 20
0
 10
-177
 20
0
 10
-177
 20
435
 10
2177
 20
435
 10
2177
 20
-922
 10
2185
 20
-922
 10
2185
 20
-3890
 10
2193
 20
-3890
 10
2193
 20
-6858
 10
2201
 20
-6858
 10
2201
 20
-9826
 10
2209
 20
-9826
 10
2209
 20
-12794
 10
2217
 20
-12794
 10
2217
 20
-15016
 10
2000
 20
-15016
  0
ENDBLK
  5
B5
330
B3
100
AcDbEntity
  8
0
100
AcDbBlockEnd
  0
BLOCK
  5
B7
330
B6
100
AcDbEntity
  8
0
100
AcDbBlockBegin
  2
NNL6_Begin_6-SSL6_End_6-0
 70
    0
 10
0
 20
0
  3
NNL6_Begin_6-SSL6_End_6-0
  1

  0
LWPOLYLINE
  5
16C
100
AcDbEntity
  8
0
  6
ByLayer
 62
  256
370
   -1
100
AcDbPolyline
 90
   16
 70
    0
 43
0
 10
0
 20
0
 10
-178
 20
0
 10
-178
 20
440
 10
2178
 20
440
 10
2178
 20
-914
 10
2186
 20
-914
 10
2186
 20
-3882
 10
2194
 20
-3882
 10
2194
 20
-6850
 10
2202
 20
-6850
 10
2202
 20
-9818
 10
2210
 20
-9818
 10
2210
 20
-12786
 10
2218
 20
-12786
 10
2218
 20
-15016
 10
2000
 20
-15016
  0
ENDBLK
  5
B8
330
B6
100
AcDbEntity
  8
0
100
AcDbBlockEnd
  0
BLOCK
  5
BA
330
B9
100
AcDbEntity
  8
0
100
AcDbBlockBegin
  2
NNL6_Begin_7-SSL6_End_7-0
 70
    0
 10
0
 20
0
  3
NNL6_Begin_7-SSL6_End_7-0
  1

  0
LWPOLYLINE
  5
16D
100
AcDbEntity
  8
0
  6
ByLayer
 62
  256
370
   -1
100
AcDbPolyline
 90
   16
 70
    0
 43
0
 10
0
 20
0
 10
-179
 20
0
 10
-179
 20
445
 10
2179
 20
445
 10
2179
 20
-906
 10
2187
 20
-906
 10
2187
 20
-3874
 10
2195
 20
-3874
 10
2195
 20
-6842
 10
2203
 20
-6842
 10
2203
 20
-9810
 10
2211
 20
-9810
 10
2211
 20
-12778
 10
2219
 20
-12778
 10
2219
 20
-15016
 10
2000
 20
-15016
  0
ENDBLK
  5
BB
330
B9
100
AcDbEntity
  8
0
100
AcDbBlockEnd
  0
BLOCK
  5
BD
330
BC
100
AcDbEntity
  8
0
100
AcDbBlockBegin
  2
NNL14_Begin_0-SSL14_End_0-0
 70
    0
 10
0
 20
0
  3
NNL14_Begin_0-SSL14_End_0-0
  1

  0
LWPOLYLINE
  5
16E
100
AcDbEntity
  8
0
  6
ByLayer
 62
  256
370
   -1
100
AcDbPolyline
 90
   32
 70
    0
 43
0
 10
0
 20
0
 10
-220
 20
0
 10
-220
 20
442
 10
2220
 20
442
 10
2220
 20
-978
 10
2224
 20
-978
 10
2224
 20
-3962
 10
2228
 20
-3962
 10
2228
 20
-6946
 10
2232
 20
-6946
 10
2232
 20
-9930
 10
2236
 20
-9930
 10
2236
 20
-12914
 10
2240
 20
-12914
 10
2240
 20
-15898
 10
2244
 20
-15898
 10
2244
 20
-18882
 10
2248
 20
-18882
 10
2248
 20
-21866
 10
2252
 20
-21866
 10
2252
 20
-24850
 10
2256
 20
-24850
 10
2256
 20
-27834
 10
2260
 20
-27834
 10
2260
 20
-30818
 10
2264
 20
-30818
 10
2264
 20
-33802
 10
2268
 20
-33802
 10
2268
 20
-36786
 10
2272
 20
-36786
 10
2272
 20
-39000
 10
2000
 20
-39000
  0
ENDBLK
  5
BE
330
BC
100
AcDbEntity
  8
0
100
AcDbBlockEnd
  0
BLOCK
  5
C0
330
BF
100
AcDbEntity
  8
0
100
AcDbBlockBegin
  2
NNL14_Begin_1-SSL14_End_1-0
 70
    0
 10
0
 20
0
  3
NNL14_Begin_1-SSL14_End_1-0
  1

  0
LWPOLYLINE
  5
16F
100
AcDbEntity
  8
0
  6
ByLayer
 62
  256
370
   -1
100
AcDbPolyline
 90
   32
 70
    0
 43
0
 10
0
 20
0
 10
-221
 20
0
 10
-221
 20
447
 10
2221
 20
447
 10
2221
 20
-970
 10
2225
 20
-970
 10
2225
 20
-3954
 10
2229
 20
-3954
 10
2229
 20
-6938
 10
2233
 20
-6938
 10
2233
 20
-9922
 10
2237
 20
-9922
 10
2237
 20
-12906
 10
2241
 20
-12906
 10
2241
 20
-15890
 10
2245
 20
-15890
 10
2245
 20
-18874
 10
2249
 20
-18874
 10
2249
 20
-21858
 10
2253
 20
-21858
 10
2253
 20
-24842
 10
2257
 20
-24842
 10
2257
 20
-27826
 10
2261
 20
-27826
 10
2261
 20
-30810
 10
2265
 20
-30810
 10
2265
 20
-33794
 10
2269
 20
-33794
 10
2269
 20
-36778
 10
2273
 20
-36778
 10
2273
 20
-39000
 10
2000
 20
-39000
  0
ENDBLK
  5
C1
330
BF
100
AcDbEntity
  8
0
100
AcDbBlockEnd
  0
BLOCK
  5
C3
330
C2
100
AcDbEntity
  8
0
100
AcDbBlockBegin
  2
NNL14_Begin_2-SSL14_End_2-0
 70
    0
 10
0
 20
0
  3
NNL14_Begin_2-SSL14_End_2-0
  1

  0
LWPOLYLINE
  5
170
100
AcDbEntity
  8
0
  6
ByLayer
 62
  256
370
   -1
100
AcDbPolyline
 90
   32
 70
    0
 43
0
 10
0
 20
0
 10
-222
 20
0
 10
-222
 20
452
 10
2222
 20
452
 10
2222
 20
-962
 10
2226
 20
-962
 10
2226
 20
-3946
 10
2230
 20
-3946
 10
2230
 20
-6930
 10
2234
 20
-6930
 10
2234
 20
-9914
 10
2238
 20
-9914
 10
2238
 20
-12898
 10
2242
 20
-12898
 10
2242
 20
-15882
 10
2246
 20
-15882
 10
2246
 20
-18866
 10
2250
 20
-18866
 10
2250
 20
-21850
 10
2254
 20
-21850
 10
2254
 20
-24834
 10
2258
 20
-24834
 10
2258
 20
-27818
 10
2262
 20
-27818
 10
2262
 20
-30802
 10
2266
 20
-30802
 10
2266
 20
-33786
 10
2270
 20
-33786
 10
2270
 20
-36770
 10
2274
 20
-36770
 10
2274
 20
-39000
 10
2000
 20
-39000
  0
ENDBLK
  5
C4
330
C2
100
AcDbEntity
  8
0
100
AcDbBlockEnd
  0
BLOCK
  5
C6
330
C5
100
AcDbEntity
  8
0
100
AcDbBlockBegin
  2
NNL14_Begin_3-SSL14_End_3-0
 70
    0
 10
0
 20
0
  3
NNL14_Begin_3-SSL14_End_3-0
  1

  0
LWPOLYLINE
  5
171
100
AcDbEntity
  8
0
  6
ByLayer
 62
  256
370
   -1
100
AcDbPolyline
 90
   32
 70
    0
 43
0
 10
0
 20
0
 10
-223
 20
0
 10
-223
 20
457
 10
2223
 20
457
 10
2223
 20
-954
 10
2227
 20
-954
 10
2227
 20
-3938
 10
2231
 20
-3938
 10
2231
 20
-6922
 10
2235
 20
-6922
 10
2235
 20
-9906
 10
2239
 20
-9906
 10
2239
 20
-12890
 10
2243
 20
-12890
 10
2243
 20
-15874
 10
2247
 20
-15874
 10
2247
 20
-18858
 10
2251
 20
-18858
 10
2251
 20
-21842
 10
2255
 20
-21842
 10
2255
 20
-24826
 10
2259
 20
-24826
 10
2259
 20
-27810
 10
2263
 20
-27810
 10
2263
 20
-30794
 10
2267
 20
-30794
 10
2267
 20
-33778
 10
2271
 20
-33778
 10
2271
 20
-36762
 10
2275
 20
-36762
 10
2275
 20
-39000
 10
2000
 20
-39000
  0
ENDBLK
  5
C7
330
C5
100
AcDbEntity
  8
0
100
AcDbBlockEnd
  0
BLOCK
  5
C9
330
C8
100
AcDbEntity
  8
0
100
AcDbBlockBegin
  2
SSL1_Begin_0-NNL1_End_0-0
 70
    0
 10
0
 20
0
  3
SSL1_Begin_0-NNL1_End_0-0
  1

  0
LWPOLYLINE
  5
172
100
AcDbEntity
  8
0
  6
ByLayer
 62
  256
370
   -1
100
AcDbPolyline
 90
    6
 70
    0
 43
0
 10
0
 20
0
 10
100
 20
0
 10
100
 20
-486
 10
-2100
 20
-486
 10
-2100
 20
32
 10
-2000
 20
32
  0
ENDBLK
  5
CA
330
C8
100
AcDbEntity
  8
0
100
AcDbBlockEnd
  0
BLOCK
  5
CC
330
CB
100
AcDbEntity
  8
0
100
AcDbBlockBegin
  2
SSL1_Begin_1-NNL1_End_1-0
 70
    0
 10
0
 20
0
  3
SSL1_Begin_1-NNL1_End_1-0
  1

  0
LWPOLYLINE
  5
173
100
AcDbEntity
  8
0
  6
ByLayer
 62
  256
370
   -1
100
AcDbPolyline
 90
    6
 70
    0
 43
0
 10
0
 20
0
 10
101
 20
0
 10
101
 20
-491
 10
-2101
 20
-491
 10
-2101
 20
32
 10
-2000
 20
32
  0
ENDBLK
  5
CD
330
CB
100
AcDbEntity
  8
0
100
AcDbBlockEnd
  0
BLOCK
  5
CF
330
CE
100
AcDbEntity
  8
0
100
AcDbBlockBegin
  2
SSL1_Begin_2-NNL1_End_2-0
 70
    0
 10
0
 20
0
  3
SSL1_Begin_2-NNL1_End_2-0
  1

  0
LWPOLYLINE
  5
174
100
AcDbEntity
  8
0
  6
ByLayer
 62
  256
370
   -1
100
AcDbPolyline
 90
    6
 70
    0
 43
0
 10
0
 20
0
 10
102
 20
0
 10
102
 20
-496
 10
-2102
 20
-496
 10
-2102
 20
32
 10
-2000
 20
32
  0
ENDBLK
  5
D0
330
CE
100
AcDbEntity
  8
0
100
AcDbBlockEnd
  0
BLOCK
  5
D2
330
D1
100
AcDbEntity
  8
0
100
AcDbBlockBegin
  2
SSL1_Begin_3-NNL1_End_3-0
 70
    0
 10
0
 20
0
  3
SSL1_Begin_3-NNL1_End_3-0
  1

  0
LWPOLYLINE
  5
175
100
AcDbEntity
  8
0
  6
ByLayer
 62
  256
370
   -1
100
AcDbPolyline
 90
    6
 70
    0
 43
0
 10
0
 20
0
 10
103
 20
0
 10
103
 20
-501
 10
-2103
 20
-501
 10
-2103
 20
32
 10
-2000
 20
32
  0
ENDBLK
  5
D3
330
D1
100
AcDbEntity
  8
0
100
AcDbBlockEnd
  0
BLOCK
  5
D5
330
D4
100
AcDbEntity
  8
0
100
AcDbBlockBegin
  2
SSL1_Begin_4-NNL1_End_4-0
 70
    0
 10
0
 20
0
  3
SSL1_Begin_4-NNL1_End_4-0
  1

  0
LWPOLYLINE
  5
176
100
AcDbEntity
  8
0
  6
ByLayer
 62
  256
370
   -1
100
AcDbPolyline
 90
    6
 70
    0
 43
0
 10
0
 20
0
 10
104
 20
0
 10
104
 20
-506
 10
-2104
 20
-506
 10
-2104
 20
32
 10
-2000
 20
32
  0
ENDBLK
  5
D6
330
D4
100
AcDbEntity
  8
0
100
AcDbBlockEnd
  0
BLOCK
  5
D8
330
D7
100
AcDbEntity
  8
0
100
AcDbBlockBegin
  2
SSL1_Begin_5-NNL1_End_5-0
 70
    0
 10
0
 20
0
  3
SSL1_Begin_5-NNL1_End_5-0
  1

  0
LWPOLYLINE
  5
177
100
AcDbEntity
  8
0
  6
ByLayer
 62
  256
370
   -1
100
AcDbPolyline
 90
    6
 70
    0
 43
0
 10
0
 20
0
 10
105
 20
0
 10
105
 20
-511
 10
-2105
 20
-511
 10
-2105
 20
32
 10
-2000
 20
32
  0
ENDBLK
  5
D9
330
D7
100
AcDbEntity
  8
0
100
AcDbBlockEnd
  0
BLOCK
  5
DB
330
DA
100
AcDbEntity
  8
0
100
AcDbBlockBegin
  2
SSL1_Begin_6-NNL1_End_6-0
 70
    0
 10
0
 20
0
  3
SSL1_Begin_6-NNL1_End_6-0
  1

  0
LWPOLYLINE
  5
178
100
AcDbEntity
  8
0
  6
ByLayer
 62
  256
370
   -1
100
AcDbPolyline
 90
    6
 70
    0
 43
0
 10
0
 20
0
 10
106
 20
0
 10
106
 20
-516
 10
-2106
 20
-516
 10
-2106
 20
32
 10
-2000
 20
32
  0
ENDBLK
  5
DC
330
DA
100
AcDbEntity
  8
0
100
AcDbBlockEnd
  0
BLOCK
  5
DE
330
DD
100
AcDbEntity
  8
0
100
AcDbBlockBegin
  2
SSL1_Begin_7-NNL1_End_7-0
 70
    0
 10
0
 20
0
  3
SSL1_Begin_7-NNL1_End_7-0
  1

  0
LWPOLYLINE
  5
179
100
AcDbEntity
  8
0
  6
ByLayer
 62
  256
370
   -1
100
AcDbPolyline
 90
    6
 70
    0
 43
0
 10
0
 20
0
 10
107
 20
0
 10
107
 20
-521
 10
-2107
 20
-521
 10
-2107
 20
32
 10
-2000
 20
32
  0
ENDBLK
  5
DF
330
DD
100
AcDbEntity
  8
0
100
AcDbBlockEnd
  0
BLOCK
  5
E1
330
E0
100
AcDbEntity
  8
0
100
AcDbBlockBegin
  2
SSL2_Begin_0-NNL2_End_0-0
 70
    0
 10
0
 20
0
  3
SSL2_Begin_0-NNL2_End_0-0
  1

  0
LWPOLYLINE
  5
17A
100
AcDbEntity
  8
0
  6
ByLayer
 62
  256
370
   -1
100
AcDbPolyline
 90
    8
 70
    0
 43
0
 10
0
 20
0
 10
108
 20
0
 10
108
 20
-462
 10
-2108
 20
-462
 10
-2108
 20
846
 10
-2116
 20
846
 10
-2116
 20
3016
 10
-2000
 20
3016
  0
ENDBLK
  5
E2
330
E0
100
AcDbEntity
  8
0
100
AcDbBlockEnd
  0
BLOCK
  5
E4
330
E3
100
AcDbEntity
  8
0
100
AcDbBlockBegin
  2
SSL2_Begin_1-NNL2_End_1-0
 70
    0
 10
0
 20
0
  3
SSL2_Begin_1-NNL2_End_1-0
  1

  0
LWPOLYLINE
  5
17B
100
AcDbEntity
  8
0
  6
ByLayer
 62
  256
370
   -1
100
AcDbPolyline
 90
    8
 70
    0
 43
0
 10
0
 20
0
 10
109
 20
0
 10
109
 20
-467
 10
-2109
 20
-467
 10
-2109
 20
838
 10
-2117
 20
838
 10
-2117
 20
3016
 10
-2000
 20
3016
  0
ENDBLK
  5
E5
330
E3
100
AcDbEntity
  8
0
100
AcDbBlockEnd
  0
BLOCK
  5
E7
330
E6
100
AcDbEntity
  8
0
100
AcDbBlockBegin
  2
SSL2_Begin_2-NNL2_End_2-0
 70
    0
 10
0
 20
0
  3
SSL2_Begin_2-NNL2_End_2-0
  1

  0
LWPOLYLINE
  5
17C
100
AcDbEntity
  8
0
  6
ByLayer
 62
  256
370
   -1
100
AcDbPolyline
 90
    8
 70
    0
 43
0
 10
0
 20
0
 10
110
 20
0
 10
110
 20
-472
 10
-2110
 20
-472
 10
-2110
 20
830
 10
-2118
 20
830
 10
-2118
 20
3016
 10
-2000
 20
3016
  0
ENDBLK
  5
E8
330
E6
100
AcDbEntity
  8
0
100
AcDbBlockEnd
  0
BLOCK
  5
EA
330
E9
100
AcDbEntity
  8
0
100
AcDbBlockBegin
  2
SSL2_Begin_3-NNL2_End_3-0
 70
    0
 10
0
 20
0
  3
SSL2_Begin_3-NNL2_End_3-0
  1

  0
LWPOLYLINE
  5
17D
100
AcDbEntity
  8
0
  6
ByLayer
 62
  256
370
   -1
100
AcDbPolyline
 90
    8
 70
    0
 43
0
 10
0
 20
0
 10
111
 20
0
 10
111
 20
-477
 10
-2111
 20
-477
 10
-2111
 20
822
 10
-2119
 20
822
 10
-2119
 20
3016
 10
-2000
 20
3016
  0
ENDBLK
  5
EB
330
E9
100
AcDbEntity
  8
0
100
AcDbBlockEnd
  0
BLOCK
  5
ED
330
EC
100
AcDbEntity
  8
0
100
AcDbBlockBegin
  2
SSL2_Begin_4-NNL2_End_4-0
 70
    0
 10
0
 20
0
  3
SSL2_Begin_4-NNL2_End_4-0
  1

  0
LWPOLYLINE
  5
17E
100
AcDbEntity
  8
0
  6
ByLayer
 62
  256
370
   -1
100
AcDbPolyline
 90
    8
 70
    0
 43
0
 10
0
 20
0
 10
112
 20
0
 10
112
 20
-482
 10
-2112
 20
-482
 10
-2112
 20
814
 10
-2120
 20
814
 10
-2120
 20
3016
 10
-2000
 20
3016
  0
ENDBLK
  5
EE
330
EC
100
AcDbEntity
  8
0
100
AcDbBlockEnd
  0
BLOCK
  5
F0
330
EF
100
AcDbEntity
  8
0
100
AcDbBlockBegin
  2
SSL2_Begin_5-NNL2_End_5-0
 70
    0
 10
0
 20
0
  3
SSL2_Begin_5-NNL2_End_5-0
  1

  0
LWPOLYLINE
  5
17F
100
AcDbEntity
  8
0
  6
ByLayer
 62
  256
370
   -1
100
AcDbPolyline
 90
    8
 70
    0
 43
0
 10
0
 20
0
 10
113
 20
0
 10
113
 20
-487
 10
-2113
 20
-487
 10
-2113
 20
806
 10
-2121
 20
806
 10
-2121
 20
3016
 10
-2000
 20
3016
  0
ENDBLK
  5
F1
330
EF
100
AcDbEntity
  8
0
100
AcDbBlockEnd
  0
BLOCK
  5
F3
330
F2
100
AcDbEntity
  8
0
100
AcDbBlockBegin
  2
SSL2_Begin_6-NNL2_End_6-0
 70
    0
 10
0
 20
0
  3
SSL2_Begin_6-NNL2_End_6-0
  1

  0
LWPOLYLINE
  5
180
100
AcDbEntity
  8
0
  6
ByLayer
 62
  256
370
   -1
100
AcDbPolyline
 90
    8
 70
    0
 43
0
 10
0
 20
0
 10
114
 20
0
 10
114
 20
-492
 10
-2114
 20
-492
 10
-2114
 20
798
 10
-2122
 20
798
 10
-2122
 20
3016
 10
-2000
 20
3016
  0
ENDBLK
  5
F4
330
F2
100
AcDbEntity
  8
0
100
AcDbBlockEnd
  0
BLOCK
  5
F6
330
F5
100
AcDbEntity
  8
0
100
AcDbBlockBegin
  2
SSL2_Begin_7-NNL2_End_7-0
 70
    0
 10
0
 20
0
  3
SSL2_Begin_7-NNL2_End_7-0
  1

  0
LWPOLYLINE
  5
181
100
AcDbEntity
  8
0
  6
ByLayer
 62
  256
370
   -1
100
AcDbPolyline
 90
    8
 70
    0
 43
0
 10
0
 20
0
 10
115
 20
0
 10
115
 20
-497
 10
-2115
 20
-497
 10
-2115
 20
790
 10
-2123
 20
790
 10
-2123
 20
3016
 10
-2000
 20
3016
  0
ENDBLK
  5
F7
330
F5
100
AcDbEntity
  8
0
100
AcDbBlockEnd
  0
BLOCK
  5
F9
330
F8
100
AcDbEntity
  8
0
100
AcDbBlockBegin
  2
SSL3_Begin_0-NNL3_End_0-0
 70
    0
 10
0
 20
0
  3
SSL3_Begin_0-NNL3_End_0-0
  1

  0
LWPOLYLINE
  5
182
100
AcDbEntity
  8
0
  6
ByLayer
 62
  256
370
   -1
100
AcDbPolyline
 90
   10
 70
    0
 43
0
 10
0
 20
0
 10
124
 20
0
 10
124
 20
-446
 10
-2124
 20
-446
 10
-2124
 20
878
 10
-2132
 20
878
 10
-2132
 20
3846
 10
-2140
 20
3846
 10
-2140
 20
6016
 10
-2000
 20
6016
  0
ENDBLK
  5
FA
330
F8
100
AcDbEntity
  8
0
100
AcDbBlockEnd
  0
BLOCK
  5
FC
330
FB
100
AcDbEntity
  8
0
100
AcDbBlockBegin
  2
SSL3_Begin_1-NNL3_End_1-0
 70
    0
 10
0
 20
0
  3
SSL3_Begin_1-NNL3_End_1-0
  1

  0
LWPOLYLINE
  5
183
100
AcDbEntity
  8
0
  6
ByLayer
 62
  256
370
   -1
100
AcDbPolyline
 90
   10
 70
    0
 43
0
 10
0
 20
0
 10
125
 20
0
 10
125
 20
-451
 10
-2125
 20
-451
 10
-2125
 20
870
 10
-2133
 20
870
 10
-2133
 20
3838
 10
-2141
 20
3838
 10
-2141
 20
6016
 10
-2000
 20
6016
  0
ENDBLK
  5
FD
330
FB
100
AcDbEntity
  8
0
100
AcDbBlockEnd
  0
BLOCK
  5
FF
330
FE
100
AcDbEntity
  8
0
100
AcDbBlockBegin
  2
SSL3_Begin_2-NNL3_End_2-0
 70
    0
 10
0
 20
0
  3
SSL3_Begin_2-NNL3_End_2-0
  1

  0
LWPOLYLINE
  5
184
100
AcDbEntity
  8
0
  6
ByLayer
 62
  256
370
   -1
100
AcDbPolyline
 90
   10
 70
    0
 43
0
 10
0
 20
0
 10
126
 20
0
 10
126
 20
-456
 10
-2126
 20
-456
 10
-2126
 20
862
 10
-2134
 20
862
 10
-2134
 20
3830
 10
-2142
 20
3830
 10
-2142
 20
6016
 10
-2000
 20
6016
  0
ENDBLK
  5
100
330
FE
100
AcDbEntity
  8
0
100
AcDbBlockEnd
  0
BLOCK
  5
102
330
101
100
AcDbEntity
  8
0
100
AcDbBlockBegin
  2
SSL3_Begin_3-NNL3_End_3-0
 70
    0
 10
0
 20
0
  3
SSL3_Begin_3-NNL3_End_3-0
  1

  0
LWPOLYLINE
  5
185
100
AcDbEntity
  8
0
  6
ByLayer
 62
  256
370
   -1
100
AcDbPolyline
 90
   10
 70
    0
 43
0
 10
0
 20
0
 10
127
 20
0
 10
127
 20
-461
 10
-2127
 20
-461
 10
-2127
 20
854
 10
-2135
 20
854
 10
-2135
 20
3822
 10
-2143
 20
3822
 10
-2143
 20
6016
 10
-2000
 20
6016
  0
ENDBLK
  5
103
330
101
100
AcDbEntity
  8
0
100
AcDbBlockEnd
  0
BLOCK
  5
105
330
104
100
AcDbEntity
  8
0
100
AcDbBlockBegin
  2
SSL3_Begin_4-NNL3_End_4-0
 70
    0
 10
0
 20
0
  3
SSL3_Begin_4-NNL3_End_4-0
  1

  0
LWPOLYLINE
  5
186
100
AcDbEntity
  8
0
  6
ByLayer
 62
  256
370
   -1
100
AcDbPolyline
 90
   10
 70
    0
 43
0
 10
0
 20
0
 10
128
 20
0
 10
128
 20
-466
 10
-2128
 20
-466
 10
-2128
 20
846
 10
-2136
 20
846
 10
-2136
 20
3814
 10
-2144
 20
3814
 10
-2144
 20
6016
 10
-2000
 20
6016
  0
ENDBLK
  5
106
330
104
100
AcDbEntity
  8
0
100
AcDbBlockEnd
  0
BLOCK
  5
108
330
107
100
AcDbEntity
  8
0
100
AcDbBlockBegin
  2
SSL3_Begin_5-NNL3_End_5-0
 70
    0
 10
0
 20
0
  3
SSL3_Begin_5-NNL3_End_5-0
  1

  0
LWPOLYLINE
  5
187
100
AcDbEntity
  8
0
  6
ByLayer
 62
  256
370
   -1
100
AcDbPolyline
 90
   10
 70
    0
 43
0
 10
0
 20
0
 10
129
 20
0
 10
129
 20
-471
 10
-2129
 20
-471
 10
-2129
 20
838
 10
-2137
 20
838
 10
-2137
 20
3806
 10
-2145
 20
3806
 10
-2145
 20
6016
 10
-2000
 20
6016
  0
ENDBLK
  5
109
330
107
100
AcDbEntity
  8
0
100
AcDbBlockEnd
  0
BLOCK
  5
10B
330
10A
100
AcDbEntity
  8
0
100
AcDbBlockBegin
  2
SSL3_Begin_6-NNL3_End_6-0
 70
    0
 10
0
 20
0
  3
SSL3_Begin_6-NNL3_End_6-0
  1

  0
LWPOLYLINE
  5
188
100
AcDbEntity
  8
0
  6
ByLayer
 62
  256
370
   -1
100
AcDbPolyline
 90
   10
 70
    0
 43
0
 10
0
 20
0
 10
130
 20
0
 10
130
 20
-476
 10
-2130
 20
-476
 10
-2130
 20
830
 10
-2138
 20
830
 10
-2138
 20
3798
 10
-2146
 20
3798
 10
-2146
 20
6016
 10
-2000
 20
6016
  0
ENDBLK
  5
10C
330
10A
100
AcDbEntity
  8
0
100
AcDbBlockEnd
  0
BLOCK
  5
10E
330
10D
100
AcDbEntity
  8
0
100
AcDbBlockBegin
  2
SSL3_Begin_7-NNL3_End_7-0
 70
    0
 10
0
 20
0
  3
SSL3_Begin_7-NNL3_End_7-0
  1

  0
LWPOLYLINE
  5
189
100
AcDbEntity
  8
0
  6
ByLayer
 62
  256
370
   -1
100
AcDbPolyline
 90
   10
 70
    0
 43
0
 10
0
 20
0
 10
131
 20
0
 10
131
 20
-481
 10
-2131
 20
-481
 10
-2131
 20
822
 10
-2139
 20
822
 10
-2139
 20
3790
 10
-2147
 20
3790
 10
-2147
 20
6016
 10
-2000
 20
6016
  0
ENDBLK
  5
10F
330
10D
100
AcDbEntity
  8
0
100
AcDbBlockEnd
  0
BLOCK
  5
111
330
110
100
AcDbEntity
  8
0
100
AcDbBlockBegin
  2
SSL4_Begin_0-NNL4_End_0-0
 70
    0
 10
0
 20
0
  3
SSL4_Begin_0-NNL4_End_0-0
  1

  0
LWPOLYLINE
  5
18A
100
AcDbEntity
  8
0
  6
ByLayer
 62
  256
370
   -1
100
AcDbPolyline
 90
   12
 70
    0
 43
0
 10
0
 20
0
 10
148
 20
0
 10
148
 20
-426
 10
-2148
 20
-426
 10
-2148
 20
922
 10
-2154
 20
922
 10
-2154
 20
3898
 10
-2160
 20
3898
 10
-2160
 20
6874
 10
-2166
 20
6874
 10
-2166
 20
9016
 10
-2000
 20
9016
  0
ENDBLK
  5
112
330
110
100
AcDbEntity
  8
0
100
AcDbBlockEnd
  0
BLOCK
  5
114
330
113
100
AcDbEntity
  8
0
100
AcDbBlockBegin
  2
SSL4_Begin_1-NNL4_End_1-0
 70
    0
 10
0
 20
0
  3
SSL4_Begin_1-NNL4_End_1-0
  1

  0
LWPOLYLINE
  5
18B
100
AcDbEntity
  8
0
  6
ByLayer
 62
  256
370
   -1
100
AcDbPolyline
 90
   12
 70
    0
 43
0
 10
0
 20
0
 10
149
 20
0
 10
149
 20
-431
 10
-2149
 20
-431
 10
-2149
 20
914
 10
-2155
 20
914
 10
-2155
 20
3890
 10
-2161
 20
3890
 10
-2161
 20
6866
 10
-2167
 20
6866
 10
-2167
 20
9016
 10
-2000
 20
9016
  0
ENDBLK
  5
115
330
113
100
AcDbEntity
  8
0
100
AcDbBlockEnd
  0
BLOCK
  5
117
330
116
100
AcDbEntity
  8
0
100
AcDbBlockBegin
  2
SSL4_Begin_2-NNL4_End_2-0
 70
    0
 10
0
 20
0
  3
SSL4_Begin_2-NNL4_End_2-0
  1

  0
LWPOLYLINE
  5
18C
100
AcDbEntity
  8
0
  6
ByLayer
 62
  256
370
   -1
100
AcDbPolyline
 90
   12
 70
    0
 43
0
 10
0
 20
0
 10
150
 20
0
 10
150
 20
-436
 10
-2150
 20
-436
 10
-2150
 20
906
 10
-2156
 20
906
 10
-2156
 20
3882
 10
-2162
 20
3882
 10
-2162
 20
6858
 10
-2168
 20
6858
 10
-2168
 20
9016
 10
-2000
 20
9016
  0
ENDBLK
  5
118
330
116
100
AcDbEntity
  8
0
100
AcDbBlockEnd
  0
BLOCK
  5
11A
330
119
100
AcDbEntity
  8
0
100
AcDbBlockBegin
  2
SSL4_Begin_3-NNL4_End_3-0
 70
    0
 10
0
 20
0
  3
SSL4_Begin_3-NNL4_End_3-0
  1

  0
LWPOLYLINE
  5
18D
100
AcDbEntity
  8
0
  6
ByLayer
 62
  256
370
   -1
100
AcDbPolyline
 90
   12
 70
    0
 43
0
 10
0
 20
0
 10
151
 20
0
 10
151
 20
-441
 10
-2151
 20
-441
 10
-2151
 20
898
 10
-2157
 20
898
 10
-2157
 20
3874
 10
-2163
 20
3874
 10
-2163
 20
6850
 10
-2169
 20
6850
 10
-2169
 20
9016
 10
-2000
 20
9016
  0
ENDBLK
  5
11B
330
119
100
AcDbEntity
  8
0
100
AcDbBlockEnd
  0
BLOCK
  5
11D
330
11C
100
AcDbEntity
  8
0
100
AcDbBlockBegin
  2
SSL4_Begin_4-NNL4_End_4-0
 70
    0
 10
0
 20
0
  3
SSL4_Begin_4-NNL4_End_4-0
  1

  0
LWPOLYLINE
  5
18E
100
AcDbEntity
  8
0
  6
ByLayer
 62
  256
370
   -1
100
AcDbPolyline
 90
   12
 70
    0
 43
0
 10
0
 20
0
 10
152
 20
0
 10
152
 20
-446
 10
-2152
 20
-446
 10
-2152
 20
890
 10
-2158
 20
890
 10
-2158
 20
3866
 10
-2164
 20
3866
 10
-2164
 20
6842
 10
-2170
 20
6842
 10
-2170
 20
9016
 10
-2000
 20
9016
  0
ENDBLK
  5
11E
330
11C
100
AcDbEntity
  8
0
100
AcDbBlockEnd
  0
BLOCK
  5
120
330
11F
100
AcDbEntity
  8
0
100
AcDbBlockBegin
  2
SSL4_Begin_5-NNL4_End_5-0
 70
    0
 10
0
 20
0
  3
SSL4_Begin_5-NNL4_End_5-0
  1

  0
LWPOLYLINE
  5
18F
100
AcDbEntity
  8
0
  6
ByLayer
 62
  256
370
   -1
100
AcDbPolyline
 90
   12
 70
    0
 43
0
 10
0
 20
0
 10
153
 20
0
 10
153
 20
-451
 10
-2153
 20
-451
 10
-2153
 20
882
 10
-2159
 20
882
 10
-2159
 20
3858
 10
-2165
 20
3858
 10
-2165
 20
6834
 10
-2171
 20
6834
 10
-2171
 20
9016
 10
-2000
 20
9016
  0
ENDBLK
  5
121
330
11F
100
AcDbEntity
  8
0
100
AcDbBlockEnd
  0
BLOCK
  5
123
330
122
100
AcDbEntity
  8
0
100
AcDbBlockBegin
  2
SSL6_Begin_0-NNL6_End_0-0
 70
    0
 10
0
 20
0
  3
SSL6_Begin_0-NNL6_End_0-0
  1

  0
LWPOLYLINE
  5
190
100
AcDbEntity
  8
0
  6
ByLayer
 62
  256
370
   -1
100
AcDbPolyline
 90
   16
 70
    0
 43
0
 10
0
 20
0
 10
172
 20
0
 10
172
 20
-410
 10
-2172
 20
-410
 10
-2172
 20
962
 10
-2180
 20
962
 10
-2180
 20
3930
 10
-2188
 20
3930
 10
-2188
 20
6898
 10
-2196
 20
6898
 10
-2196
 20
9866
 10
-2204
 20
9866
 10
-2204
 20
12834
 10
-2212
 20
12834
 10
-2212
 20
15016
 10
-2000
 20
15016
  0
ENDBLK
  5
124
330
122
100
AcDbEntity
  8
0
100
AcDbBlockEnd
  0
BLOCK
  5
126
330
125
100
AcDbEntity
  8
0
100
AcDbBlockBegin
  2
SSL6_Begin_1-NNL6_End_1-0
 70
    0
 10
0
 20
0
  3
SSL6_Begin_1-NNL6_End_1-0
  1

  0
LWPOLYLINE
  5
191
100
AcDbEntity
  8
0
  6
ByLayer
 62
  256
370
   -1
100
AcDbPolyline
 90
   16
 70
    0
 43
0
 10
0
 20
0
 10
173
 20
0
 10
173
 20
-415
 10
-2173
 20
-415
 10
-2173
 20
954
 10
-2181
 20
954
 10
-2181
 20
3922
 10
-2189
 20
3922
 10
-2189
 20
6890
 10
-2197
 20
6890
 10
-2197
 20
9858
 10
-2205
 20
9858
 10
-2205
 20
12826
 10
-2213
 20
12826
 10
-2213
 20
15016
 10
-2000
 20
15016
  0
ENDBLK
  5
127
330
125
100
AcDbEntity
  8
0
100
AcDbBlockEnd
  0
BLOCK
  5
129
330
128
100
AcDbEntity
  8
0
100
AcDbBlockBegin
  2
SSL6_Begin_2-NNL6_End_2-0
 70
    0
 10
0
 20
0
  3
SSL6_Begin_2-NNL6_End_2-0
  1

  0
LWPOLYLINE
  5
192
100
AcDbEntity
  8
0
  6
ByLayer
 62
  256
370
   -1
100
AcDbPolyline
 90
   16
 70
    0
 43
0
 10
0
 20
0
 10
174
 20
0
 10
174
 20
-420
 10
-2174
 20
-420
 10
-2174
 20
946
 10
-2182
 20
946
 10
-2182
 20
3914
 10
-2190
 20
3914
 10
-2190
 20
6882
 10
-2198
 20
6882
 10
-2198
 20
9850
 10
-2206
 20
9850
 10
-2206
 20
12818
 10
-2214
 20
12818
 10
-2214
 20
15016
 10
-2000
 20
15016
  0
ENDBLK
  5
12A
330
128
100
AcDbEntity
  8
0
100
AcDbBlockEnd
  0
BLOCK
  5
12C
330
12B
100
AcDbEntity
  8
0
100
AcDbBlockBegin
  2
SSL6_Begin_3-NNL6_End_3-0
 70
    0
 10
0
 20
0
  3
SSL6_Begin_3-NNL6_End_3-0
  1

  0
LWPOLYLINE
  5
193
100
AcDbEntity
  8
0
  6
ByLayer
 62
  256
370
   -1
100
AcDbPolyline
 90
   16
 70
    0
 43
0
 10
0
 20
0
 10
175
 20
0
 10
175
 20
-425
 10
-2175
 20
-425
 10
-2175
 20
938
 10
-2183
 20
938
 10
-2183
 20
3906
 10
-2191
 20
3906
 10
-2191
 20
6874
 10
-2199
 20
6874
 10
-2199
 20
9842
 10
-2207
 20
9842
 10
-2207
 20
12810
 10
-2215
 20
12810
 10
-2215
 20
15016
 10
-2000
 20
15016
  0
ENDBLK
  5
12D
330
12B
100
AcDbEntity
  8
0
100
AcDbBlockEnd
  0
BLOCK
  5
12F
330
12E
100
AcDbEntity
  8
0
100
AcDbBlockBegin
  2
SSL6_Begin_4-NNL6_End_4-0
 70
    0
 10
0
 20
0
  3
SSL6_Begin_4-NNL6_End_4-0
  1

  0
LWPOLYLINE
  5
194
100
AcDbEntity
  8
0
  6
ByLayer
 62
  256
370
   -1
100
AcDbPolyline
 90
   16
 70
    0
 43
0
 10
0
 20
0
 10
176
 20
0
 10
176
 20
-430
 10
-2176
 20
-430
 10
-2176
 20
930
 10
-2184
 20
930
 10
-2184
 20
3898
 10
-2192
 20
3898
 10
-2192
 20
6866
 10
-2200
 20
6866
 10
-2200
 20
9834
 10
-2208
 20
9834
 10
-2208
 20
12802
 10
-2216
 20
12802
 10
-2216
 20
15016
 10
-2000
 20
15016
  0
ENDBLK
  5
130
330
12E
100
AcDbEntity
  8
0
100
AcDbBlockEnd
  0
BLOCK
  5
132
330
131
100
AcDbEntity
  8
0
100
AcDbBlockBegin
  2
SSL6_Begin_5-NNL6_End_5-0
 70
    0
 10
0
 20
0
  3
SSL6_Begin_5-NNL6_End_5-0
  1

  0
LWPOLYLINE
  5
195
100
AcDbEntity
  8
0
  6
ByLayer
 62
  256
370
   -1
100
AcDbPolyline
 90
   16
 70
    0
 43
0
 10
0
 20
0
 10
177
 20
0
 10
177
 20
-435
 10
-2177
 20
-435
 10
-2177
 20
922
 10
-2185
 20
922
 10
-2185
 20
3890
 10
-2193
 20
3890
 10
-2193
 20
6858
 10
-2201
 20
6858
 10
-2201
 20
9826
 10
-2209
 20
9826
 10
-2209
 20
12794
 10
-2217
 20
12794
 10
-2217
 20
15016
 10
-2000
 20
15016
  0
ENDBLK
  5
133
330
131
100
AcDbEntity
  8
0
100
AcDbBlockEnd
  0
BLOCK
  5
135
330
134
100
AcDbEntity
  8
0
100
AcDbBlockBegin
  2
SSL6_Begin_6-NNL6_End_6-0
 70
    0
 10
0
 20
0
  3
SSL6_Begin_6-NNL6_End_6-0
  1

  0
LWPOLYLINE
  5
196
100
AcDbEntity
  8
0
  6
ByLayer
 62
  256
370
   -1
100
AcDbPolyline
 90
   16
 70
    0
 43
0
 10
0
 20
0
 10
178
 20
0
 10
178
 20
-440
 10
-2178
 20
-440
 10
-2178
 20
914
 10
-2186
 20
914
 10
-2186
 20
3882
 10
-2194
 20
3882
 10
-2194
 20
6850
 10
-2202
 20
6850
 10
-2202
 20
9818
 10
-2210
 20
9818
 10
-2210
 20
12786
 10
-2218
 20
12786
 10
-2218
 20
15016
 10
-2000
 20
15016
  0
ENDBLK
  5
136
330
134
100
AcDbEntity
  8
0
100
AcDbBlockEnd
  0
BLOCK
  5
138
330
137
100
AcDbEntity
  8
0
100
AcDbBlockBegin
  2
SSL6_Begin_7-NNL6_End_7-0
 70
    0
 10
0
 20
0
  3
SSL6_Begin_7-NNL6_End_7-0
  1

  0
LWPOLYLINE
  5
197
100
AcDbEntity
  8
0
  6
ByLayer
 62
  256
370
   -1
100
AcDbPolyline
 90
   16
 70
    0
 43
0
 10
0
 20
0
 10
179
 20
0
 10
179
 20
-445
 10
-2179
 20
-445
 10
-2179
 20
906
 10
-2187
 20
906
 10
-2187
 20
3874
 10
-2195
 20
3874
 10
-2195
 20
6842
 10
-2203
 20
6842
 10
-2203
 20
9810
 10
-2211
 20
9810
 10
-2211
 20
12778
 10
-2219
 20
12778
 10
-2219
 20
15016
 10
-2000
 20
15016
  0
ENDBLK
  5
139
330
137
100
AcDbEntity
  8
0
100
AcDbBlockEnd
  0
BLOCK
  5
13B
330
13A
100
AcDbEntity
  8
0
100
AcDbBlockBegin
  2
SSL14_Begin_0-NNL14_End_0-0
 70
    0
 10
0
 20
0
  3
SSL14_Begin_0-NNL14_End_0-0
  1

  0
LWPOLYLINE
  5
198
100
AcDbEntity
  8
0
  6
ByLayer
 62
  256
370
   -1
100
AcDbPolyline
 90
   32
 70
    0
 43
0
 10
0
 20
0
 10
220
 20
0
 10
220
 20
-442
 10
-2220
 20
-442
 10
-2220
 20
978
 10
-2224
 20
978
 10
-2224
 20
3962
 10
-2228
 20
3962
 10
-2228
 20
6946
 10
-2232
 20
6946
 10
-2232
 20
9930
 10
-2236
 20
9930
 10
-2236
 20
12914
 10
-2240
 20
12914
 10
-2240
 20
15898
 10
-2244
 20
15898
 10
-2244
 20
18882
 10
-2248
 20
18882
 10
-2248
 20
21866
 10
-2252
 20
21866
 10
-2252
 20
24850
 10
-2256
 20
24850
 10
-2256
 20
27834
 10
-2260
 20
27834
 10
-2260
 20
30818
 10
-2264
 20
30818
 10
-2264
 20
33802
 10
-2268
 20
33802
 10
-2268
 20
36786
 10
-2272
 20
36786
 10
-2272
 20
39000
 10
-2000
 20
39000
  0
ENDBLK
  5
13C
330
13A
100
AcDbEntity
  8
0
100
AcDbBlockEnd
  0
BLOCK
  5
13E
330
13D
100
AcDbEntity
  8
0
100
AcDbBlockBegin
  2
SSL14_Begin_1-NNL14_End_1-0
 70
    0
 10
0
 20
0
  3
SSL14_Begin_1-NNL14_End_1-0
  1

  0
LWPOLYLINE
  5
199
100
AcDbEntity
  8
0
  6
ByLayer
 62
  256
370
   -1
100
AcDbPolyline
 90
   32
 70
    0
 43
0
 10
0
 20
0
 10
221
 20
0
 10
221
 20
-447
 10
-2221
 20
-447
 10
-2221
 20
970
 10
-2225
 20
970
 10
-2225
 20
3954
 10
-2229
 20
3954
 10
-2229
 20
6938
 10
-2233
 20
6938
 10
-2233
 20
9922
 10
-2237
 20
9922
 10
-2237
 20
12906
 10
-2241
 20
12906
 10
-2241
 20
15890
 10
-2245
 20
15890
 10
-2245
 20
18874
 10
-2249
 20
18874
 10
-2249
 20
21858
 10
-2253
 20
21858
 10
-2253
 20
24842
 10
-2257
 20
24842
 10
-2257
 20
27826
 10
-2261
 20
27826
 10
-2261
 20
30810
 10
-2265
 20
30810
 10
-2265
 20
33794
 10
-2269
 20
33794
 10
-2269
 20
36778
 10
-2273
 20
36778
 10
-2273
 20
39000
 10
-2000
 20
39000
  0
ENDBLK
  5
13F
330
13D
100
AcDbEntity
  8
0
100
AcDbBlockEnd
  0
BLOCK
  5
141
330
140
100
AcDbEntity
  8
0
100
AcDbBlockBegin
  2
SSL14_Begin_2-NNL14_End_2-0
 70
    0
 10
0
 20
0
  3
SSL14_Begin_2-NNL14_End_2-0
  1

  0
LWPOLYLINE
  5
19A
100
AcDbEntity
  8
0
  6
ByLayer
 62
  256
370
   -1
100
AcDbPolyline
 90
   32
 70
    0
 43
0
 10
0
 20
0
 10
222
 20
0
 10
222
 20
-452
 10
-2222
 20
-452
 10
-2222
 20
962
 10
-2226
 20
962
 10
-2226
 20
3946
 10
-2230
 20
3946
 10
-2230
 20
6930
 10
-2234
 20
6930
 10
-2234
 20
9914
 10
-2238
 20
9914
 10
-2238
 20
12898
 10
-2242
 20
12898
 10
-2242
 20
15882
 10
-2246
 20
15882
 10
-2246
 20
18866
 10
-2250
 20
18866
 10
-2250
 20
21850
 10
-2254
 20
21850
 10
-2254
 20
24834
 10
-2258
 20
24834
 10
-2258
 20
27818
 10
-2262
 20
27818
 10
-2262
 20
30802
 10
-2266
 20
30802
 10
-2266
 20
33786
 10
-2270
 20
33786
 10
-2270
 20
36770
 10
-2274
 20
36770
 10
-2274
 20
39000
 10
-2000
 20
39000
  0
ENDBLK
  5
142
330
140
100
AcDbEntity
  8
0
100
AcDbBlockEnd
  0
BLOCK
  5
144
330
143
100
AcDbEntity
  8
0
100
AcDbBlockBegin
  2
SSL14_Begin_3-NNL14_End_3-0
 70
    0
 10
0
 20
0
  3
SSL14_Begin_3-NNL14_End_3-0
  1

  0
LWPOLYLINE
  5
19B
100
AcDbEntity
  8
0
  6
ByLayer
 62
  256
370
   -1
100
AcDbPolyline
 90
   32
 70
    0
 43
0
 10
0
 20
0
 10
223
 20
0
 10
223
 20
-457
 10
-2223
 20
-457
 10
-2223
 20
954
 10
-2227
 20
954
 10
-2227
 20
3938
 10
-2231
 20
3938
 10
-2231
 20
6922
 10
-2235
 20
6922
 10
-2235
 20
9906
 10
-2239
 20
9906
 10
-2239
 20
12890
 10
-2243
 20
12890
 10
-2243
 20
15874
 10
-2247
 20
15874
 10
-2247
 20
18858
 10
-2251
 20
18858
 10
-2251
 20
21842
 10
-2255
 20
21842
 10
-2255
 20
24826
 10
-2259
 20
24826
 10
-2259
 20
27810
 10
-2263
 20
27810
 10
-2263
 20
30794
 10
-2267
 20
30794
 10
-2267
 20
33778
 10
-2271
 20
33778
 10
-2271
 20
36762
 10
-2275
 20
36762
 10
-2275
 20
39000
 10
-2000
 20
39000
  0
ENDBLK
  5
145
330
143
100
AcDbEntity
  8
0
100
AcDbBlockEnd
  0
BLOCK
  5
147
330
146
100
AcDbEntity
  8
0
100
AcDbBlockBegin
  2
NNL2_Begin_1-SSL2_End_1-0
 70
    0
 10
0
 20
0
  3
NNL2_Begin_1-SSL2_End_1-0
  1

  0
LWPOLYLINE
  5
19C
100
AcDbEntity
  8
0
  6
ByLayer
 62
  256
370
   -1
100
AcDbPolyline
 90
    8
 70
    0
 43
0
 10
0
 20
0
 10
-109
 20
0
 10
-109
 20
467
 10
2109
 20
467
 10
2109
 20
-838
 10
2117
 20
-838
 10
2117
 20
-3016
 10
2000
 20
-3016
  0
ENDBLK
  5
148
330
146
100
AcDbEntity
  8
0
100
AcDbBlockEnd
  0
ENDSEC
  0
SECTION
  2
ENTITIES
  0
INSERT
  5
19D
100
AcDbEntity
  8
0
  6
ByLayer
 62
  256
370
   -1
100
AcDbBlockReference
  2
NNL1_Begin_0-SSL1_End_0-0
 10
0
 20
1814
 30
0
 41
1
 42
1
 43
0
 50
0
 70
    1
 71
    1
 44
0
 45
0
  0
INSERT
  5
19E
100
AcDbEntity
  8
0
  6
ByLayer
 62
  256
370
   -1
100
AcDbBlockReference
  2
NNL1_Begin_1-SSL1_End_1-0
 10
0
 20
1810
 30
0
 41
1
 42
1
 43
0
 50
0
 70
    1
 71
    1
 44
0
 45
0
  0
INSERT
  5
19F
100
AcDbEntity
  8
0
  6
ByLayer
 62
  256
370
   -1
100
AcDbBlockReference
  2
NNL1_Begin_2-SSL1_End_2-0
 10
0
 20
1806
 30
0
 41
1
 42
1
 43
0
 50
0
 70
    1
 71
    1
 44
0
 45
0
  0
INSERT
  5
1A0
100
AcDbEntity
  8
0
  6
ByLayer
 62
  256
370
   -1
100
AcDbBlockReference
  2
NNL1_Begin_3-SSL1_End_3-0
 10
0
 20
1802
 30
0
 41
1
 42
1
 43
0
 50
0
 70
    1
 71
    1
 44
0
 45
0
  0
INSERT
  5
1A1
100
AcDbEntity
  8
0
  6
ByLayer
 62
  256
370
   -1
100
AcDbBlockReference
  2
NNL1_Begin_4-SSL1_End_4-0
 10
0
 20
1798
 30
0
 41
1
 42
1
 43
0
 50
0
 70
    1
 71
    1
 44
0
 45
0
  0
INSERT
  5
1A2
100
AcDbEntity
  8
0
  6
ByLayer
 62
  256
370
   -1
100
AcDbBlockReference
  2
NNL1_Begin_5-SSL1_End_5-0
 10
0
 20
1794
 30
0
 41
1
 42
1
 43
0
 50
0
 70
    1
 71
    1
 44
0
 45
0
  0
INSERT
  5
1A3
100
AcDbEntity
  8
0
  6
ByLayer
 62
  256
370
   -1
100
AcDbBlockReference
  2
NNL1_Begin_6-SSL1_End_6-0
 10
0
 20
1790
 30
0
 41
1
 42
1
 43
0
 50
0
 70
    1
 71
    1
 44
0
 45
0
  0
INSERT
  5
1A4
100
AcDbEntity
  8
0
  6
ByLayer
 62
  256
370
   -1
100
AcDbBlockReference
  2
NNL1_Begin_7-SSL1_End_7-0
 10
0
 20
1786
 30
0
 41
1
 42
1
 43
0
 50
0
 70
    1
 71
    1
 44
0
 45
0
  0
INSERT
  5
1A5
100
AcDbEntity
  8
0
  6
ByLayer
 62
  256
370
   -1
100
AcDbBlockReference
  2
NNL2_Begin_0-SSL2_End_0-0
 10
0
 20
1846
 30
0
 41
1
 42
1
 43
0
 50
0
 70
    1
 71
    1
 44
0
 45
0
  0
INSERT
  5
1A6
100
AcDbEntity
  8
0
  6
ByLayer
 62
  256
370
   -1
100
AcDbBlockReference
  2
NNL2_Begin_2-SSL2_End_2-0
 10
0
 20
1838
 30
0
 41
1
 42
1
 43
0
 50
0
 70
    1
 71
    1
 44
0
 45
0
  0
INSERT
  5
1A7
100
AcDbEntity
  8
0
  6
ByLayer
 62
  256
370
   -1
100
AcDbBlockReference
  2
NNL2_Begin_3-SSL2_End_3-0
 10
0
 20
1834
 30
0
 41
1
 42
1
 43
0
 50
0
 70
    1
 71
    1
 44
0
 45
0
  0
INSERT
  5
1A8
100
AcDbEntity
  8
0
  6
ByLayer
 62
  256
370
   -1
100
AcDbBlockReference
  2
NNL2_Begin_4-SSL2_End_4-0
 10
0
 20
1830
 30
0
 41
1
 42
1
 43
0
 50
0
 70
    1
 71
    1
 44
0
 45
0
  0
INSERT
  5
1A9
100
AcDbEntity
  8
0
  6
ByLayer
 62
  256
370
   -1
100
AcDbBlockReference
  2
NNL2_Begin_5-SSL2_End_5-0
 10
0
 20
1826
 30
0
 41
1
 42
1
 43
0
 50
0
 70
    1
 71
    1
 44
0
 45
0
  0
INSERT
  5
1AA
100
AcDbEntity
  8
0
  6
ByLayer
 62
  256
370
   -1
100
AcDbBlockReference
  2
NNL2_Begin_6-SSL2_End_6-0
 10
0
 20
1822
 30
0
 41
1
 42
1
 43
0
 50
0
 70
    1
 71
    1
 44
0
 45
0
  0
INSERT
  5
1AB
100
AcDbEntity
  8
0
  6
ByLayer
 62
  256
370
   -1
100
AcDbBlockReference
  2
NNL2_Begin_7-SSL2_End_7-0
 10
0
 20
1818
 30
0
 41
1
 42
1
 43
0
 50
0
 70
    1
 71
    1
 44
0
 45
0
  0
INSERT
  5
1AC
100
AcDbEntity
  8
0
  6
ByLayer
 62
  256
370
   -1
100
AcDbBlockReference
  2
NNL3_Begin_0-SSL3_End_0-0
 10
0
 20
1878
 30
0
 41
1
 42
1
 43
0
 50
0
 70
    1
 71
    1
 44
0
 45
0
  0
INSERT
  5
1AD
100
AcDbEntity
  8
0
  6
ByLayer
 62
  256
370
   -1
100
AcDbBlockReference
  2
NNL3_Begin_1-SSL3_End_1-0
 10
0
 20
1874
 30
0
 41
1
 42
1
 43
0
 50
0
 70
    1
 71
    1
 44
0
 45
0
  0
INSERT
  5
1AE
100
AcDbEntity
  8
0
  6
ByLayer
 62
  256
370
   -1
100
AcDbBlockReference
  2
NNL3_Begin_2-SSL3_End_2-0
 10
0
 20
1870
 30
0
 41
1
 42
1
 43
0
 50
0
 70
    1
 71
    1
 44
0
 45
0
  0
INSERT
  5
1AF
100
AcDbEntity
  8
0
  6
ByLayer
 62
  256
370
   -1
100
AcDbBlockReference
  2
NNL3_Begin_3-SSL3_End_3-0
 10
0
 20
1866
 30
0
 41
1
 42
1
 43
0
 50
0
 70
    1
 71
    1
 44
0
 45
0
  0
INSERT
  5
1B0
100
AcDbEntity
  8
0
  6
ByLayer
 62
  256
370
   -1
100
AcDbBlockReference
  2
NNL3_Begin_4-SSL3_End_4-0
 10
0
 20
1862
 30
0
 41
1
 42
1
 43
0
 50
0
 70
    1
 71
    1
 44
0
 45
0
  0
INSERT
  5
1B1
100
AcDbEntity
  8
0
  6
ByLayer
 62
  256
370
   -1
100
AcDbBlockReference
  2
NNL3_Begin_5-SSL3_End_5-0
 10
0
 20
1858
 30
0
 41
1
 42
1
 43
0
 50
0
 70
    1
 71
    1
 44
0
 45
0
  0
INSERT
  5
1B2
100
AcDbEntity
  8
0
  6
ByLayer
 62
  256
370
   -1
100
AcDbBlockReference
  2
NNL3_Begin_6-SSL3_End_6-0
 10
0
 20
1854
 30
0
 41
1
 42
1
 43
0
 50
0
 70
    1
 71
    1
 44
0
 45
0
  0
INSERT
  5
1B3
100
AcDbEntity
  8
0
  6
ByLayer
 62
  256
370
   -1
100
AcDbBlockReference
  2
NNL3_Begin_7-SSL3_End_7-0
 10
0
 20
1850
 30
0
 41
1
 42
1
 43
0
 50
0
 70
    1
 71
    1
 44
0
 45
0
  0
INSERT
  5
1B4
100
AcDbEntity
  8
0
  6
ByLayer
 62
  256
370
   -1
100
AcDbBlockReference
  2
NNL4_Begin_0-SSL4_End_0-0
 10
0
 20
1922
 30
0
 41
1
 42
1
 43
0
 50
0
 70
    1
 71
    1
 44
0
 45
0
  0
INSERT
  5
1B5
100
AcDbEntity
  8
0
  6
ByLayer
 62
  256
370
   -1
100
AcDbBlockReference
  2
NNL4_Begin_1-SSL4_End_1-0
 10
0
 20
1918
 30
0
 41
1
 42
1
 43
0
 50
0
 70
    1
 71
    1
 44
0
 45
0
  0
INSERT
  5
1B6
100
AcDbEntity
  8
0
  6
ByLayer
 62
  256
370
   -1
100
AcDbBlockReference
  2
NNL4_Begin_2-SSL4_End_2-0
 10
0
 20
1914
 30
0
 41
1
 42
1
 43
0
 50
0
 70
    1
 71
    1
 44
0
 45
0
  0
INSERT
  5
1B7
100
AcDbEntity
  8
0
  6
ByLayer
 62
  256
370
   -1
100
AcDbBlockReference
  2
NNL4_Begin_3-SSL4_End_3-0
 10
0
 20
1910
 30
0
 41
1
 42
1
 43
0
 50
0
 70
    1
 71
    1
 44
0
 45
0
  0
INSERT
  5
1B8
100
AcDbEntity
  8
0
  6
ByLayer
 62
  256
370
   -1
100
AcDbBlockReference
  2
NNL4_Begin_4-SSL4_End_4-0
 10
0
 20
1906
 30
0
 41
1
 42
1
 43
0
 50
0
 70
    1
 71
    1
 44
0
 45
0
  0
INSERT
  5
1B9
100
AcDbEntity
  8
0
  6
ByLayer
 62
  256
370
   -1
100
AcDbBlockReference
  2
NNL4_Begin_5-SSL4_End_5-0
 10
0
 20
1902
 30
0
 41
1
 42
1
 43
0
 50
0
 70
    1
 71
    1
 44
0
 45
0
  0
INSERT
  5
1BA
100
AcDbEntity
  8
0
  6
ByLayer
 62
  256
370
   -1
100
AcDbBlockReference
  2
NNL6_Begin_0-SSL6_End_0-0
 10
0
 20
1962
 30
0
 41
1
 42
1
 43
0
 50
0
 70
    1
 71
    1
 44
0
 45
0
  0
INSERT
  5
1BB
100
AcDbEntity
  8
0
  6
ByLayer
 62
  256
370
   -1
100
AcDbBlockReference
  2
NNL6_Begin_1-SSL6_End_1-0
 10
0
 20
1958
 30
0
 41
1
 42
1
 43
0
 50
0
 70
    1
 71
    1
 44
0
 45
0
  0
INSERT
  5
1BC
100
AcDbEntity
  8
0
  6
ByLayer
 62
  256
370
   -1
100
AcDbBlockReference
  2
NNL6_Begin_2-SSL6_End_2-0
 10
0
 20
1954
 30
0
 41
1
 42
1
 43
0
 50
0
 70
    1
 71
    1
 44
0
 45
0
  0
INSERT
  5
1BD
100
AcDbEntity
  8
0
  6
ByLayer
 62
  256
370
   -1
100
AcDbBlockReference
  2
NNL6_Begin_3-SSL6_End_3-0
 10
0
 20
1950
 30
0
 41
1
 42
1
 43
0
 50
0
 70
    1
 71
    1
 44
0
 45
0
  0
INSERT
  5
1BE
100
AcDbEntity
  8
0
  6
ByLayer
 62
  256
370
   -1
100
AcDbBlockReference
  2
NNL6_Begin_4-SSL6_End_4-0
 10
0
 20
1946
 30
0
 41
1
 42
1
 43
0
 50
0
 70
    1
 71
    1
 44
0
 45
0
  0
INSERT
  5
1BF
100
AcDbEntity
  8
0
  6
ByLayer
 62
  256
370
   -1
100
AcDbBlockReference
  2
NNL6_Begin_5-SSL6_End_5-0
 10
0
 20
1942
 30
0
 41
1
 42
1
 43
0
 50
0
 70
    1
 71
    1
 44
0
 45
0
  0
INSERT
  5
1C0
100
AcDbEntity
  8
0
  6
ByLayer
 62
  256
370
   -1
100
AcDbBlockReference
  2
NNL6_Begin_6-SSL6_End_6-0
 10
0
 20
1938
 30
0
 41
1
 42
1
 43
0
 50
0
 70
    1
 71
    1
 44
0
 45
0
  0
INSERT
  5
1C1
100
AcDbEntity
  8
0
  6
ByLayer
 62
  256
370
   -1
100
AcDbBlockReference
  2
NNL6_Begin_7-SSL6_End_7-0
 10
0
 20
1934
 30
0
 41
1
 42
1
 43
0
 50
0
 70
    1
 71
    1
 44
0
 45
0
  0
INSERT
  5
1C2
100
AcDbEntity
  8
0
  6
ByLayer
 62
  256
370
   -1
100
AcDbBlockReference
  2
NNL14_Begin_0-SSL14_End_0-0
 10
0
 20
1978
 30
0
 41
1
 42
1
 43
0
 50
0
 70
    1
 71
    1
 44
0
 45
0
  0
INSERT
  5
1C3
100
AcDbEntity
  8
0
  6
ByLayer
 62
  256
370
   -1
100
AcDbBlockReference
  2
NNL14_Begin_1-SSL14_End_1-0
 10
0
 20
1974
 30
0
 41
1
 42
1
 43
0
 50
0
 70
    1
 71
    1
 44
0
 45
0
  0
INSERT
  5
1C4
100
AcDbEntity
  8
0
  6
ByLayer
 62
  256
370
   -1
100
AcDbBlockReference
  2
NNL14_Begin_2-SSL14_End_2-0
 10
0
 20
1970
 30
0
 41
1
 42
1
 43
0
 50
0
 70
    1
 71
    1
 44
0
 45
0
  0
INSERT
  5
1C5
100
AcDbEntity
  8
0
  6
ByLayer
 62
  256
370
   -1
100
AcDbBlockReference
  2
NNL14_Begin_3-SSL14_End_3-0
 10
0
 20
1966
 30
0
 41
1
 42
1
 43
0
 50
0
 70
    1
 71
    1
 44
0
 45
0
  0
INSERT
  5
1C6
100
AcDbEntity
  8
0
  6
ByLayer
 62
  256
370
   -1
100
AcDbBlockReference
  2
SSL1_Begin_0-NNL1_End_0-0
 10
2000
 20
186
 30
0
 41
1
 42
1
 43
0
 50
0
 70
    1
 71
    1
 44
0
 45
0
  0
INSERT
  5
1C7
100
AcDbEntity
  8
0
  6
ByLayer
 62
  256
370
   -1
100
AcDbBlockReference
  2
SSL1_Begin_1-NNL1_End_1-0
 10
2000
 20
190
 30
0
 41
1
 42
1
 43
0
 50
0
 70
    1
 71
    1
 44
0
 45
0
  0
INSERT
  5
1C8
100
AcDbEntity
  8
0
  6
ByLayer
 62
  256
370
   -1
100
AcDbBlockReference
  2
SSL1_Begin_2-NNL1_End_2-0
 10
2000
 20
194
 30
0
 41
1
 42
1
 43
0
 50
0
 70
    1
 71
    1
 44
0
 45
0
  0
INSERT
  5
1C9
100
AcDbEntity
  8
0
  6
ByLayer
 62
  256
370
   -1
100
AcDbBlockReference
  2
SSL1_Begin_3-NNL1_End_3-0
 10
2000
 20
198
 30
0
 41
1
 42
1
 43
0
 50
0
 70
    1
 71
    1
 44
0
 45
0
  0
INSERT
  5
1CA
100
AcDbEntity
  8
0
  6
ByLayer
 62
  256
370
   -1
100
AcDbBlockReference
  2
SSL1_Begin_4-NNL1_End_4-0
 10
2000
 20
202
 30
0
 41
1
 42
1
 43
0
 50
0
 70
    1
 71
    1
 44
0
 45
0
  0
INSERT
  5
1CB
100
AcDbEntity
  8
0
  6
ByLayer
 62
  256
370
   -1
100
AcDbBlockReference
  2
SSL1_Begin_5-NNL1_End_5-0
 10
2000
 20
206
 30
0
 41
1
 42
1
 43
0
 50
0
 70
    1
 71
    1
 44
0
 45
0
  0
INSERT
  5
1CC
100
AcDbEntity
  8
0
  6
ByLayer
 62
  256
370
   -1
100
AcDbBlockReference
  2
SSL1_Begin_6-NNL1_End_6-0
 10
2000
 20
210
 30
0
 41
1
 42
1
 43
0
 50
0
 70
    1
 71
    1
 44
0
 45
0
  0
INSERT
  5
1CD
100
AcDbEntity
  8
0
  6
ByLayer
 62
  256
370
   -1
100
AcDbBlockReference
  2
SSL1_Begin_7-NNL1_End_7-0
 10
2000
 20
214
 30
0
 41
1
 42
1
 43
0
 50
0
 70
    1
 71
    1
 44
0
 45
0
  0
INSERT
  5
1CE
100
AcDbEntity
  8
0
  6
ByLayer
 62
  256
370
   -1
100
AcDbBlockReference
  2
SSL2_Begin_0-NNL2_End_0-0
 10
2000
 20
154
 30
0
 41
1
 42
1
 43
0
 50
0
 70
    1
 71
    1
 44
0
 45
0
  0
INSERT
  5
1CF
100
AcDbEntity
  8
0
  6
ByLayer
 62
  256
370
   -1
100
AcDbBlockReference
  2
SSL2_Begin_1-NNL2_End_1-0
 10
2000
 20
158
 30
0
 41
1
 42
1
 43
0
 50
0
 70
    1
 71
    1
 44
0
 45
0
  0
INSERT
  5
1D0
100
AcDbEntity
  8
0
  6
ByLayer
 62
  256
370
   -1
100
AcDbBlockReference
  2
SSL2_Begin_2-NNL2_End_2-0
 10
2000
 20
162
 30
0
 41
1
 42
1
 43
0
 50
0
 70
    1
 71
    1
 44
0
 45
0
  0
INSERT
  5
1D1
100
AcDbEntity
  8
0
  6
ByLayer
 62
  256
370
   -1
100
AcDbBlockReference
  2
SSL2_Begin_3-NNL2_End_3-0
 10
2000
 20
166
 30
0
 41
1
 42
1
 43
0
 50
0
 70
    1
 71
    1
 44
0
 45
0
  0
INSERT
  5
1D2
100
AcDbEntity
  8
0
  6
ByLayer
 62
  256
370
   -1
100
AcDbBlockReference
  2
SSL2_Begin_4-NNL2_End_4-0
 10
2000
 20
170
 30
0
 41
1
 42
1
 43
0
 50
0
 70
    1
 71
    1
 44
0
 45
0
  0
INSERT
  5
1D3
100
AcDbEntity
  8
0
  6
ByLayer
 62
  256
370
   -1
100
AcDbBlockReference
  2
SSL2_Begin_5-NNL2_End_5-0
 10
2000
 20
174
 30
0
 41
1
 42
1
 43
0
 50
0
 70
    1
 71
    1
 44
0
 45
0
  0
INSERT
  5
1D4
100
AcDbEntity
  8
0
  6
ByLayer
 62
  256
370
   -1
100
AcDbBlockReference
  2
SSL2_Begin_6-NNL2_End_6-0
 10
2000
 20
178
 30
0
 41
1
 42
1
 43
0
 50
0
 70
    1
 71
    1
 44
0
 45
0
  0
INSERT
  5
1D5
100
AcDbEntity
  8
0
  6
ByLayer
 62
  256
370
   -1
100
AcDbBlockReference
  2
SSL2_Begin_7-NNL2_End_7-0
 10
2000
 20
182
 30
0
 41
1
 42
1
 43
0
 50
0
 70
    1
 71
    1
 44
0
 45
0
  0
INSERT
  5
1D6
100
AcDbEntity
  8
0
  6
ByLayer
 62
  256
370
   -1
100
AcDbBlockReference
  2
SSL3_Begin_0-NNL3_End_0-0
 10
2000
 20
122
 30
0
 41
1
 42
1
 43
0
 50
0
 70
    1
 71
    1
 44
0
 45
0
  0
INSERT
  5
1D7
100
AcDbEntity
  8
0
  6
ByLayer
 62
  256
370
   -1
100
AcDbBlockReference
  2
SSL3_Begin_1-NNL3_End_1-0
 10
2000
 20
126
 30
0
 41
1
 42
1
 43
0
 50
0
 70
    1
 71
    1
 44
0
 45
0
  0
INSERT
  5
1D8
100
AcDbEntity
  8
0
  6
ByLayer
 62
  256
370
   -1
100
AcDbBlockReference
  2
SSL3_Begin_2-NNL3_End_2-0
 10
2000
 20
130
 30
0
 41
1
 42
1
 43
0
 50
0
 70
    1
 71
    1
 44
0
 45
0
  0
INSERT
  5
1D9
100
AcDbEntity
  8
0
  6
ByLayer
 62
  256
370
   -1
100
AcDbBlockReference
  2
SSL3_Begin_3-NNL3_End_3-0
 10
2000
 20
134
 30
0
 41
1
 42
1
 43
0
 50
0
 70
    1
 71
    1
 44
0
 45
0
  0
INSERT
  5
1DA
100
AcDbEntity
  8
0
  6
ByLayer
 62
  256
370
   -1
100
AcDbBlockReference
  2
SSL3_Begin_4-NNL3_End_4-0
 10
2000
 20
138
 30
0
 41
1
 42
1
 43
0
 50
0
 70
    1
 71
    1
 44
0
 45
0
  0
INSERT
  5
1DB
100
AcDbEntity
  8
0
  6
ByLayer
 62
  256
370
   -1
100
AcDbBlockReference
  2
SSL3_Begin_5-NNL3_End_5-0
 10
2000
 20
142
 30
0
 41
1
 42
1
 43
0
 50
0
 70
    1
 71
    1
 44
0
 45
0
  0
INSERT
  5
1DC
100
AcDbEntity
  8
0
  6
ByLayer
 62
  256
370
   -1
100
AcDbBlockReference
  2
SSL3_Begin_6-NNL3_End_6-0
 10
2000
 20
146
 30
0
 41
1
 42
1
 43
0
 50
0
 70
    1
 71
    1
 44
0
 45
0
  0
INSERT
  5
1DD
100
AcDbEntity
  8
0
  6
ByLayer
 62
  256
370
   -1
100
AcDbBlockReference
  2
SSL3_Begin_7-NNL3_End_7-0
 10
2000
 20
150
 30
0
 41
1
 42
1
 43
0
 50
0
 70
    1
 71
    1
 44
0
 45
0
  0
INSERT
  5
1DE
100
AcDbEntity
  8
0
  6
ByLayer
 62
  256
370
   -1
100
AcDbBlockReference
  2
SSL4_Begin_0-NNL4_End_0-0
 10
2000
 20
78
 30
0
 41
1
 42
1
 43
0
 50
0
 70
    1
 71
    1
 44
0
 45
0
  0
INSERT
  5
1DF
100
AcDbEntity
  8
0
  6
ByLayer
 62
  256
370
   -1
100
AcDbBlockReference
  2
SSL4_Begin_1-NNL4_End_1-0
 10
2000
 20
82
 30
0
 41
1
 42
1
 43
0
 50
0
 70
    1
 71
    1
 44
0
 45
0
  0
INSERT
  5
1E0
100
AcDbEntity
  8
0
  6
ByLayer
 62
  256
370
   -1
100
AcDbBlockReference
  2
SSL4_Begin_2-NNL4_End_2-0
 10
2000
 20
86
 30
0
 41
1
 42
1
 43
0
 50
0
 70
    1
 71
    1
 44
0
 45
0
  0
INSERT
  5
1E1
100
AcDbEntity
  8
0
  6
ByLayer
 62
  256
370
   -1
100
AcDbBlockReference
  2
SSL4_Begin_3-NNL4_End_3-0
 10
2000
 20
90
 30
0
 41
1
 42
1
 43
0
 50
0
 70
    1
 71
    1
 44
0
 45
0
  0
INSERT
  5
1E2
100
AcDbEntity
  8
0
  6
ByLayer
 62
  256
370
   -1
100
AcDbBlockReference
  2
SSL4_Begin_4-NNL4_End_4-0
 10
2000
 20
94
 30
0
 41
1
 42
1
 43
0
 50
0
 70
    1
 71
    1
 44
0
 45
0
  0
INSERT
  5
1E3
100
AcDbEntity
  8
0
  6
ByLayer
 62
  256
370
   -1
100
AcDbBlockReference
  2
SSL4_Begin_5-NNL4_End_5-0
 10
2000
 20
98
 30
0
 41
1
 42
1
 43
0
 50
0
 70
    1
 71
    1
 44
0
 45
0
  0
INSERT
  5
1E4
100
AcDbEntity
  8
0
  6
ByLayer
 62
  256
370
   -1
100
AcDbBlockReference
  2
SSL6_Begin_0-NNL6_End_0-0
 10
2000
 20
38
 30
0
 41
1
 42
1
 43
0
 50
0
 70
    1
 71
    1
 44
0
 45
0
  0
INSERT
  5
1E5
100
AcDbEntity
  8
0
  6
ByLayer
 62
  256
370
   -1
100
AcDbBlockReference
  2
SSL6_Begin_1-NNL6_End_1-0
 10
2000
 20
42
 30
0
 41
1
 42
1
 43
0
 50
0
 70
    1
 71
    1
 44
0
 45
0
  0
INSERT
  5
1E6
100
AcDbEntity
  8
0
  6
ByLayer
 62
  256
370
   -1
100
AcDbBlockReference
  2
SSL6_Begin_2-NNL6_End_2-0
 10
2000
 20
46
 30
0
 41
1
 42
1
 43
0
 50
0
 70
    1
 71
    1
 44
0
 45
0
  0
INSERT
  5
1E7
100
AcDbEntity
  8
0
  6
ByLayer
 62
  256
370
   -1
100
AcDbBlockReference
  2
SSL6_Begin_3-NNL6_End_3-0
 10
2000
 20
50
 30
0
 41
1
 42
1
 43
0
 50
0
 70
    1
 71
    1
 44
0
 45
0
  0
INSERT
  5
1E8
100
AcDbEntity
  8
0
  6
ByLayer
 62
  256
370
   -1
100
AcDbBlockReference
  2
SSL6_Begin_4-NNL6_End_4-0
 10
2000
 20
54
 30
0
 41
1
 42
1
 43
0
 50
0
 70
    1
 71
    1
 44
0
 45
0
  0
INSERT
  5
1E9
100
AcDbEntity
  8
0
  6
ByLayer
 62
  256
370
   -1
100
AcDbBlockReference
  2
SSL6_Begin_5-NNL6_End_5-0
 10
2000
 20
58
 30
0
 41
1
 42
1
 43
0
 50
0
 70
    1
 71
    1
 44
0
 45
0
  0
INSERT
  5
1EA
100
AcDbEntity
  8
0
  6
ByLayer
 62
  256
370
   -1
100
AcDbBlockReference
  2
SSL6_Begin_6-NNL6_End_6-0
 10
2000
 20
62
 30
0
 41
1
 42
1
 43
0
 50
0
 70
    1
 71
    1
 44
0
 45
0
  0
INSERT
  5
1EB
100
AcDbEntity
  8
0
  6
ByLayer
 62
  256
370
   -1
100
AcDbBlockReference
  2
SSL6_Begin_7-NNL6_End_7-0
 10
2000
 20
66
 30
0
 41
1
 42
1
 43
0
 50
0
 70
    1
 71
    1
 44
0
 45
0
  0
INSERT
  5
1EC
100
AcDbEntity
  8
0
  6
ByLayer
 62
  256
370
   -1
100
AcDbBlockReference
  2
SSL14_Begin_0-NNL14_End_0-0
 10
2000
 20
22
 30
0
 41
1
 42
1
 43
0
 50
0
 70
    1
 71
    1
 44
0
 45
0
  0
INSERT
  5
1ED
100
AcDbEntity
  8
0
  6
ByLayer
 62
  256
370
   -1
100
AcDbBlockReference
  2
SSL14_Begin_1-NNL14_End_1-0
 10
2000
 20
26
 30
0
 41
1
 42
1
 43
0
 50
0
 70
    1
 71
    1
 44
0
 45
0
  0
INSERT
  5
1EE
100
AcDbEntity
  8
0
  6
ByLayer
 62
  256
370
   -1
100
AcDbBlockReference
  2
SSL14_Begin_2-NNL14_End_2-0
 10
2000
 20
30
 30
0
 41
1
 42
1
 43
0
 50
0
 70
    1
 71
    1
 44
0
 45
0
  0
INSERT
  5
1EF
100
AcDbEntity
  8
0
  6
ByLayer
 62
  256
370
   -1
100
AcDbBlockReference
  2
SSL14_Begin_3-NNL14_End_3-0
 10
2000
 20
34
 30
0
 41
1
 42
1
 43
0
 50
0
 70
    1
 71
    1
 44
0
 45
0
  0
INSERT
  5
1F0
100
AcDbEntity
  8
0
  6
ByLayer
 62
  256
370
   -1
100
AcDbBlockReference
  2
NNL2_Begin_1-SSL2_End_1-0
 10
0
 20
1842
 30
0
 41
1
 42
1
 43
0
 50
0
 70
    1
 71
    1
 44
0
 45
0
  0
ENDSEC
  0
SECTION
  2
OBJECTS
  0
DICTIONARY
  5
C
330
0
100
AcDbDictionary
281
    1
  3
ACAD_GROUP
350
D
  0
DICTIONARY
  5
D
330
C
100
AcDbDictionary
281
    1
  0
PLOTSETTINGS
  5
1F1
100
AcDbPlotSettings
  6
1x1
 40
0
 41
0
 42
0
 43
0
  0
ENDSEC
  0
EOF
