999
dxfrw 0.6.3
  0
SECTION
  2
HEADER
  9
$ACADVER
  1
AC1021
  9
$DWGCODEPAGE
  3
ANSI_1252
  9
$INSBASE
 10
0
 20
0
 30
0
  9
$EXTMIN
 10
-235
 20
-31194
 30
0
  9
$EXTMAX
 10
2235
 20
33194
 30
0
  9
$LIMMIN
 10
0
 20
0
  9
$LIMMAX
 10
420
 20
297
  9
$ORTHOMODE
 70
    0
  9
$REGENMODE
 70
    1
  9
$FILLMODE
 70
    1
  9
$QTEXTMODE
 70
    0
  9
$MIRRTEXT
 70
    0
  9
$LTSCALE
 40
1
  9
$ATTMODE
 70
    0
  9
$TEXTSIZE
 40
2.5
  9
$TRACEWID
 40
15.68
  9
$TEXTSTYLE
  7
STANDARD
  9
$CLAYER
  8
0
  9
$CELTYPE
  6
BYLAYER
  9
$CECOLOR
 62
  256
  9
$CELTSCALE
 40
1
  9
$DISPSILH
 70
    0
  9
$DIMSCALE
 40
2.5
  9
$DIMASZ
 40
2.5
  9
$DIMEXO
 40
0.625
  9
$DIMDLI
 40
3.75
  9
$DIMRND
 40
0
  9
$DIMDLE
 40
0
  9
$DIMEXE
 40
1.25
  9
$DIMTP
 40
0
  9
$DIMTM
 40
0
  9
$DIMTXT
 40
2.5
  9
$DIMCEN
 40
2.5
  9
$DIMTSZ
 40
0
  9
$DIMTOL
 70
    0
  9
$DIMLIM
 70
    0
  9
$DIMTIH
 70
    0
  9
$DIMTOH
 70
    0
  9
$DIMSE1
 70
    0
  9
$DIMSE2
 70
    0
  9
$DIMTAD
 70
    1
  9
$DIMZIN
 70
    8
  9
$DIMBLK
  1

  9
$DIMASO
 70
    1
  9
$DIMSHO
 70
    1
  9
$DIMPOST
  1

  9
$DIMAPOST
  1

  9
$DIMALT
 70
    0
  9
$DIMALTD
 70
    3
  9
$DIMALTF
 40
0.03937
  9
$DIMLFAC
 40
1
  9
$DIMTOFL
 70
    1
  9
$DIMTVP
 40
0
  9
$DIMTIX
 70
    0
  9
$DIMSOXD
 70
    0
  9
$DIMSAH
 70
    0
  9
$DIMBLK1
  1

  9
$DIMBLK2
  1

  9
$DIMSTYLE
  2
STANDARD
  9
$DIMCLRD
 70
    0
  9
$DIMCLRE
 70
    0
  9
$DIMCLRT
 70
    0
  9
$DIMTFAC
 40
1
  9
$DIMGAP
 40
0.625
  9
$DIMJUST
 70
    0
  9
$DIMSD1
 70
    0
  9
$DIMSD2
 70
    0
  9
$DIMTOLJ
 70
    0
  9
$DIMTZIN
 70
    8
  9
$DIMALTZ
 70
    0
  9
$DIMALTTZ
 70
    0
  9
$DIMUPT
 70
    0
  9
$DIMDEC
 70
    2
  9
$DIMTDEC
 70
    2
  9
$DIMALTU
 70
    2
  9
$DIMALTTD
 70
    3
  9
$DIMTXSTY
  7
STANDARD
  9
$DIMAUNIT
 70
    0
  9
$DIMADEC
 70
    0
  9
$DIMALTRND
 40
0
  9
$DIMAZIN
 70
    0
  9
$DIMDSEP
 70
   44
  9
$DIMATFIT
 70
    3
  9
$DIMFRAC
 70
    0
  9
$DIMLDRBLK
  1
STANDARD
  9
$DIMLUNIT
 70
    2
  9
$DIMLWD
 70
   -2
  9
$DIMLWE
 70
   -2
  9
$DIMTMOVE
 70
    0
  9
$DIMFXL
 40
1
  9
$DIMFXLON
 70
    0
  9
$DIMJOGANG
 40
0.7854
  9
$DIMTFILL
 70
    0
  9
$DIMTFILLCLR
 70
    0
  9
$DIMARCSYM
 70
    0
  9
$DIMLTYPE
  6

  9
$DIMLTEX1
  6

  9
$DIMLTEX2
  6

  9
$LUNITS
 70
    2
  9
$LUPREC
 70
    4
  9
$SKETCHINC
 40
1
  9
$FILLETRAD
 40
0
  9
$AUNITS
 70
    0
  9
$AUPREC
 70
    2
  9
$MENU
  1
.
  9
$ELEVATION
 40
0
  9
$PELEVATION
 40
0
  9
$THICKNESS
 40
0
  9
$LIMCHECK
 70
    0
  9
$CHAMFERA
 40
0
  9
$CHAMFERB
 40
0
  9
$CHAMFERC
 40
0
  9
$CHAMFERD
 40
0
  9
$SKPOLY
 70
    0
  9
$USRTIMER
 70
    1
  9
$ANGBASE
 50
0
  9
$ANGDIR
 70
    0
  9
$PDMODE
 70
   34
  9
$PDSIZE
 40
0
  9
$PLINEWID
 40
0
  9
$SPLFRAME
 70
    0
  9
$SPLINETYPE
 70
    2
  9
$SPLINESEGS
 70
    8
  9
$HANDSEED
  5
20000
  9
$SURFTAB1
 70
    6
  9
$SURFTAB2
 70
    6
  9
$SURFTYPE
 70
    6
  9
$SURFU
 70
    6
  9
$SURFV
 70
    6
  9
$UCSBASE
  2

  9
$UCSNAME
  2

  9
$UCSORG
 10
0
 20
0
 30
0
  9
$UCSXDIR
 10
1
 20
0
 30
0
  9
$UCSYDIR
 10
0
 20
1
 30
0
  9
$UCSORTHOREF
  2

  9
$UCSORTHOVIEW
 70
    0
  9
$UCSORGTOP
 10
0
 20
0
 30
0
  9
$UCSORGBOTTOM
 10
0
 20
0
 30
0
  9
$UCSORGLEFT
 10
0
 20
0
 30
0
  9
$UCSORGRIGHT
 10
0
 20
0
 30
0
  9
$UCSORGFRONT
 10
0
 20
0
 30
0
  9
$UCSORGBACK
 10
0
 20
0
 30
0
  9
$PUCSBASE
  2

  9
$PUCSNAME
  2

  9
$PUCSORG
 10
0
 20
0
 30
0
  9
$PUCSXDIR
 10
1
 20
0
 30
0
  9
$PUCSYDIR
 10
0
 20
1
 30
0
  9
$PUCSORTHOREF
  2

  9
$PUCSORTHOVIEW
 70
    0
  9
$PUCSORGTOP
 10
0
 20
0
 30
0
  9
$PUCSORGBOTTOM
 10
0
 20
0
 30
0
  9
$PUCSORGLEFT
 10
0
 20
0
 30
0
  9
$PUCSORGRIGHT
 10
0
 20
0
 30
0
  9
$PUCSORGFRONT
 10
0
 20
0
 30
0
  9
$PUCSORGBACK
 10
0
 20
0
 30
0
  9
$USERI1
 70
    0
  9
$USERI2
 70
    0
  9
$USERI3
 70
    0
  9
$USERI4
 70
    0
  9
$USERI5
 70
    0
  9
$USERR1
 40
0
  9
$USERR2
 40
0
  9
$USERR3
 40
0
  9
$USERR4
 40
0
  9
$USERR5
 40
0
  9
$WORLDVIEW
 70
    1
  9
$SHADEDGE
 70
    3
  9
$SHADEDIF
 70
   70
  9
$TILEMODE
 70
    1
  9
$MAXACTVP
 70
   64
  9
$PINSBASE
 10
0
 20
0
 30
0
  9
$PLIMCHECK
 70
    0
  9
$PEXTMIN
 10
0
 20
0
 30
0
  9
$PEXTMAX
 10
0
 20
0
 30
0
  9
$SNAPSTYLE
 70
    0
  9
$PLIMMIN
 10
0
 20
0
  9
$PLIMMAX
 10
210000000
 20
297000000
  9
$UNITMODE
 70
    0
  9
$VISRETAIN
 70
    1
  9
$PLINEGEN
 70
    0
  9
$PSLTSCALE
 70
    1
  9
$TREEDEPTH
 70
 3020
  9
$CMLSTYLE
  2
Standard
  9
$CMLJUST
 70
    0
  9
$CMLSCALE
 40
20
  9
$PROXYGRAPHICS
 70
    1
  9
$MEASUREMENT
 70
    1
  9
$CELWEIGHT
370
   -1
  9
$ENDCAPS
280
    0
  9
$JOINSTYLE
280
    0
  9
$LWDISPLAY
290
    0
  9
$INSUNITS
 70
    0
  9
$HYPERLINKBASE
  1

  9
$STYLESHEET
  1

  9
$XEDIT
290
    1
  9
$CEPSNTYPE
380
    0
  9
$PSTYLEMODE
290
    1
  9
$EXTNAMES
290
    1
  9
$PSVPSCALE
 40
1
  9
$OLESTARTUP
290
    0
  9
$SORTENTS
280
  127
  9
$INDEXCTL
280
    0
  9
$HIDETEXT
280
    1
  9
$XCLIPFRAME
290
    0
  9
$HALOGAP
280
    0
  9
$OBSCOLOR
 70
  257
  9
$OBSLTYPE
280
    0
  9
$INTERSECTIONDISPLAY
280
    0
  9
$INTERSECTIONCOLOR
 70
  257
  9
$DIMASSOC
280
    1
  9
$PROJECTNAME
  1

  9
$CAMERADISPLAY
290
    0
  9
$LENSLENGTH
 40
50
  9
$CAMERAHEIGHT
 40
0
  9
$STEPSPERSEC
 40
2
  9
$STEPSIZE
 40
50
  9
$3DDWFPREC
 40
2
  9
$PSOLWIDTH
 40
5
  9
$PSOLHEIGHT
 40
80
  9
$LOFTANG1
 40
1.570796326794897
  9
$LOFTANG2
 40
1.570796326794897
  9
$LOFTMAG1
 40
0
  9
$LOFTMAG2
 40
0
  9
$LOFTPARAM
 70
    7
  9
$LOFTNORMALS
280
    1
  9
$LATITUDE
 40
1
  9
$LONGITUDE
 40
1
  9
$NORTHDIRECTION
 40
0
  9
$TIMEZONE
 70
-8000
  9
$LIGHTGLYPHDISPLAY
280
    1
  9
$TILEMODELIGHTSYNCH
280
    1
  9
$SOLIDHIST
280
    1
  9
$SHOWHIST
280
    1
  9
$DWFFRAME
280
    2
  9
$DGNFRAME
280
    0
  9
$REALWORLDSCALE
290
    1
  9
$INTERFERECOLOR
 62
    1
  9
$CSHADOW
280
    0
  9
$SHADOWPLANELOCATION
 40
0
  0
ENDSEC
  0
SECTION
  2
CLASSES
  0
ENDSEC
  0
SECTION
  2
TABLES
  0
TABLE
  2
VPORT
  5
8
330
0
100
AcDbSymbolTable
 70
    1
  0
VPORT
  5
31
330
2
100
AcDbSymbolTableRecord
100
AcDbViewportTableRecord
  2
*ACTIVE
 70
    0
 10
0
 20
0
 11
1
 21
1
 12
1972.041658032865
 22
1765.567210931133
 13
0
 23
0
 14
10
 24
10
 15
10
 25
10
 16
0
 26
0
 36
1
 17
0
 27
0
 37
0
 40
4917.462852402464
 41
1.794344473007712
 42
50
 43
0
 44
0
 50
0
 51
0
 71
    0
 72
  100
 73
    1
 74
    3
 75
    0
 76
    1
 77
    0
 78
    0
281
    0
 65
    1
110
0
120
0
130
0
111
1
121
0
131
0
112
0
122
1
132
0
 79
    0
146
0
348
10020
 60
    7
 61
    5
292
1
282
    1
141
0
142
0
 63
  250
421
3358443
  0
ENDTAB
  0
TABLE
  2
LTYPE
  5
5
330
0
100
AcDbSymbolTable
 70
    4
  0
LTYPE
  5
14
330
5
100
AcDbSymbolTableRecord
100
AcDbLinetypeTableRecord
  2
ByBlock
 70
    0
  3

 72
   65
 73
    0
 40
0
  0
LTYPE
  5
15
330
5
100
AcDbSymbolTableRecord
100
AcDbLinetypeTableRecord
  2
ByLayer
 70
    0
  3

 72
   65
 73
    0
 40
0
  0
LTYPE
  5
16
330
5
100
AcDbSymbolTableRecord
100
AcDbLinetypeTableRecord
  2
Continuous
 70
    0
  3
Solid line
 72
   65
 73
    0
 40
0
  0
LTYPE
  5
32
330
5
100
AcDbSymbolTableRecord
100
AcDbLinetypeTableRecord
  2
DOT
 70
    0
  3
Dot . . . . . . . . . . . . . . . . . . . . . .
 72
   65
 73
    2
 40
6.35
 49
0
 74
    0
 49
-6.35
 74
    0
  0
LTYPE
  5
33
330
5
100
AcDbSymbolTableRecord
100
AcDbLinetypeTableRecord
  2
DOTTINY
 70
    0
  3
Dot (.15x) .....................................
 72
   65
 73
    2
 40
0.9525
 49
0
 74
    0
 49
-0.9525
 74
    0
  0
LTYPE
  5
34
330
5
100
AcDbSymbolTableRecord
100
AcDbLinetypeTableRecord
  2
DOT2
 70
    0
  3
Dot (.5x) .....................................
 72
   65
 73
    2
 40
3.175
 49
0
 74
    0
 49
-3.175
 74
    0
  0
LTYPE
  5
35
330
5
100
AcDbSymbolTableRecord
100
AcDbLinetypeTableRecord
  2
DOTX2
 70
    0
  3
Dot (2x) .  .  .  .  .  .  .  .  .  .  .  .  .
 72
   65
 73
    2
 40
12.7
 49
0
 74
    0
 49
-12.7
 74
    0
  0
LTYPE
  5
36
330
5
100
AcDbSymbolTableRecord
100
AcDbLinetypeTableRecord
  2
DASHED
 70
    0
  3
Dashed _ _ _ _ _ _ _ _ _ _ _ _ _ _ _ _ _
 72
   65
 73
    2
 40
19.05
 49
12.7
 74
    0
 49
-6.35
 74
    0
  0
LTYPE
  5
37
330
5
100
AcDbSymbolTableRecord
100
AcDbLinetypeTableRecord
  2
DASHEDTINY
 70
    0
  3
Dashed (.15x) _ _ _ _ _ _ _ _ _ _ _ _ _ _ _ _ _
 72
   65
 73
    2
 40
2.8575
 49
1.905
 74
    0
 49
-0.9525
 74
    0
  0
LTYPE
  5
38
330
5
100
AcDbSymbolTableRecord
100
AcDbLinetypeTableRecord
  2
DASHED2
 70
    0
  3
Dashed (.5x) _ _ _ _ _ _ _ _ _ _ _ _ _ _ _ _ _
 72
   65
 73
    2
 40
9.524999999999999
 49
6.35
 74
    0
 49
-3.175
 74
    0
  0
LTYPE
  5
39
330
5
100
AcDbSymbolTableRecord
100
AcDbLinetypeTableRecord
  2
DASHEDX2
 70
    0
  3
Dashed (2x) ____  ____  ____  ____  ____  ___
 72
   65
 73
    2
 40
38.09999999999999
 49
25.4
 74
    0
 49
-12.7
 74
    0
  0
LTYPE
  5
3A
330
5
100
AcDbSymbolTableRecord
100
AcDbLinetypeTableRecord
  2
DASHDOT
 70
    0
  3
Dash dot __ . __ . __ . __ . __ . __ . __ . __
 72
   65
 73
    4
 40
25.4
 49
12.7
 74
    0
 49
-6.35
 74
    0
 49
0
 74
    0
 49
-6.35
 74
    0
  0
LTYPE
  5
3B
330
5
100
AcDbSymbolTableRecord
100
AcDbLinetypeTableRecord
  2
DASHDOTTINY
 70
    0
  3
Dash dot (.15x) _._._._._._._._._._._._._._._.
 72
   65
 73
    4
 40
3.81
 49
1.905
 74
    0
 49
-0.9525
 74
    0
 49
0
 74
    0
 49
-0.9525
 74
    0
  0
LTYPE
  5
3C
330
5
100
AcDbSymbolTableRecord
100
AcDbLinetypeTableRecord
  2
DASHDOT2
 70
    0
  3
Dash dot (.5x) _._._._._._._._._._._._._._._.
 72
   65
 73
    4
 40
12.7
 49
6.35
 74
    0
 49
-3.175
 74
    0
 49
0
 74
    0
 49
-3.175
 74
    0
  0
LTYPE
  5
3D
330
5
100
AcDbSymbolTableRecord
100
AcDbLinetypeTableRecord
  2
DASHDOTX2
 70
    0
  3
Dash dot (2x) ____  .  ____  .  ____  .  ___
 72
   65
 73
    4
 40
50.8
 49
25.4
 74
    0
 49
-12.7
 74
    0
 49
0
 74
    0
 49
-12.7
 74
    0
  0
LTYPE
  5
3E
330
5
100
AcDbSymbolTableRecord
100
AcDbLinetypeTableRecord
  2
DIVIDE
 70
    0
  3
Divide ____ . . ____ . . ____ . . ____ . . ____
 72
   65
 73
    6
 40
31.75
 49
12.7
 74
    0
 49
-6.35
 74
    0
 49
0
 74
    0
 49
-6.35
 74
    0
 49
0
 74
    0
 49
-6.35
 74
    0
  0
LTYPE
  5
3F
330
5
100
AcDbSymbolTableRecord
100
AcDbLinetypeTableRecord
  2
DIVIDETINY
 70
    0
  3
Divide (.15x) __..__..__..__..__..__..__..__.._
 72
   65
 73
    6
 40
4.7625
 49
1.905
 74
    0
 49
-0.9525
 74
    0
 49
0
 74
    0
 49
-0.9525
 74
    0
 49
0
 74
    0
 49
-0.9525
 74
    0
  0
LTYPE
  5
40
330
5
100
AcDbSymbolTableRecord
100
AcDbLinetypeTableRecord
  2
DIVIDE2
 70
    0
  3
Divide (.5x) __..__..__..__..__..__..__..__.._
 72
   65
 73
    6
 40
15.875
 49
6.35
 74
    0
 49
-3.175
 74
    0
 49
0
 74
    0
 49
-3.175
 74
    0
 49
0
 74
    0
 49
-3.175
 74
    0
  0
LTYPE
  5
41
330
5
100
AcDbSymbolTableRecord
100
AcDbLinetypeTableRecord
  2
DIVIDEX2
 70
    0
  3
Divide (2x) ________  .  .  ________  .  .  _
 72
   65
 73
    6
 40
63.5
 49
25.4
 74
    0
 49
-12.7
 74
    0
 49
0
 74
    0
 49
-12.7
 74
    0
 49
0
 74
    0
 49
-12.7
 74
    0
  0
LTYPE
  5
42
330
5
100
AcDbSymbolTableRecord
100
AcDbLinetypeTableRecord
  2
BORDER
 70
    0
  3
Border __ __ . __ __ . __ __ . __ __ . __ __ .
 72
   65
 73
    6
 40
44.45
 49
12.7
 74
    0
 49
-6.35
 74
    0
 49
12.7
 74
    0
 49
-6.35
 74
    0
 49
0
 74
    0
 49
-6.35
 74
    0
  0
LTYPE
  5
43
330
5
100
AcDbSymbolTableRecord
100
AcDbLinetypeTableRecord
  2
BORDERTINY
 70
    0
  3
Border (.15x) __.__.__.__.__.__.__.__.__.__.__.
 72
   65
 73
    6
 40
6.6675
 49
1.905
 74
    0
 49
-0.9525
 74
    0
 49
1.905
 74
    0
 49
-0.9525
 74
    0
 49
0
 74
    0
 49
-0.9525
 74
    0
  0
LTYPE
  5
44
330
5
100
AcDbSymbolTableRecord
100
AcDbLinetypeTableRecord
  2
BORDER2
 70
    0
  3
Border (.5x) __.__.__.__.__.__.__.__.__.__.__.
 72
   65
 73
    6
 40
22.225
 49
6.35
 74
    0
 49
-3.175
 74
    0
 49
6.35
 74
    0
 49
-3.175
 74
    0
 49
0
 74
    0
 49
-3.175
 74
    0
  0
LTYPE
  5
45
330
5
100
AcDbSymbolTableRecord
100
AcDbLinetypeTableRecord
  2
BORDERX2
 70
    0
  3
Border (2x) ____  ____  .  ____  ____  .  ___
 72
   65
 73
    6
 40
88.89999999999999
 49
25.4
 74
    0
 49
-12.7
 74
    0
 49
25.4
 74
    0
 49
-12.7
 74
    0
 49
0
 74
    0
 49
-12.7
 74
    0
  0
LTYPE
  5
46
330
5
100
AcDbSymbolTableRecord
100
AcDbLinetypeTableRecord
  2
CENTER
 70
    0
  3
Center ____ _ ____ _ ____ _ ____ _ ____ _ ____
 72
   65
 73
    4
 40
50.8
 49
31.75
 74
    0
 49
-6.35
 74
    0
 49
6.35
 74
    0
 49
-6.35
 74
    0
  0
LTYPE
  5
47
330
5
100
AcDbSymbolTableRecord
100
AcDbLinetypeTableRecord
  2
CENTERTINY
 70
    0
  3
Center (.15x) ___ _ ___ _ ___ _ ___ _ ___ _ ___
 72
   65
 73
    4
 40
7.62
 49
4.7625
 74
    0
 49
-0.9525
 74
    0
 49
0.9525
 74
    0
 49
-0.9525
 74
    0
  0
LTYPE
  5
48
330
5
100
AcDbSymbolTableRecord
100
AcDbLinetypeTableRecord
  2
CENTER2
 70
    0
  3
Center (.5x) ___ _ ___ _ ___ _ ___ _ ___ _ ___
 72
   65
 73
    4
 40
28.575
 49
19.05
 74
    0
 49
-3.175
 74
    0
 49
3.175
 74
    0
 49
-3.175
 74
    0
  0
LTYPE
  5
49
330
5
100
AcDbSymbolTableRecord
100
AcDbLinetypeTableRecord
  2
CENTERX2
 70
    0
  3
Center (2x) ________  __  ________  __  _____
 72
   65
 73
    4
 40
101.6
 49
63.5
 74
    0
 49
-12.7
 74
    0
 49
12.7
 74
    0
 49
-12.7
 74
    0
  0
ENDTAB
  0
TABLE
  2
LAYER
  5
2
330
0
100
AcDbSymbolTable
 70
    1
  0
LAYER
  5
10
330
2
100
AcDbSymbolTableRecord
100
AcDbLayerTableRecord
  2
0
 70
    0
 62
    7
  6
CONTINUOUS
370
    0
390
F
  0
ENDTAB
  0
TABLE
  2
STYLE
  5
3
330
0
100
AcDbSymbolTable
 70
    3
  0
STYLE
  5
4A
330
2
100
AcDbSymbolTableRecord
100
AcDbTextStyleTableRecord
  2
Standard
 70
    0
 40
0
 41
1
 50
0
 71
    0
 42
1
  3
txt
  4

  0
ENDTAB
  0
TABLE
  2
VIEW
  5
6
330
0
100
AcDbSymbolTable
 70
    0
  0
ENDTAB
  0
TABLE
  2
UCS
  5
7
330
0
100
AcDbSymbolTable
 70
    0
  0
ENDTAB
  0
TABLE
  2
APPID
  5
9
330
0
100
AcDbSymbolTable
 70
    1
  0
APPID
  5
12
330
9
100
AcDbSymbolTableRecord
100
AcDbRegAppTableRecord
  2
ACAD
 70
    0
  0
APPID
  5
4B
330
9
100
AcDbSymbolTableRecord
100
AcDbRegAppTableRecord
  2
LibreCad
 70
    0
  0
ENDTAB
  0
TABLE
  2
DIMSTYLE
  5
A
330
0
100
AcDbSymbolTable
 70
    1
100
AcDbDimStyleTable
 71
    1
  0
DIMSTYLE
105
4C
330
A
100
AcDbSymbolTableRecord
100
AcDbDimStyleTableRecord
  2
Standard
 70
    0
 40
1
 41
2.5
 42
0.625
 43
0.38
 44
1.25
 45
0
 46
0
 47
0
 48
0
 49
1
140
2.5
141
0.09
142
2.5
143
25.4
144
1
145
0
146
1
147
0.625
148
0
 71
    0
 72
    0
 73
    0
 74
    1
 75
    0
 76
    0
 77
    0
 78
    1
 79
    0
170
    0
171
    2
172
    0
173
    0
174
    0
175
    0
176
    0
177
    0
178
    0
179
    0
271
    2
272
    4
273
    2
274
    2
275
    0
276
    0
277
    2
278
    0
279
    0
280
    0
281
    0
282
    0
283
    1
284
    0
285
    0
286
    0
288
    0
289
    3
340
standard
341

371
   -2
372
   -2
  0
ENDTAB
  0
TABLE
  2
BLOCK_RECORD
  5
1
330
0
100
AcDbSymbolTable
 70
    2
  0
BLOCK_RECORD
  5
1F
330
1
100
AcDbSymbolTableRecord
100
AcDbBlockTableRecord
  2
*Model_Space
 70
    0
280
    1
281
    0
  0
BLOCK_RECORD
  5
1E
330
1
100
AcDbSymbolTableRecord
100
AcDbBlockTableRecord
  2
*Paper_Space
 70
    0
280
    1
281
    0
  0
BLOCK_RECORD
  5
4D
330
1
100
AcDbSymbolTableRecord
100
AcDbBlockTableRecord
  2
SS1_BEG_00-NN1_END_00-0
 70
    0
280
    1
281
    0
  0
BLOCK_RECORD
  5
50
330
1
100
AcDbSymbolTableRecord
100
AcDbBlockTableRecord
  2
SS1_BEG_01-NN1_END_01-0
 70
    0
280
    1
281
    0
  0
BLOCK_RECORD
  5
53
330
1
100
AcDbSymbolTableRecord
100
AcDbBlockTableRecord
  2
SS1_BEG_02-NN1_END_02-0
 70
    0
280
    1
281
    0
  0
BLOCK_RECORD
  5
56
330
1
100
AcDbSymbolTableRecord
100
AcDbBlockTableRecord
  2
SS1_BEG_03-NN1_END_03-0
 70
    0
280
    1
281
    0
  0
BLOCK_RECORD
  5
59
330
1
100
AcDbSymbolTableRecord
100
AcDbBlockTableRecord
  2
SS1_BEG_04-NN1_END_04-0
 70
    0
280
    1
281
    0
  0
BLOCK_RECORD
  5
5C
330
1
100
AcDbSymbolTableRecord
100
AcDbBlockTableRecord
  2
SS1_BEG_05-NN1_END_05-0
 70
    0
280
    1
281
    0
  0
BLOCK_RECORD
  5
5F
330
1
100
AcDbSymbolTableRecord
100
AcDbBlockTableRecord
  2
SS1_BEG_06-NN1_END_06-0
 70
    0
280
    1
281
    0
  0
BLOCK_RECORD
  5
62
330
1
100
AcDbSymbolTableRecord
100
AcDbBlockTableRecord
  2
SS1_BEG_07-NN1_END_07-0
 70
    0
280
    1
281
    0
  0
BLOCK_RECORD
  5
65
330
1
100
AcDbSymbolTableRecord
100
AcDbBlockTableRecord
  2
SS1_BEG_08-NN1_END_08-0
 70
    0
280
    1
281
    0
  0
BLOCK_RECORD
  5
68
330
1
100
AcDbSymbolTableRecord
100
AcDbBlockTableRecord
  2
SS1_BEG_09-NN1_END_09-0
 70
    0
280
    1
281
    0
  0
BLOCK_RECORD
  5
6B
330
1
100
AcDbSymbolTableRecord
100
AcDbBlockTableRecord
  2
SS1_BEG_10-NN1_END_10-0
 70
    0
280
    1
281
    0
  0
BLOCK_RECORD
  5
6E
330
1
100
AcDbSymbolTableRecord
100
AcDbBlockTableRecord
  2
SS1_BEG_11-NN1_END_11-0
 70
    0
280
    1
281
    0
  0
BLOCK_RECORD
  5
71
330
1
100
AcDbSymbolTableRecord
100
AcDbBlockTableRecord
  2
SS1_BEG_12-NN1_END_12-0
 70
    0
280
    1
281
    0
  0
BLOCK_RECORD
  5
74
330
1
100
AcDbSymbolTableRecord
100
AcDbBlockTableRecord
  2
SS1_BEG_13-NN1_END_13-0
 70
    0
280
    1
281
    0
  0
BLOCK_RECORD
  5
77
330
1
100
AcDbSymbolTableRecord
100
AcDbBlockTableRecord
  2
SS1_BEG_14-NN1_END_14-0
 70
    0
280
    1
281
    0
  0
BLOCK_RECORD
  5
7A
330
1
100
AcDbSymbolTableRecord
100
AcDbBlockTableRecord
  2
SS1_BEG_15-NN1_END_15-0
 70
    0
280
    1
281
    0
  0
BLOCK_RECORD
  5
7D
330
1
100
AcDbSymbolTableRecord
100
AcDbBlockTableRecord
  2
SS2_BEG_00-NN2_END_00-0
 70
    0
280
    1
281
    0
  0
BLOCK_RECORD
  5
80
330
1
100
AcDbSymbolTableRecord
100
AcDbBlockTableRecord
  2
SS2_BEG_01-NN2_END_01-0
 70
    0
280
    1
281
    0
  0
BLOCK_RECORD
  5
83
330
1
100
AcDbSymbolTableRecord
100
AcDbBlockTableRecord
  2
SS2_BEG_02-NN2_END_02-0
 70
    0
280
    1
281
    0
  0
BLOCK_RECORD
  5
86
330
1
100
AcDbSymbolTableRecord
100
AcDbBlockTableRecord
  2
SS2_BEG_03-NN2_END_03-0
 70
    0
280
    1
281
    0
  0
BLOCK_RECORD
  5
89
330
1
100
AcDbSymbolTableRecord
100
AcDbBlockTableRecord
  2
SS2_BEG_04-NN2_END_04-0
 70
    0
280
    1
281
    0
  0
BLOCK_RECORD
  5
8C
330
1
100
AcDbSymbolTableRecord
100
AcDbBlockTableRecord
  2
SS2_BEG_05-NN2_END_05-0
 70
    0
280
    1
281
    0
  0
BLOCK_RECORD
  5
8F
330
1
100
AcDbSymbolTableRecord
100
AcDbBlockTableRecord
  2
SS2_BEG_06-NN2_END_06-0
 70
    0
280
    1
281
    0
  0
BLOCK_RECORD
  5
92
330
1
100
AcDbSymbolTableRecord
100
AcDbBlockTableRecord
  2
SS2_BEG_07-NN2_END_07-0
 70
    0
280
    1
281
    0
  0
BLOCK_RECORD
  5
95
330
1
100
AcDbSymbolTableRecord
100
AcDbBlockTableRecord
  2
SS4_BEG_00-NN4_END_00-0
 70
    0
280
    1
281
    0
  0
BLOCK_RECORD
  5
98
330
1
100
AcDbSymbolTableRecord
100
AcDbBlockTableRecord
  2
SS4_BEG_01-NN4_END_01-0
 70
    0
280
    1
281
    0
  0
BLOCK_RECORD
  5
9B
330
1
100
AcDbSymbolTableRecord
100
AcDbBlockTableRecord
  2
SS4_BEG_02-NN4_END_02-0
 70
    0
280
    1
281
    0
  0
BLOCK_RECORD
  5
9E
330
1
100
AcDbSymbolTableRecord
100
AcDbBlockTableRecord
  2
SS4_BEG_03-NN4_END_03-0
 70
    0
280
    1
281
    0
  0
BLOCK_RECORD
  5
A1
330
1
100
AcDbSymbolTableRecord
100
AcDbBlockTableRecord
  2
SS4_BEG_04-NN4_END_04-0
 70
    0
280
    1
281
    0
  0
BLOCK_RECORD
  5
A4
330
1
100
AcDbSymbolTableRecord
100
AcDbBlockTableRecord
  2
SS4_BEG_05-NN4_END_05-0
 70
    0
280
    1
281
    0
  0
BLOCK_RECORD
  5
A7
330
1
100
AcDbSymbolTableRecord
100
AcDbBlockTableRecord
  2
SS4_BEG_06-NN4_END_06-0
 70
    0
280
    1
281
    0
  0
BLOCK_RECORD
  5
AA
330
1
100
AcDbSymbolTableRecord
100
AcDbBlockTableRecord
  2
SS4_BEG_07-NN4_END_07-0
 70
    0
280
    1
281
    0
  0
BLOCK_RECORD
  5
AD
330
1
100
AcDbSymbolTableRecord
100
AcDbBlockTableRecord
  2
SS6_BEG_00-NN6_END_00-0
 70
    0
280
    1
281
    0
  0
BLOCK_RECORD
  5
B0
330
1
100
AcDbSymbolTableRecord
100
AcDbBlockTableRecord
  2
SS6_BEG_01-NN6_END_01-0
 70
    0
280
    1
281
    0
  0
BLOCK_RECORD
  5
B3
330
1
100
AcDbSymbolTableRecord
100
AcDbBlockTableRecord
  2
SS6_BEG_02-NN6_END_02-0
 70
    0
280
    1
281
    0
  0
BLOCK_RECORD
  5
B6
330
1
100
AcDbSymbolTableRecord
100
AcDbBlockTableRecord
  2
SS6_BEG_03-NN6_END_03-0
 70
    0
280
    1
281
    0
  0
BLOCK_RECORD
  5
B9
330
1
100
AcDbSymbolTableRecord
100
AcDbBlockTableRecord
  2
SS12_BEG_04-NN12_END_04-0
 70
    0
280
    1
281
    0
  0
BLOCK_RECORD
  5
BC
330
1
100
AcDbSymbolTableRecord
100
AcDbBlockTableRecord
  2
SS12_BEG_05-NN12_END_05-0
 70
    0
280
    1
281
    0
  0
BLOCK_RECORD
  5
BF
330
1
100
AcDbSymbolTableRecord
100
AcDbBlockTableRecord
  2
SS12_BEG_06-NN12_END_06-0
 70
    0
280
    1
281
    0
  0
BLOCK_RECORD
  5
C2
330
1
100
AcDbSymbolTableRecord
100
AcDbBlockTableRecord
  2
SS12_BEG_07-NN12_END_07-0
 70
    0
280
    1
281
    0
  0
BLOCK_RECORD
  5
C5
330
1
100
AcDbSymbolTableRecord
100
AcDbBlockTableRecord
  2
NN1_BEG_00-SS1_END_00-0
 70
    0
280
    1
281
    0
  0
BLOCK_RECORD
  5
C8
330
1
100
AcDbSymbolTableRecord
100
AcDbBlockTableRecord
  2
NN1_BEG_01-SS1_END_01-0
 70
    0
280
    1
281
    0
  0
BLOCK_RECORD
  5
CB
330
1
100
AcDbSymbolTableRecord
100
AcDbBlockTableRecord
  2
NN1_BEG_02-SS1_END_02-0
 70
    0
280
    1
281
    0
  0
BLOCK_RECORD
  5
CE
330
1
100
AcDbSymbolTableRecord
100
AcDbBlockTableRecord
  2
NN1_BEG_03-SS1_END_03-0
 70
    0
280
    1
281
    0
  0
BLOCK_RECORD
  5
D1
330
1
100
AcDbSymbolTableRecord
100
AcDbBlockTableRecord
  2
NN1_BEG_04-SS1_END_04-0
 70
    0
280
    1
281
    0
  0
BLOCK_RECORD
  5
D4
330
1
100
AcDbSymbolTableRecord
100
AcDbBlockTableRecord
  2
NN1_BEG_05-SS1_END_05-0
 70
    0
280
    1
281
    0
  0
BLOCK_RECORD
  5
D7
330
1
100
AcDbSymbolTableRecord
100
AcDbBlockTableRecord
  2
NN1_BEG_06-SS1_END_06-0
 70
    0
280
    1
281
    0
  0
BLOCK_RECORD
  5
DA
330
1
100
AcDbSymbolTableRecord
100
AcDbBlockTableRecord
  2
NN1_BEG_07-SS1_END_07-0
 70
    0
280
    1
281
    0
  0
BLOCK_RECORD
  5
DD
330
1
100
AcDbSymbolTableRecord
100
AcDbBlockTableRecord
  2
NN1_BEG_08-SS1_END_08-0
 70
    0
280
    1
281
    0
  0
BLOCK_RECORD
  5
E0
330
1
100
AcDbSymbolTableRecord
100
AcDbBlockTableRecord
  2
NN1_BEG_09-SS1_END_09-0
 70
    0
280
    1
281
    0
  0
BLOCK_RECORD
  5
E3
330
1
100
AcDbSymbolTableRecord
100
AcDbBlockTableRecord
  2
NN1_BEG_10-SS1_END_10-0
 70
    0
280
    1
281
    0
  0
BLOCK_RECORD
  5
E6
330
1
100
AcDbSymbolTableRecord
100
AcDbBlockTableRecord
  2
NN1_BEG_11-SS1_END_11-0
 70
    0
280
    1
281
    0
  0
BLOCK_RECORD
  5
E9
330
1
100
AcDbSymbolTableRecord
100
AcDbBlockTableRecord
  2
NN1_BEG_12-SS1_END_12-0
 70
    0
280
    1
281
    0
  0
BLOCK_RECORD
  5
EC
330
1
100
AcDbSymbolTableRecord
100
AcDbBlockTableRecord
  2
NN1_BEG_13-SS1_END_13-0
 70
    0
280
    1
281
    0
  0
BLOCK_RECORD
  5
EF
330
1
100
AcDbSymbolTableRecord
100
AcDbBlockTableRecord
  2
NN1_BEG_14-SS1_END_14-0
 70
    0
280
    1
281
    0
  0
BLOCK_RECORD
  5
F2
330
1
100
AcDbSymbolTableRecord
100
AcDbBlockTableRecord
  2
NN1_BEG_15-SS1_END_15-0
 70
    0
280
    1
281
    0
  0
BLOCK_RECORD
  5
F5
330
1
100
AcDbSymbolTableRecord
100
AcDbBlockTableRecord
  2
NN2_BEG_00-SS2_END_00-0
 70
    0
280
    1
281
    0
  0
BLOCK_RECORD
  5
F8
330
1
100
AcDbSymbolTableRecord
100
AcDbBlockTableRecord
  2
NN2_BEG_01-SS2_END_01-0
 70
    0
280
    1
281
    0
  0
BLOCK_RECORD
  5
FB
330
1
100
AcDbSymbolTableRecord
100
AcDbBlockTableRecord
  2
NN2_BEG_02-SS2_END_02-0
 70
    0
280
    1
281
    0
  0
BLOCK_RECORD
  5
FE
330
1
100
AcDbSymbolTableRecord
100
AcDbBlockTableRecord
  2
NN2_BEG_03-SS2_END_03-0
 70
    0
280
    1
281
    0
  0
BLOCK_RECORD
  5
101
330
1
100
AcDbSymbolTableRecord
100
AcDbBlockTableRecord
  2
NN2_BEG_04-SS2_END_04-0
 70
    0
280
    1
281
    0
  0
BLOCK_RECORD
  5
104
330
1
100
AcDbSymbolTableRecord
100
AcDbBlockTableRecord
  2
NN2_BEG_05-SS2_END_05-0
 70
    0
280
    1
281
    0
  0
BLOCK_RECORD
  5
107
330
1
100
AcDbSymbolTableRecord
100
AcDbBlockTableRecord
  2
NN2_BEG_06-SS2_END_06-0
 70
    0
280
    1
281
    0
  0
BLOCK_RECORD
  5
10A
330
1
100
AcDbSymbolTableRecord
100
AcDbBlockTableRecord
  2
NN2_BEG_07-SS2_END_07-0
 70
    0
280
    1
281
    0
  0
BLOCK_RECORD
  5
10D
330
1
100
AcDbSymbolTableRecord
100
AcDbBlockTableRecord
  2
NN4_BEG_00-SS4_END_00-0
 70
    0
280
    1
281
    0
  0
BLOCK_RECORD
  5
110
330
1
100
AcDbSymbolTableRecord
100
AcDbBlockTableRecord
  2
NN4_BEG_01-SS4_END_01-0
 70
    0
280
    1
281
    0
  0
BLOCK_RECORD
  5
113
330
1
100
AcDbSymbolTableRecord
100
AcDbBlockTableRecord
  2
NN4_BEG_02-SS4_END_02-0
 70
    0
280
    1
281
    0
  0
BLOCK_RECORD
  5
116
330
1
100
AcDbSymbolTableRecord
100
AcDbBlockTableRecord
  2
NN4_BEG_03-SS4_END_03-0
 70
    0
280
    1
281
    0
  0
BLOCK_RECORD
  5
119
330
1
100
AcDbSymbolTableRecord
100
AcDbBlockTableRecord
  2
NN4_BEG_04-SS4_END_04-0
 70
    0
280
    1
281
    0
  0
BLOCK_RECORD
  5
11C
330
1
100
AcDbSymbolTableRecord
100
AcDbBlockTableRecord
  2
NN4_BEG_05-SS4_END_05-0
 70
    0
280
    1
281
    0
  0
BLOCK_RECORD
  5
11F
330
1
100
AcDbSymbolTableRecord
100
AcDbBlockTableRecord
  2
NN4_BEG_06-SS4_END_06-0
 70
    0
280
    1
281
    0
  0
BLOCK_RECORD
  5
122
330
1
100
AcDbSymbolTableRecord
100
AcDbBlockTableRecord
  2
NN4_BEG_07-SS4_END_07-0
 70
    0
280
    1
281
    0
  0
BLOCK_RECORD
  5
125
330
1
100
AcDbSymbolTableRecord
100
AcDbBlockTableRecord
  2
NN6_BEG_00-SS6_END_00-0
 70
    0
280
    1
281
    0
  0
BLOCK_RECORD
  5
128
330
1
100
AcDbSymbolTableRecord
100
AcDbBlockTableRecord
  2
NN6_BEG_01-SS6_END_01-0
 70
    0
280
    1
281
    0
  0
BLOCK_RECORD
  5
12B
330
1
100
AcDbSymbolTableRecord
100
AcDbBlockTableRecord
  2
NN6_BEG_02-SS6_END_02-0
 70
    0
280
    1
281
    0
  0
BLOCK_RECORD
  5
12E
330
1
100
AcDbSymbolTableRecord
100
AcDbBlockTableRecord
  2
NN6_BEG_03-SS6_END_03-0
 70
    0
280
    1
281
    0
  0
BLOCK_RECORD
  5
131
330
1
100
AcDbSymbolTableRecord
100
AcDbBlockTableRecord
  2
NN12_BEG_04-SS12_END_04-0
 70
    0
280
    1
281
    0
  0
BLOCK_RECORD
  5
134
330
1
100
AcDbSymbolTableRecord
100
AcDbBlockTableRecord
  2
NN12_BEG_05-SS12_END_05-0
 70
    0
280
    1
281
    0
  0
BLOCK_RECORD
  5
137
330
1
100
AcDbSymbolTableRecord
100
AcDbBlockTableRecord
  2
NN12_BEG_06-SS12_END_06-0
 70
    0
280
    1
281
    0
  0
BLOCK_RECORD
  5
13A
330
1
100
AcDbSymbolTableRecord
100
AcDbBlockTableRecord
  2
NN12_BEG_07-SS12_END_07-0
 70
    0
280
    1
281
    0
  0
ENDTAB
  0
ENDSEC
  0
SECTION
  2
BLOCKS
  0
BLOCK
  5
20
330
1F
100
AcDbEntity
  8
0
100
AcDbBlockBegin
  2
*Model_Space
 70
    0
 10
0
 20
0
 30
0
  3
*Model_Space
  1

  0
ENDBLK
  5
21
330
1F
100
AcDbEntity
  8
0
100
AcDbBlockEnd
  0
BLOCK
  5
1C
330
1B
100
AcDbEntity
  8
0
100
AcDbBlockBegin
  2
*Paper_Space
 70
    0
 10
0
 20
0
 30
0
  3
*Paper_Space
  1

  0
ENDBLK
  5
1D
330
1F
100
AcDbEntity
  8
0
100
AcDbBlockEnd
  0
BLOCK
  5
4E
330
4D
100
AcDbEntity
  8
0
100
AcDbBlockBegin
  2
SS1_BEG_00-NN1_END_00-0
 70
    0
 10
0
 20
0
  3
SS1_BEG_00-NN1_END_00-0
  1

  0
LWPOLYLINE
  5
13D
100
AcDbEntity
  8
0
  6
ByLayer
 62
  256
370
   -1
100
AcDbPolyline
 90
    6
 70
    0
 43
0
 10
0
 20
0
 10
100
 20
0
 10
100
 20
-322
 10
-2100
 20
-322
 10
-2100
 20
0
 10
-2000
 20
0
  0
ENDBLK
  5
4F
330
4D
100
AcDbEntity
  8
0
100
AcDbBlockEnd
  0
BLOCK
  5
51
330
50
100
AcDbEntity
  8
0
100
AcDbBlockBegin
  2
SS1_BEG_01-NN1_END_01-0
 70
    0
 10
0
 20
0
  3
SS1_BEG_01-NN1_END_01-0
  1

  0
LWPOLYLINE
  5
13E
100
AcDbEntity
  8
0
  6
ByLayer
 62
  256
370
   -1
100
AcDbPolyline
 90
    6
 70
    0
 43
0
 10
0
 20
0
 10
101
 20
0
 10
101
 20
-327
 10
-2101
 20
-327
 10
-2101
 20
0
 10
-2000
 20
0
  0
ENDBLK
  5
52
330
50
100
AcDbEntity
  8
0
100
AcDbBlockEnd
  0
BLOCK
  5
54
330
53
100
AcDbEntity
  8
0
100
AcDbBlockBegin
  2
SS1_BEG_02-NN1_END_02-0
 70
    0
 10
0
 20
0
  3
SS1_BEG_02-NN1_END_02-0
  1

  0
LWPOLYLINE
  5
13F
100
AcDbEntity
  8
0
  6
ByLayer
 62
  256
370
   -1
100
AcDbPolyline
 90
    6
 70
    0
 43
0
 10
0
 20
0
 10
102
 20
0
 10
102
 20
-332
 10
-2102
 20
-332
 10
-2102
 20
0
 10
-2000
 20
0
  0
ENDBLK
  5
55
330
53
100
AcDbEntity
  8
0
100
AcDbBlockEnd
  0
BLOCK
  5
57
330
56
100
AcDbEntity
  8
0
100
AcDbBlockBegin
  2
SS1_BEG_03-NN1_END_03-0
 70
    0
 10
0
 20
0
  3
SS1_BEG_03-NN1_END_03-0
  1

  0
LWPOLYLINE
  5
140
100
AcDbEntity
  8
0
  6
ByLayer
 62
  256
370
   -1
100
AcDbPolyline
 90
    6
 70
    0
 43
0
 10
0
 20
0
 10
103
 20
0
 10
103
 20
-337
 10
-2103
 20
-337
 10
-2103
 20
0
 10
-2000
 20
0
  0
ENDBLK
  5
58
330
56
100
AcDbEntity
  8
0
100
AcDbBlockEnd
  0
BLOCK
  5
5A
330
59
100
AcDbEntity
  8
0
100
AcDbBlockBegin
  2
SS1_BEG_04-NN1_END_04-0
 70
    0
 10
0
 20
0
  3
SS1_BEG_04-NN1_END_04-0
  1

  0
LWPOLYLINE
  5
141
100
AcDbEntity
  8
0
  6
ByLayer
 62
  256
370
   -1
100
AcDbPolyline
 90
    6
 70
    0
 43
0
 10
0
 20
0
 10
104
 20
0
 10
104
 20
-342
 10
-2104
 20
-342
 10
-2104
 20
0
 10
-2000
 20
0
  0
ENDBLK
  5
5B
330
59
100
AcDbEntity
  8
0
100
AcDbBlockEnd
  0
BLOCK
  5
5D
330
5C
100
AcDbEntity
  8
0
100
AcDbBlockBegin
  2
SS1_BEG_05-NN1_END_05-0
 70
    0
 10
0
 20
0
  3
SS1_BEG_05-NN1_END_05-0
  1

  0
LWPOLYLINE
  5
142
100
AcDbEntity
  8
0
  6
ByLayer
 62
  256
370
   -1
100
AcDbPolyline
 90
    6
 70
    0
 43
0
 10
0
 20
0
 10
105
 20
0
 10
105
 20
-347
 10
-2105
 20
-347
 10
-2105
 20
0
 10
-2000
 20
0
  0
ENDBLK
  5
5E
330
5C
100
AcDbEntity
  8
0
100
AcDbBlockEnd
  0
BLOCK
  5
60
330
5F
100
AcDbEntity
  8
0
100
AcDbBlockBegin
  2
SS1_BEG_06-NN1_END_06-0
 70
    0
 10
0
 20
0
  3
SS1_BEG_06-NN1_END_06-0
  1

  0
LWPOLYLINE
  5
143
100
AcDbEntity
  8
0
  6
ByLayer
 62
  256
370
   -1
100
AcDbPolyline
 90
    6
 70
    0
 43
0
 10
0
 20
0
 10
106
 20
0
 10
106
 20
-352
 10
-2106
 20
-352
 10
-2106
 20
0
 10
-2000
 20
0
  0
ENDBLK
  5
61
330
5F
100
AcDbEntity
  8
0
100
AcDbBlockEnd
  0
BLOCK
  5
63
330
62
100
AcDbEntity
  8
0
100
AcDbBlockBegin
  2
SS1_BEG_07-NN1_END_07-0
 70
    0
 10
0
 20
0
  3
SS1_BEG_07-NN1_END_07-0
  1

  0
LWPOLYLINE
  5
144
100
AcDbEntity
  8
0
  6
ByLayer
 62
  256
370
   -1
100
AcDbPolyline
 90
    6
 70
    0
 43
0
 10
0
 20
0
 10
107
 20
0
 10
107
 20
-357
 10
-2107
 20
-357
 10
-2107
 20
0
 10
-2000
 20
0
  0
ENDBLK
  5
64
330
62
100
AcDbEntity
  8
0
100
AcDbBlockEnd
  0
BLOCK
  5
66
330
65
100
AcDbEntity
  8
0
100
AcDbBlockBegin
  2
SS1_BEG_08-NN1_END_08-0
 70
    0
 10
0
 20
0
  3
SS1_BEG_08-NN1_END_08-0
  1

  0
LWPOLYLINE
  5
145
100
AcDbEntity
  8
0
  6
ByLayer
 62
  256
370
   -1
100
AcDbPolyline
 90
    6
 70
    0
 43
0
 10
0
 20
0
 10
108
 20
0
 10
108
 20
-362
 10
-2108
 20
-362
 10
-2108
 20
0
 10
-2000
 20
0
  0
ENDBLK
  5
67
330
65
100
AcDbEntity
  8
0
100
AcDbBlockEnd
  0
BLOCK
  5
69
330
68
100
AcDbEntity
  8
0
100
AcDbBlockBegin
  2
SS1_BEG_09-NN1_END_09-0
 70
    0
 10
0
 20
0
  3
SS1_BEG_09-NN1_END_09-0
  1

  0
LWPOLYLINE
  5
146
100
AcDbEntity
  8
0
  6
ByLayer
 62
  256
370
   -1
100
AcDbPolyline
 90
    6
 70
    0
 43
0
 10
0
 20
0
 10
109
 20
0
 10
109
 20
-367
 10
-2109
 20
-367
 10
-2109
 20
0
 10
-2000
 20
0
  0
ENDBLK
  5
6A
330
68
100
AcDbEntity
  8
0
100
AcDbBlockEnd
  0
BLOCK
  5
6C
330
6B
100
AcDbEntity
  8
0
100
AcDbBlockBegin
  2
SS1_BEG_10-NN1_END_10-0
 70
    0
 10
0
 20
0
  3
SS1_BEG_10-NN1_END_10-0
  1

  0
LWPOLYLINE
  5
147
100
AcDbEntity
  8
0
  6
ByLayer
 62
  256
370
   -1
100
AcDbPolyline
 90
    6
 70
    0
 43
0
 10
0
 20
0
 10
110
 20
0
 10
110
 20
-372
 10
-2110
 20
-372
 10
-2110
 20
0
 10
-2000
 20
0
  0
ENDBLK
  5
6D
330
6B
100
AcDbEntity
  8
0
100
AcDbBlockEnd
  0
BLOCK
  5
6F
330
6E
100
AcDbEntity
  8
0
100
AcDbBlockBegin
  2
SS1_BEG_11-NN1_END_11-0
 70
    0
 10
0
 20
0
  3
SS1_BEG_11-NN1_END_11-0
  1

  0
LWPOLYLINE
  5
148
100
AcDbEntity
  8
0
  6
ByLayer
 62
  256
370
   -1
100
AcDbPolyline
 90
    6
 70
    0
 43
0
 10
0
 20
0
 10
111
 20
0
 10
111
 20
-377
 10
-2111
 20
-377
 10
-2111
 20
0
 10
-2000
 20
0
  0
ENDBLK
  5
70
330
6E
100
AcDbEntity
  8
0
100
AcDbBlockEnd
  0
BLOCK
  5
72
330
71
100
AcDbEntity
  8
0
100
AcDbBlockBegin
  2
SS1_BEG_12-NN1_END_12-0
 70
    0
 10
0
 20
0
  3
SS1_BEG_12-NN1_END_12-0
  1

  0
LWPOLYLINE
  5
149
100
AcDbEntity
  8
0
  6
ByLayer
 62
  256
370
   -1
100
AcDbPolyline
 90
    6
 70
    0
 43
0
 10
0
 20
0
 10
112
 20
0
 10
112
 20
-382
 10
-2112
 20
-382
 10
-2112
 20
0
 10
-2000
 20
0
  0
ENDBLK
  5
73
330
71
100
AcDbEntity
  8
0
100
AcDbBlockEnd
  0
BLOCK
  5
75
330
74
100
AcDbEntity
  8
0
100
AcDbBlockBegin
  2
SS1_BEG_13-NN1_END_13-0
 70
    0
 10
0
 20
0
  3
SS1_BEG_13-NN1_END_13-0
  1

  0
LWPOLYLINE
  5
14A
100
AcDbEntity
  8
0
  6
ByLayer
 62
  256
370
   -1
100
AcDbPolyline
 90
    6
 70
    0
 43
0
 10
0
 20
0
 10
113
 20
0
 10
113
 20
-387
 10
-2113
 20
-387
 10
-2113
 20
0
 10
-2000
 20
0
  0
ENDBLK
  5
76
330
74
100
AcDbEntity
  8
0
100
AcDbBlockEnd
  0
BLOCK
  5
78
330
77
100
AcDbEntity
  8
0
100
AcDbBlockBegin
  2
SS1_BEG_14-NN1_END_14-0
 70
    0
 10
0
 20
0
  3
SS1_BEG_14-NN1_END_14-0
  1

  0
LWPOLYLINE
  5
14B
100
AcDbEntity
  8
0
  6
ByLayer
 62
  256
370
   -1
100
AcDbPolyline
 90
    6
 70
    0
 43
0
 10
0
 20
0
 10
114
 20
0
 10
114
 20
-392
 10
-2114
 20
-392
 10
-2114
 20
0
 10
-2000
 20
0
  0
ENDBLK
  5
79
330
77
100
AcDbEntity
  8
0
100
AcDbBlockEnd
  0
BLOCK
  5
7B
330
7A
100
AcDbEntity
  8
0
100
AcDbBlockBegin
  2
SS1_BEG_15-NN1_END_15-0
 70
    0
 10
0
 20
0
  3
SS1_BEG_15-NN1_END_15-0
  1

  0
LWPOLYLINE
  5
14C
100
AcDbEntity
  8
0
  6
ByLayer
 62
  256
370
   -1
100
AcDbPolyline
 90
    6
 70
    0
 43
0
 10
0
 20
0
 10
115
 20
0
 10
115
 20
-397
 10
-2115
 20
-397
 10
-2115
 20
0
 10
-2000
 20
0
  0
ENDBLK
  5
7C
330
7A
100
AcDbEntity
  8
0
100
AcDbBlockEnd
  0
BLOCK
  5
7E
330
7D
100
AcDbEntity
  8
0
100
AcDbBlockBegin
  2
SS2_BEG_00-NN2_END_00-0
 70
    0
 10
0
 20
0
  3
SS2_BEG_00-NN2_END_00-0
  1

  0
LWPOLYLINE
  5
14D
100
AcDbEntity
  8
0
  6
ByLayer
 62
  256
370
   -1
100
AcDbPolyline
 90
    8
 70
    0
 43
0
 10
0
 20
0
 10
116
 20
0
 10
116
 20
-406
 10
-2116
 20
-406
 10
-2116
 20
910
 10
-2124
 20
910
 10
-2124
 20
3000
 10
-2000
 20
3000
  0
ENDBLK
  5
7F
330
7D
100
AcDbEntity
  8
0
100
AcDbBlockEnd
  0
BLOCK
  5
81
330
80
100
AcDbEntity
  8
0
100
AcDbBlockBegin
  2
SS2_BEG_01-NN2_END_01-0
 70
    0
 10
0
 20
0
  3
SS2_BEG_01-NN2_END_01-0
  1

  0
LWPOLYLINE
  5
14E
100
AcDbEntity
  8
0
  6
ByLayer
 62
  256
370
   -1
100
AcDbPolyline
 90
    8
 70
    0
 43
0
 10
0
 20
0
 10
117
 20
0
 10
117
 20
-411
 10
-2117
 20
-411
 10
-2117
 20
902
 10
-2125
 20
902
 10
-2125
 20
3000
 10
-2000
 20
3000
  0
ENDBLK
  5
82
330
80
100
AcDbEntity
  8
0
100
AcDbBlockEnd
  0
BLOCK
  5
84
330
83
100
AcDbEntity
  8
0
100
AcDbBlockBegin
  2
SS2_BEG_02-NN2_END_02-0
 70
    0
 10
0
 20
0
  3
SS2_BEG_02-NN2_END_02-0
  1

  0
LWPOLYLINE
  5
14F
100
AcDbEntity
  8
0
  6
ByLayer
 62
  256
370
   -1
100
AcDbPolyline
 90
    8
 70
    0
 43
0
 10
0
 20
0
 10
118
 20
0
 10
118
 20
-416
 10
-2118
 20
-416
 10
-2118
 20
894
 10
-2126
 20
894
 10
-2126
 20
3000
 10
-2000
 20
3000
  0
ENDBLK
  5
85
330
83
100
AcDbEntity
  8
0
100
AcDbBlockEnd
  0
BLOCK
  5
87
330
86
100
AcDbEntity
  8
0
100
AcDbBlockBegin
  2
SS2_BEG_03-NN2_END_03-0
 70
    0
 10
0
 20
0
  3
SS2_BEG_03-NN2_END_03-0
  1

  0
LWPOLYLINE
  5
150
100
AcDbEntity
  8
0
  6
ByLayer
 62
  256
370
   -1
100
AcDbPolyline
 90
    8
 70
    0
 43
0
 10
0
 20
0
 10
119
 20
0
 10
119
 20
-421
 10
-2119
 20
-421
 10
-2119
 20
886
 10
-2127
 20
886
 10
-2127
 20
3000
 10
-2000
 20
3000
  0
ENDBLK
  5
88
330
86
100
AcDbEntity
  8
0
100
AcDbBlockEnd
  0
BLOCK
  5
8A
330
89
100
AcDbEntity
  8
0
100
AcDbBlockBegin
  2
SS2_BEG_04-NN2_END_04-0
 70
    0
 10
0
 20
0
  3
SS2_BEG_04-NN2_END_04-0
  1

  0
LWPOLYLINE
  5
151
100
AcDbEntity
  8
0
  6
ByLayer
 62
  256
370
   -1
100
AcDbPolyline
 90
    8
 70
    0
 43
0
 10
0
 20
0
 10
120
 20
0
 10
120
 20
-426
 10
-2120
 20
-426
 10
-2120
 20
878
 10
-2128
 20
878
 10
-2128
 20
3000
 10
-2000
 20
3000
  0
ENDBLK
  5
8B
330
89
100
AcDbEntity
  8
0
100
AcDbBlockEnd
  0
BLOCK
  5
8D
330
8C
100
AcDbEntity
  8
0
100
AcDbBlockBegin
  2
SS2_BEG_05-NN2_END_05-0
 70
    0
 10
0
 20
0
  3
SS2_BEG_05-NN2_END_05-0
  1

  0
LWPOLYLINE
  5
152
100
AcDbEntity
  8
0
  6
ByLayer
 62
  256
370
   -1
100
AcDbPolyline
 90
    8
 70
    0
 43
0
 10
0
 20
0
 10
121
 20
0
 10
121
 20
-431
 10
-2121
 20
-431
 10
-2121
 20
870
 10
-2129
 20
870
 10
-2129
 20
3000
 10
-2000
 20
3000
  0
ENDBLK
  5
8E
330
8C
100
AcDbEntity
  8
0
100
AcDbBlockEnd
  0
BLOCK
  5
90
330
8F
100
AcDbEntity
  8
0
100
AcDbBlockBegin
  2
SS2_BEG_06-NN2_END_06-0
 70
    0
 10
0
 20
0
  3
SS2_BEG_06-NN2_END_06-0
  1

  0
LWPOLYLINE
  5
153
100
AcDbEntity
  8
0
  6
ByLayer
 62
  256
370
   -1
100
AcDbPolyline
 90
    8
 70
    0
 43
0
 10
0
 20
0
 10
122
 20
0
 10
122
 20
-436
 10
-2122
 20
-436
 10
-2122
 20
862
 10
-2130
 20
862
 10
-2130
 20
3000
 10
-2000
 20
3000
  0
ENDBLK
  5
91
330
8F
100
AcDbEntity
  8
0
100
AcDbBlockEnd
  0
BLOCK
  5
93
330
92
100
AcDbEntity
  8
0
100
AcDbBlockBegin
  2
SS2_BEG_07-NN2_END_07-0
 70
    0
 10
0
 20
0
  3
SS2_BEG_07-NN2_END_07-0
  1

  0
LWPOLYLINE
  5
154
100
AcDbEntity
  8
0
  6
ByLayer
 62
  256
370
   -1
100
AcDbPolyline
 90
    8
 70
    0
 43
0
 10
0
 20
0
 10
123
 20
0
 10
123
 20
-441
 10
-2123
 20
-441
 10
-2123
 20
854
 10
-2131
 20
854
 10
-2131
 20
3000
 10
-2000
 20
3000
  0
ENDBLK
  5
94
330
92
100
AcDbEntity
  8
0
100
AcDbBlockEnd
  0
BLOCK
  5
96
330
95
100
AcDbEntity
  8
0
100
AcDbBlockBegin
  2
SS4_BEG_00-NN4_END_00-0
 70
    0
 10
0
 20
0
  3
SS4_BEG_00-NN4_END_00-0
  1

  0
LWPOLYLINE
  5
155
100
AcDbEntity
  8
0
  6
ByLayer
 62
  256
370
   -1
100
AcDbPolyline
 90
   12
 70
    0
 43
0
 10
0
 20
0
 10
132
 20
0
 10
132
 20
-458
 10
-2132
 20
-458
 10
-2132
 20
874
 10
-2140
 20
874
 10
-2140
 20
3842
 10
-2148
 20
3842
 10
-2148
 20
6810
 10
-2156
 20
6810
 10
-2156
 20
9000
 10
-2000
 20
9000
  0
ENDBLK
  5
97
330
95
100
AcDbEntity
  8
0
100
AcDbBlockEnd
  0
BLOCK
  5
99
330
98
100
AcDbEntity
  8
0
100
AcDbBlockBegin
  2
SS4_BEG_01-NN4_END_01-0
 70
    0
 10
0
 20
0
  3
SS4_BEG_01-NN4_END_01-0
  1

  0
LWPOLYLINE
  5
156
100
AcDbEntity
  8
0
  6
ByLayer
 62
  256
370
   -1
100
AcDbPolyline
 90
   12
 70
    0
 43
0
 10
0
 20
0
 10
133
 20
0
 10
133
 20
-463
 10
-2133
 20
-463
 10
-2133
 20
866
 10
-2141
 20
866
 10
-2141
 20
3834
 10
-2149
 20
3834
 10
-2149
 20
6802
 10
-2157
 20
6802
 10
-2157
 20
9000
 10
-2000
 20
9000
  0
ENDBLK
  5
9A
330
98
100
AcDbEntity
  8
0
100
AcDbBlockEnd
  0
BLOCK
  5
9C
330
9B
100
AcDbEntity
  8
0
100
AcDbBlockBegin
  2
SS4_BEG_02-NN4_END_02-0
 70
    0
 10
0
 20
0
  3
SS4_BEG_02-NN4_END_02-0
  1

  0
LWPOLYLINE
  5
157
100
AcDbEntity
  8
0
  6
ByLayer
 62
  256
370
   -1
100
AcDbPolyline
 90
   12
 70
    0
 43
0
 10
0
 20
0
 10
134
 20
0
 10
134
 20
-468
 10
-2134
 20
-468
 10
-2134
 20
858
 10
-2142
 20
858
 10
-2142
 20
3826
 10
-2150
 20
3826
 10
-2150
 20
6794
 10
-2158
 20
6794
 10
-2158
 20
9000
 10
-2000
 20
9000
  0
ENDBLK
  5
9D
330
9B
100
AcDbEntity
  8
0
100
AcDbBlockEnd
  0
BLOCK
  5
9F
330
9E
100
AcDbEntity
  8
0
100
AcDbBlockBegin
  2
SS4_BEG_03-NN4_END_03-0
 70
    0
 10
0
 20
0
  3
SS4_BEG_03-NN4_END_03-0
  1

  0
LWPOLYLINE
  5
158
100
AcDbEntity
  8
0
  6
ByLayer
 62
  256
370
   -1
100
AcDbPolyline
 90
   12
 70
    0
 43
0
 10
0
 20
0
 10
135
 20
0
 10
135
 20
-473
 10
-2135
 20
-473
 10
-2135
 20
850
 10
-2143
 20
850
 10
-2143
 20
3818
 10
-2151
 20
3818
 10
-2151
 20
6786
 10
-2159
 20
6786
 10
-2159
 20
9000
 10
-2000
 20
9000
  0
ENDBLK
  5
A0
330
9E
100
AcDbEntity
  8
0
100
AcDbBlockEnd
  0
BLOCK
  5
A2
330
A1
100
AcDbEntity
  8
0
100
AcDbBlockBegin
  2
SS4_BEG_04-NN4_END_04-0
 70
    0
 10
0
 20
0
  3
SS4_BEG_04-NN4_END_04-0
  1

  0
LWPOLYLINE
  5
159
100
AcDbEntity
  8
0
  6
ByLayer
 62
  256
370
   -1
100
AcDbPolyline
 90
   12
 70
    0
 43
0
 10
0
 20
0
 10
136
 20
0
 10
136
 20
-478
 10
-2136
 20
-478
 10
-2136
 20
842
 10
-2144
 20
842
 10
-2144
 20
3810
 10
-2152
 20
3810
 10
-2152
 20
6778
 10
-2160
 20
6778
 10
-2160
 20
9000
 10
-2000
 20
9000
  0
ENDBLK
  5
A3
330
A1
100
AcDbEntity
  8
0
100
AcDbBlockEnd
  0
BLOCK
  5
A5
330
A4
100
AcDbEntity
  8
0
100
AcDbBlockBegin
  2
SS4_BEG_05-NN4_END_05-0
 70
    0
 10
0
 20
0
  3
SS4_BEG_05-NN4_END_05-0
  1

  0
LWPOLYLINE
  5
15A
100
AcDbEntity
  8
0
  6
ByLayer
 62
  256
370
   -1
100
AcDbPolyline
 90
   12
 70
    0
 43
0
 10
0
 20
0
 10
137
 20
0
 10
137
 20
-483
 10
-2137
 20
-483
 10
-2137
 20
834
 10
-2145
 20
834
 10
-2145
 20
3802
 10
-2153
 20
3802
 10
-2153
 20
6770
 10
-2161
 20
6770
 10
-2161
 20
9000
 10
-2000
 20
9000
  0
ENDBLK
  5
A6
330
A4
100
AcDbEntity
  8
0
100
AcDbBlockEnd
  0
BLOCK
  5
A8
330
A7
100
AcDbEntity
  8
0
100
AcDbBlockBegin
  2
SS4_BEG_06-NN4_END_06-0
 70
    0
 10
0
 20
0
  3
SS4_BEG_06-NN4_END_06-0
  1

  0
LWPOLYLINE
  5
15B
100
AcDbEntity
  8
0
  6
ByLayer
 62
  256
370
   -1
100
AcDbPolyline
 90
   12
 70
    0
 43
0
 10
0
 20
0
 10
138
 20
0
 10
138
 20
-488
 10
-2138
 20
-488
 10
-2138
 20
826
 10
-2146
 20
826
 10
-2146
 20
3794
 10
-2154
 20
3794
 10
-2154
 20
6762
 10
-2162
 20
6762
 10
-2162
 20
9000
 10
-2000
 20
9000
  0
ENDBLK
  5
A9
330
A7
100
AcDbEntity
  8
0
100
AcDbBlockEnd
  0
BLOCK
  5
AB
330
AA
100
AcDbEntity
  8
0
100
AcDbBlockBegin
  2
SS4_BEG_07-NN4_END_07-0
 70
    0
 10
0
 20
0
  3
SS4_BEG_07-NN4_END_07-0
  1

  0
LWPOLYLINE
  5
15C
100
AcDbEntity
  8
0
  6
ByLayer
 62
  256
370
   -1
100
AcDbPolyline
 90
   12
 70
    0
 43
0
 10
0
 20
0
 10
139
 20
0
 10
139
 20
-493
 10
-2139
 20
-493
 10
-2139
 20
818
 10
-2147
 20
818
 10
-2147
 20
3786
 10
-2155
 20
3786
 10
-2155
 20
6754
 10
-2163
 20
6754
 10
-2163
 20
9000
 10
-2000
 20
9000
  0
ENDBLK
  5
AC
330
AA
100
AcDbEntity
  8
0
100
AcDbBlockEnd
  0
BLOCK
  5
AE
330
AD
100
AcDbEntity
  8
0
100
AcDbBlockBegin
  2
SS6_BEG_00-NN6_END_00-0
 70
    0
 10
0
 20
0
  3
SS6_BEG_00-NN6_END_00-0
  1

  0
LWPOLYLINE
  5
15D
100
AcDbEntity
  8
0
  6
ByLayer
 62
  256
370
   -1
100
AcDbPolyline
 90
   16
 70
    0
 43
0
 10
0
 20
0
 10
164
 20
0
 10
164
 20
-526
 10
-2164
 20
-526
 10
-2164
 20
838
 10
-2168
 20
838
 10
-2168
 20
3822
 10
-2172
 20
3822
 10
-2172
 20
6806
 10
-2176
 20
6806
 10
-2176
 20
9790
 10
-2180
 20
9790
 10
-2180
 20
12774
 10
-2184
 20
12774
 10
-2184
 20
15000
 10
-2000
 20
15000
  0
ENDBLK
  5
AF
330
AD
100
AcDbEntity
  8
0
100
AcDbBlockEnd
  0
BLOCK
  5
B1
330
B0
100
AcDbEntity
  8
0
100
AcDbBlockBegin
  2
SS6_BEG_01-NN6_END_01-0
 70
    0
 10
0
 20
0
  3
SS6_BEG_01-NN6_END_01-0
  1

  0
LWPOLYLINE
  5
15E
100
AcDbEntity
  8
0
  6
ByLayer
 62
  256
370
   -1
100
AcDbPolyline
 90
   16
 70
    0
 43
0
 10
0
 20
0
 10
165
 20
0
 10
165
 20
-531
 10
-2165
 20
-531
 10
-2165
 20
830
 10
-2169
 20
830
 10
-2169
 20
3814
 10
-2173
 20
3814
 10
-2173
 20
6798
 10
-2177
 20
6798
 10
-2177
 20
9782
 10
-2181
 20
9782
 10
-2181
 20
12766
 10
-2185
 20
12766
 10
-2185
 20
15000
 10
-2000
 20
15000
  0
ENDBLK
  5
B2
330
B0
100
AcDbEntity
  8
0
100
AcDbBlockEnd
  0
BLOCK
  5
B4
330
B3
100
AcDbEntity
  8
0
100
AcDbBlockBegin
  2
SS6_BEG_02-NN6_END_02-0
 70
    0
 10
0
 20
0
  3
SS6_BEG_02-NN6_END_02-0
  1

  0
LWPOLYLINE
  5
15F
100
AcDbEntity
  8
0
  6
ByLayer
 62
  256
370
   -1
100
AcDbPolyline
 90
   16
 70
    0
 43
0
 10
0
 20
0
 10
166
 20
0
 10
166
 20
-536
 10
-2166
 20
-536
 10
-2166
 20
822
 10
-2170
 20
822
 10
-2170
 20
3806
 10
-2174
 20
3806
 10
-2174
 20
6790
 10
-2178
 20
6790
 10
-2178
 20
9774
 10
-2182
 20
9774
 10
-2182
 20
12758
 10
-2186
 20
12758
 10
-2186
 20
15000
 10
-2000
 20
15000
  0
ENDBLK
  5
B5
330
B3
100
AcDbEntity
  8
0
100
AcDbBlockEnd
  0
BLOCK
  5
B7
330
B6
100
AcDbEntity
  8
0
100
AcDbBlockBegin
  2
SS6_BEG_03-NN6_END_03-0
 70
    0
 10
0
 20
0
  3
SS6_BEG_03-NN6_END_03-0
  1

  0
LWPOLYLINE
  5
160
100
AcDbEntity
  8
0
  6
ByLayer
 62
  256
370
   -1
100
AcDbPolyline
 90
   16
 70
    0
 43
0
 10
0
 20
0
 10
167
 20
0
 10
167
 20
-541
 10
-2167
 20
-541
 10
-2167
 20
814
 10
-2171
 20
814
 10
-2171
 20
3798
 10
-2175
 20
3798
 10
-2175
 20
6782
 10
-2179
 20
6782
 10
-2179
 20
9766
 10
-2183
 20
9766
 10
-2183
 20
12750
 10
-2187
 20
12750
 10
-2187
 20
15000
 10
-2000
 20
15000
  0
ENDBLK
  5
B8
330
B6
100
AcDbEntity
  8
0
100
AcDbBlockEnd
  0
BLOCK
  5
BA
330
B9
100
AcDbEntity
  8
0
100
AcDbBlockBegin
  2
SS12_BEG_04-NN12_END_04-0
 70
    0
 10
0
 20
0
  3
SS12_BEG_04-NN12_END_04-0
  1

  0
LWPOLYLINE
  5
161
100
AcDbEntity
  8
0
  6
ByLayer
 62
  256
370
   -1
100
AcDbPolyline
 90
   28
 70
    0
 43
0
 10
0
 20
0
 10
188
 20
0
 10
188
 20
-570
 10
-2188
 20
-570
 10
-2188
 20
818
 10
-2192
 20
818
 10
-2192
 20
3802
 10
-2196
 20
3802
 10
-2196
 20
6786
 10
-2200
 20
6786
 10
-2200
 20
9770
 10
-2204
 20
9770
 10
-2204
 20
12754
 10
-2208
 20
12754
 10
-2208
 20
15738
 10
-2212
 20
15738
 10
-2212
 20
18722
 10
-2216
 20
18722
 10
-2216
 20
21706
 10
-2220
 20
21706
 10
-2220
 20
24690
 10
-2224
 20
24690
 10
-2224
 20
27674
 10
-2228
 20
27674
 10
-2228
 20
30658
 10
-2232
 20
30658
 10
-2232
 20
33000
 10
-2000
 20
33000
  0
ENDBLK
  5
BB
330
B9
100
AcDbEntity
  8
0
100
AcDbBlockEnd
  0
BLOCK
  5
BD
330
BC
100
AcDbEntity
  8
0
100
AcDbBlockBegin
  2
SS12_BEG_05-NN12_END_05-0
 70
    0
 10
0
 20
0
  3
SS12_BEG_05-NN12_END_05-0
  1

  0
LWPOLYLINE
  5
162
100
AcDbEntity
  8
0
  6
ByLayer
 62
  256
370
   -1
100
AcDbPolyline
 90
   28
 70
    0
 43
0
 10
0
 20
0
 10
189
 20
0
 10
189
 20
-575
 10
-2189
 20
-575
 10
-2189
 20
810
 10
-2193
 20
810
 10
-2193
 20
3794
 10
-2197
 20
3794
 10
-2197
 20
6778
 10
-2201
 20
6778
 10
-2201
 20
9762
 10
-2205
 20
9762
 10
-2205
 20
12746
 10
-2209
 20
12746
 10
-2209
 20
15730
 10
-2213
 20
15730
 10
-2213
 20
18714
 10
-2217
 20
18714
 10
-2217
 20
21698
 10
-2221
 20
21698
 10
-2221
 20
24682
 10
-2225
 20
24682
 10
-2225
 20
27666
 10
-2229
 20
27666
 10
-2229
 20
30650
 10
-2233
 20
30650
 10
-2233
 20
33000
 10
-2000
 20
33000
  0
ENDBLK
  5
BE
330
BC
100
AcDbEntity
  8
0
100
AcDbBlockEnd
  0
BLOCK
  5
C0
330
BF
100
AcDbEntity
  8
0
100
AcDbBlockBegin
  2
SS12_BEG_06-NN12_END_06-0
 70
    0
 10
0
 20
0
  3
SS12_BEG_06-NN12_END_06-0
  1

  0
LWPOLYLINE
  5
163
100
AcDbEntity
  8
0
  6
ByLayer
 62
  256
370
   -1
100
AcDbPolyline
 90
   28
 70
    0
 43
0
 10
0
 20
0
 10
190
 20
0
 10
190
 20
-580
 10
-2190
 20
-580
 10
-2190
 20
802
 10
-2194
 20
802
 10
-2194
 20
3786
 10
-2198
 20
3786
 10
-2198
 20
6770
 10
-2202
 20
6770
 10
-2202
 20
9754
 10
-2206
 20
9754
 10
-2206
 20
12738
 10
-2210
 20
12738
 10
-2210
 20
15722
 10
-2214
 20
15722
 10
-2214
 20
18706
 10
-2218
 20
18706
 10
-2218
 20
21690
 10
-2222
 20
21690
 10
-2222
 20
24674
 10
-2226
 20
24674
 10
-2226
 20
27658
 10
-2230
 20
27658
 10
-2230
 20
30642
 10
-2234
 20
30642
 10
-2234
 20
33000
 10
-2000
 20
33000
  0
ENDBLK
  5
C1
330
BF
100
AcDbEntity
  8
0
100
AcDbBlockEnd
  0
BLOCK
  5
C3
330
C2
100
AcDbEntity
  8
0
100
AcDbBlockBegin
  2
SS12_BEG_07-NN12_END_07-0
 70
    0
 10
0
 20
0
  3
SS12_BEG_07-NN12_END_07-0
  1

  0
LWPOLYLINE
  5
164
100
AcDbEntity
  8
0
  6
ByLayer
 62
  256
370
   -1
100
AcDbPolyline
 90
   28
 70
    0
 43
0
 10
0
 20
0
 10
191
 20
0
 10
191
 20
-585
 10
-2191
 20
-585
 10
-2191
 20
794
 10
-2195
 20
794
 10
-2195
 20
3778
 10
-2199
 20
3778
 10
-2199
 20
6762
 10
-2203
 20
6762
 10
-2203
 20
9746
 10
-2207
 20
9746
 10
-2207
 20
12730
 10
-2211
 20
12730
 10
-2211
 20
15714
 10
-2215
 20
15714
 10
-2215
 20
18698
 10
-2219
 20
18698
 10
-2219
 20
21682
 10
-2223
 20
21682
 10
-2223
 20
24666
 10
-2227
 20
24666
 10
-2227
 20
27650
 10
-2231
 20
27650
 10
-2231
 20
30634
 10
-2235
 20
30634
 10
-2235
 20
33000
 10
-2000
 20
33000
  0
ENDBLK
  5
C4
330
C2
100
AcDbEntity
  8
0
100
AcDbBlockEnd
  0
BLOCK
  5
C6
330
C5
100
AcDbEntity
  8
0
100
AcDbBlockBegin
  2
NN1_BEG_00-SS1_END_00-0
 70
    0
 10
0
 20
0
  3
NN1_BEG_00-SS1_END_00-0
  1

  0
LWPOLYLINE
  5
165
100
AcDbEntity
  8
0
  6
ByLayer
 62
  256
370
   -1
100
AcDbPolyline
 90
    6
 70
    0
 43
0
 10
0
 20
0
 10
-100
 20
0
 10
-100
 20
322
 10
2100
 20
322
 10
2100
 20
0
 10
2000
 20
0
  0
ENDBLK
  5
C7
330
C5
100
AcDbEntity
  8
0
100
AcDbBlockEnd
  0
BLOCK
  5
C9
330
C8
100
AcDbEntity
  8
0
100
AcDbBlockBegin
  2
NN1_BEG_01-SS1_END_01-0
 70
    0
 10
0
 20
0
  3
NN1_BEG_01-SS1_END_01-0
  1

  0
LWPOLYLINE
  5
166
100
AcDbEntity
  8
0
  6
ByLayer
 62
  256
370
   -1
100
AcDbPolyline
 90
    6
 70
    0
 43
0
 10
0
 20
0
 10
-101
 20
0
 10
-101
 20
327
 10
2101
 20
327
 10
2101
 20
0
 10
2000
 20
0
  0
ENDBLK
  5
CA
330
C8
100
AcDbEntity
  8
0
100
AcDbBlockEnd
  0
BLOCK
  5
CC
330
CB
100
AcDbEntity
  8
0
100
AcDbBlockBegin
  2
NN1_BEG_02-SS1_END_02-0
 70
    0
 10
0
 20
0
  3
NN1_BEG_02-SS1_END_02-0
  1

  0
LWPOLYLINE
  5
167
100
AcDbEntity
  8
0
  6
ByLayer
 62
  256
370
   -1
100
AcDbPolyline
 90
    6
 70
    0
 43
0
 10
0
 20
0
 10
-102
 20
0
 10
-102
 20
332
 10
2102
 20
332
 10
2102
 20
0
 10
2000
 20
0
  0
ENDBLK
  5
CD
330
CB
100
AcDbEntity
  8
0
100
AcDbBlockEnd
  0
BLOCK
  5
CF
330
CE
100
AcDbEntity
  8
0
100
AcDbBlockBegin
  2
NN1_BEG_03-SS1_END_03-0
 70
    0
 10
0
 20
0
  3
NN1_BEG_03-SS1_END_03-0
  1

  0
LWPOLYLINE
  5
168
100
AcDbEntity
  8
0
  6
ByLayer
 62
  256
370
   -1
100
AcDbPolyline
 90
    6
 70
    0
 43
0
 10
0
 20
0
 10
-103
 20
0
 10
-103
 20
337
 10
2103
 20
337
 10
2103
 20
0
 10
2000
 20
0
  0
ENDBLK
  5
D0
330
CE
100
AcDbEntity
  8
0
100
AcDbBlockEnd
  0
BLOCK
  5
D2
330
D1
100
AcDbEntity
  8
0
100
AcDbBlockBegin
  2
NN1_BEG_04-SS1_END_04-0
 70
    0
 10
0
 20
0
  3
NN1_BEG_04-SS1_END_04-0
  1

  0
LWPOLYLINE
  5
169
100
AcDbEntity
  8
0
  6
ByLayer
 62
  256
370
   -1
100
AcDbPolyline
 90
    6
 70
    0
 43
0
 10
0
 20
0
 10
-104
 20
0
 10
-104
 20
342
 10
2104
 20
342
 10
2104
 20
0
 10
2000
 20
0
  0
ENDBLK
  5
D3
330
D1
100
AcDbEntity
  8
0
100
AcDbBlockEnd
  0
BLOCK
  5
D5
330
D4
100
AcDbEntity
  8
0
100
AcDbBlockBegin
  2
NN1_BEG_05-SS1_END_05-0
 70
    0
 10
0
 20
0
  3
NN1_BEG_05-SS1_END_05-0
  1

  0
LWPOLYLINE
  5
16A
100
AcDbEntity
  8
0
  6
ByLayer
 62
  256
370
   -1
100
AcDbPolyline
 90
    6
 70
    0
 43
0
 10
0
 20
0
 10
-105
 20
0
 10
-105
 20
347
 10
2105
 20
347
 10
2105
 20
0
 10
2000
 20
0
  0
ENDBLK
  5
D6
330
D4
100
AcDbEntity
  8
0
100
AcDbBlockEnd
  0
BLOCK
  5
D8
330
D7
100
AcDbEntity
  8
0
100
AcDbBlockBegin
  2
NN1_BEG_06-SS1_END_06-0
 70
    0
 10
0
 20
0
  3
NN1_BEG_06-SS1_END_06-0
  1

  0
LWPOLYLINE
  5
16B
100
AcDbEntity
  8
0
  6
ByLayer
 62
  256
370
   -1
100
AcDbPolyline
 90
    6
 70
    0
 43
0
 10
0
 20
0
 10
-106
 20
0
 10
-106
 20
352
 10
2106
 20
352
 10
2106
 20
0
 10
2000
 20
0
  0
ENDBLK
  5
D9
330
D7
100
AcDbEntity
  8
0
100
AcDbBlockEnd
  0
BLOCK
  5
DB
330
DA
100
AcDbEntity
  8
0
100
AcDbBlockBegin
  2
NN1_BEG_07-SS1_END_07-0
 70
    0
 10
0
 20
0
  3
NN1_BEG_07-SS1_END_07-0
  1

  0
LWPOLYLINE
  5
16C
100
AcDbEntity
  8
0
  6
ByLayer
 62
  256
370
   -1
100
AcDbPolyline
 90
    6
 70
    0
 43
0
 10
0
 20
0
 10
-107
 20
0
 10
-107
 20
357
 10
2107
 20
357
 10
2107
 20
0
 10
2000
 20
0
  0
ENDBLK
  5
DC
330
DA
100
AcDbEntity
  8
0
100
AcDbBlockEnd
  0
BLOCK
  5
DE
330
DD
100
AcDbEntity
  8
0
100
AcDbBlockBegin
  2
NN1_BEG_08-SS1_END_08-0
 70
    0
 10
0
 20
0
  3
NN1_BEG_08-SS1_END_08-0
  1

  0
LWPOLYLINE
  5
16D
100
AcDbEntity
  8
0
  6
ByLayer
 62
  256
370
   -1
100
AcDbPolyline
 90
    6
 70
    0
 43
0
 10
0
 20
0
 10
-108
 20
0
 10
-108
 20
362
 10
2108
 20
362
 10
2108
 20
0
 10
2000
 20
0
  0
ENDBLK
  5
DF
330
DD
100
AcDbEntity
  8
0
100
AcDbBlockEnd
  0
BLOCK
  5
E1
330
E0
100
AcDbEntity
  8
0
100
AcDbBlockBegin
  2
NN1_BEG_09-SS1_END_09-0
 70
    0
 10
0
 20
0
  3
NN1_BEG_09-SS1_END_09-0
  1

  0
LWPOLYLINE
  5
16E
100
AcDbEntity
  8
0
  6
ByLayer
 62
  256
370
   -1
100
AcDbPolyline
 90
    6
 70
    0
 43
0
 10
0
 20
0
 10
-109
 20
0
 10
-109
 20
367
 10
2109
 20
367
 10
2109
 20
0
 10
2000
 20
0
  0
ENDBLK
  5
E2
330
E0
100
AcDbEntity
  8
0
100
AcDbBlockEnd
  0
BLOCK
  5
E4
330
E3
100
AcDbEntity
  8
0
100
AcDbBlockBegin
  2
NN1_BEG_10-SS1_END_10-0
 70
    0
 10
0
 20
0
  3
NN1_BEG_10-SS1_END_10-0
  1

  0
LWPOLYLINE
  5
16F
100
AcDbEntity
  8
0
  6
ByLayer
 62
  256
370
   -1
100
AcDbPolyline
 90
    6
 70
    0
 43
0
 10
0
 20
0
 10
-110
 20
0
 10
-110
 20
372
 10
2110
 20
372
 10
2110
 20
0
 10
2000
 20
0
  0
ENDBLK
  5
E5
330
E3
100
AcDbEntity
  8
0
100
AcDbBlockEnd
  0
BLOCK
  5
E7
330
E6
100
AcDbEntity
  8
0
100
AcDbBlockBegin
  2
NN1_BEG_11-SS1_END_11-0
 70
    0
 10
0
 20
0
  3
NN1_BEG_11-SS1_END_11-0
  1

  0
LWPOLYLINE
  5
170
100
AcDbEntity
  8
0
  6
ByLayer
 62
  256
370
   -1
100
AcDbPolyline
 90
    6
 70
    0
 43
0
 10
0
 20
0
 10
-111
 20
0
 10
-111
 20
377
 10
2111
 20
377
 10
2111
 20
0
 10
2000
 20
0
  0
ENDBLK
  5
E8
330
E6
100
AcDbEntity
  8
0
100
AcDbBlockEnd
  0
BLOCK
  5
EA
330
E9
100
AcDbEntity
  8
0
100
AcDbBlockBegin
  2
NN1_BEG_12-SS1_END_12-0
 70
    0
 10
0
 20
0
  3
NN1_BEG_12-SS1_END_12-0
  1

  0
LWPOLYLINE
  5
171
100
AcDbEntity
  8
0
  6
ByLayer
 62
  256
370
   -1
100
AcDbPolyline
 90
    6
 70
    0
 43
0
 10
0
 20
0
 10
-112
 20
0
 10
-112
 20
382
 10
2112
 20
382
 10
2112
 20
0
 10
2000
 20
0
  0
ENDBLK
  5
EB
330
E9
100
AcDbEntity
  8
0
100
AcDbBlockEnd
  0
BLOCK
  5
ED
330
EC
100
AcDbEntity
  8
0
100
AcDbBlockBegin
  2
NN1_BEG_13-SS1_END_13-0
 70
    0
 10
0
 20
0
  3
NN1_BEG_13-SS1_END_13-0
  1

  0
LWPOLYLINE
  5
172
100
AcDbEntity
  8
0
  6
ByLayer
 62
  256
370
   -1
100
AcDbPolyline
 90
    6
 70
    0
 43
0
 10
0
 20
0
 10
-113
 20
0
 10
-113
 20
387
 10
2113
 20
387
 10
2113
 20
0
 10
2000
 20
0
  0
ENDBLK
  5
EE
330
EC
100
AcDbEntity
  8
0
100
AcDbBlockEnd
  0
BLOCK
  5
F0
330
EF
100
AcDbEntity
  8
0
100
AcDbBlockBegin
  2
NN1_BEG_14-SS1_END_14-0
 70
    0
 10
0
 20
0
  3
NN1_BEG_14-SS1_END_14-0
  1

  0
LWPOLYLINE
  5
173
100
AcDbEntity
  8
0
  6
ByLayer
 62
  256
370
   -1
100
AcDbPolyline
 90
    6
 70
    0
 43
0
 10
0
 20
0
 10
-114
 20
0
 10
-114
 20
392
 10
2114
 20
392
 10
2114
 20
0
 10
2000
 20
0
  0
ENDBLK
  5
F1
330
EF
100
AcDbEntity
  8
0
100
AcDbBlockEnd
  0
BLOCK
  5
F3
330
F2
100
AcDbEntity
  8
0
100
AcDbBlockBegin
  2
NN1_BEG_15-SS1_END_15-0
 70
    0
 10
0
 20
0
  3
NN1_BEG_15-SS1_END_15-0
  1

  0
LWPOLYLINE
  5
174
100
AcDbEntity
  8
0
  6
ByLayer
 62
  256
370
   -1
100
AcDbPolyline
 90
    6
 70
    0
 43
0
 10
0
 20
0
 10
-115
 20
0
 10
-115
 20
397
 10
2115
 20
397
 10
2115
 20
0
 10
2000
 20
0
  0
ENDBLK
  5
F4
330
F2
100
AcDbEntity
  8
0
100
AcDbBlockEnd
  0
BLOCK
  5
F6
330
F5
100
AcDbEntity
  8
0
100
AcDbBlockBegin
  2
NN2_BEG_00-SS2_END_00-0
 70
    0
 10
0
 20
0
  3
NN2_BEG_00-SS2_END_00-0
  1

  0
LWPOLYLINE
  5
175
100
AcDbEntity
  8
0
  6
ByLayer
 62
  256
370
   -1
100
AcDbPolyline
 90
    8
 70
    0
 43
0
 10
0
 20
0
 10
-116
 20
0
 10
-116
 20
406
 10
2116
 20
406
 10
2116
 20
-910
 10
2124
 20
-910
 10
2124
 20
-3000
 10
2000
 20
-3000
  0
ENDBLK
  5
F7
330
F5
100
AcDbEntity
  8
0
100
AcDbBlockEnd
  0
BLOCK
  5
F9
330
F8
100
AcDbEntity
  8
0
100
AcDbBlockBegin
  2
NN2_BEG_01-SS2_END_01-0
 70
    0
 10
0
 20
0
  3
NN2_BEG_01-SS2_END_01-0
  1

  0
LWPOLYLINE
  5
176
100
AcDbEntity
  8
0
  6
ByLayer
 62
  256
370
   -1
100
AcDbPolyline
 90
    8
 70
    0
 43
0
 10
0
 20
0
 10
-117
 20
0
 10
-117
 20
411
 10
2117
 20
411
 10
2117
 20
-902
 10
2125
 20
-902
 10
2125
 20
-3000
 10
2000
 20
-3000
  0
ENDBLK
  5
FA
330
F8
100
AcDbEntity
  8
0
100
AcDbBlockEnd
  0
BLOCK
  5
FC
330
FB
100
AcDbEntity
  8
0
100
AcDbBlockBegin
  2
NN2_BEG_02-SS2_END_02-0
 70
    0
 10
0
 20
0
  3
NN2_BEG_02-SS2_END_02-0
  1

  0
LWPOLYLINE
  5
177
100
AcDbEntity
  8
0
  6
ByLayer
 62
  256
370
   -1
100
AcDbPolyline
 90
    8
 70
    0
 43
0
 10
0
 20
0
 10
-118
 20
0
 10
-118
 20
416
 10
2118
 20
416
 10
2118
 20
-894
 10
2126
 20
-894
 10
2126
 20
-3000
 10
2000
 20
-3000
  0
ENDBLK
  5
FD
330
FB
100
AcDbEntity
  8
0
100
AcDbBlockEnd
  0
BLOCK
  5
FF
330
FE
100
AcDbEntity
  8
0
100
AcDbBlockBegin
  2
NN2_BEG_03-SS2_END_03-0
 70
    0
 10
0
 20
0
  3
NN2_BEG_03-SS2_END_03-0
  1

  0
LWPOLYLINE
  5
178
100
AcDbEntity
  8
0
  6
ByLayer
 62
  256
370
   -1
100
AcDbPolyline
 90
    8
 70
    0
 43
0
 10
0
 20
0
 10
-119
 20
0
 10
-119
 20
421
 10
2119
 20
421
 10
2119
 20
-886
 10
2127
 20
-886
 10
2127
 20
-3000
 10
2000
 20
-3000
  0
ENDBLK
  5
100
330
FE
100
AcDbEntity
  8
0
100
AcDbBlockEnd
  0
BLOCK
  5
102
330
101
100
AcDbEntity
  8
0
100
AcDbBlockBegin
  2
NN2_BEG_04-SS2_END_04-0
 70
    0
 10
0
 20
0
  3
NN2_BEG_04-SS2_END_04-0
  1

  0
LWPOLYLINE
  5
179
100
AcDbEntity
  8
0
  6
ByLayer
 62
  256
370
   -1
100
AcDbPolyline
 90
    8
 70
    0
 43
0
 10
0
 20
0
 10
-120
 20
0
 10
-120
 20
426
 10
2120
 20
426
 10
2120
 20
-878
 10
2128
 20
-878
 10
2128
 20
-3000
 10
2000
 20
-3000
  0
ENDBLK
  5
103
330
101
100
AcDbEntity
  8
0
100
AcDbBlockEnd
  0
BLOCK
  5
105
330
104
100
AcDbEntity
  8
0
100
AcDbBlockBegin
  2
NN2_BEG_05-SS2_END_05-0
 70
    0
 10
0
 20
0
  3
NN2_BEG_05-SS2_END_05-0
  1

  0
LWPOLYLINE
  5
17A
100
AcDbEntity
  8
0
  6
ByLayer
 62
  256
370
   -1
100
AcDbPolyline
 90
    8
 70
    0
 43
0
 10
0
 20
0
 10
-121
 20
0
 10
-121
 20
431
 10
2121
 20
431
 10
2121
 20
-870
 10
2129
 20
-870
 10
2129
 20
-3000
 10
2000
 20
-3000
  0
ENDBLK
  5
106
330
104
100
AcDbEntity
  8
0
100
AcDbBlockEnd
  0
BLOCK
  5
108
330
107
100
AcDbEntity
  8
0
100
AcDbBlockBegin
  2
NN2_BEG_06-SS2_END_06-0
 70
    0
 10
0
 20
0
  3
NN2_BEG_06-SS2_END_06-0
  1

  0
LWPOLYLINE
  5
17B
100
AcDbEntity
  8
0
  6
ByLayer
 62
  256
370
   -1
100
AcDbPolyline
 90
    8
 70
    0
 43
0
 10
0
 20
0
 10
-122
 20
0
 10
-122
 20
436
 10
2122
 20
436
 10
2122
 20
-862
 10
2130
 20
-862
 10
2130
 20
-3000
 10
2000
 20
-3000
  0
ENDBLK
  5
109
330
107
100
AcDbEntity
  8
0
100
AcDbBlockEnd
  0
BLOCK
  5
10B
330
10A
100
AcDbEntity
  8
0
100
AcDbBlockBegin
  2
NN2_BEG_07-SS2_END_07-0
 70
    0
 10
0
 20
0
  3
NN2_BEG_07-SS2_END_07-0
  1

  0
LWPOLYLINE
  5
17C
100
AcDbEntity
  8
0
  6
ByLayer
 62
  256
370
   -1
100
AcDbPolyline
 90
    8
 70
    0
 43
0
 10
0
 20
0
 10
-123
 20
0
 10
-123
 20
441
 10
2123
 20
441
 10
2123
 20
-854
 10
2131
 20
-854
 10
2131
 20
-3000
 10
2000
 20
-3000
  0
ENDBLK
  5
10C
330
10A
100
AcDbEntity
  8
0
100
AcDbBlockEnd
  0
BLOCK
  5
10E
330
10D
100
AcDbEntity
  8
0
100
AcDbBlockBegin
  2
NN4_BEG_00-SS4_END_00-0
 70
    0
 10
0
 20
0
  3
NN4_BEG_00-SS4_END_00-0
  1

  0
LWPOLYLINE
  5
17D
100
AcDbEntity
  8
0
  6
ByLayer
 62
  256
370
   -1
100
AcDbPolyline
 90
   12
 70
    0
 43
0
 10
0
 20
0
 10
-132
 20
0
 10
-132
 20
458
 10
2132
 20
458
 10
2132
 20
-874
 10
2140
 20
-874
 10
2140
 20
-3842
 10
2148
 20
-3842
 10
2148
 20
-6810
 10
2156
 20
-6810
 10
2156
 20
-9000
 10
2000
 20
-9000
  0
ENDBLK
  5
10F
330
10D
100
AcDbEntity
  8
0
100
AcDbBlockEnd
  0
BLOCK
  5
111
330
110
100
AcDbEntity
  8
0
100
AcDbBlockBegin
  2
NN4_BEG_01-SS4_END_01-0
 70
    0
 10
0
 20
0
  3
NN4_BEG_01-SS4_END_01-0
  1

  0
LWPOLYLINE
  5
17E
100
AcDbEntity
  8
0
  6
ByLayer
 62
  256
370
   -1
100
AcDbPolyline
 90
   12
 70
    0
 43
0
 10
0
 20
0
 10
-133
 20
0
 10
-133
 20
463
 10
2133
 20
463
 10
2133
 20
-866
 10
2141
 20
-866
 10
2141
 20
-3834
 10
2149
 20
-3834
 10
2149
 20
-6802
 10
2157
 20
-6802
 10
2157
 20
-9000
 10
2000
 20
-9000
  0
ENDBLK
  5
112
330
110
100
AcDbEntity
  8
0
100
AcDbBlockEnd
  0
BLOCK
  5
114
330
113
100
AcDbEntity
  8
0
100
AcDbBlockBegin
  2
NN4_BEG_02-SS4_END_02-0
 70
    0
 10
0
 20
0
  3
NN4_BEG_02-SS4_END_02-0
  1

  0
LWPOLYLINE
  5
17F
100
AcDbEntity
  8
0
  6
ByLayer
 62
  256
370
   -1
100
AcDbPolyline
 90
   12
 70
    0
 43
0
 10
0
 20
0
 10
-134
 20
0
 10
-134
 20
468
 10
2134
 20
468
 10
2134
 20
-858
 10
2142
 20
-858
 10
2142
 20
-3826
 10
2150
 20
-3826
 10
2150
 20
-6794
 10
2158
 20
-6794
 10
2158
 20
-9000
 10
2000
 20
-9000
  0
ENDBLK
  5
115
330
113
100
AcDbEntity
  8
0
100
AcDbBlockEnd
  0
BLOCK
  5
117
330
116
100
AcDbEntity
  8
0
100
AcDbBlockBegin
  2
NN4_BEG_03-SS4_END_03-0
 70
    0
 10
0
 20
0
  3
NN4_BEG_03-SS4_END_03-0
  1

  0
LWPOLYLINE
  5
180
100
AcDbEntity
  8
0
  6
ByLayer
 62
  256
370
   -1
100
AcDbPolyline
 90
   12
 70
    0
 43
0
 10
0
 20
0
 10
-135
 20
0
 10
-135
 20
473
 10
2135
 20
473
 10
2135
 20
-850
 10
2143
 20
-850
 10
2143
 20
-3818
 10
2151
 20
-3818
 10
2151
 20
-6786
 10
2159
 20
-6786
 10
2159
 20
-9000
 10
2000
 20
-9000
  0
ENDBLK
  5
118
330
116
100
AcDbEntity
  8
0
100
AcDbBlockEnd
  0
BLOCK
  5
11A
330
119
100
AcDbEntity
  8
0
100
AcDbBlockBegin
  2
NN4_BEG_04-SS4_END_04-0
 70
    0
 10
0
 20
0
  3
NN4_BEG_04-SS4_END_04-0
  1

  0
LWPOLYLINE
  5
181
100
AcDbEntity
  8
0
  6
ByLayer
 62
  256
370
   -1
100
AcDbPolyline
 90
   12
 70
    0
 43
0
 10
0
 20
0
 10
-136
 20
0
 10
-136
 20
478
 10
2136
 20
478
 10
2136
 20
-842
 10
2144
 20
-842
 10
2144
 20
-3810
 10
2152
 20
-3810
 10
2152
 20
-6778
 10
2160
 20
-6778
 10
2160
 20
-9000
 10
2000
 20
-9000
  0
ENDBLK
  5
11B
330
119
100
AcDbEntity
  8
0
100
AcDbBlockEnd
  0
BLOCK
  5
11D
330
11C
100
AcDbEntity
  8
0
100
AcDbBlockBegin
  2
NN4_BEG_05-SS4_END_05-0
 70
    0
 10
0
 20
0
  3
NN4_BEG_05-SS4_END_05-0
  1

  0
LWPOLYLINE
  5
182
100
AcDbEntity
  8
0
  6
ByLayer
 62
  256
370
   -1
100
AcDbPolyline
 90
   12
 70
    0
 43
0
 10
0
 20
0
 10
-137
 20
0
 10
-137
 20
483
 10
2137
 20
483
 10
2137
 20
-834
 10
2145
 20
-834
 10
2145
 20
-3802
 10
2153
 20
-3802
 10
2153
 20
-6770
 10
2161
 20
-6770
 10
2161
 20
-9000
 10
2000
 20
-9000
  0
ENDBLK
  5
11E
330
11C
100
AcDbEntity
  8
0
100
AcDbBlockEnd
  0
BLOCK
  5
120
330
11F
100
AcDbEntity
  8
0
100
AcDbBlockBegin
  2
NN4_BEG_06-SS4_END_06-0
 70
    0
 10
0
 20
0
  3
NN4_BEG_06-SS4_END_06-0
  1

  0
LWPOLYLINE
  5
183
100
AcDbEntity
  8
0
  6
ByLayer
 62
  256
370
   -1
100
AcDbPolyline
 90
   12
 70
    0
 43
0
 10
0
 20
0
 10
-138
 20
0
 10
-138
 20
488
 10
2138
 20
488
 10
2138
 20
-826
 10
2146
 20
-826
 10
2146
 20
-3794
 10
2154
 20
-3794
 10
2154
 20
-6762
 10
2162
 20
-6762
 10
2162
 20
-9000
 10
2000
 20
-9000
  0
ENDBLK
  5
121
330
11F
100
AcDbEntity
  8
0
100
AcDbBlockEnd
  0
BLOCK
  5
123
330
122
100
AcDbEntity
  8
0
100
AcDbBlockBegin
  2
NN4_BEG_07-SS4_END_07-0
 70
    0
 10
0
 20
0
  3
NN4_BEG_07-SS4_END_07-0
  1

  0
LWPOLYLINE
  5
184
100
AcDbEntity
  8
0
  6
ByLayer
 62
  256
370
   -1
100
AcDbPolyline
 90
   12
 70
    0
 43
0
 10
0
 20
0
 10
-139
 20
0
 10
-139
 20
493
 10
2139
 20
493
 10
2139
 20
-818
 10
2147
 20
-818
 10
2147
 20
-3786
 10
2155
 20
-3786
 10
2155
 20
-6754
 10
2163
 20
-6754
 10
2163
 20
-9000
 10
2000
 20
-9000
  0
ENDBLK
  5
124
330
122
100
AcDbEntity
  8
0
100
AcDbBlockEnd
  0
BLOCK
  5
126
330
125
100
AcDbEntity
  8
0
100
AcDbBlockBegin
  2
NN6_BEG_00-SS6_END_00-0
 70
    0
 10
0
 20
0
  3
NN6_BEG_00-SS6_END_00-0
  1

  0
LWPOLYLINE
  5
185
100
AcDbEntity
  8
0
  6
ByLayer
 62
  256
370
   -1
100
AcDbPolyline
 90
   16
 70
    0
 43
0
 10
0
 20
0
 10
-164
 20
0
 10
-164
 20
526
 10
2164
 20
526
 10
2164
 20
-838
 10
2168
 20
-838
 10
2168
 20
-3822
 10
2172
 20
-3822
 10
2172
 20
-6806
 10
2176
 20
-6806
 10
2176
 20
-9790
 10
2180
 20
-9790
 10
2180
 20
-12774
 10
2184
 20
-12774
 10
2184
 20
-15000
 10
2000
 20
-15000
  0
ENDBLK
  5
127
330
125
100
AcDbEntity
  8
0
100
AcDbBlockEnd
  0
BLOCK
  5
129
330
128
100
AcDbEntity
  8
0
100
AcDbBlockBegin
  2
NN6_BEG_01-SS6_END_01-0
 70
    0
 10
0
 20
0
  3
NN6_BEG_01-SS6_END_01-0
  1

  0
LWPOLYLINE
  5
186
100
AcDbEntity
  8
0
  6
ByLayer
 62
  256
370
   -1
100
AcDbPolyline
 90
   16
 70
    0
 43
0
 10
0
 20
0
 10
-165
 20
0
 10
-165
 20
531
 10
2165
 20
531
 10
2165
 20
-830
 10
2169
 20
-830
 10
2169
 20
-3814
 10
2173
 20
-3814
 10
2173
 20
-6798
 10
2177
 20
-6798
 10
2177
 20
-9782
 10
2181
 20
-9782
 10
2181
 20
-12766
 10
2185
 20
-12766
 10
2185
 20
-15000
 10
2000
 20
-15000
  0
ENDBLK
  5
12A
330
128
100
AcDbEntity
  8
0
100
AcDbBlockEnd
  0
BLOCK
  5
12C
330
12B
100
AcDbEntity
  8
0
100
AcDbBlockBegin
  2
NN6_BEG_02-SS6_END_02-0
 70
    0
 10
0
 20
0
  3
NN6_BEG_02-SS6_END_02-0
  1

  0
LWPOLYLINE
  5
187
100
AcDbEntity
  8
0
  6
ByLayer
 62
  256
370
   -1
100
AcDbPolyline
 90
   16
 70
    0
 43
0
 10
0
 20
0
 10
-166
 20
0
 10
-166
 20
536
 10
2166
 20
536
 10
2166
 20
-822
 10
2170
 20
-822
 10
2170
 20
-3806
 10
2174
 20
-3806
 10
2174
 20
-6790
 10
2178
 20
-6790
 10
2178
 20
-9774
 10
2182
 20
-9774
 10
2182
 20
-12758
 10
2186
 20
-12758
 10
2186
 20
-15000
 10
2000
 20
-15000
  0
ENDBLK
  5
12D
330
12B
100
AcDbEntity
  8
0
100
AcDbBlockEnd
  0
BLOCK
  5
12F
330
12E
100
AcDbEntity
  8
0
100
AcDbBlockBegin
  2
NN6_BEG_03-SS6_END_03-0
 70
    0
 10
0
 20
0
  3
NN6_BEG_03-SS6_END_03-0
  1

  0
LWPOLYLINE
  5
188
100
AcDbEntity
  8
0
  6
ByLayer
 62
  256
370
   -1
100
AcDbPolyline
 90
   16
 70
    0
 43
0
 10
0
 20
0
 10
-167
 20
0
 10
-167
 20
541
 10
2167
 20
541
 10
2167
 20
-814
 10
2171
 20
-814
 10
2171
 20
-3798
 10
2175
 20
-3798
 10
2175
 20
-6782
 10
2179
 20
-6782
 10
2179
 20
-9766
 10
2183
 20
-9766
 10
2183
 20
-12750
 10
2187
 20
-12750
 10
2187
 20
-15000
 10
2000
 20
-15000
  0
ENDBLK
  5
130
330
12E
100
AcDbEntity
  8
0
100
AcDbBlockEnd
  0
BLOCK
  5
132
330
131
100
AcDbEntity
  8
0
100
AcDbBlockBegin
  2
NN12_BEG_04-SS12_END_04-0
 70
    0
 10
0
 20
0
  3
NN12_BEG_04-SS12_END_04-0
  1

  0
LWPOLYLINE
  5
189
100
AcDbEntity
  8
0
  6
ByLayer
 62
  256
370
   -1
100
AcDbPolyline
 90
   28
 70
    0
 43
0
 10
0
 20
0
 10
-188
 20
0
 10
-188
 20
570
 10
2188
 20
570
 10
2188
 20
-818
 10
2192
 20
-818
 10
2192
 20
-3802
 10
2196
 20
-3802
 10
2196
 20
-6786
 10
2200
 20
-6786
 10
2200
 20
-9770
 10
2204
 20
-9770
 10
2204
 20
-12754
 10
2208
 20
-12754
 10
2208
 20
-15738
 10
2212
 20
-15738
 10
2212
 20
-18722
 10
2216
 20
-18722
 10
2216
 20
-21706
 10
2220
 20
-21706
 10
2220
 20
-24690
 10
2224
 20
-24690
 10
2224
 20
-27674
 10
2228
 20
-27674
 10
2228
 20
-30658
 10
2232
 20
-30658
 10
2232
 20
-33000
 10
2000
 20
-33000
  0
ENDBLK
  5
133
330
131
100
AcDbEntity
  8
0
100
AcDbBlockEnd
  0
BLOCK
  5
135
330
134
100
AcDbEntity
  8
0
100
AcDbBlockBegin
  2
NN12_BEG_05-SS12_END_05-0
 70
    0
 10
0
 20
0
  3
NN12_BEG_05-SS12_END_05-0
  1

  0
LWPOLYLINE
  5
18A
100
AcDbEntity
  8
0
  6
ByLayer
 62
  256
370
   -1
100
AcDbPolyline
 90
   28
 70
    0
 43
0
 10
0
 20
0
 10
-189
 20
0
 10
-189
 20
575
 10
2189
 20
575
 10
2189
 20
-810
 10
2193
 20
-810
 10
2193
 20
-3794
 10
2197
 20
-3794
 10
2197
 20
-6778
 10
2201
 20
-6778
 10
2201
 20
-9762
 10
2205
 20
-9762
 10
2205
 20
-12746
 10
2209
 20
-12746
 10
2209
 20
-15730
 10
2213
 20
-15730
 10
2213
 20
-18714
 10
2217
 20
-18714
 10
2217
 20
-21698
 10
2221
 20
-21698
 10
2221
 20
-24682
 10
2225
 20
-24682
 10
2225
 20
-27666
 10
2229
 20
-27666
 10
2229
 20
-30650
 10
2233
 20
-30650
 10
2233
 20
-33000
 10
2000
 20
-33000
  0
ENDBLK
  5
136
330
134
100
AcDbEntity
  8
0
100
AcDbBlockEnd
  0
BLOCK
  5
138
330
137
100
AcDbEntity
  8
0
100
AcDbBlockBegin
  2
NN12_BEG_06-SS12_END_06-0
 70
    0
 10
0
 20
0
  3
NN12_BEG_06-SS12_END_06-0
  1

  0
LWPOLYLINE
  5
18B
100
AcDbEntity
  8
0
  6
ByLayer
 62
  256
370
   -1
100
AcDbPolyline
 90
   28
 70
    0
 43
0
 10
0
 20
0
 10
-190
 20
0
 10
-190
 20
580
 10
2190
 20
580
 10
2190
 20
-802
 10
2194
 20
-802
 10
2194
 20
-3786
 10
2198
 20
-3786
 10
2198
 20
-6770
 10
2202
 20
-6770
 10
2202
 20
-9754
 10
2206
 20
-9754
 10
2206
 20
-12738
 10
2210
 20
-12738
 10
2210
 20
-15722
 10
2214
 20
-15722
 10
2214
 20
-18706
 10
2218
 20
-18706
 10
2218
 20
-21690
 10
2222
 20
-21690
 10
2222
 20
-24674
 10
2226
 20
-24674
 10
2226
 20
-27658
 10
2230
 20
-27658
 10
2230
 20
-30642
 10
2234
 20
-30642
 10
2234
 20
-33000
 10
2000
 20
-33000
  0
ENDBLK
  5
139
330
137
100
AcDbEntity
  8
0
100
AcDbBlockEnd
  0
BLOCK
  5
13B
330
13A
100
AcDbEntity
  8
0
100
AcDbBlockBegin
  2
NN12_BEG_07-SS12_END_07-0
 70
    0
 10
0
 20
0
  3
NN12_BEG_07-SS12_END_07-0
  1

  0
LWPOLYLINE
  5
18C
100
AcDbEntity
  8
0
  6
ByLayer
 62
  256
370
   -1
100
AcDbPolyline
 90
   28
 70
    0
 43
0
 10
0
 20
0
 10
-191
 20
0
 10
-191
 20
585
 10
2191
 20
585
 10
2191
 20
-794
 10
2195
 20
-794
 10
2195
 20
-3778
 10
2199
 20
-3778
 10
2199
 20
-6762
 10
2203
 20
-6762
 10
2203
 20
-9746
 10
2207
 20
-9746
 10
2207
 20
-12730
 10
2211
 20
-12730
 10
2211
 20
-15714
 10
2215
 20
-15714
 10
2215
 20
-18698
 10
2219
 20
-18698
 10
2219
 20
-21682
 10
2223
 20
-21682
 10
2223
 20
-24666
 10
2227
 20
-24666
 10
2227
 20
-27650
 10
2231
 20
-27650
 10
2231
 20
-30634
 10
2235
 20
-30634
 10
2235
 20
-33000
 10
2000
 20
-33000
  0
ENDBLK
  5
13C
330
13A
100
AcDbEntity
  8
0
100
AcDbBlockEnd
  0
ENDSEC
  0
SECTION
  2
ENTITIES
  0
INSERT
  5
18D
100
AcDbEntity
  8
0
  6
ByLayer
 62
  256
370
   -1
100
AcDbBlockReference
  2
SS1_BEG_00-NN1_END_00-0
 10
2000
 20
22
 30
0
 41
1
 42
1
 43
0
 50
0
 70
    1
 71
    1
 44
0
 45
0
  0
INSERT
  5
18E
100
AcDbEntity
  8
0
  6
ByLayer
 62
  256
370
   -1
100
AcDbBlockReference
  2
SS1_BEG_01-NN1_END_01-0
 10
2000
 20
26
 30
0
 41
1
 42
1
 43
0
 50
0
 70
    1
 71
    1
 44
0
 45
0
  0
INSERT
  5
18F
100
AcDbEntity
  8
0
  6
ByLayer
 62
  256
370
   -1
100
AcDbBlockReference
  2
SS1_BEG_02-NN1_END_02-0
 10
2000
 20
30
 30
0
 41
1
 42
1
 43
0
 50
0
 70
    1
 71
    1
 44
0
 45
0
  0
INSERT
  5
190
100
AcDbEntity
  8
0
  6
ByLayer
 62
  256
370
   -1
100
AcDbBlockReference
  2
SS1_BEG_03-NN1_END_03-0
 10
2000
 20
34
 30
0
 41
1
 42
1
 43
0
 50
0
 70
    1
 71
    1
 44
0
 45
0
  0
INSERT
  5
191
100
AcDbEntity
  8
0
  6
ByLayer
 62
  256
370
   -1
100
AcDbBlockReference
  2
SS1_BEG_04-NN1_END_04-0
 10
2000
 20
38
 30
0
 41
1
 42
1
 43
0
 50
0
 70
    1
 71
    1
 44
0
 45
0
  0
INSERT
  5
192
100
AcDbEntity
  8
0
  6
ByLayer
 62
  256
370
   -1
100
AcDbBlockReference
  2
SS1_BEG_05-NN1_END_05-0
 10
2000
 20
42
 30
0
 41
1
 42
1
 43
0
 50
0
 70
    1
 71
    1
 44
0
 45
0
  0
INSERT
  5
193
100
AcDbEntity
  8
0
  6
ByLayer
 62
  256
370
   -1
100
AcDbBlockReference
  2
SS1_BEG_06-NN1_END_06-0
 10
2000
 20
46
 30
0
 41
1
 42
1
 43
0
 50
0
 70
    1
 71
    1
 44
0
 45
0
  0
INSERT
  5
194
100
AcDbEntity
  8
0
  6
ByLayer
 62
  256
370
   -1
100
AcDbBlockReference
  2
SS1_BEG_07-NN1_END_07-0
 10
2000
 20
50
 30
0
 41
1
 42
1
 43
0
 50
0
 70
    1
 71
    1
 44
0
 45
0
  0
INSERT
  5
195
100
AcDbEntity
  8
0
  6
ByLayer
 62
  256
370
   -1
100
AcDbBlockReference
  2
SS1_BEG_08-NN1_END_08-0
 10
2000
 20
54
 30
0
 41
1
 42
1
 43
0
 50
0
 70
    1
 71
    1
 44
0
 45
0
  0
INSERT
  5
196
100
AcDbEntity
  8
0
  6
ByLayer
 62
  256
370
   -1
100
AcDbBlockReference
  2
SS1_BEG_09-NN1_END_09-0
 10
2000
 20
58
 30
0
 41
1
 42
1
 43
0
 50
0
 70
    1
 71
    1
 44
0
 45
0
  0
INSERT
  5
197
100
AcDbEntity
  8
0
  6
ByLayer
 62
  256
370
   -1
100
AcDbBlockReference
  2
SS1_BEG_10-NN1_END_10-0
 10
2000
 20
62
 30
0
 41
1
 42
1
 43
0
 50
0
 70
    1
 71
    1
 44
0
 45
0
  0
INSERT
  5
198
100
AcDbEntity
  8
0
  6
ByLayer
 62
  256
370
   -1
100
AcDbBlockReference
  2
SS1_BEG_11-NN1_END_11-0
 10
2000
 20
66
 30
0
 41
1
 42
1
 43
0
 50
0
 70
    1
 71
    1
 44
0
 45
0
  0
INSERT
  5
199
100
AcDbEntity
  8
0
  6
ByLayer
 62
  256
370
   -1
100
AcDbBlockReference
  2
SS1_BEG_12-NN1_END_12-0
 10
2000
 20
70
 30
0
 41
1
 42
1
 43
0
 50
0
 70
    1
 71
    1
 44
0
 45
0
  0
INSERT
  5
19A
100
AcDbEntity
  8
0
  6
ByLayer
 62
  256
370
   -1
100
AcDbBlockReference
  2
SS1_BEG_13-NN1_END_13-0
 10
2000
 20
74
 30
0
 41
1
 42
1
 43
0
 50
0
 70
    1
 71
    1
 44
0
 45
0
  0
INSERT
  5
19B
100
AcDbEntity
  8
0
  6
ByLayer
 62
  256
370
   -1
100
AcDbBlockReference
  2
SS1_BEG_14-NN1_END_14-0
 10
2000
 20
78
 30
0
 41
1
 42
1
 43
0
 50
0
 70
    1
 71
    1
 44
0
 45
0
  0
INSERT
  5
19C
100
AcDbEntity
  8
0
  6
ByLayer
 62
  256
370
   -1
100
AcDbBlockReference
  2
SS1_BEG_15-NN1_END_15-0
 10
2000
 20
82
 30
0
 41
1
 42
1
 43
0
 50
0
 70
    1
 71
    1
 44
0
 45
0
  0
INSERT
  5
19D
100
AcDbEntity
  8
0
  6
ByLayer
 62
  256
370
   -1
100
AcDbBlockReference
  2
SS2_BEG_00-NN2_END_00-0
 10
2000
 20
90
 30
0
 41
1
 42
1
 43
0
 50
0
 70
    1
 71
    1
 44
0
 45
0
  0
INSERT
  5
19E
100
AcDbEntity
  8
0
  6
ByLayer
 62
  256
370
   -1
100
AcDbBlockReference
  2
SS2_BEG_01-NN2_END_01-0
 10
2000
 20
94
 30
0
 41
1
 42
1
 43
0
 50
0
 70
    1
 71
    1
 44
0
 45
0
  0
INSERT
  5
19F
100
AcDbEntity
  8
0
  6
ByLayer
 62
  256
370
   -1
100
AcDbBlockReference
  2
SS2_BEG_02-NN2_END_02-0
 10
2000
 20
98
 30
0
 41
1
 42
1
 43
0
 50
0
 70
    1
 71
    1
 44
0
 45
0
  0
INSERT
  5
1A0
100
AcDbEntity
  8
0
  6
ByLayer
 62
  256
370
   -1
100
AcDbBlockReference
  2
SS2_BEG_03-NN2_END_03-0
 10
2000
 20
102
 30
0
 41
1
 42
1
 43
0
 50
0
 70
    1
 71
    1
 44
0
 45
0
  0
INSERT
  5
1A1
100
AcDbEntity
  8
0
  6
ByLayer
 62
  256
370
   -1
100
AcDbBlockReference
  2
SS2_BEG_04-NN2_END_04-0
 10
2000
 20
106
 30
0
 41
1
 42
1
 43
0
 50
0
 70
    1
 71
    1
 44
0
 45
0
  0
INSERT
  5
1A2
100
AcDbEntity
  8
0
  6
ByLayer
 62
  256
370
   -1
100
AcDbBlockReference
  2
SS2_BEG_05-NN2_END_05-0
 10
2000
 20
110
 30
0
 41
1
 42
1
 43
0
 50
0
 70
    1
 71
    1
 44
0
 45
0
  0
INSERT
  5
1A3
100
AcDbEntity
  8
0
  6
ByLayer
 62
  256
370
   -1
100
AcDbBlockReference
  2
SS2_BEG_06-NN2_END_06-0
 10
2000
 20
114
 30
0
 41
1
 42
1
 43
0
 50
0
 70
    1
 71
    1
 44
0
 45
0
  0
INSERT
  5
1A4
100
AcDbEntity
  8
0
  6
ByLayer
 62
  256
370
   -1
100
AcDbBlockReference
  2
SS2_BEG_07-NN2_END_07-0
 10
2000
 20
118
 30
0
 41
1
 42
1
 43
0
 50
0
 70
    1
 71
    1
 44
0
 45
0
  0
INSERT
  5
1A5
100
AcDbEntity
  8
0
  6
ByLayer
 62
  256
370
   -1
100
AcDbBlockReference
  2
SS4_BEG_00-NN4_END_00-0
 10
2000
 20
126
 30
0
 41
1
 42
1
 43
0
 50
0
 70
    1
 71
    1
 44
0
 45
0
  0
INSERT
  5
1A6
100
AcDbEntity
  8
0
  6
ByLayer
 62
  256
370
   -1
100
AcDbBlockReference
  2
SS4_BEG_01-NN4_END_01-0
 10
2000
 20
130
 30
0
 41
1
 42
1
 43
0
 50
0
 70
    1
 71
    1
 44
0
 45
0
  0
INSERT
  5
1A7
100
AcDbEntity
  8
0
  6
ByLayer
 62
  256
370
   -1
100
AcDbBlockReference
  2
SS4_BEG_02-NN4_END_02-0
 10
2000
 20
134
 30
0
 41
1
 42
1
 43
0
 50
0
 70
    1
 71
    1
 44
0
 45
0
  0
INSERT
  5
1A8
100
AcDbEntity
  8
0
  6
ByLayer
 62
  256
370
   -1
100
AcDbBlockReference
  2
SS4_BEG_03-NN4_END_03-0
 10
2000
 20
138
 30
0
 41
1
 42
1
 43
0
 50
0
 70
    1
 71
    1
 44
0
 45
0
  0
INSERT
  5
1A9
100
AcDbEntity
  8
0
  6
ByLayer
 62
  256
370
   -1
100
AcDbBlockReference
  2
SS4_BEG_04-NN4_END_04-0
 10
2000
 20
142
 30
0
 41
1
 42
1
 43
0
 50
0
 70
    1
 71
    1
 44
0
 45
0
  0
INSERT
  5
1AA
100
AcDbEntity
  8
0
  6
ByLayer
 62
  256
370
   -1
100
AcDbBlockReference
  2
SS4_BEG_05-NN4_END_05-0
 10
2000
 20
146
 30
0
 41
1
 42
1
 43
0
 50
0
 70
    1
 71
    1
 44
0
 45
0
  0
INSERT
  5
1AB
100
AcDbEntity
  8
0
  6
ByLayer
 62
  256
370
   -1
100
AcDbBlockReference
  2
SS4_BEG_06-NN4_END_06-0
 10
2000
 20
150
 30
0
 41
1
 42
1
 43
0
 50
0
 70
    1
 71
    1
 44
0
 45
0
  0
INSERT
  5
1AC
100
AcDbEntity
  8
0
  6
ByLayer
 62
  256
370
   -1
100
AcDbBlockReference
  2
SS4_BEG_07-NN4_END_07-0
 10
2000
 20
154
 30
0
 41
1
 42
1
 43
0
 50
0
 70
    1
 71
    1
 44
0
 45
0
  0
INSERT
  5
1AD
100
AcDbEntity
  8
0
  6
ByLayer
 62
  256
370
   -1
100
AcDbBlockReference
  2
SS6_BEG_00-NN6_END_00-0
 10
2000
 20
162
 30
0
 41
1
 42
1
 43
0
 50
0
 70
    1
 71
    1
 44
0
 45
0
  0
INSERT
  5
1AE
100
AcDbEntity
  8
0
  6
ByLayer
 62
  256
370
   -1
100
AcDbBlockReference
  2
SS6_BEG_01-NN6_END_01-0
 10
2000
 20
166
 30
0
 41
1
 42
1
 43
0
 50
0
 70
    1
 71
    1
 44
0
 45
0
  0
INSERT
  5
1AF
100
AcDbEntity
  8
0
  6
ByLayer
 62
  256
370
   -1
100
AcDbBlockReference
  2
SS6_BEG_02-NN6_END_02-0
 10
2000
 20
170
 30
0
 41
1
 42
1
 43
0
 50
0
 70
    1
 71
    1
 44
0
 45
0
  0
INSERT
  5
1B0
100
AcDbEntity
  8
0
  6
ByLayer
 62
  256
370
   -1
100
AcDbBlockReference
  2
SS6_BEG_03-NN6_END_03-0
 10
2000
 20
174
 30
0
 41
1
 42
1
 43
0
 50
0
 70
    1
 71
    1
 44
0
 45
0
  0
INSERT
  5
1B1
100
AcDbEntity
  8
0
  6
ByLayer
 62
  256
370
   -1
100
AcDbBlockReference
  2
SS12_BEG_04-NN12_END_04-0
 10
2000
 20
182
 30
0
 41
1
 42
1
 43
0
 50
0
 70
    1
 71
    1
 44
0
 45
0
  0
INSERT
  5
1B2
100
AcDbEntity
  8
0
  6
ByLayer
 62
  256
370
   -1
100
AcDbBlockReference
  2
SS12_BEG_05-NN12_END_05-0
 10
2000
 20
186
 30
0
 41
1
 42
1
 43
0
 50
0
 70
    1
 71
    1
 44
0
 45
0
  0
INSERT
  5
1B3
100
AcDbEntity
  8
0
  6
ByLayer
 62
  256
370
   -1
100
AcDbBlockReference
  2
SS12_BEG_06-NN12_END_06-0
 10
2000
 20
190
 30
0
 41
1
 42
1
 43
0
 50
0
 70
    1
 71
    1
 44
0
 45
0
  0
INSERT
  5
1B4
100
AcDbEntity
  8
0
  6
ByLayer
 62
  256
370
   -1
100
AcDbBlockReference
  2
SS12_BEG_07-NN12_END_07-0
 10
2000
 20
194
 30
0
 41
1
 42
1
 43
0
 50
0
 70
    1
 71
    1
 44
0
 45
0
  0
INSERT
  5
1B5
100
AcDbEntity
  8
0
  6
ByLayer
 62
  256
370
   -1
100
AcDbBlockReference
  2
NN1_BEG_00-SS1_END_00-0
 10
0
 20
1978
 30
0
 41
1
 42
1
 43
0
 50
0
 70
    1
 71
    1
 44
0
 45
0
  0
INSERT
  5
1B6
100
AcDbEntity
  8
0
  6
ByLayer
 62
  256
370
   -1
100
AcDbBlockReference
  2
NN1_BEG_01-SS1_END_01-0
 10
0
 20
1974
 30
0
 41
1
 42
1
 43
0
 50
0
 70
    1
 71
    1
 44
0
 45
0
  0
INSERT
  5
1B7
100
AcDbEntity
  8
0
  6
ByLayer
 62
  256
370
   -1
100
AcDbBlockReference
  2
NN1_BEG_02-SS1_END_02-0
 10
0
 20
1970
 30
0
 41
1
 42
1
 43
0
 50
0
 70
    1
 71
    1
 44
0
 45
0
  0
INSERT
  5
1B8
100
AcDbEntity
  8
0
  6
ByLayer
 62
  256
370
   -1
100
AcDbBlockReference
  2
NN1_BEG_03-SS1_END_03-0
 10
0
 20
1966
 30
0
 41
1
 42
1
 43
0
 50
0
 70
    1
 71
    1
 44
0
 45
0
  0
INSERT
  5
1B9
100
AcDbEntity
  8
0
  6
ByLayer
 62
  256
370
   -1
100
AcDbBlockReference
  2
NN1_BEG_04-SS1_END_04-0
 10
0
 20
1962
 30
0
 41
1
 42
1
 43
0
 50
0
 70
    1
 71
    1
 44
0
 45
0
  0
INSERT
  5
1BA
100
AcDbEntity
  8
0
  6
ByLayer
 62
  256
370
   -1
100
AcDbBlockReference
  2
NN1_BEG_05-SS1_END_05-0
 10
0
 20
1958
 30
0
 41
1
 42
1
 43
0
 50
0
 70
    1
 71
    1
 44
0
 45
0
  0
INSERT
  5
1BB
100
AcDbEntity
  8
0
  6
ByLayer
 62
  256
370
   -1
100
AcDbBlockReference
  2
NN1_BEG_06-SS1_END_06-0
 10
0
 20
1954
 30
0
 41
1
 42
1
 43
0
 50
0
 70
    1
 71
    1
 44
0
 45
0
  0
INSERT
  5
1BC
100
AcDbEntity
  8
0
  6
ByLayer
 62
  256
370
   -1
100
AcDbBlockReference
  2
NN1_BEG_07-SS1_END_07-0
 10
0
 20
1950
 30
0
 41
1
 42
1
 43
0
 50
0
 70
    1
 71
    1
 44
0
 45
0
  0
INSERT
  5
1BD
100
AcDbEntity
  8
0
  6
ByLayer
 62
  256
370
   -1
100
AcDbBlockReference
  2
NN1_BEG_08-SS1_END_08-0
 10
0
 20
1946
 30
0
 41
1
 42
1
 43
0
 50
0
 70
    1
 71
    1
 44
0
 45
0
  0
INSERT
  5
1BE
100
AcDbEntity
  8
0
  6
ByLayer
 62
  256
370
   -1
100
AcDbBlockReference
  2
NN1_BEG_09-SS1_END_09-0
 10
0
 20
1942
 30
0
 41
1
 42
1
 43
0
 50
0
 70
    1
 71
    1
 44
0
 45
0
  0
INSERT
  5
1BF
100
AcDbEntity
  8
0
  6
ByLayer
 62
  256
370
   -1
100
AcDbBlockReference
  2
NN1_BEG_10-SS1_END_10-0
 10
0
 20
1938
 30
0
 41
1
 42
1
 43
0
 50
0
 70
    1
 71
    1
 44
0
 45
0
  0
INSERT
  5
1C0
100
AcDbEntity
  8
0
  6
ByLayer
 62
  256
370
   -1
100
AcDbBlockReference
  2
NN1_BEG_11-SS1_END_11-0
 10
0
 20
1934
 30
0
 41
1
 42
1
 43
0
 50
0
 70
    1
 71
    1
 44
0
 45
0
  0
INSERT
  5
1C1
100
AcDbEntity
  8
0
  6
ByLayer
 62
  256
370
   -1
100
AcDbBlockReference
  2
NN1_BEG_12-SS1_END_12-0
 10
0
 20
1930
 30
0
 41
1
 42
1
 43
0
 50
0
 70
    1
 71
    1
 44
0
 45
0
  0
INSERT
  5
1C2
100
AcDbEntity
  8
0
  6
ByLayer
 62
  256
370
   -1
100
AcDbBlockReference
  2
NN1_BEG_13-SS1_END_13-0
 10
0
 20
1926
 30
0
 41
1
 42
1
 43
0
 50
0
 70
    1
 71
    1
 44
0
 45
0
  0
INSERT
  5
1C3
100
AcDbEntity
  8
0
  6
ByLayer
 62
  256
370
   -1
100
AcDbBlockReference
  2
NN1_BEG_14-SS1_END_14-0
 10
0
 20
1922
 30
0
 41
1
 42
1
 43
0
 50
0
 70
    1
 71
    1
 44
0
 45
0
  0
INSERT
  5
1C4
100
AcDbEntity
  8
0
  6
ByLayer
 62
  256
370
   -1
100
AcDbBlockReference
  2
NN1_BEG_15-SS1_END_15-0
 10
0
 20
1918
 30
0
 41
1
 42
1
 43
0
 50
0
 70
    1
 71
    1
 44
0
 45
0
  0
INSERT
  5
1C5
100
AcDbEntity
  8
0
  6
ByLayer
 62
  256
370
   -1
100
AcDbBlockReference
  2
NN2_BEG_00-SS2_END_00-0
 10
0
 20
1910
 30
0
 41
1
 42
1
 43
0
 50
0
 70
    1
 71
    1
 44
0
 45
0
  0
INSERT
  5
1C6
100
AcDbEntity
  8
0
  6
ByLayer
 62
  256
370
   -1
100
AcDbBlockReference
  2
NN2_BEG_01-SS2_END_01-0
 10
0
 20
1906
 30
0
 41
1
 42
1
 43
0
 50
0
 70
    1
 71
    1
 44
0
 45
0
  0
INSERT
  5
1C7
100
AcDbEntity
  8
0
  6
ByLayer
 62
  256
370
   -1
100
AcDbBlockReference
  2
NN2_BEG_02-SS2_END_02-0
 10
0
 20
1902
 30
0
 41
1
 42
1
 43
0
 50
0
 70
    1
 71
    1
 44
0
 45
0
  0
INSERT
  5
1C8
100
AcDbEntity
  8
0
  6
ByLayer
 62
  256
370
   -1
100
AcDbBlockReference
  2
NN2_BEG_03-SS2_END_03-0
 10
0
 20
1898
 30
0
 41
1
 42
1
 43
0
 50
0
 70
    1
 71
    1
 44
0
 45
0
  0
INSERT
  5
1C9
100
AcDbEntity
  8
0
  6
ByLayer
 62
  256
370
   -1
100
AcDbBlockReference
  2
NN2_BEG_04-SS2_END_04-0
 10
0
 20
1894
 30
0
 41
1
 42
1
 43
0
 50
0
 70
    1
 71
    1
 44
0
 45
0
  0
INSERT
  5
1CA
100
AcDbEntity
  8
0
  6
ByLayer
 62
  256
370
   -1
100
AcDbBlockReference
  2
NN2_BEG_05-SS2_END_05-0
 10
0
 20
1890
 30
0
 41
1
 42
1
 43
0
 50
0
 70
    1
 71
    1
 44
0
 45
0
  0
INSERT
  5
1CB
100
AcDbEntity
  8
0
  6
ByLayer
 62
  256
370
   -1
100
AcDbBlockReference
  2
NN2_BEG_06-SS2_END_06-0
 10
0
 20
1886
 30
0
 41
1
 42
1
 43
0
 50
0
 70
    1
 71
    1
 44
0
 45
0
  0
INSERT
  5
1CC
100
AcDbEntity
  8
0
  6
ByLayer
 62
  256
370
   -1
100
AcDbBlockReference
  2
NN2_BEG_07-SS2_END_07-0
 10
0
 20
1882
 30
0
 41
1
 42
1
 43
0
 50
0
 70
    1
 71
    1
 44
0
 45
0
  0
INSERT
  5
1CD
100
AcDbEntity
  8
0
  6
ByLayer
 62
  256
370
   -1
100
AcDbBlockReference
  2
NN4_BEG_00-SS4_END_00-0
 10
0
 20
1874
 30
0
 41
1
 42
1
 43
0
 50
0
 70
    1
 71
    1
 44
0
 45
0
  0
INSERT
  5
1CE
100
AcDbEntity
  8
0
  6
ByLayer
 62
  256
370
   -1
100
AcDbBlockReference
  2
NN4_BEG_01-SS4_END_01-0
 10
0
 20
1870
 30
0
 41
1
 42
1
 43
0
 50
0
 70
    1
 71
    1
 44
0
 45
0
  0
INSERT
  5
1CF
100
AcDbEntity
  8
0
  6
ByLayer
 62
  256
370
   -1
100
AcDbBlockReference
  2
NN4_BEG_02-SS4_END_02-0
 10
0
 20
1866
 30
0
 41
1
 42
1
 43
0
 50
0
 70
    1
 71
    1
 44
0
 45
0
  0
INSERT
  5
1D0
100
AcDbEntity
  8
0
  6
ByLayer
 62
  256
370
   -1
100
AcDbBlockReference
  2
NN4_BEG_03-SS4_END_03-0
 10
0
 20
1862
 30
0
 41
1
 42
1
 43
0
 50
0
 70
    1
 71
    1
 44
0
 45
0
  0
INSERT
  5
1D1
100
AcDbEntity
  8
0
  6
ByLayer
 62
  256
370
   -1
100
AcDbBlockReference
  2
NN4_BEG_04-SS4_END_04-0
 10
0
 20
1858
 30
0
 41
1
 42
1
 43
0
 50
0
 70
    1
 71
    1
 44
0
 45
0
  0
INSERT
  5
1D2
100
AcDbEntity
  8
0
  6
ByLayer
 62
  256
370
   -1
100
AcDbBlockReference
  2
NN4_BEG_05-SS4_END_05-0
 10
0
 20
1854
 30
0
 41
1
 42
1
 43
0
 50
0
 70
    1
 71
    1
 44
0
 45
0
  0
INSERT
  5
1D3
100
AcDbEntity
  8
0
  6
ByLayer
 62
  256
370
   -1
100
AcDbBlockReference
  2
NN4_BEG_06-SS4_END_06-0
 10
0
 20
1850
 30
0
 41
1
 42
1
 43
0
 50
0
 70
    1
 71
    1
 44
0
 45
0
  0
INSERT
  5
1D4
100
AcDbEntity
  8
0
  6
ByLayer
 62
  256
370
   -1
100
AcDbBlockReference
  2
NN4_BEG_07-SS4_END_07-0
 10
0
 20
1846
 30
0
 41
1
 42
1
 43
0
 50
0
 70
    1
 71
    1
 44
0
 45
0
  0
INSERT
  5
1D5
100
AcDbEntity
  8
0
  6
ByLayer
 62
  256
370
   -1
100
AcDbBlockReference
  2
NN6_BEG_00-SS6_END_00-0
 10
0
 20
1838
 30
0
 41
1
 42
1
 43
0
 50
0
 70
    1
 71
    1
 44
0
 45
0
  0
INSERT
  5
1D6
100
AcDbEntity
  8
0
  6
ByLayer
 62
  256
370
   -1
100
AcDbBlockReference
  2
NN6_BEG_01-SS6_END_01-0
 10
0
 20
1834
 30
0
 41
1
 42
1
 43
0
 50
0
 70
    1
 71
    1
 44
0
 45
0
  0
INSERT
  5
1D7
100
AcDbEntity
  8
0
  6
ByLayer
 62
  256
370
   -1
100
AcDbBlockReference
  2
NN6_BEG_02-SS6_END_02-0
 10
0
 20
1830
 30
0
 41
1
 42
1
 43
0
 50
0
 70
    1
 71
    1
 44
0
 45
0
  0
INSERT
  5
1D8
100
AcDbEntity
  8
0
  6
ByLayer
 62
  256
370
   -1
100
AcDbBlockReference
  2
NN6_BEG_03-SS6_END_03-0
 10
0
 20
1826
 30
0
 41
1
 42
1
 43
0
 50
0
 70
    1
 71
    1
 44
0
 45
0
  0
INSERT
  5
1D9
100
AcDbEntity
  8
0
  6
ByLayer
 62
  256
370
   -1
100
AcDbBlockReference
  2
NN12_BEG_04-SS12_END_04-0
 10
0
 20
1818
 30
0
 41
1
 42
1
 43
0
 50
0
 70
    1
 71
    1
 44
0
 45
0
  0
INSERT
  5
1DA
100
AcDbEntity
  8
0
  6
ByLayer
 62
  256
370
   -1
100
AcDbBlockReference
  2
NN12_BEG_05-SS12_END_05-0
 10
0
 20
1814
 30
0
 41
1
 42
1
 43
0
 50
0
 70
    1
 71
    1
 44
0
 45
0
  0
INSERT
  5
1DB
100
AcDbEntity
  8
0
  6
ByLayer
 62
  256
370
   -1
100
AcDbBlockReference
  2
NN12_BEG_06-SS12_END_06-0
 10
0
 20
1810
 30
0
 41
1
 42
1
 43
0
 50
0
 70
    1
 71
    1
 44
0
 45
0
  0
INSERT
  5
1DC
100
AcDbEntity
  8
0
  6
ByLayer
 62
  256
370
   -1
100
AcDbBlockReference
  2
NN12_BEG_07-SS12_END_07-0
 10
0
 20
1806
 30
0
 41
1
 42
1
 43
0
 50
0
 70
    1
 71
    1
 44
0
 45
0
  0
ENDSEC
  0
SECTION
  2
OBJECTS
  0
DICTIONARY
  5
C
330
0
100
AcDbDictionary
281
    1
  3
ACAD_GROUP
350
D
  0
DICTIONARY
  5
D
330
C
100
AcDbDictionary
281
    1
  0
PLOTSETTINGS
  5
1DD
100
AcDbPlotSettings
  6
1x1
 40
0
 41
0
 42
0
 43
0
  0
ENDSEC
  0
EOF
